<svg xmlns="http://www.w3.org/2000/svg" viewBox="0 0 1000 800" preserveAspectRatio="xMidYMid meet" role="img" aria-label="bonsai-cc tree"><defs><linearGradient id="bcc-sky" x1="0" y1="0" x2="0" y2="1"><stop offset="0%" stop-color="#F4F3EE" /><stop offset="100%" stop-color="#E8E5DC" /></linearGradient><linearGradient id="bcc-ground" x1="0" y1="0" x2="0" y2="1"><stop offset="0%" stop-color="#E8E5DC" /><stop offset="100%" stop-color="#B1ADA1" /></linearGradient><linearGradient id="bcc-pot" x1="0" y1="0" x2="0" y2="1"><stop offset="0%" stop-color="#8E3D24" /><stop offset="100%" stop-color="#3D3328" /></linearGradient><linearGradient id="sky" x1="0" y1="0" x2="0" y2="1"><stop offset="0%" stop-color="#F4F3EE" /><stop offset="100%" stop-color="#E8E5DC" /></linearGradient><linearGradient id="ground" x1="0" y1="0" x2="0" y2="1"><stop offset="0%" stop-color="#E8E5DC" /><stop offset="100%" stop-color="#B1ADA1" /></linearGradient><radialGradient id="sun" cx="0.5" cy="0.5" r="0.5"><stop offset="0%" stop-color="#C15F3C" stop-opacity="0.55" /><stop offset="70%" stop-color="#C15F3C" stop-opacity="0.20" /><stop offset="100%" stop-color="#C15F3C" stop-opacity="0" /></radialGradient><radialGradient id="moon" cx="0.45" cy="0.45" r="0.55"><stop offset="0%" stop-color="#F4F3EE" stop-opacity="0.85" /><stop offset="100%" stop-color="#F4F3EE" stop-opacity="0.35" /></radialGradient><radialGradient id="pot-shadow" cx="0.5" cy="0.5" r="0.5"><stop offset="0%" stop-color="#191919" stop-opacity="0.18" /><stop offset="100%" stop-color="#191919" stop-opacity="0" /></radialGradient></defs><rect x="0" y="0" width="1000" height="600" fill="url(#bcc-sky)" /><circle cx="780" cy="180" r="80" fill="url(#sun)" /><circle cx="780" cy="180" r="28" fill="#C15F3C" fill-opacity="0.55" /><rect x="0" y="600" width="1000" height="200" fill="url(#bcc-ground)" /><ellipse cx="500" cy="728" rx="190" ry="22" fill="url(#pot-shadow)" /><path d="M340,600 Q336,608 344,618 L370,700 Q376,710 384,710 L616,710 Q624,710 630,700 L656,618 Q664,608 660,600 Z" fill="url(#bcc-pot)" /><path d="M350,622 Q500,626 650,622" stroke="#3D3328" stroke-width="1.5" fill="none" stroke-linecap="round" opacity="0.55" /><ellipse cx="500" cy="602" rx="152" ry="8" fill="#3D3328" /><circle cx="430" cy="601" r="4" fill="#B1ADA1" opacity="0.7" /><circle cx="530" cy="603" r="3" fill="#B1ADA1" opacity="0.55" /><circle cx="590" cy="601" r="3.5" fill="#B1ADA1" opacity="0.7" /><g opacity="0.45"><g transform="translate(459.4,291.9) rotate(-66.7)"><path d="M0,0 L-4.3,-5.1 A6.7,6.7 0 0,1 -0.5,-5.7 L0.5,-5.7 A6.7,6.7 0 0,1 4.3,-5.1 Z" fill="#E8C147" /><line x1="0" y1="0" x2="0" y2="3.0" stroke="#3D3328" stroke-width="0.47" /></g></g><g opacity="0.45"><g transform="translate(698.7,392.8) rotate(26.5)"><path d="M0,0 L-3.8,-4.5 A5.9,5.9 0 0,1 -0.5,-5.0 L0.5,-5.0 A5.9,5.9 0 0,1 3.8,-4.5 Z" fill="#E8C147" /><line x1="0" y1="0" x2="0" y2="2.7" stroke="#3D3328" stroke-width="0.41" /></g></g><g opacity="0.45"><g transform="translate(375.9,163.8) rotate(-61.8)"><path d="M0,0 L-3.3,-3.9 A5.1,5.1 0 0,1 -0.5,-4.4 L0.5,-4.4 A5.1,5.1 0 0,1 3.3,-3.9 Z" fill="#E8C147" /><line x1="0" y1="0" x2="0" y2="2.3" stroke="#3D3328" stroke-width="0.36" /></g></g><g opacity="0.45"><g transform="translate(615.3,264.7) rotate(31.4)"><path d="M0,0 L-2.8,-3.3 A4.3,4.3 0 0,1 -0.5,-3.7 L0.5,-3.7 A4.3,4.3 0 0,1 2.8,-3.3 Z" fill="#E8C147" /><line x1="0" y1="0" x2="0" y2="1.9" stroke="#3D3328" stroke-width="0.30" /></g></g><g opacity="0.45"><g transform="translate(292.5,366.9) rotate(-56.8)"><path d="M0,0 L-4.5,-5.4 A7.0,7.0 0 0,1 -0.5,-6.0 L0.5,-6.0 A7.0,7.0 0 0,1 4.5,-5.4 Z" fill="#E8C147" /><line x1="0" y1="0" x2="0" y2="3.2" stroke="#3D3328" stroke-width="0.49" /></g></g><path d="M513.0,599.9 C512.8,594.9 511.3,548.1 510.6,539.7 C510.0,531.4 506.0,511.6 505.3,500.0 C504.6,488.3 502.6,408.4 502.3,400.0 C501.8,400.0 497.3,391.6 496.3,400.0 C495.3,408.3 490.8,488.3 490.2,500.0 C489.5,511.7 488.7,531.9 488.5,540.3 C488.2,548.6 487.1,595.1 487.0,600.1 Z" fill="#6B5A48" /><path d="M503.6,600.0 C503.5,595.0 502.8,548.3 502.5,539.9 C502.2,531.6 500.1,511.7 500.0,500.0 C499.9,488.3 500.9,408.4 500.9,400.0" stroke="#3D3328" stroke-width="3.0" fill="none" opacity="0.34" stroke-linecap="round" /><line x1="489.8" y1="458.0" x2="490.0" y2="446.6" stroke="#3D3328" stroke-width="1.1" stroke-linecap="round" opacity="0.36" /><line x1="494.9" y1="534.6" x2="494.4" y2="524.6" stroke="#3D3328" stroke-width="1.1" stroke-linecap="round" opacity="0.36" /><line x1="491.7" y1="487.9" x2="491.8" y2="479.3" stroke="#3D3328" stroke-width="1.1" stroke-linecap="round" opacity="0.36" /><line x1="491.5" y1="546.6" x2="491.4" y2="539.3" stroke="#3D3328" stroke-width="1.1" stroke-linecap="round" opacity="0.36" /><path d="M500.2,551.0 C498.9,550.9 490.2,551.3 484.6,549.8 C479.0,548.3 441.8,535.8 432.8,532.7 C423.8,529.6 381.7,514.3 377.0,512.6 C377.0,512.7 371.8,512.4 376.3,514.4 C380.8,516.5 422.3,533.5 431.2,537.0 C440.1,540.5 477.0,554.4 482.7,556.2 C488.4,558.0 497.8,558.7 499.2,559.0 Z" fill="#6B5A48" /><g><g transform="translate(380.7,510.6) rotate(-12.7)"><path d="M0,0 L-6.9,-8.2 A10.7,10.7 0 0,1 -0.5,-9.1 L0.5,-9.1 A10.7,10.7 0 0,1 6.9,-8.2 Z" fill="#D4A027" /><line x1="0" y1="0" x2="0" y2="4.8" stroke="#3D3328" stroke-width="0.75" /></g><g transform="translate(357.6,519.3) rotate(38.6)"><path d="M0,0 L-6.0,-7.1 A9.3,9.3 0 0,1 -0.5,-7.9 L0.5,-7.9 A9.3,9.3 0 0,1 6.0,-7.1 Z" fill="#D4A027" /><line x1="0" y1="0" x2="0" y2="4.2" stroke="#3D3328" stroke-width="0.65" /></g><g transform="translate(374.7,499.7) rotate(-10.0)"><path d="M0,0 L-5.1,-6.1 A8.0,8.0 0 0,1 -0.5,-6.8 L0.5,-6.8 A8.0,8.0 0 0,1 5.1,-6.1 Z" fill="#D4A027" /><line x1="0" y1="0" x2="0" y2="3.6" stroke="#3D3328" stroke-width="0.56" /></g><g transform="translate(391.8,508.3) rotate(41.4)"><path d="M0,0 L-8.1,-9.7 A12.6,12.6 0 0,1 -0.5,-10.7 L0.5,-10.7 A12.6,12.6 0 0,1 8.1,-9.7 Z" fill="#D4A027" /><line x1="0" y1="0" x2="0" y2="5.7" stroke="#3D3328" stroke-width="0.88" /></g><g transform="translate(368.7,517.0) rotate(-7.3)"><path d="M0,0 L-7.2,-8.6 A11.3,11.3 0 0,1 -0.5,-9.6 L0.5,-9.6 A11.3,11.3 0 0,1 7.2,-8.6 Z" fill="#D4A027" /><line x1="0" y1="0" x2="0" y2="5.1" stroke="#3D3328" stroke-width="0.79" /></g><g transform="translate(385.8,525.5) rotate(44.1)"><path d="M0,0 L-6.4,-7.6 A9.9,9.9 0 0,1 -0.5,-8.4 L0.5,-8.4 A9.9,9.9 0 0,1 6.4,-7.6 Z" fill="#D4A027" /><line x1="0" y1="0" x2="0" y2="4.5" stroke="#3D3328" stroke-width="0.69" /></g><g transform="translate(362.8,506.1) rotate(-4.5)"><path d="M0,0 L-5.5,-6.6 A8.6,8.6 0 0,1 -0.5,-7.3 L0.5,-7.3 A8.6,8.6 0 0,1 5.5,-6.6 Z" fill="#D4A027" /><line x1="0" y1="0" x2="0" y2="3.8" stroke="#3D3328" stroke-width="0.60" /></g><g transform="translate(379.9,514.7) rotate(47.3)"><path d="M0,0 L-4.6,-5.5 A7.2,7.2 0 0,1 -0.5,-6.1 L0.5,-6.1 A7.2,7.2 0 0,1 4.6,-5.5 Z" fill="#D4A027" /><line x1="0" y1="0" x2="0" y2="3.2" stroke="#3D3328" stroke-width="0.50" /></g><g transform="translate(356.8,523.3) rotate(-1.8)"><path d="M0,0 L-7.6,-9.1 A11.8,11.8 0 0,1 -0.5,-10.1 L0.5,-10.1 A11.8,11.8 0 0,1 7.6,-9.1 Z" fill="#D4A027" /><line x1="0" y1="0" x2="0" y2="5.3" stroke="#3D3328" stroke-width="0.83" /></g><g transform="translate(373.9,503.8) rotate(50.0)"><path d="M0,0 L-6.8,-8.0 A10.5,10.5 0 0,1 -0.5,-8.9 L0.5,-8.9 A10.5,10.5 0 0,1 6.8,-8.0 Z" fill="#D4A027" /><line x1="0" y1="0" x2="0" y2="4.7" stroke="#3D3328" stroke-width="0.74" /></g></g><g><g transform="translate(430.4,548.7) rotate(-48.4)"><path d="M0,0 L-5.8,-6.9 A9.0,9.0 0 0,1 -0.5,-7.7 L0.5,-7.7 A9.0,9.0 0 0,1 5.8,-6.9 Z" fill="#E8C147" /><line x1="0" y1="0" x2="0" y2="4.1" stroke="#3D3328" stroke-width="0.63" /></g><g transform="translate(416.6,537.0) rotate(3.3)"><path d="M0,0 L-5.0,-5.9 A7.7,7.7 0 0,1 -0.5,-6.5 L0.5,-6.5 A7.7,7.7 0 0,1 5.0,-5.9 Z" fill="#E8C147" /><line x1="0" y1="0" x2="0" y2="3.5" stroke="#3D3328" stroke-width="0.54" /></g><g transform="translate(426.9,542.2) rotate(-45.7)"><path d="M0,0 L-7.9,-9.5 A12.4,12.4 0 0,1 -0.5,-10.5 L0.5,-10.5 A12.4,12.4 0 0,1 7.9,-9.5 Z" fill="#E8C147" /><line x1="0" y1="0" x2="0" y2="5.6" stroke="#3D3328" stroke-width="0.87" /></g><g transform="translate(413.0,547.4) rotate(6.1)"><path d="M0,0 L-7.1,-8.4 A11.0,11.0 0 0,1 -0.5,-9.3 L0.5,-9.3 A11.0,11.0 0 0,1 7.1,-8.4 Z" fill="#E8C147" /><line x1="0" y1="0" x2="0" y2="4.9" stroke="#3D3328" stroke-width="0.77" /></g><g transform="translate(423.3,535.7) rotate(-42.9)"><path d="M0,0 L-6.2,-7.4 A9.7,9.7 0 0,1 -0.5,-8.2 L0.5,-8.2 A9.7,9.7 0 0,1 6.2,-7.4 Z" fill="#E8C147" /><line x1="0" y1="0" x2="0" y2="4.3" stroke="#3D3328" stroke-width="0.68" /></g></g><g><g transform="translate(430.3,546.6) rotate(-9.6)"><path d="M0,0 L-7.6,-9.1 A11.8,11.8 0 0,1 -0.5,-10.1 L0.5,-10.1 A11.8,11.8 0 0,1 7.6,-9.1 Z" fill="#D4A027" /><line x1="0" y1="0" x2="0" y2="5.3" stroke="#3D3328" stroke-width="0.83" /></g><g transform="translate(440.5,551.7) rotate(42.2)"><path d="M0,0 L-6.7,-8.0 A10.5,10.5 0 0,1 -0.5,-8.9 L0.5,-8.9 A10.5,10.5 0 0,1 6.7,-8.0 Z" fill="#D4A027" /><line x1="0" y1="0" x2="0" y2="4.7" stroke="#3D3328" stroke-width="0.73" /></g><g transform="translate(426.7,540.0) rotate(-6.9)"><path d="M0,0 L-5.9,-7.0 A9.1,9.1 0 0,1 -0.5,-7.8 L0.5,-7.8 A9.1,9.1 0 0,1 5.9,-7.0 Z" fill="#D4A027" /><line x1="0" y1="0" x2="0" y2="4.1" stroke="#3D3328" stroke-width="0.64" /></g><g transform="translate(436.9,545.2) rotate(44.9)"><path d="M0,0 L-5.0,-6.0 A7.8,7.8 0 0,1 -0.5,-6.6 L0.5,-6.6 A7.8,7.8 0 0,1 5.0,-6.0 Z" fill="#D4A027" /><line x1="0" y1="0" x2="0" y2="3.5" stroke="#3D3328" stroke-width="0.54" /></g><g transform="translate(423.1,550.4) rotate(-4.1)"><path d="M0,0 L-8.0,-9.5 A12.4,12.4 0 0,1 -0.5,-10.6 L0.5,-10.6 A12.4,12.4 0 0,1 8.0,-9.5 Z" fill="#D4A027" /><line x1="0" y1="0" x2="0" y2="5.6" stroke="#3D3328" stroke-width="0.87" /></g></g><path d="M500.2,559.0 C501.5,558.7 510.9,557.9 516.5,556.2 C522.2,554.6 559.2,542.0 568.1,538.8 C576.9,535.6 618.4,519.1 623.0,517.3 C622.9,517.1 627.0,514.0 622.3,515.4 C617.6,516.8 575.5,531.6 566.6,534.4 C557.6,537.3 520.4,548.4 514.8,549.8 C509.2,551.1 500.5,550.9 499.2,551.0 Z" fill="#6B5A48" /><g><g transform="translate(641.7,519.2) rotate(24.5)"><path d="M0,0 L-5.3,-6.4 A8.3,8.3 0 0,1 -0.5,-7.1 L0.5,-7.1 A8.3,8.3 0 0,1 5.3,-6.4 Z" fill="#E8C147" /><line x1="0" y1="0" x2="0" y2="3.7" stroke="#3D3328" stroke-width="0.58" /></g><g transform="translate(618.7,527.9) rotate(-24.5)"><path d="M0,0 L-8.3,-9.9 A13.0,13.0 0 0,1 -0.5,-11.0 L0.5,-11.0 A13.0,13.0 0 0,1 8.3,-9.9 Z" fill="#D4A027" /><line x1="0" y1="0" x2="0" y2="5.8" stroke="#3D3328" stroke-width="0.91" /></g><g transform="translate(635.8,508.4) rotate(27.3)"><path d="M0,0 L-7.5,-8.9 A11.6,11.6 0 0,1 -0.5,-9.9 L0.5,-9.9 A11.6,11.6 0 0,1 7.5,-8.9 Z" fill="#D4A027" /><line x1="0" y1="0" x2="0" y2="5.2" stroke="#3D3328" stroke-width="0.81" /></g><g transform="translate(612.7,517.0) rotate(-21.4)"><path d="M0,0 L-6.6,-7.9 A10.3,10.3 0 0,1 -0.5,-8.7 L0.5,-8.7 A10.3,10.3 0 0,1 6.6,-7.9 Z" fill="#D4A027" /><line x1="0" y1="0" x2="0" y2="4.6" stroke="#3D3328" stroke-width="0.72" /></g><g transform="translate(629.8,525.6) rotate(30.0)"><path d="M0,0 L-5.7,-6.8 A8.9,8.9 0 0,1 -0.5,-7.6 L0.5,-7.6 A8.9,8.9 0 0,1 5.7,-6.8 Z" fill="#D4A027" /><line x1="0" y1="0" x2="0" y2="4.0" stroke="#3D3328" stroke-width="0.62" /></g><g transform="translate(606.7,506.2) rotate(-18.6)"><path d="M0,0 L-4.9,-5.8 A7.6,7.6 0 0,1 -0.5,-6.4 L0.5,-6.4 A7.6,7.6 0 0,1 4.9,-5.8 Z" fill="#D4A027" /><line x1="0" y1="0" x2="0" y2="3.4" stroke="#3D3328" stroke-width="0.53" /></g><g transform="translate(623.8,514.7) rotate(32.7)"><path d="M0,0 L-7.9,-9.4 A12.2,12.2 0 0,1 -0.5,-10.4 L0.5,-10.4 A12.2,12.2 0 0,1 7.9,-9.4 Z" fill="#D4A027" /><line x1="0" y1="0" x2="0" y2="5.5" stroke="#3D3328" stroke-width="0.86" /></g><g transform="translate(640.9,523.3) rotate(-15.9)"><path d="M0,0 L-7.0,-8.3 A10.9,10.9 0 0,1 -0.5,-9.2 L0.5,-9.2 A10.9,10.9 0 0,1 7.0,-8.3 Z" fill="#D4A027" /><line x1="0" y1="0" x2="0" y2="4.9" stroke="#3D3328" stroke-width="0.76" /></g><g transform="translate(617.9,503.9) rotate(35.5)"><path d="M0,0 L-6.1,-7.3 A9.5,9.5 0 0,1 -0.5,-8.1 L0.5,-8.1 A9.5,9.5 0 0,1 6.1,-7.3 Z" fill="#D4A027" /><line x1="0" y1="0" x2="0" y2="4.3" stroke="#3D3328" stroke-width="0.67" /></g><g transform="translate(635.0,512.4) rotate(-13.1)"><path d="M0,0 L-5.2,-6.2 A8.2,8.2 0 0,1 -0.5,-6.9 L0.5,-6.9 A8.2,8.2 0 0,1 5.2,-6.2 Z" fill="#D4A027" /><line x1="0" y1="0" x2="0" y2="3.7" stroke="#3D3328" stroke-width="0.57" /></g></g><g><g transform="translate(556.7,544.7) rotate(-46.5)"><path d="M0,0 L-7.1,-8.5 A11.1,11.1 0 0,1 -0.5,-9.4 L0.5,-9.4 A11.1,11.1 0 0,1 7.1,-8.5 Z" fill="#E8C147" /><line x1="0" y1="0" x2="0" y2="5.0" stroke="#3D3328" stroke-width="0.78" /></g><g transform="translate(567.0,549.9) rotate(4.9)"><path d="M0,0 L-6.3,-7.5 A9.8,9.8 0 0,1 -0.5,-8.3 L0.5,-8.3 A9.8,9.8 0 0,1 6.3,-7.5 Z" fill="#E8C147" /><line x1="0" y1="0" x2="0" y2="4.4" stroke="#3D3328" stroke-width="0.68" /></g><g transform="translate(553.1,538.2) rotate(-43.7)"><path d="M0,0 L-5.4,-6.4 A8.4,8.4 0 0,1 -0.5,-7.1 L0.5,-7.1 A8.4,8.4 0 0,1 5.4,-6.4 Z" fill="#E8C147" /><line x1="0" y1="0" x2="0" y2="3.8" stroke="#3D3328" stroke-width="0.59" /></g><g transform="translate(563.4,543.3) rotate(8.0)"><path d="M0,0 L-4.5,-5.4 A7.0,7.0 0 0,1 -0.5,-6.0 L0.5,-6.0 A7.0,7.0 0 0,1 4.5,-5.4 Z" fill="#E8C147" /><line x1="0" y1="0" x2="0" y2="3.2" stroke="#3D3328" stroke-width="0.49" /></g><g transform="translate(549.5,548.5) rotate(-41.0)"><path d="M0,0 L-7.5,-9.0 A11.7,11.7 0 0,1 -0.5,-9.9 L0.5,-9.9 A11.7,11.7 0 0,1 7.5,-9.0 Z" fill="#E8C147" /><line x1="0" y1="0" x2="0" y2="5.3" stroke="#3D3328" stroke-width="0.82" /></g></g><g><g transform="translate(556.5,542.6) rotate(-7.6)"><path d="M0,0 L-5.1,-6.0 A7.9,7.9 0 0,1 -0.5,-6.7 L0.5,-6.7 A7.9,7.9 0 0,1 5.1,-6.0 Z" fill="#D4A027" /><line x1="0" y1="0" x2="0" y2="3.6" stroke="#3D3328" stroke-width="0.55" /></g><g transform="translate(566.8,547.7) rotate(43.7)"><path d="M0,0 L-8.1,-9.6 A12.6,12.6 0 0,1 -0.5,-10.7 L0.5,-10.7 A12.6,12.6 0 0,1 8.1,-9.6 Z" fill="#D4A027" /><line x1="0" y1="0" x2="0" y2="5.6" stroke="#3D3328" stroke-width="0.88" /></g><g transform="translate(577.0,552.9) rotate(-4.9)"><path d="M0,0 L-7.2,-8.6 A11.2,11.2 0 0,1 -0.5,-9.5 L0.5,-9.5 A11.2,11.2 0 0,1 7.2,-8.6 Z" fill="#D4A027" /><line x1="0" y1="0" x2="0" y2="5.0" stroke="#3D3328" stroke-width="0.78" /></g><g transform="translate(563.2,541.2) rotate(46.5)"><path d="M0,0 L-6.3,-7.5 A9.8,9.8 0 0,1 -0.5,-8.4 L0.5,-8.4 A9.8,9.8 0 0,1 6.3,-7.5 Z" fill="#D4A027" /><line x1="0" y1="0" x2="0" y2="4.4" stroke="#3D3328" stroke-width="0.69" /></g><g transform="translate(573.5,546.3) rotate(-2.2)"><path d="M0,0 L-5.5,-6.5 A8.5,8.5 0 0,1 -0.5,-7.2 L0.5,-7.2 A8.5,8.5 0 0,1 5.5,-6.5 Z" fill="#D4A027" /><line x1="0" y1="0" x2="0" y2="3.8" stroke="#3D3328" stroke-width="0.59" /></g></g><path d="M500.2,551.0 C498.9,550.9 490.3,551.4 484.7,549.8 C479.1,548.2 441.8,534.9 432.9,531.5 C423.9,528.2 381.7,511.3 377.0,509.5 C377.0,509.6 371.8,509.1 376.3,511.3 C380.8,513.5 422.3,532.1 431.2,535.8 C440.0,539.5 477.0,554.3 482.6,556.2 C488.3,558.1 497.8,558.7 499.2,559.0 Z" fill="#6B5A48" /><g><g transform="translate(371.9,517.4) rotate(-26.5)"><path d="M0,0 L-5.4,-6.5 A8.5,8.5 0 0,1 -0.5,-7.2 L0.5,-7.2 A8.5,8.5 0 0,1 5.4,-6.5 Z" fill="#E8C147" /><line x1="0" y1="0" x2="0" y2="3.8" stroke="#3D3328" stroke-width="0.59" /></g><g transform="translate(389.0,497.8) rotate(25.3)"><path d="M0,0 L-4.6,-5.5 A7.1,7.1 0 0,1 -0.5,-6.0 L0.5,-6.0 A7.1,7.1 0 0,1 4.6,-5.5 Z" fill="#D4A027" /><line x1="0" y1="0" x2="0" y2="3.2" stroke="#3D3328" stroke-width="0.50" /></g><g transform="translate(365.9,506.5) rotate(-23.7)"><path d="M0,0 L-7.6,-9.0 A11.8,11.8 0 0,1 -0.5,-10.0 L0.5,-10.0 A11.8,11.8 0 0,1 7.6,-9.0 Z" fill="#D4A027" /><line x1="0" y1="0" x2="0" y2="5.3" stroke="#3D3328" stroke-width="0.82" /></g><g transform="translate(383.0,515.1) rotate(28.0)"><path d="M0,0 L-6.7,-8.0 A10.4,10.4 0 0,1 -0.5,-8.8 L0.5,-8.8 A10.4,10.4 0 0,1 6.7,-8.0 Z" fill="#D4A027" /><line x1="0" y1="0" x2="0" y2="4.7" stroke="#3D3328" stroke-width="0.73" /></g><g transform="translate(360.0,523.7) rotate(-21.0)"><path d="M0,0 L-5.8,-6.9 A9.0,9.0 0 0,1 -0.5,-7.7 L0.5,-7.7 A9.0,9.0 0 0,1 5.8,-6.9 Z" fill="#D4A027" /><line x1="0" y1="0" x2="0" y2="4.1" stroke="#3D3328" stroke-width="0.63" /></g><g transform="translate(377.0,504.2) rotate(30.8)"><path d="M0,0 L-5.0,-5.9 A7.7,7.7 0 0,1 -0.5,-6.5 L0.5,-6.5 A7.7,7.7 0 0,1 5.0,-5.9 Z" fill="#D4A027" /><line x1="0" y1="0" x2="0" y2="3.5" stroke="#3D3328" stroke-width="0.54" /></g><g transform="translate(394.1,512.8) rotate(-18.2)"><path d="M0,0 L-7.9,-9.5 A12.4,12.4 0 0,1 -0.5,-10.5 L0.5,-10.5 A12.4,12.4 0 0,1 7.9,-9.5 Z" fill="#D4A027" /><line x1="0" y1="0" x2="0" y2="5.6" stroke="#3D3328" stroke-width="0.87" /></g><g transform="translate(371.1,521.4) rotate(33.5)"><path d="M0,0 L-7.1,-8.4 A11.0,11.0 0 0,1 -0.5,-9.3 L0.5,-9.3 A11.0,11.0 0 0,1 7.1,-8.4 Z" fill="#D4A027" /><line x1="0" y1="0" x2="0" y2="4.9" stroke="#3D3328" stroke-width="0.77" /></g><g transform="translate(388.2,501.9) rotate(-15.5)"><path d="M0,0 L-6.2,-7.4 A9.7,9.7 0 0,1 -0.5,-8.2 L0.5,-8.2 A9.7,9.7 0 0,1 6.2,-7.4 Z" fill="#D4A027" /><line x1="0" y1="0" x2="0" y2="4.3" stroke="#3D3328" stroke-width="0.68" /></g><g transform="translate(365.1,510.6) rotate(36.3)"><path d="M0,0 L-5.3,-6.4 A8.3,8.3 0 0,1 -0.5,-7.0 L0.5,-7.0 A8.3,8.3 0 0,1 5.3,-6.4 Z" fill="#D4A027" /><line x1="0" y1="0" x2="0" y2="3.7" stroke="#3D3328" stroke-width="0.58" /></g></g><g><g transform="translate(423.7,547.0) rotate(2.2)"><path d="M0,0 L-6.6,-7.8 A10.2,10.2 0 0,1 -0.5,-8.7 L0.5,-8.7 A10.2,10.2 0 0,1 6.6,-7.8 Z" fill="#E8C147" /><line x1="0" y1="0" x2="0" y2="4.6" stroke="#3D3328" stroke-width="0.72" /></g><g transform="translate(433.9,535.3) rotate(-46.9)"><path d="M0,0 L-5.7,-6.8 A8.9,8.9 0 0,1 -0.5,-7.5 L0.5,-7.5 A8.9,8.9 0 0,1 5.7,-6.8 Z" fill="#E8C147" /><line x1="0" y1="0" x2="0" y2="4.0" stroke="#3D3328" stroke-width="0.62" /></g><g transform="translate(420.1,540.5) rotate(4.9)"><path d="M0,0 L-4.8,-5.8 A7.5,7.5 0 0,1 -0.5,-6.4 L0.5,-6.4 A7.5,7.5 0 0,1 4.8,-5.8 Z" fill="#E8C147" /><line x1="0" y1="0" x2="0" y2="3.4" stroke="#3D3328" stroke-width="0.53" /></g><g transform="translate(430.3,545.7) rotate(-44.1)"><path d="M0,0 L-7.8,-9.3 A12.2,12.2 0 0,1 -0.5,-10.4 L0.5,-10.4 A12.2,12.2 0 0,1 7.8,-9.3 Z" fill="#E8C147" /><line x1="0" y1="0" x2="0" y2="5.5" stroke="#3D3328" stroke-width="0.85" /></g><g transform="translate(416.5,534.0) rotate(7.6)"><path d="M0,0 L-7.0,-8.3 A10.8,10.8 0 0,1 -0.5,-9.2 L0.5,-9.2 A10.8,10.8 0 0,1 7.0,-8.3 Z" fill="#E8C147" /><line x1="0" y1="0" x2="0" y2="4.9" stroke="#3D3328" stroke-width="0.76" /></g></g><g><g transform="translate(423.5,544.9) rotate(41.0)"><path d="M0,0 L-4.5,-5.4 A7.0,7.0 0 0,1 -0.5,-6.0 L0.5,-6.0 A7.0,7.0 0 0,1 4.5,-5.4 Z" fill="#D4A027" /><line x1="0" y1="0" x2="0" y2="3.1" stroke="#3D3328" stroke-width="0.49" /></g><g transform="translate(433.7,550.1) rotate(-8.0)"><path d="M0,0 L-7.5,-8.9 A11.7,11.7 0 0,1 -0.5,-9.9 L0.5,-9.9 A11.7,11.7 0 0,1 7.5,-8.9 Z" fill="#D4A027" /><line x1="0" y1="0" x2="0" y2="5.2" stroke="#3D3328" stroke-width="0.82" /></g><g transform="translate(444.0,538.3) rotate(43.7)"><path d="M0,0 L-6.6,-7.9 A10.3,10.3 0 0,1 -0.5,-8.8 L0.5,-8.8 A10.3,10.3 0 0,1 6.6,-7.9 Z" fill="#D4A027" /><line x1="0" y1="0" x2="0" y2="4.6" stroke="#3D3328" stroke-width="0.72" /></g><g transform="translate(430.2,543.5) rotate(-5.3)"><path d="M0,0 L-5.8,-6.9 A9.0,9.0 0 0,1 -0.5,-7.6 L0.5,-7.6 A9.0,9.0 0 0,1 5.8,-6.9 Z" fill="#D4A027" /><line x1="0" y1="0" x2="0" y2="4.0" stroke="#3D3328" stroke-width="0.63" /></g><g transform="translate(440.4,548.7) rotate(46.5)"><path d="M0,0 L-4.9,-5.8 A7.6,7.6 0 0,1 -0.5,-6.4 L0.5,-6.4 A7.6,7.6 0 0,1 4.9,-5.8 Z" fill="#D4A027" /><line x1="0" y1="0" x2="0" y2="3.4" stroke="#3D3328" stroke-width="0.53" /></g></g><path d="M500.1,552.5 C501.5,552.3 511.0,551.8 516.7,549.7 C522.3,547.7 559.2,531.3 568.0,527.8 C576.9,524.4 618.3,510.1 622.9,508.5 C622.9,508.3 627.0,505.3 622.3,506.6 C617.6,507.9 575.5,520.4 566.5,523.5 C557.5,526.6 520.1,541.6 514.5,543.4 C508.9,545.2 500.4,544.5 499.1,544.6 Z" fill="#6B5A48" /><g><g transform="translate(631.6,494.1) rotate(-1.4)"><path d="M0,0 L-6.2,-7.4 A9.7,9.7 0 0,1 -0.5,-8.2 L0.5,-8.2 A9.7,9.7 0 0,1 6.2,-7.4 Z" fill="#D4A027" /><line x1="0" y1="0" x2="0" y2="4.3" stroke="#3D3328" stroke-width="0.68" /></g><g transform="translate(608.6,502.8) rotate(-50.0)"><path d="M0,0 L-5.3,-6.4 A8.3,8.3 0 0,1 -0.5,-7.0 L0.5,-7.0 A8.3,8.3 0 0,1 5.3,-6.4 Z" fill="#E8C147" /><line x1="0" y1="0" x2="0" y2="3.7" stroke="#3D3328" stroke-width="0.58" /></g><g transform="translate(625.7,511.3) rotate(1.4)"><path d="M0,0 L-8.3,-9.9 A13.0,13.0 0 0,1 -0.5,-11.0 L0.5,-11.0 A13.0,13.0 0 0,1 8.3,-9.9 Z" fill="#E8C147" /><line x1="0" y1="0" x2="0" y2="5.8" stroke="#3D3328" stroke-width="0.91" /></g><g transform="translate(602.6,520.0) rotate(-47.3)"><path d="M0,0 L-7.4,-8.9 A11.6,11.6 0 0,1 -0.5,-9.8 L0.5,-9.8 A11.6,11.6 0 0,1 7.4,-8.9 Z" fill="#E8C147" /><line x1="0" y1="0" x2="0" y2="5.2" stroke="#3D3328" stroke-width="0.81" /></g><g transform="translate(619.7,500.5) rotate(4.5)"><path d="M0,0 L-6.6,-7.8 A10.2,10.2 0 0,1 -0.5,-8.7 L0.5,-8.7 A10.2,10.2 0 0,1 6.6,-7.8 Z" fill="#E8C147" /><line x1="0" y1="0" x2="0" y2="4.6" stroke="#3D3328" stroke-width="0.72" /></g><g transform="translate(636.8,509.0) rotate(-44.5)"><path d="M0,0 L-5.7,-6.8 A8.9,8.9 0 0,1 -0.5,-7.5 L0.5,-7.5 A8.9,8.9 0 0,1 5.7,-6.8 Z" fill="#E8C147" /><line x1="0" y1="0" x2="0" y2="4.0" stroke="#3D3328" stroke-width="0.62" /></g><g transform="translate(613.7,517.7) rotate(7.3)"><path d="M0,0 L-4.8,-5.8 A7.5,7.5 0 0,1 -0.5,-6.4 L0.5,-6.4 A7.5,7.5 0 0,1 4.8,-5.8 Z" fill="#E8C147" /><line x1="0" y1="0" x2="0" y2="3.4" stroke="#3D3328" stroke-width="0.53" /></g><g transform="translate(630.8,498.2) rotate(-41.8)"><path d="M0,0 L-7.8,-9.3 A12.2,12.2 0 0,1 -0.5,-10.4 L0.5,-10.4 A12.2,12.2 0 0,1 7.8,-9.3 Z" fill="#E8C147" /><line x1="0" y1="0" x2="0" y2="5.5" stroke="#3D3328" stroke-width="0.85" /></g><g transform="translate(607.8,506.8) rotate(10.0)"><path d="M0,0 L-7.0,-8.3 A10.8,10.8 0 0,1 -0.5,-9.2 L0.5,-9.2 A10.8,10.8 0 0,1 7.0,-8.3 Z" fill="#E8C147" /><line x1="0" y1="0" x2="0" y2="4.9" stroke="#3D3328" stroke-width="0.76" /></g><g transform="translate(624.9,515.4) rotate(-39.0)"><path d="M0,0 L-6.1,-7.3 A9.5,9.5 0 0,1 -0.5,-8.1 L0.5,-8.1 A9.5,9.5 0 0,1 6.1,-7.3 Z" fill="#E8C147" /><line x1="0" y1="0" x2="0" y2="4.3" stroke="#3D3328" stroke-width="0.66" /></g></g><g><g transform="translate(562.7,539.1) rotate(-42.9)"><path d="M0,0 L-5.9,-7.1 A9.2,9.2 0 0,1 -0.5,-7.8 L0.5,-7.8 A9.2,9.2 0 0,1 5.9,-7.1 Z" fill="#E8C147" /><line x1="0" y1="0" x2="0" y2="4.1" stroke="#3D3328" stroke-width="0.64" /></g><g transform="translate(548.8,527.4) rotate(8.8)"><path d="M0,0 L-5.1,-6.0 A7.9,7.9 0 0,1 -0.5,-6.7 L0.5,-6.7 A7.9,7.9 0 0,1 5.1,-6.0 Z" fill="#E8C147" /><line x1="0" y1="0" x2="0" y2="3.5" stroke="#3D3328" stroke-width="0.55" /></g><g transform="translate(559.1,532.6) rotate(-40.2)"><path d="M0,0 L-8.1,-9.6 A12.5,12.5 0 0,1 -0.5,-10.7 L0.5,-10.7 A12.5,12.5 0 0,1 8.1,-9.6 Z" fill="#E8C147" /><line x1="0" y1="0" x2="0" y2="5.6" stroke="#3D3328" stroke-width="0.88" /></g><g transform="translate(545.3,537.8) rotate(11.6)"><path d="M0,0 L-7.2,-8.6 A11.2,11.2 0 0,1 -0.5,-9.5 L0.5,-9.5 A11.2,11.2 0 0,1 7.2,-8.6 Z" fill="#E8C147" /><line x1="0" y1="0" x2="0" y2="5.0" stroke="#3D3328" stroke-width="0.78" /></g><g transform="translate(555.5,526.1) rotate(-37.5)"><path d="M0,0 L-6.3,-7.5 A9.8,9.8 0 0,1 -0.5,-8.3 L0.5,-8.3 A9.8,9.8 0 0,1 6.3,-7.5 Z" fill="#E8C147" /><line x1="0" y1="0" x2="0" y2="4.4" stroke="#3D3328" stroke-width="0.69" /></g></g><g><g transform="translate(562.5,537.0) rotate(-4.1)"><path d="M0,0 L-7.7,-9.2 A12.0,12.0 0 0,1 -0.5,-10.2 L0.5,-10.2 A12.0,12.0 0 0,1 7.7,-9.2 Z" fill="#D4A027" /><line x1="0" y1="0" x2="0" y2="5.4" stroke="#3D3328" stroke-width="0.84" /></g><g transform="translate(572.8,542.1) rotate(47.6)"><path d="M0,0 L-6.8,-8.2 A10.6,10.6 0 0,1 -0.5,-9.0 L0.5,-9.0 A10.6,10.6 0 0,1 6.8,-8.2 Z" fill="#D4A027" /><line x1="0" y1="0" x2="0" y2="4.8" stroke="#3D3328" stroke-width="0.75" /></g><g transform="translate(558.9,530.5) rotate(-1.4)"><path d="M0,0 L-6.0,-7.1 A9.3,9.3 0 0,1 -0.5,-7.9 L0.5,-7.9 A9.3,9.3 0 0,1 6.0,-7.1 Z" fill="#D4A027" /><line x1="0" y1="0" x2="0" y2="4.2" stroke="#3D3328" stroke-width="0.65" /></g><g transform="translate(569.2,535.6) rotate(-50.0)"><path d="M0,0 L-5.1,-6.1 A7.9,7.9 0 0,1 -0.5,-6.7 L0.5,-6.7 A7.9,7.9 0 0,1 5.1,-6.1 Z" fill="#E8C147" /><line x1="0" y1="0" x2="0" y2="3.6" stroke="#3D3328" stroke-width="0.56" /></g><g transform="translate(555.4,540.8) rotate(1.4)"><path d="M0,0 L-8.1,-9.7 A12.6,12.6 0 0,1 -0.5,-10.7 L0.5,-10.7 A12.6,12.6 0 0,1 8.1,-9.7 Z" fill="#E8C147" /><line x1="0" y1="0" x2="0" y2="5.7" stroke="#3D3328" stroke-width="0.88" /></g></g><path d="M500.2,551.0 C498.8,550.9 490.1,551.1 484.5,549.8 C478.9,548.4 441.7,537.9 432.8,535.0 C423.8,532.1 381.7,516.8 377.0,515.1 C377.0,515.3 371.8,515.0 376.3,517.0 C380.8,519.0 422.4,536.1 431.3,539.4 C440.1,542.6 477.1,554.6 482.8,556.2 C488.5,557.9 497.8,558.7 499.2,559.0 Z" fill="#6B5A48" /><g><g transform="translate(361.8,506.7) rotate(48.0)"><path d="M0,0 L-6.3,-7.5 A9.8,9.8 0 0,1 -0.5,-8.3 L0.5,-8.3 A9.8,9.8 0 0,1 6.3,-7.5 Z" fill="#D4A027" /><line x1="0" y1="0" x2="0" y2="4.4" stroke="#3D3328" stroke-width="0.69" /></g><g transform="translate(378.9,515.2) rotate(-0.6)"><path d="M0,0 L-5.4,-6.5 A8.4,8.4 0 0,1 -0.5,-7.2 L0.5,-7.2 A8.4,8.4 0 0,1 5.4,-6.5 Z" fill="#D4A027" /><line x1="0" y1="0" x2="0" y2="3.8" stroke="#3D3328" stroke-width="0.59" /></g><g transform="translate(396.0,523.8) rotate(-49.2)"><path d="M0,0 L-4.5,-5.4 A7.1,7.1 0 0,1 -0.5,-6.0 L0.5,-6.0 A7.1,7.1 0 0,1 4.5,-5.4 Z" fill="#E8C147" /><line x1="0" y1="0" x2="0" y2="3.2" stroke="#3D3328" stroke-width="0.49" /></g><g transform="translate(373.0,504.4) rotate(2.2)"><path d="M0,0 L-7.6,-9.0 A11.8,11.8 0 0,1 -0.5,-10.0 L0.5,-10.0 A11.8,11.8 0 0,1 7.6,-9.0 Z" fill="#E8C147" /><line x1="0" y1="0" x2="0" y2="5.3" stroke="#3D3328" stroke-width="0.82" /></g><g transform="translate(390.1,512.9) rotate(-46.5)"><path d="M0,0 L-6.7,-8.0 A10.4,10.4 0 0,1 -0.5,-8.8 L0.5,-8.8 A10.4,10.4 0 0,1 6.7,-8.0 Z" fill="#E8C147" /><line x1="0" y1="0" x2="0" y2="4.7" stroke="#3D3328" stroke-width="0.73" /></g><g transform="translate(367.0,521.6) rotate(4.9)"><path d="M0,0 L-5.8,-6.9 A9.0,9.0 0 0,1 -0.5,-7.7 L0.5,-7.7 A9.0,9.0 0 0,1 5.8,-6.9 Z" fill="#E8C147" /><line x1="0" y1="0" x2="0" y2="4.1" stroke="#3D3328" stroke-width="0.63" /></g><g transform="translate(384.1,502.1) rotate(-43.7)"><path d="M0,0 L-4.9,-5.9 A7.7,7.7 0 0,1 -0.5,-6.5 L0.5,-6.5 A7.7,7.7 0 0,1 4.9,-5.9 Z" fill="#E8C147" /><line x1="0" y1="0" x2="0" y2="3.5" stroke="#3D3328" stroke-width="0.54" /></g><g transform="translate(361.0,510.7) rotate(7.6)"><path d="M0,0 L-7.9,-9.5 A12.3,12.3 0 0,1 -0.5,-10.5 L0.5,-10.5 A12.3,12.3 0 0,1 7.9,-9.5 Z" fill="#E8C147" /><line x1="0" y1="0" x2="0" y2="5.6" stroke="#3D3328" stroke-width="0.86" /></g><g transform="translate(378.1,519.3) rotate(-41.0)"><path d="M0,0 L-7.1,-8.4 A11.0,11.0 0 0,1 -0.5,-9.3 L0.5,-9.3 A11.0,11.0 0 0,1 7.1,-8.4 Z" fill="#E8C147" /><line x1="0" y1="0" x2="0" y2="4.9" stroke="#3D3328" stroke-width="0.77" /></g><g transform="translate(395.2,527.9) rotate(10.4)"><path d="M0,0 L-6.2,-7.4 A9.6,9.6 0 0,1 -0.5,-8.2 L0.5,-8.2 A9.6,9.6 0 0,1 6.2,-7.4 Z" fill="#E8C147" /><line x1="0" y1="0" x2="0" y2="4.3" stroke="#3D3328" stroke-width="0.67" /></g></g><g><g transform="translate(429.7,539.0) rotate(5.7)"><path d="M0,0 L-5.4,-6.4 A8.3,8.3 0 0,1 -0.5,-7.1 L0.5,-7.1 A8.3,8.3 0 0,1 5.4,-6.4 Z" fill="#E8C147" /><line x1="0" y1="0" x2="0" y2="3.8" stroke="#3D3328" stroke-width="0.58" /></g><g transform="translate(415.8,544.2) rotate(-43.3)"><path d="M0,0 L-8.4,-10.0 A13.0,13.0 0 0,1 -0.5,-11.0 L0.5,-11.0 A13.0,13.0 0 0,1 8.4,-10.0 Z" fill="#E8C147" /><line x1="0" y1="0" x2="0" y2="5.8" stroke="#3D3328" stroke-width="0.91" /></g><g transform="translate(426.1,549.4) rotate(8.4)"><path d="M0,0 L-7.5,-8.9 A11.6,11.6 0 0,1 -0.5,-9.9 L0.5,-9.9 A11.6,11.6 0 0,1 7.5,-8.9 Z" fill="#E8C147" /><line x1="0" y1="0" x2="0" y2="5.2" stroke="#3D3328" stroke-width="0.81" /></g><g transform="translate(412.3,537.7) rotate(-40.2)"><path d="M0,0 L-6.6,-7.9 A10.3,10.3 0 0,1 -0.5,-8.7 L0.5,-8.7 A10.3,10.3 0 0,1 6.6,-7.9 Z" fill="#E8C147" /><line x1="0" y1="0" x2="0" y2="4.6" stroke="#3D3328" stroke-width="0.72" /></g><g transform="translate(422.5,542.8) rotate(11.2)"><path d="M0,0 L-5.7,-6.8 A8.9,8.9 0 0,1 -0.5,-7.6 L0.5,-7.6 A8.9,8.9 0 0,1 5.7,-6.8 Z" fill="#E8C147" /><line x1="0" y1="0" x2="0" y2="4.0" stroke="#3D3328" stroke-width="0.63" /></g></g><g><g transform="translate(429.5,553.8) rotate(44.5)"><path d="M0,0 L-7.1,-8.5 A11.1,11.1 0 0,1 -0.5,-9.4 L0.5,-9.4 A11.1,11.1 0 0,1 7.1,-8.5 Z" fill="#D4A027" /><line x1="0" y1="0" x2="0" y2="5.0" stroke="#3D3328" stroke-width="0.78" /></g><g transform="translate(439.8,542.0) rotate(-4.5)"><path d="M0,0 L-6.3,-7.5 A9.8,9.8 0 0,1 -0.5,-8.3 L0.5,-8.3 A9.8,9.8 0 0,1 6.3,-7.5 Z" fill="#D4A027" /><line x1="0" y1="0" x2="0" y2="4.4" stroke="#3D3328" stroke-width="0.68" /></g><g transform="translate(425.9,547.2) rotate(47.3)"><path d="M0,0 L-5.4,-6.4 A8.4,8.4 0 0,1 -0.5,-7.1 L0.5,-7.1 A8.4,8.4 0 0,1 5.4,-6.4 Z" fill="#D4A027" /><line x1="0" y1="0" x2="0" y2="3.8" stroke="#3D3328" stroke-width="0.59" /></g><g transform="translate(436.2,552.4) rotate(-1.4)"><path d="M0,0 L-4.5,-5.4 A7.0,7.0 0 0,1 -0.5,-6.0 L0.5,-6.0 A7.0,7.0 0 0,1 4.5,-5.4 Z" fill="#D4A027" /><line x1="0" y1="0" x2="0" y2="3.2" stroke="#3D3328" stroke-width="0.49" /></g><g transform="translate(422.4,557.6) rotate(50.0)"><path d="M0,0 L-7.5,-9.0 A11.7,11.7 0 0,1 -0.5,-9.9 L0.5,-9.9 A11.7,11.7 0 0,1 7.5,-9.0 Z" fill="#D4A027" /><line x1="0" y1="0" x2="0" y2="5.3" stroke="#3D3328" stroke-width="0.82" /></g></g><path d="M500.2,559.0 C501.5,558.7 511.0,558.2 516.7,556.2 C522.4,554.2 559.3,538.4 568.2,534.7 C577.0,531.0 618.5,513.4 623.0,511.4 C623.0,511.3 627.0,508.0 622.3,509.6 C617.6,511.2 575.4,527.1 566.5,530.4 C557.5,533.8 520.2,548.1 514.6,549.8 C509.0,551.5 500.4,550.9 499.2,551.0 Z" fill="#6B5A48" /><g><g transform="translate(603.4,506.1) rotate(41.4)"><path d="M0,0 L-7.5,-9.0 A11.7,11.7 0 0,1 -0.5,-9.9 L0.5,-9.9 A11.7,11.7 0 0,1 7.5,-9.0 Z" fill="#D4A027" /><line x1="0" y1="0" x2="0" y2="5.3" stroke="#3D3328" stroke-width="0.82" /></g><g transform="translate(620.5,514.6) rotate(-7.3)"><path d="M0,0 L-6.6,-7.9 A10.3,10.3 0 0,1 -0.5,-8.8 L0.5,-8.8 A10.3,10.3 0 0,1 6.6,-7.9 Z" fill="#D4A027" /><line x1="0" y1="0" x2="0" y2="4.7" stroke="#3D3328" stroke-width="0.72" /></g><g transform="translate(637.6,523.2) rotate(44.1)"><path d="M0,0 L-5.8,-6.9 A9.0,9.0 0 0,1 -0.5,-7.6 L0.5,-7.6 A9.0,9.0 0 0,1 5.8,-6.9 Z" fill="#D4A027" /><line x1="0" y1="0" x2="0" y2="4.0" stroke="#3D3328" stroke-width="0.63" /></g><g transform="translate(614.6,503.7) rotate(-4.5)"><path d="M0,0 L-4.9,-5.8 A7.6,7.6 0 0,1 -0.5,-6.5 L0.5,-6.5 A7.6,7.6 0 0,1 4.9,-5.8 Z" fill="#D4A027" /><line x1="0" y1="0" x2="0" y2="3.4" stroke="#3D3328" stroke-width="0.53" /></g><g transform="translate(631.7,512.3) rotate(46.9)"><path d="M0,0 L-7.9,-9.4 A12.3,12.3 0 0,1 -0.5,-10.5 L0.5,-10.5 A12.3,12.3 0 0,1 7.9,-9.4 Z" fill="#D4A027" /><line x1="0" y1="0" x2="0" y2="5.5" stroke="#3D3328" stroke-width="0.86" /></g><g transform="translate(608.6,521.0) rotate(-1.8)"><path d="M0,0 L-7.0,-8.4 A10.9,10.9 0 0,1 -0.5,-9.3 L0.5,-9.3 A10.9,10.9 0 0,1 7.0,-8.4 Z" fill="#D4A027" /><line x1="0" y1="0" x2="0" y2="4.9" stroke="#3D3328" stroke-width="0.77" /></g><g transform="translate(625.7,501.4) rotate(49.6)"><path d="M0,0 L-6.2,-7.3 A9.6,9.6 0 0,1 -0.5,-8.2 L0.5,-8.2 A9.6,9.6 0 0,1 6.2,-7.3 Z" fill="#D4A027" /><line x1="0" y1="0" x2="0" y2="4.3" stroke="#3D3328" stroke-width="0.67" /></g><g transform="translate(602.7,510.1) rotate(1.0)"><path d="M0,0 L-5.3,-6.3 A8.2,8.2 0 0,1 -0.5,-7.0 L0.5,-7.0 A8.2,8.2 0 0,1 5.3,-6.3 Z" fill="#E8C147" /><line x1="0" y1="0" x2="0" y2="3.7" stroke="#3D3328" stroke-width="0.58" /></g><g transform="translate(619.8,518.7) rotate(-48.0)"><path d="M0,0 L-8.3,-9.9 A12.9,12.9 0 0,1 -0.5,-10.9 L0.5,-10.9 A12.9,12.9 0 0,1 8.3,-9.9 Z" fill="#E8C147" /><line x1="0" y1="0" x2="0" y2="5.8" stroke="#3D3328" stroke-width="0.90" /></g><g transform="translate(636.9,499.1) rotate(3.7)"><path d="M0,0 L-7.4,-8.8 A11.5,11.5 0 0,1 -0.5,-9.8 L0.5,-9.8 A11.5,11.5 0 0,1 7.4,-8.8 Z" fill="#E8C147" /><line x1="0" y1="0" x2="0" y2="5.2" stroke="#3D3328" stroke-width="0.81" /></g></g><g><g transform="translate(549.5,534.2) rotate(30.8)"><path d="M0,0 L-5.7,-6.8 A8.9,8.9 0 0,1 -0.5,-7.6 L0.5,-7.6 A8.9,8.9 0 0,1 5.7,-6.8 Z" fill="#D4A027" /><line x1="0" y1="0" x2="0" y2="4.0" stroke="#3D3328" stroke-width="0.63" /></g><g transform="translate(559.8,539.4) rotate(-17.8)"><path d="M0,0 L-4.9,-5.8 A7.6,7.6 0 0,1 -0.5,-6.4 L0.5,-6.4 A7.6,7.6 0 0,1 4.9,-5.8 Z" fill="#D4A027" /><line x1="0" y1="0" x2="0" y2="3.4" stroke="#3D3328" stroke-width="0.53" /></g><g transform="translate(546.0,544.6) rotate(33.5)"><path d="M0,0 L-7.9,-9.4 A12.2,12.2 0 0,1 -0.5,-10.4 L0.5,-10.4 A12.2,12.2 0 0,1 7.9,-9.4 Z" fill="#D4A027" /><line x1="0" y1="0" x2="0" y2="5.5" stroke="#3D3328" stroke-width="0.86" /></g><g transform="translate(556.2,532.8) rotate(-15.1)"><path d="M0,0 L-7.0,-8.3 A10.9,10.9 0 0,1 -0.5,-9.2 L0.5,-9.2 A10.9,10.9 0 0,1 7.0,-8.3 Z" fill="#D4A027" /><line x1="0" y1="0" x2="0" y2="4.9" stroke="#3D3328" stroke-width="0.76" /></g><g transform="translate(566.5,538.0) rotate(36.3)"><path d="M0,0 L-6.1,-7.3 A9.5,9.5 0 0,1 -0.5,-8.1 L0.5,-8.1 A9.5,9.5 0 0,1 6.1,-7.3 Z" fill="#D4A027" /><line x1="0" y1="0" x2="0" y2="4.3" stroke="#3D3328" stroke-width="0.67" /></g></g><g><g transform="translate(573.5,548.9) rotate(-30.8)"><path d="M0,0 L-7.5,-9.0 A11.7,11.7 0 0,1 -0.5,-9.9 L0.5,-9.9 A11.7,11.7 0 0,1 7.5,-9.0 Z" fill="#E8C147" /><line x1="0" y1="0" x2="0" y2="5.3" stroke="#3D3328" stroke-width="0.82" /></g><g transform="translate(559.6,537.2) rotate(21.0)"><path d="M0,0 L-6.7,-7.9 A10.4,10.4 0 0,1 -0.5,-8.8 L0.5,-8.8 A10.4,10.4 0 0,1 6.7,-7.9 Z" fill="#E8C147" /><line x1="0" y1="0" x2="0" y2="4.7" stroke="#3D3328" stroke-width="0.73" /></g><g transform="translate(569.9,542.4) rotate(-28.0)"><path d="M0,0 L-5.8,-6.9 A9.0,9.0 0 0,1 -0.5,-7.6 L0.5,-7.6 A9.0,9.0 0 0,1 5.8,-6.9 Z" fill="#E8C147" /><line x1="0" y1="0" x2="0" y2="4.0" stroke="#3D3328" stroke-width="0.63" /></g><g transform="translate(556.1,547.6) rotate(23.7)"><path d="M0,0 L-4.9,-5.8 A7.6,7.6 0 0,1 -0.5,-6.5 L0.5,-6.5 A7.6,7.6 0 0,1 4.9,-5.8 Z" fill="#E8C147" /><line x1="0" y1="0" x2="0" y2="3.4" stroke="#3D3328" stroke-width="0.53" /></g><g transform="translate(566.3,552.7) rotate(-25.3)"><path d="M0,0 L-7.9,-9.4 A12.3,12.3 0 0,1 -0.5,-10.5 L0.5,-10.5 A12.3,12.3 0 0,1 7.9,-9.4 Z" fill="#E8C147" /><line x1="0" y1="0" x2="0" y2="5.5" stroke="#3D3328" stroke-width="0.86" /></g></g><path d="M500.2,551.0 C498.9,550.9 489.5,551.0 484.6,549.8 C479.6,548.5 448.3,538.8 440.5,536.1 C432.7,533.3 395.2,518.4 391.0,516.8 C391.0,516.9 386.3,516.7 390.3,518.6 C394.3,520.6 431.2,537.3 438.9,540.4 C446.6,543.5 477.7,554.7 482.8,556.2 C487.8,557.8 497.8,558.7 499.2,559.0 Z" fill="#6B5A48" /><g><g transform="translate(407.2,518.1) rotate(34.7)"><path d="M0,0 L-4.9,-5.8 A7.6,7.6 0 0,1 -0.5,-6.4 L0.5,-6.4 A7.6,7.6 0 0,1 4.9,-5.8 Z" fill="#D4A027" /><line x1="0" y1="0" x2="0" y2="3.4" stroke="#3D3328" stroke-width="0.53" /></g><g transform="translate(384.1,526.8) rotate(-14.3)"><path d="M0,0 L-7.9,-9.4 A12.2,12.2 0 0,1 -0.5,-10.4 L0.5,-10.4 A12.2,12.2 0 0,1 7.9,-9.4 Z" fill="#D4A027" /><line x1="0" y1="0" x2="0" y2="5.5" stroke="#3D3328" stroke-width="0.86" /></g><g transform="translate(401.2,507.2) rotate(37.5)"><path d="M0,0 L-7.0,-8.4 A10.9,10.9 0 0,1 -0.5,-9.3 L0.5,-9.3 A10.9,10.9 0 0,1 7.0,-8.4 Z" fill="#D4A027" /><line x1="0" y1="0" x2="0" y2="4.9" stroke="#3D3328" stroke-width="0.76" /></g><g transform="translate(378.2,515.9) rotate(-11.6)"><path d="M0,0 L-6.1,-7.3 A9.5,9.5 0 0,1 -0.5,-8.1 L0.5,-8.1 A9.5,9.5 0 0,1 6.1,-7.3 Z" fill="#D4A027" /><line x1="0" y1="0" x2="0" y2="4.3" stroke="#3D3328" stroke-width="0.67" /></g><g transform="translate(395.3,524.5) rotate(40.2)"><path d="M0,0 L-5.3,-6.3 A8.2,8.2 0 0,1 -0.5,-6.9 L0.5,-6.9 A8.2,8.2 0 0,1 5.3,-6.3 Z" fill="#D4A027" /><line x1="0" y1="0" x2="0" y2="3.7" stroke="#3D3328" stroke-width="0.57" /></g><g transform="translate(372.2,505.0) rotate(-8.8)"><path d="M0,0 L-8.3,-9.9 A12.9,12.9 0 0,1 -0.5,-10.9 L0.5,-10.9 A12.9,12.9 0 0,1 8.3,-9.9 Z" fill="#D4A027" /><line x1="0" y1="0" x2="0" y2="5.8" stroke="#3D3328" stroke-width="0.90" /></g><g transform="translate(389.3,513.6) rotate(42.9)"><path d="M0,0 L-7.4,-8.8 A11.5,11.5 0 0,1 -0.5,-9.8 L0.5,-9.8 A11.5,11.5 0 0,1 7.4,-8.8 Z" fill="#D4A027" /><line x1="0" y1="0" x2="0" y2="5.2" stroke="#3D3328" stroke-width="0.80" /></g><g transform="translate(406.4,522.2) rotate(-5.7)"><path d="M0,0 L-6.5,-7.8 A10.1,10.1 0 0,1 -0.5,-8.6 L0.5,-8.6 A10.1,10.1 0 0,1 6.5,-7.8 Z" fill="#D4A027" /><line x1="0" y1="0" x2="0" y2="4.6" stroke="#3D3328" stroke-width="0.71" /></g><g transform="translate(383.4,530.8) rotate(45.7)"><path d="M0,0 L-5.6,-6.7 A8.8,8.8 0 0,1 -0.5,-7.5 L0.5,-7.5 A8.8,8.8 0 0,1 5.6,-6.7 Z" fill="#D4A027" /><line x1="0" y1="0" x2="0" y2="3.9" stroke="#3D3328" stroke-width="0.61" /></g><g transform="translate(400.5,511.3) rotate(-2.9)"><path d="M0,0 L-4.8,-5.7 A7.4,7.4 0 0,1 -0.5,-6.3 L0.5,-6.3 A7.4,7.4 0 0,1 4.8,-5.7 Z" fill="#D4A027" /><line x1="0" y1="0" x2="0" y2="3.3" stroke="#3D3328" stroke-width="0.52" /></g></g><g><g transform="translate(430.6,539.6) rotate(-44.5)"><path d="M0,0 L-6.1,-7.3 A9.5,9.5 0 0,1 -0.5,-8.1 L0.5,-8.1 A9.5,9.5 0 0,1 6.1,-7.3 Z" fill="#E8C147" /><line x1="0" y1="0" x2="0" y2="4.3" stroke="#3D3328" stroke-width="0.67" /></g><g transform="translate(440.9,544.8) rotate(7.3)"><path d="M0,0 L-5.2,-6.2 A8.2,8.2 0 0,1 -0.5,-6.9 L0.5,-6.9 A8.2,8.2 0 0,1 5.2,-6.2 Z" fill="#E8C147" /><line x1="0" y1="0" x2="0" y2="3.7" stroke="#3D3328" stroke-width="0.57" /></g><g transform="translate(427.0,550.0) rotate(-41.8)"><path d="M0,0 L-8.2,-9.8 A12.8,12.8 0 0,1 -0.5,-10.9 L0.5,-10.9 A12.8,12.8 0 0,1 8.2,-9.8 Z" fill="#E8C147" /><line x1="0" y1="0" x2="0" y2="5.8" stroke="#3D3328" stroke-width="0.90" /></g><g transform="translate(437.3,538.2) rotate(10.0)"><path d="M0,0 L-7.4,-8.8 A11.5,11.5 0 0,1 -0.5,-9.7 L0.5,-9.7 A11.5,11.5 0 0,1 7.4,-8.8 Z" fill="#E8C147" /><line x1="0" y1="0" x2="0" y2="5.2" stroke="#3D3328" stroke-width="0.80" /></g><g transform="translate(423.4,543.4) rotate(-38.6)"><path d="M0,0 L-6.5,-7.7 A10.1,10.1 0 0,1 -0.5,-8.6 L0.5,-8.6 A10.1,10.1 0 0,1 6.5,-7.7 Z" fill="#E8C147" /><line x1="0" y1="0" x2="0" y2="4.5" stroke="#3D3328" stroke-width="0.71" /></g></g><path d="M499.5,532.5 C500.9,532.3 511.0,531.5 516.0,529.8 C521.0,528.1 552.0,515.2 559.7,512.4 C567.4,509.6 604.3,497.2 608.3,495.8 C608.3,495.6 611.9,492.9 607.7,493.9 C603.5,494.9 566.0,505.6 558.2,508.1 C550.4,510.5 519.0,522.0 514.0,523.4 C509.1,524.7 499.8,524.5 498.5,524.6 Z" fill="#6B5A48" /><g><g transform="translate(598.2,503.0) rotate(-40.6)"><path d="M0,0 L-5.6,-6.7 A8.8,8.8 0 0,1 -0.5,-7.5 L0.5,-7.5 A8.8,8.8 0 0,1 5.6,-6.7 Z" fill="#E8C147" /><line x1="0" y1="0" x2="0" y2="3.9" stroke="#3D3328" stroke-width="0.61" /></g><g transform="translate(615.3,483.5) rotate(11.2)"><path d="M0,0 L-4.8,-5.7 A7.4,7.4 0 0,1 -0.5,-6.3 L0.5,-6.3 A7.4,7.4 0 0,1 4.8,-5.7 Z" fill="#E8C147" /><line x1="0" y1="0" x2="0" y2="3.3" stroke="#3D3328" stroke-width="0.52" /></g><g transform="translate(592.3,492.2) rotate(-37.8)"><path d="M0,0 L-7.8,-9.3 A12.1,12.1 0 0,1 -0.5,-10.3 L0.5,-10.3 A12.1,12.1 0 0,1 7.8,-9.3 Z" fill="#E8C147" /><line x1="0" y1="0" x2="0" y2="5.4" stroke="#3D3328" stroke-width="0.85" /></g><g transform="translate(609.4,500.7) rotate(13.9)"><path d="M0,0 L-6.9,-8.2 A10.7,10.7 0 0,1 -0.5,-9.1 L0.5,-9.1 A10.7,10.7 0 0,1 6.9,-8.2 Z" fill="#E8C147" /><line x1="0" y1="0" x2="0" y2="4.8" stroke="#3D3328" stroke-width="0.75" /></g><g transform="translate(626.5,481.2) rotate(-35.1)"><path d="M0,0 L-6.0,-7.2 A9.4,9.4 0 0,1 -0.5,-8.0 L0.5,-8.0 A9.4,9.4 0 0,1 6.0,-7.2 Z" fill="#E8C147" /><line x1="0" y1="0" x2="0" y2="4.2" stroke="#3D3328" stroke-width="0.66" /></g><g transform="translate(603.4,489.9) rotate(16.7)"><path d="M0,0 L-5.1,-6.1 A8.0,8.0 0 0,1 -0.5,-6.8 L0.5,-6.8 A8.0,8.0 0 0,1 5.1,-6.1 Z" fill="#E8C147" /><line x1="0" y1="0" x2="0" y2="3.6" stroke="#3D3328" stroke-width="0.56" /></g><g transform="translate(620.5,498.4) rotate(-32.4)"><path d="M0,0 L-8.1,-9.7 A12.7,12.7 0 0,1 -0.5,-10.8 L0.5,-10.8 A12.7,12.7 0 0,1 8.1,-9.7 Z" fill="#E8C147" /><line x1="0" y1="0" x2="0" y2="5.7" stroke="#3D3328" stroke-width="0.89" /></g><g transform="translate(597.4,507.1) rotate(19.4)"><path d="M0,0 L-7.3,-8.7 A11.3,11.3 0 0,1 -0.5,-9.6 L0.5,-9.6 A11.3,11.3 0 0,1 7.3,-8.7 Z" fill="#E8C147" /><line x1="0" y1="0" x2="0" y2="5.1" stroke="#3D3328" stroke-width="0.79" /></g><g transform="translate(614.5,487.6) rotate(-29.6)"><path d="M0,0 L-6.4,-7.6 A10.0,10.0 0 0,1 -0.5,-8.5 L0.5,-8.5 A10.0,10.0 0 0,1 6.4,-7.6 Z" fill="#E8C147" /><line x1="0" y1="0" x2="0" y2="4.5" stroke="#3D3328" stroke-width="0.70" /></g><g transform="translate(591.5,496.2) rotate(22.2)"><path d="M0,0 L-5.5,-6.6 A8.6,8.6 0 0,1 -0.5,-7.3 L0.5,-7.3 A8.6,8.6 0 0,1 5.5,-6.6 Z" fill="#E8C147" /><line x1="0" y1="0" x2="0" y2="3.9" stroke="#3D3328" stroke-width="0.60" /></g></g><g><g transform="translate(553.6,511.7) rotate(11.2)"><path d="M0,0 L-5.5,-6.5 A8.5,8.5 0 0,1 -0.5,-7.2 L0.5,-7.2 A8.5,8.5 0 0,1 5.5,-6.5 Z" fill="#E8C147" /><line x1="0" y1="0" x2="0" y2="3.8" stroke="#3D3328" stroke-width="0.60" /></g><g transform="translate(539.8,516.9) rotate(-37.5)"><path d="M0,0 L-4.6,-5.5 A7.1,7.1 0 0,1 -0.5,-6.1 L0.5,-6.1 A7.1,7.1 0 0,1 4.6,-5.5 Z" fill="#E8C147" /><line x1="0" y1="0" x2="0" y2="3.2" stroke="#3D3328" stroke-width="0.50" /></g><g transform="translate(550.1,522.0) rotate(13.9)"><path d="M0,0 L-7.6,-9.0 A11.8,11.8 0 0,1 -0.5,-10.0 L0.5,-10.0 A11.8,11.8 0 0,1 7.6,-9.0 Z" fill="#E8C147" /><line x1="0" y1="0" x2="0" y2="5.3" stroke="#3D3328" stroke-width="0.83" /></g><g transform="translate(560.3,510.3) rotate(-34.7)"><path d="M0,0 L-6.7,-8.0 A10.5,10.5 0 0,1 -0.5,-8.9 L0.5,-8.9 A10.5,10.5 0 0,1 6.7,-8.0 Z" fill="#E8C147" /><line x1="0" y1="0" x2="0" y2="4.7" stroke="#3D3328" stroke-width="0.73" /></g><g transform="translate(546.5,515.5) rotate(16.7)"><path d="M0,0 L-5.8,-7.0 A9.1,9.1 0 0,1 -0.5,-7.7 L0.5,-7.7 A9.1,9.1 0 0,1 5.8,-7.0 Z" fill="#E8C147" /><line x1="0" y1="0" x2="0" y2="4.1" stroke="#3D3328" stroke-width="0.64" /></g></g><path d="M499.9,533.2 C498.6,533.1 489.5,533.6 484.5,532.0 C479.6,530.4 448.1,516.7 440.3,513.7 C432.5,510.8 394.9,498.0 390.8,496.6 C390.7,496.7 386.1,496.6 390.1,498.4 C394.0,500.2 430.9,514.7 438.6,518.0 C446.3,521.3 477.3,536.4 482.3,538.3 C487.3,540.2 497.5,540.9 498.9,541.1 Z" fill="#6B5A48" /><g><g transform="translate(396.9,509.6) rotate(8.8)"><path d="M0,0 L-5.7,-6.8 A8.9,8.9 0 0,1 -0.5,-7.6 L0.5,-7.6 A8.9,8.9 0 0,1 5.7,-6.8 Z" fill="#E8C147" /><line x1="0" y1="0" x2="0" y2="4.0" stroke="#3D3328" stroke-width="0.62" /></g><g transform="translate(373.9,490.2) rotate(-39.8)"><path d="M0,0 L-4.9,-5.8 A7.6,7.6 0 0,1 -0.5,-6.4 L0.5,-6.4 A7.6,7.6 0 0,1 4.9,-5.8 Z" fill="#E8C147" /><line x1="0" y1="0" x2="0" y2="3.4" stroke="#3D3328" stroke-width="0.53" /></g><g transform="translate(391.0,498.8) rotate(11.6)"><path d="M0,0 L-7.9,-9.4 A12.2,12.2 0 0,1 -0.5,-10.4 L0.5,-10.4 A12.2,12.2 0 0,1 7.9,-9.4 Z" fill="#E8C147" /><line x1="0" y1="0" x2="0" y2="5.5" stroke="#3D3328" stroke-width="0.86" /></g><g transform="translate(408.1,507.3) rotate(-37.1)"><path d="M0,0 L-7.0,-8.3 A10.9,10.9 0 0,1 -0.5,-9.2 L0.5,-9.2 A10.9,10.9 0 0,1 7.0,-8.3 Z" fill="#E8C147" /><line x1="0" y1="0" x2="0" y2="4.9" stroke="#3D3328" stroke-width="0.76" /></g><g transform="translate(385.0,487.9) rotate(14.3)"><path d="M0,0 L-6.1,-7.3 A9.5,9.5 0 0,1 -0.5,-8.1 L0.5,-8.1 A9.5,9.5 0 0,1 6.1,-7.3 Z" fill="#E8C147" /><line x1="0" y1="0" x2="0" y2="4.3" stroke="#3D3328" stroke-width="0.67" /></g><g transform="translate(402.1,496.5) rotate(-34.3)"><path d="M0,0 L-5.2,-6.2 A8.2,8.2 0 0,1 -0.5,-6.9 L0.5,-6.9 A8.2,8.2 0 0,1 5.2,-6.2 Z" fill="#E8C147" /><line x1="0" y1="0" x2="0" y2="3.7" stroke="#3D3328" stroke-width="0.57" /></g><g transform="translate(379.0,505.1) rotate(17.1)"><path d="M0,0 L-8.2,-9.8 A12.8,12.8 0 0,1 -0.5,-10.9 L0.5,-10.9 A12.8,12.8 0 0,1 8.2,-9.8 Z" fill="#E8C147" /><line x1="0" y1="0" x2="0" y2="5.8" stroke="#3D3328" stroke-width="0.90" /></g><g transform="translate(396.1,485.6) rotate(-31.6)"><path d="M0,0 L-7.4,-8.8 A11.5,11.5 0 0,1 -0.5,-9.7 L0.5,-9.7 A11.5,11.5 0 0,1 7.4,-8.8 Z" fill="#E8C147" /><line x1="0" y1="0" x2="0" y2="5.2" stroke="#3D3328" stroke-width="0.80" /></g><g transform="translate(373.1,494.3) rotate(20.2)"><path d="M0,0 L-6.5,-7.7 A10.1,10.1 0 0,1 -0.5,-8.6 L0.5,-8.6 A10.1,10.1 0 0,1 6.5,-7.7 Z" fill="#E8C147" /><line x1="0" y1="0" x2="0" y2="4.5" stroke="#3D3328" stroke-width="0.71" /></g><g transform="translate(390.2,502.8) rotate(-28.8)"><path d="M0,0 L-5.6,-6.7 A8.7,8.7 0 0,1 -0.5,-7.4 L0.5,-7.4 A8.7,8.7 0 0,1 5.6,-6.7 Z" fill="#E8C147" /><line x1="0" y1="0" x2="0" y2="3.9" stroke="#3D3328" stroke-width="0.61" /></g></g><g><g transform="translate(436.4,522.6) rotate(-40.6)"><path d="M0,0 L-4.9,-5.8 A7.6,7.6 0 0,1 -0.5,-6.5 L0.5,-6.5 A7.6,7.6 0 0,1 4.9,-5.8 Z" fill="#E8C147" /><line x1="0" y1="0" x2="0" y2="3.4" stroke="#3D3328" stroke-width="0.53" /></g><g transform="translate(422.5,527.8) rotate(10.8)"><path d="M0,0 L-7.9,-9.4 A12.3,12.3 0 0,1 -0.5,-10.4 L0.5,-10.4 A12.3,12.3 0 0,1 7.9,-9.4 Z" fill="#E8C147" /><line x1="0" y1="0" x2="0" y2="5.5" stroke="#3D3328" stroke-width="0.86" /></g><g transform="translate(432.8,516.1) rotate(-37.8)"><path d="M0,0 L-7.0,-8.4 A10.9,10.9 0 0,1 -0.5,-9.3 L0.5,-9.3 A10.9,10.9 0 0,1 7.0,-8.4 Z" fill="#E8C147" /><line x1="0" y1="0" x2="0" y2="4.9" stroke="#3D3328" stroke-width="0.77" /></g><g transform="translate(419.0,521.3) rotate(13.5)"><path d="M0,0 L-6.1,-7.3 A9.6,9.6 0 0,1 -0.5,-8.1 L0.5,-8.1 A9.6,9.6 0 0,1 6.1,-7.3 Z" fill="#E8C147" /><line x1="0" y1="0" x2="0" y2="4.3" stroke="#3D3328" stroke-width="0.67" /></g><g transform="translate(429.2,526.4) rotate(-35.1)"><path d="M0,0 L-5.3,-6.3 A8.2,8.2 0 0,1 -0.5,-7.0 L0.5,-7.0 A8.2,8.2 0 0,1 5.3,-6.3 Z" fill="#E8C147" /><line x1="0" y1="0" x2="0" y2="3.7" stroke="#3D3328" stroke-width="0.57" /></g></g><path d="M498.3,506.8 C499.7,506.6 509.7,505.6 514.7,504.1 C519.8,502.6 550.9,491.5 558.6,488.5 C566.3,485.5 603.2,469.8 607.2,468.1 C607.1,467.9 610.7,464.9 606.5,466.2 C602.3,467.5 564.8,481.6 557.0,484.2 C549.2,486.8 517.9,496.4 513.0,497.6 C508.0,498.8 498.6,498.8 497.3,498.9 Z" fill="#6B5A48" /><g><g transform="translate(606.5,459.8) rotate(-22.2)"><path d="M0,0 L-7.6,-9.1 A11.9,11.9 0 0,1 -0.5,-10.1 L0.5,-10.1 A11.9,11.9 0 0,1 7.6,-9.1 Z" fill="#D4A027" /><line x1="0" y1="0" x2="0" y2="5.3" stroke="#3D3328" stroke-width="0.83" /></g><g transform="translate(623.6,468.4) rotate(29.6)"><path d="M0,0 L-6.8,-8.0 A10.5,10.5 0 0,1 -0.5,-8.9 L0.5,-8.9 A10.5,10.5 0 0,1 6.8,-8.0 Z" fill="#D4A027" /><line x1="0" y1="0" x2="0" y2="4.7" stroke="#3D3328" stroke-width="0.74" /></g><g transform="translate(600.5,477.1) rotate(-19.4)"><path d="M0,0 L-5.9,-7.0 A9.1,9.1 0 0,1 -0.5,-7.8 L0.5,-7.8 A9.1,9.1 0 0,1 5.9,-7.0 Z" fill="#D4A027" /><line x1="0" y1="0" x2="0" y2="4.1" stroke="#3D3328" stroke-width="0.64" /></g><g transform="translate(617.6,457.5) rotate(32.4)"><path d="M0,0 L-5.0,-6.0 A7.8,7.8 0 0,1 -0.5,-6.6 L0.5,-6.6 A7.8,7.8 0 0,1 5.0,-6.0 Z" fill="#D4A027" /><line x1="0" y1="0" x2="0" y2="3.5" stroke="#3D3328" stroke-width="0.55" /></g><g transform="translate(594.5,466.2) rotate(-16.7)"><path d="M0,0 L-8.0,-9.5 A12.5,12.5 0 0,1 -0.5,-10.6 L0.5,-10.6 A12.5,12.5 0 0,1 8.0,-9.5 Z" fill="#D4A027" /><line x1="0" y1="0" x2="0" y2="5.6" stroke="#3D3328" stroke-width="0.87" /></g><g transform="translate(611.6,474.8) rotate(35.1)"><path d="M0,0 L-7.1,-8.5 A11.1,11.1 0 0,1 -0.5,-9.4 L0.5,-9.4 A11.1,11.1 0 0,1 7.1,-8.5 Z" fill="#D4A027" /><line x1="0" y1="0" x2="0" y2="5.0" stroke="#3D3328" stroke-width="0.78" /></g><g transform="translate(588.6,455.3) rotate(-13.9)"><path d="M0,0 L-6.3,-7.5 A9.8,9.8 0 0,1 -0.5,-8.3 L0.5,-8.3 A9.8,9.8 0 0,1 6.3,-7.5 Z" fill="#D4A027" /><line x1="0" y1="0" x2="0" y2="4.4" stroke="#3D3328" stroke-width="0.68" /></g><g transform="translate(605.7,463.9) rotate(37.8)"><path d="M0,0 L-5.4,-6.4 A8.4,8.4 0 0,1 -0.5,-7.1 L0.5,-7.1 A8.4,8.4 0 0,1 5.4,-6.4 Z" fill="#D4A027" /><line x1="0" y1="0" x2="0" y2="3.8" stroke="#3D3328" stroke-width="0.59" /></g><g transform="translate(622.8,472.5) rotate(-10.8)"><path d="M0,0 L-4.5,-5.4 A7.0,7.0 0 0,1 -0.5,-6.0 L0.5,-6.0 A7.0,7.0 0 0,1 4.5,-5.4 Z" fill="#D4A027" /><line x1="0" y1="0" x2="0" y2="3.2" stroke="#3D3328" stroke-width="0.49" /></g><g transform="translate(599.7,481.1) rotate(40.6)"><path d="M0,0 L-7.5,-8.9 A11.7,11.7 0 0,1 -0.5,-9.9 L0.5,-9.9 A11.7,11.7 0 0,1 7.5,-8.9 Z" fill="#D4A027" /><line x1="0" y1="0" x2="0" y2="5.3" stroke="#3D3328" stroke-width="0.82" /></g></g><g><g transform="translate(540.8,487.7) rotate(-8.4)"><path d="M0,0 L-5.2,-6.2 A8.1,8.1 0 0,1 -0.5,-6.9 L0.5,-6.9 A8.1,8.1 0 0,1 5.2,-6.2 Z" fill="#D4A027" /><line x1="0" y1="0" x2="0" y2="3.6" stroke="#3D3328" stroke-width="0.57" /></g><g transform="translate(551.0,492.8) rotate(42.9)"><path d="M0,0 L-8.2,-9.8 A12.7,12.7 0 0,1 -0.5,-10.8 L0.5,-10.8 A12.7,12.7 0 0,1 8.2,-9.8 Z" fill="#D4A027" /><line x1="0" y1="0" x2="0" y2="5.7" stroke="#3D3328" stroke-width="0.89" /></g><g transform="translate(537.2,498.0) rotate(-5.7)"><path d="M0,0 L-7.3,-8.7 A11.4,11.4 0 0,1 -0.5,-9.7 L0.5,-9.7 A11.4,11.4 0 0,1 7.3,-8.7 Z" fill="#D4A027" /><line x1="0" y1="0" x2="0" y2="5.1" stroke="#3D3328" stroke-width="0.80" /></g><g transform="translate(547.5,486.3) rotate(46.1)"><path d="M0,0 L-6.5,-7.7 A10.0,10.0 0 0,1 -0.5,-8.5 L0.5,-8.5 A10.0,10.0 0 0,1 6.5,-7.7 Z" fill="#D4A027" /><line x1="0" y1="0" x2="0" y2="4.5" stroke="#3D3328" stroke-width="0.70" /></g><g transform="translate(557.7,491.4) rotate(-2.9)"><path d="M0,0 L-5.6,-6.6 A8.7,8.7 0 0,1 -0.5,-7.4 L0.5,-7.4 A8.7,8.7 0 0,1 5.6,-6.6 Z" fill="#D4A027" /><line x1="0" y1="0" x2="0" y2="3.9" stroke="#3D3328" stroke-width="0.61" /></g></g><g><g transform="translate(496.5,393.4) rotate(36.3)"><path d="M0,0 L-6.1,-7.2 A9.4,9.4 0 0,1 -0.5,-8.0 L0.5,-8.0 A9.4,9.4 0 0,1 6.1,-7.2 Z" fill="#D4A027" /><line x1="0" y1="0" x2="0" y2="4.2" stroke="#3D3328" stroke-width="0.66" /></g><g transform="translate(525.6,408.0) rotate(-12.4)"><path d="M0,0 L-5.2,-6.2 A8.1,8.1 0 0,1 -0.5,-6.8 L0.5,-6.8 A8.1,8.1 0 0,1 5.2,-6.2 Z" fill="#D4A027" /><line x1="0" y1="0" x2="0" y2="3.6" stroke="#3D3328" stroke-width="0.56" /></g><g transform="translate(486.4,374.9) rotate(39.0)"><path d="M0,0 L-8.2,-9.8 A12.7,12.7 0 0,1 -0.5,-10.8 L0.5,-10.8 A12.7,12.7 0 0,1 8.2,-9.8 Z" fill="#D4A027" /><line x1="0" y1="0" x2="0" y2="5.7" stroke="#3D3328" stroke-width="0.89" /></g><g transform="translate(515.4,389.5) rotate(-9.6)"><path d="M0,0 L-7.3,-8.7 A11.4,11.4 0 0,1 -0.5,-9.7 L0.5,-9.7 A11.4,11.4 0 0,1 7.3,-8.7 Z" fill="#D4A027" /><line x1="0" y1="0" x2="0" y2="5.1" stroke="#3D3328" stroke-width="0.80" /></g><g transform="translate(476.2,404.2) rotate(42.2)"><path d="M0,0 L-6.4,-7.7 A10.0,10.0 0 0,1 -0.5,-8.5 L0.5,-8.5 A10.0,10.0 0 0,1 6.4,-7.7 Z" fill="#D4A027" /><line x1="0" y1="0" x2="0" y2="4.5" stroke="#3D3328" stroke-width="0.70" /></g><g transform="translate(505.3,371.0) rotate(-6.9)"><path d="M0,0 L-5.6,-6.6 A8.7,8.7 0 0,1 -0.5,-7.4 L0.5,-7.4 A8.7,8.7 0 0,1 5.6,-6.6 Z" fill="#D4A027" /><line x1="0" y1="0" x2="0" y2="3.9" stroke="#3D3328" stroke-width="0.61" /></g><g transform="translate(466.1,385.7) rotate(44.9)"><path d="M0,0 L-4.7,-5.6 A7.3,7.3 0 0,1 -0.5,-6.2 L0.5,-6.2 A7.3,7.3 0 0,1 4.7,-5.6 Z" fill="#D4A027" /><line x1="0" y1="0" x2="0" y2="3.3" stroke="#3D3328" stroke-width="0.51" /></g><g transform="translate(495.2,400.3) rotate(-4.1)"><path d="M0,0 L-7.7,-9.2 A12.0,12.0 0 0,1 -0.5,-10.2 L0.5,-10.2 A12.0,12.0 0 0,1 7.7,-9.2 Z" fill="#D4A027" /><line x1="0" y1="0" x2="0" y2="5.4" stroke="#3D3328" stroke-width="0.84" /></g><g transform="translate(524.2,414.9) rotate(47.6)"><path d="M0,0 L-6.8,-8.1 A10.6,10.6 0 0,1 -0.5,-9.0 L0.5,-9.0 A10.6,10.6 0 0,1 6.8,-8.1 Z" fill="#D4A027" /><line x1="0" y1="0" x2="0" y2="4.8" stroke="#3D3328" stroke-width="0.74" /></g><g transform="translate(485.0,381.8) rotate(-1.4)"><path d="M0,0 L-6.0,-7.1 A9.3,9.3 0 0,1 -0.5,-7.9 L0.5,-7.9 A9.3,9.3 0 0,1 6.0,-7.1 Z" fill="#D4A027" /><line x1="0" y1="0" x2="0" y2="4.2" stroke="#3D3328" stroke-width="0.65" /></g><g transform="translate(514.1,396.4) rotate(-50.0)"><path d="M0,0 L-5.1,-6.0 A7.9,7.9 0 0,1 -0.5,-6.7 L0.5,-6.7 A7.9,7.9 0 0,1 5.1,-6.0 Z" fill="#E8C147" /><line x1="0" y1="0" x2="0" y2="3.6" stroke="#3D3328" stroke-width="0.55" /></g><g transform="translate(474.9,411.1) rotate(1.4)"><path d="M0,0 L-8.1,-9.6 A12.6,12.6 0 0,1 -0.5,-10.7 L0.5,-10.7 A12.6,12.6 0 0,1 8.1,-9.6 Z" fill="#E8C147" /><line x1="0" y1="0" x2="0" y2="5.6" stroke="#3D3328" stroke-width="0.88" /></g><g transform="translate(504.0,377.9) rotate(-47.3)"><path d="M0,0 L-7.2,-8.6 A11.2,11.2 0 0,1 -0.5,-9.5 L0.5,-9.5 A11.2,11.2 0 0,1 7.2,-8.6 Z" fill="#E8C147" /><line x1="0" y1="0" x2="0" y2="5.0" stroke="#3D3328" stroke-width="0.78" /></g><g transform="translate(533.0,392.5) rotate(4.1)"><path d="M0,0 L-6.3,-7.5 A9.8,9.8 0 0,1 -0.5,-8.4 L0.5,-8.4 A9.8,9.8 0 0,1 6.3,-7.5 Z" fill="#E8C147" /><line x1="0" y1="0" x2="0" y2="4.4" stroke="#3D3328" stroke-width="0.69" /></g><g transform="translate(493.8,407.2) rotate(-44.5)"><path d="M0,0 L-5.5,-6.5 A8.5,8.5 0 0,1 -0.5,-7.2 L0.5,-7.2 A8.5,8.5 0 0,1 5.5,-6.5 Z" fill="#E8C147" /><line x1="0" y1="0" x2="0" y2="3.8" stroke="#3D3328" stroke-width="0.59" /></g><g transform="translate(522.9,374.0) rotate(7.3)"><path d="M0,0 L-4.6,-5.5 A7.1,7.1 0 0,1 -0.5,-6.1 L0.5,-6.1 A7.1,7.1 0 0,1 4.6,-5.5 Z" fill="#E8C147" /><line x1="0" y1="0" x2="0" y2="3.2" stroke="#3D3328" stroke-width="0.50" /></g></g><path d="M492.0,598.0 Q481.0,603.0 476.0,600.0" stroke="#3D3328" stroke-width="2.8" fill="none" stroke-linecap="round" opacity="0.85" /></svg>