<svg xmlns="http://www.w3.org/2000/svg" viewBox="0 0 1000 800" preserveAspectRatio="xMidYMid meet" role="img" aria-label="bonsai-cc tree"><defs><linearGradient id="bcc-sky" x1="0" y1="0" x2="0" y2="1"><stop offset="0%" stop-color="#F4F3EE" /><stop offset="100%" stop-color="#E8E5DC" /></linearGradient><linearGradient id="bcc-ground" x1="0" y1="0" x2="0" y2="1"><stop offset="0%" stop-color="#E8E5DC" /><stop offset="100%" stop-color="#B1ADA1" /></linearGradient><linearGradient id="bcc-pot" x1="0" y1="0" x2="0" y2="1"><stop offset="0%" stop-color="#8E3D24" /><stop offset="100%" stop-color="#3D3328" /></linearGradient><linearGradient id="sky" x1="0" y1="0" x2="0" y2="1"><stop offset="0%" stop-color="#F4F3EE" /><stop offset="100%" stop-color="#E8E5DC" /></linearGradient><linearGradient id="ground" x1="0" y1="0" x2="0" y2="1"><stop offset="0%" stop-color="#E8E5DC" /><stop offset="100%" stop-color="#B1ADA1" /></linearGradient><radialGradient id="sun" cx="0.5" cy="0.5" r="0.5"><stop offset="0%" stop-color="#C15F3C" stop-opacity="0.55" /><stop offset="70%" stop-color="#C15F3C" stop-opacity="0.20" /><stop offset="100%" stop-color="#C15F3C" stop-opacity="0" /></radialGradient><radialGradient id="moon" cx="0.45" cy="0.45" r="0.55"><stop offset="0%" stop-color="#F4F3EE" stop-opacity="0.85" /><stop offset="100%" stop-color="#F4F3EE" stop-opacity="0.35" /></radialGradient><radialGradient id="pot-shadow" cx="0.5" cy="0.5" r="0.5"><stop offset="0%" stop-color="#191919" stop-opacity="0.18" /><stop offset="100%" stop-color="#191919" stop-opacity="0" /></radialGradient></defs><rect x="0" y="0" width="1000" height="600" fill="url(#bcc-sky)" /><circle cx="780" cy="180" r="80" fill="url(#sun)" /><circle cx="780" cy="180" r="28" fill="#C15F3C" fill-opacity="0.55" /><rect x="0" y="600" width="1000" height="200" fill="url(#bcc-ground)" /><ellipse cx="500" cy="728" rx="190" ry="22" fill="url(#pot-shadow)" /><path d="M340,600 Q336,608 344,618 L370,700 Q376,710 384,710 L616,710 Q624,710 630,700 L656,618 Q664,608 660,600 Z" fill="url(#bcc-pot)" /><path d="M350,622 Q500,626 650,622" stroke="#3D3328" stroke-width="1.5" fill="none" stroke-linecap="round" opacity="0.55" /><ellipse cx="500" cy="602" rx="152" ry="8" fill="#3D3328" /><circle cx="430" cy="601" r="4" fill="#B1ADA1" opacity="0.7" /><circle cx="530" cy="603" r="3" fill="#B1ADA1" opacity="0.55" /><circle cx="590" cy="601" r="3.5" fill="#B1ADA1" opacity="0.7" /><path d="M513.4,596.1 C511.8,591.0 497.7,543.3 493.4,535.0 C489.1,526.8 467.3,508.4 462.3,497.1 C457.3,485.8 435.8,407.3 433.4,399.2 C432.8,399.3 425.5,392.2 426.6,400.8 C427.7,409.5 443.0,490.9 446.7,502.9 C450.5,514.9 468.3,536.5 471.6,545.0 C474.9,553.4 485.3,599.0 486.6,603.9 Z" fill="#6B5A48" /><path d="M504.0,598.8 C502.5,593.8 489.5,546.9 485.6,538.6 C481.7,530.3 461.5,510.7 457.0,499.1 C452.5,487.5 433.9,407.8 431.8,399.6" stroke="#3D3328" stroke-width="3.5" fill="none" opacity="0.36" stroke-linecap="round" /><line x1="468.6" y1="531.3" x2="464.2" y2="524.9" stroke="#3D3328" stroke-width="1.1" stroke-linecap="round" opacity="0.40" /><line x1="440.3" y1="476.4" x2="438.8" y2="470.2" stroke="#3D3328" stroke-width="1.1" stroke-linecap="round" opacity="0.40" /><line x1="480.2" y1="543.8" x2="473.9" y2="534.8" stroke="#3D3328" stroke-width="1.1" stroke-linecap="round" opacity="0.40" /><line x1="453.2" y1="508.4" x2="447.7" y2="500.5" stroke="#3D3328" stroke-width="1.1" stroke-linecap="round" opacity="0.40" /><path d="M490.5,559.6 C488.9,559.3 478.0,556.5 471.7,556.3 C465.5,556.1 425.3,551.7 415.7,557.2 C406.1,562.8 361.7,617.6 356.8,623.1 C356.9,623.2 353.1,629.6 358.2,624.5 C363.3,619.4 408.7,566.7 418.1,561.6 C427.5,556.6 465.4,563.2 471.3,563.7 C477.1,564.3 487.1,568.0 488.5,568.4 Z" fill="#6B5A48" /><g><ellipse cx="361.2" cy="614.7" rx="2.8" ry="6.3" fill="#A8C28A" transform="rotate(68.5,361.2,614.7)" /><ellipse cx="345.0" cy="620.8" rx="4.7" ry="10.5" fill="#A8C28A" transform="rotate(-108.0,345.0,620.8)" /><ellipse cx="357.0" cy="626.8" rx="4.1" ry="9.3" fill="#A8C28A" transform="rotate(78.4,357.0,626.8)" /><ellipse cx="369.0" cy="613.1" rx="3.6" ry="8.1" fill="#A8C28A" transform="rotate(-98.1,369.0,613.1)" /><ellipse cx="352.8" cy="619.2" rx="3.0" ry="6.8" fill="#B5CB9B" transform="rotate(88.2,352.8,619.2)" /><ellipse cx="364.8" cy="625.2" rx="4.9" ry="11.0" fill="#B5CB9B" transform="rotate(-88.2,364.8,625.2)" /><ellipse cx="348.7" cy="611.6" rx="4.4" ry="9.8" fill="#B5CB9B" transform="rotate(98.1,348.7,611.6)" /><ellipse cx="360.6" cy="617.6" rx="3.8" ry="8.6" fill="#B5CB9B" transform="rotate(-78.4,360.6,617.6)" /></g><g transform="translate(350.1,627.4) rotate(-84.4)"><ellipse cx="0" cy="-6" rx="2.2" ry="7.0" fill="#A8C28A" /></g><g transform="translate(353.5,648.1) rotate(-75.2)"><ellipse cx="0" cy="-6" rx="1.9" ry="6.2" fill="#A8C28A" /></g><g transform="translate(348.9,668.8) rotate(-96.0)"><ellipse cx="0" cy="-6" rx="1.7" ry="5.5" fill="#A8C28A" /></g><g transform="translate(352.3,689.5) rotate(-86.8)"><ellipse cx="0" cy="-6" rx="1.5" ry="4.8" fill="#A8C28A" /></g><g transform="translate(347.7,710.1) rotate(-77.5)"><ellipse cx="0" cy="-6" rx="2.3" ry="7.3" fill="#A8C28A" /></g><g transform="translate(365.2,627.4) rotate(-74.8)"><ellipse cx="0" cy="-6" rx="1.9" ry="6.1" fill="#A8C28A" /></g><g transform="translate(360.6,643.7) rotate(-95.6)"><ellipse cx="0" cy="-6" rx="1.7" ry="5.4" fill="#A8C28A" /></g><g transform="translate(364.0,660.1) rotate(-86.5)"><ellipse cx="0" cy="-6" rx="1.5" ry="4.7" fill="#A8C28A" /></g><g transform="translate(359.4,676.4) rotate(-77.2)"><ellipse cx="0" cy="-6" rx="2.2" ry="7.1" fill="#A8C28A" /></g><g transform="translate(362.8,692.8) rotate(-98.1)"><ellipse cx="0" cy="-6" rx="2.0" ry="6.4" fill="#A8C28A" /></g><g transform="translate(366.3,709.1) rotate(-88.9)"><ellipse cx="0" cy="-6" rx="1.8" ry="5.7" fill="#A8C28A" /></g><g transform="translate(361.6,725.4) rotate(-79.6)"><ellipse cx="0" cy="-6" rx="1.6" ry="5.0" fill="#A8C28A" /></g><g transform="translate(342.2,627.4) rotate(-95.3)"><ellipse cx="0" cy="-6" rx="1.6" ry="5.2" fill="#A8C28A" /></g><g transform="translate(345.6,648.5) rotate(-86.1)"><ellipse cx="0" cy="-6" rx="1.4" ry="4.5" fill="#A8C28A" /></g><g transform="translate(349.1,669.6) rotate(-76.9)"><ellipse cx="0" cy="-6" rx="2.2" ry="7.0" fill="#A8C28A" /></g><g transform="translate(344.4,690.7) rotate(-97.8)"><ellipse cx="0" cy="-6" rx="2.0" ry="6.3" fill="#A8C28A" /></g><g transform="translate(357.4,627.4) rotate(-85.8)"><ellipse cx="0" cy="-6" rx="2.4" ry="7.6" fill="#A8C28A" /></g><g transform="translate(360.8,647.1) rotate(-76.6)"><ellipse cx="0" cy="-6" rx="2.1" ry="6.9" fill="#A8C28A" /></g><g transform="translate(356.2,666.7) rotate(-97.4)"><ellipse cx="0" cy="-6" rx="1.9" ry="6.1" fill="#A8C28A" /></g><g transform="translate(359.6,686.4) rotate(-88.2)"><ellipse cx="0" cy="-6" rx="1.7" ry="5.4" fill="#A8C28A" /></g><g transform="translate(355.0,706.0) rotate(-78.9)"><ellipse cx="0" cy="-6" rx="1.5" ry="4.7" fill="#A8C28A" /></g><g transform="translate(372.5,627.4) rotate(-76.2)"><ellipse cx="0" cy="-6" rx="2.1" ry="6.7" fill="#A8C28A" /></g><g transform="translate(367.9,646.2) rotate(-97.1)"><ellipse cx="0" cy="-6" rx="1.9" ry="6.0" fill="#A8C28A" /></g><g transform="translate(371.3,665.0) rotate(-87.9)"><ellipse cx="0" cy="-6" rx="1.6" ry="5.3" fill="#A8C28A" /></g><g transform="translate(374.7,683.8) rotate(-78.7)"><ellipse cx="0" cy="-6" rx="1.4" ry="4.6" fill="#A8C28A" /></g><g transform="translate(370.1,702.5) rotate(-99.5)"><ellipse cx="0" cy="-6" rx="2.2" ry="7.0" fill="#A8C28A" /></g><g transform="translate(373.5,721.3) rotate(-90.4)"><ellipse cx="0" cy="-6" rx="2.0" ry="6.3" fill="#A8C28A" /></g><path d="M490.5,568.4 C491.9,568.0 501.7,564.0 507.5,563.7 C513.4,563.5 551.4,560.6 560.8,565.9 C570.3,571.2 615.8,622.4 620.8,627.6 C620.9,627.4 627.0,631.7 622.2,626.2 C617.4,620.7 572.9,567.4 563.4,561.5 C553.8,555.7 513.7,556.4 507.5,556.3 C501.2,556.1 490.1,559.3 488.5,559.6 Z" fill="#6B5A48" /><g><ellipse cx="613.3" cy="627.3" rx="3.9" ry="8.8" fill="#A8C28A" transform="rotate(-154.6,613.3,627.3)" /><ellipse cx="625.3" cy="613.6" rx="3.4" ry="7.6" fill="#A8C28A" transform="rotate(31.8,625.3,613.6)" /><ellipse cx="609.1" cy="619.7" rx="2.8" ry="6.4" fill="#A8C28A" transform="rotate(-143.3,609.1,619.7)" /><ellipse cx="621.1" cy="625.7" rx="4.7" ry="10.6" fill="#A8C28A" transform="rotate(41.6,621.1,625.7)" /><ellipse cx="633.1" cy="612.0" rx="4.2" ry="9.3" fill="#B5CB9B" transform="rotate(-133.4,633.1,612.0)" /><ellipse cx="616.9" cy="618.1" rx="3.6" ry="8.1" fill="#B5CB9B" transform="rotate(51.5,616.9,618.1)" /><ellipse cx="628.9" cy="624.1" rx="3.1" ry="6.9" fill="#B5CB9B" transform="rotate(-123.5,628.9,624.1)" /><ellipse cx="612.8" cy="610.4" rx="4.9" ry="11.1" fill="#B5CB9B" transform="rotate(61.4,612.8,610.4)" /></g><g transform="translate(635.3,627.4) rotate(-99.8)"><ellipse cx="0" cy="-6" rx="1.5" ry="4.9" fill="#A8C28A" /></g><g transform="translate(638.7,648.6) rotate(-90.6)"><ellipse cx="0" cy="-6" rx="2.3" ry="7.3" fill="#A8C28A" /></g><g transform="translate(634.1,669.9) rotate(-81.3)"><ellipse cx="0" cy="-6" rx="2.1" ry="6.6" fill="#A8C28A" /></g><g transform="translate(637.5,691.1) rotate(-72.1)"><ellipse cx="0" cy="-6" rx="1.8" ry="5.9" fill="#A8C28A" /></g><g transform="translate(620.3,627.4) rotate(-90.2)"><ellipse cx="0" cy="-6" rx="2.2" ry="7.2" fill="#A8C28A" /></g><g transform="translate(615.7,647.2) rotate(-80.9)"><ellipse cx="0" cy="-6" rx="2.0" ry="6.5" fill="#A8C28A" /></g><g transform="translate(619.1,667.0) rotate(-71.8)"><ellipse cx="0" cy="-6" rx="1.8" ry="5.7" fill="#A8C28A" /></g><g transform="translate(622.5,686.8) rotate(-92.7)"><ellipse cx="0" cy="-6" rx="1.6" ry="5.0" fill="#A8C28A" /></g><g transform="translate(617.9,706.6) rotate(-83.4)"><ellipse cx="0" cy="-6" rx="2.3" ry="7.5" fill="#A8C28A" /></g><g transform="translate(635.5,627.4) rotate(-80.7)"><ellipse cx="0" cy="-6" rx="2.0" ry="6.3" fill="#A8C28A" /></g><g transform="translate(630.9,646.3) rotate(-71.4)"><ellipse cx="0" cy="-6" rx="1.8" ry="5.6" fill="#A8C28A" /></g><g transform="translate(634.3,665.2) rotate(-92.4)"><ellipse cx="0" cy="-6" rx="1.5" ry="4.9" fill="#A8C28A" /></g><g transform="translate(629.7,684.1) rotate(-83.1)"><ellipse cx="0" cy="-6" rx="2.3" ry="7.4" fill="#A8C28A" /></g><g transform="translate(633.1,703.0) rotate(-73.9)"><ellipse cx="0" cy="-6" rx="2.1" ry="6.6" fill="#A8C28A" /></g><g transform="translate(628.5,721.9) rotate(-94.7)"><ellipse cx="0" cy="-6" rx="1.9" ry="5.9" fill="#A8C28A" /></g><g transform="translate(612.5,627.4) rotate(-71.1)"><ellipse cx="0" cy="-6" rx="1.7" ry="5.5" fill="#A8C28A" /></g><g transform="translate(615.9,647.3) rotate(-92.0)"><ellipse cx="0" cy="-6" rx="1.5" ry="4.8" fill="#A8C28A" /></g><g transform="translate(611.3,667.3) rotate(-82.7)"><ellipse cx="0" cy="-6" rx="2.3" ry="7.2" fill="#A8C28A" /></g><g transform="translate(614.7,687.2) rotate(-73.5)"><ellipse cx="0" cy="-6" rx="2.0" ry="6.5" fill="#A8C28A" /></g><g transform="translate(627.6,627.4) rotate(-91.6)"><ellipse cx="0" cy="-6" rx="1.4" ry="4.6" fill="#A8C28A" /></g><g transform="translate(631.0,646.2) rotate(-82.5)"><ellipse cx="0" cy="-6" rx="2.2" ry="7.1" fill="#A8C28A" /></g><g transform="translate(626.4,664.9) rotate(-73.2)"><ellipse cx="0" cy="-6" rx="2.0" ry="6.4" fill="#A8C28A" /></g><g transform="translate(629.8,683.7) rotate(-94.1)"><ellipse cx="0" cy="-6" rx="1.8" ry="5.7" fill="#A8C28A" /></g><g transform="translate(625.2,702.5) rotate(-84.8)"><ellipse cx="0" cy="-6" rx="1.5" ry="4.9" fill="#A8C28A" /></g><path d="M490.5,559.6 C488.9,559.3 478.0,556.6 471.8,556.3 C465.6,555.9 425.3,550.5 415.7,555.7 C406.1,561.0 361.7,613.9 356.8,619.2 C356.9,619.4 353.1,625.5 358.2,620.6 C363.3,615.7 408.7,564.9 418.1,560.2 C427.5,555.4 465.3,563.0 471.2,563.7 C477.1,564.4 487.1,568.0 488.5,568.4 Z" fill="#6B5A48" /><g><ellipse cx="365.6" cy="620.1" rx="5.0" ry="11.3" fill="#A8C28A" transform="rotate(-14.8,365.6,620.1)" /><ellipse cx="349.4" cy="626.1" rx="4.5" ry="10.1" fill="#A8C28A" transform="rotate(171.5,349.4,626.1)" /><ellipse cx="361.4" cy="612.4" rx="3.9" ry="8.9" fill="#A8C28A" transform="rotate(-4.9,361.4,612.4)" /><ellipse cx="345.3" cy="618.5" rx="3.4" ry="7.7" fill="#A8C28A" transform="rotate(-180.0,345.3,618.5)" /><ellipse cx="357.2" cy="624.5" rx="2.9" ry="6.4" fill="#B5CB9B" transform="rotate(6.4,357.2,624.5)" /><ellipse cx="369.2" cy="610.8" rx="4.7" ry="10.6" fill="#B5CB9B" transform="rotate(-170.1,369.2,610.8)" /><ellipse cx="353.1" cy="616.9" rx="4.2" ry="9.4" fill="#B5CB9B" transform="rotate(16.2,353.1,616.9)" /><ellipse cx="365.0" cy="622.9" rx="3.6" ry="8.2" fill="#B5CB9B" transform="rotate(-160.2,365.0,622.9)" /></g><g transform="translate(362.4,627.4) rotate(-85.1)"><ellipse cx="0" cy="-6" rx="1.9" ry="5.9" fill="#A8C28A" /></g><g transform="translate(365.8,646.4) rotate(-75.9)"><ellipse cx="0" cy="-6" rx="1.6" ry="5.2" fill="#A8C28A" /></g><g transform="translate(361.2,665.4) rotate(-96.7)"><ellipse cx="0" cy="-6" rx="1.4" ry="4.5" fill="#A8C28A" /></g><g transform="translate(364.6,684.5) rotate(-87.5)"><ellipse cx="0" cy="-6" rx="2.2" ry="7.0" fill="#A8C28A" /></g><g transform="translate(360.0,703.5) rotate(-78.2)"><ellipse cx="0" cy="-6" rx="2.0" ry="6.3" fill="#A8C28A" /></g><g transform="translate(363.4,722.5) rotate(-99.2)"><ellipse cx="0" cy="-6" rx="1.7" ry="5.5" fill="#A8C28A" /></g><g transform="translate(347.4,627.4) rotate(-75.5)"><ellipse cx="0" cy="-6" rx="1.6" ry="5.1" fill="#A8C28A" /></g><g transform="translate(342.8,647.5) rotate(-96.4)"><ellipse cx="0" cy="-6" rx="2.4" ry="7.6" fill="#A8C28A" /></g><g transform="translate(346.2,667.7) rotate(-87.2)"><ellipse cx="0" cy="-6" rx="2.1" ry="6.8" fill="#A8C28A" /></g><g transform="translate(349.6,687.8) rotate(-78.0)"><ellipse cx="0" cy="-6" rx="1.9" ry="6.1" fill="#A8C28A" /></g><g transform="translate(362.6,627.4) rotate(-96.1)"><ellipse cx="0" cy="-6" rx="2.3" ry="7.4" fill="#A8C28A" /></g><g transform="translate(358.0,646.3) rotate(-86.8)"><ellipse cx="0" cy="-6" rx="2.1" ry="6.7" fill="#A8C28A" /></g><g transform="translate(361.4,665.2) rotate(-77.6)"><ellipse cx="0" cy="-6" rx="1.9" ry="6.0" fill="#A8C28A" /></g><g transform="translate(356.8,684.2) rotate(-98.5)"><ellipse cx="0" cy="-6" rx="1.6" ry="5.3" fill="#A8C28A" /></g><g transform="translate(360.2,703.1) rotate(-89.3)"><ellipse cx="0" cy="-6" rx="1.4" ry="4.5" fill="#A8C28A" /></g><g transform="translate(369.7,627.4) rotate(-86.5)"><ellipse cx="0" cy="-6" rx="2.1" ry="6.6" fill="#A8C28A" /></g><g transform="translate(373.1,645.6) rotate(-77.3)"><ellipse cx="0" cy="-6" rx="1.8" ry="5.8" fill="#A8C28A" /></g><g transform="translate(368.5,663.8) rotate(-98.1)"><ellipse cx="0" cy="-6" rx="1.6" ry="5.1" fill="#A8C28A" /></g><g transform="translate(371.9,682.0) rotate(-88.9)"><ellipse cx="0" cy="-6" rx="1.4" ry="4.4" fill="#A8C28A" /></g><g transform="translate(375.3,700.2) rotate(-79.8)"><ellipse cx="0" cy="-6" rx="2.2" ry="6.9" fill="#A8C28A" /></g><g transform="translate(370.7,718.4) rotate(-70.5)"><ellipse cx="0" cy="-6" rx="1.9" ry="6.2" fill="#A8C28A" /></g><g transform="translate(354.7,627.4) rotate(-76.9)"><ellipse cx="0" cy="-6" rx="1.8" ry="5.7" fill="#A8C28A" /></g><g transform="translate(358.1,646.2) rotate(-97.9)"><ellipse cx="0" cy="-6" rx="1.6" ry="5.0" fill="#A8C28A" /></g><g transform="translate(353.5,664.9) rotate(-88.6)"><ellipse cx="0" cy="-6" rx="2.3" ry="7.5" fill="#A8C28A" /></g><g transform="translate(356.9,683.7) rotate(-79.4)"><ellipse cx="0" cy="-6" rx="2.1" ry="6.7" fill="#A8C28A" /></g><path d="M490.5,568.4 C491.9,568.0 501.7,564.1 507.6,563.7 C513.5,563.4 551.5,559.4 560.9,564.4 C570.3,569.4 615.8,618.7 620.8,623.7 C620.9,623.6 627.0,627.6 622.2,622.3 C617.4,617.0 572.9,565.5 563.3,560.0 C553.7,554.5 513.6,556.3 507.4,556.3 C501.2,556.2 490.1,559.3 488.5,559.6 Z" fill="#6B5A48" /><g><ellipse cx="617.7" cy="612.9" rx="3.7" ry="8.4" fill="#A8C28A" transform="rotate(124.9,617.7,612.9)" /><ellipse cx="629.7" cy="618.9" rx="3.2" ry="7.2" fill="#A8C28A" transform="rotate(-50.1,629.7,618.9)" /><ellipse cx="613.5" cy="625.0" rx="5.1" ry="11.4" fill="#A8C28A" transform="rotate(134.8,613.5,625.0)" /><ellipse cx="625.5" cy="611.3" rx="4.5" ry="10.2" fill="#A8C28A" transform="rotate(-40.2,625.5,611.3)" /><ellipse cx="609.4" cy="617.4" rx="4.0" ry="8.9" fill="#B5CB9B" transform="rotate(144.7,609.4,617.4)" /><ellipse cx="621.3" cy="623.4" rx="3.4" ry="7.7" fill="#B5CB9B" transform="rotate(-30.4,621.3,623.4)" /><ellipse cx="633.3" cy="609.7" rx="2.9" ry="6.5" fill="#B5CB9B" transform="rotate(156.0,633.3,609.7)" /><ellipse cx="617.2" cy="615.7" rx="4.8" ry="10.7" fill="#B5CB9B" transform="rotate(-20.5,617.2,615.7)" /></g><g transform="translate(617.5,627.4) rotate(-70.4)"><ellipse cx="0" cy="-6" rx="2.2" ry="7.0" fill="#A8C28A" /></g><g transform="translate(620.9,646.5) rotate(-91.3)"><ellipse cx="0" cy="-6" rx="2.0" ry="6.3" fill="#A8C28A" /></g><g transform="translate(616.3,665.5) rotate(-82.0)"><ellipse cx="0" cy="-6" rx="1.7" ry="5.6" fill="#A8C28A" /></g><g transform="translate(619.7,684.6) rotate(-72.8)"><ellipse cx="0" cy="-6" rx="1.5" ry="4.9" fill="#A8C28A" /></g><g transform="translate(615.1,703.7) rotate(-93.6)"><ellipse cx="0" cy="-6" rx="2.3" ry="7.4" fill="#A8C28A" /></g><g transform="translate(632.6,627.4) rotate(-90.9)"><ellipse cx="0" cy="-6" rx="1.9" ry="6.2" fill="#A8C28A" /></g><g transform="translate(628.0,645.7) rotate(-81.6)"><ellipse cx="0" cy="-6" rx="1.7" ry="5.5" fill="#A8C28A" /></g><g transform="translate(631.4,664.0) rotate(-72.5)"><ellipse cx="0" cy="-6" rx="1.5" ry="4.7" fill="#A8C28A" /></g><g transform="translate(634.9,682.3) rotate(-93.4)"><ellipse cx="0" cy="-6" rx="2.3" ry="7.2" fill="#A8C28A" /></g><g transform="translate(630.2,700.7) rotate(-84.1)"><ellipse cx="0" cy="-6" rx="2.0" ry="6.5" fill="#A8C28A" /></g><g transform="translate(633.7,719.0) rotate(-74.9)"><ellipse cx="0" cy="-6" rx="1.8" ry="5.8" fill="#A8C28A" /></g><g transform="translate(617.7,627.4) rotate(-81.4)"><ellipse cx="0" cy="-6" rx="1.7" ry="5.3" fill="#A8C28A" /></g><g transform="translate(613.0,646.4) rotate(-72.1)"><ellipse cx="0" cy="-6" rx="1.4" ry="4.6" fill="#A8C28A" /></g><g transform="translate(616.5,665.3) rotate(-93.1)"><ellipse cx="0" cy="-6" rx="2.2" ry="7.1" fill="#A8C28A" /></g><g transform="translate(611.9,684.3) rotate(-83.8)"><ellipse cx="0" cy="-6" rx="2.0" ry="6.4" fill="#A8C28A" /></g><g transform="translate(624.8,627.4) rotate(-71.8)"><ellipse cx="0" cy="-6" rx="1.4" ry="4.5" fill="#A8C28A" /></g><g transform="translate(628.2,645.4) rotate(-92.7)"><ellipse cx="0" cy="-6" rx="2.2" ry="6.9" fill="#A8C28A" /></g><g transform="translate(623.6,663.5) rotate(-83.4)"><ellipse cx="0" cy="-6" rx="1.9" ry="6.2" fill="#A8C28A" /></g><g transform="translate(627.0,681.5) rotate(-74.2)"><ellipse cx="0" cy="-6" rx="1.7" ry="5.5" fill="#A8C28A" /></g><g transform="translate(630.4,699.6) rotate(-95.2)"><ellipse cx="0" cy="-6" rx="1.5" ry="4.8" fill="#A8C28A" /></g><g transform="translate(609.8,627.4) rotate(-92.4)"><ellipse cx="0" cy="-6" rx="2.1" ry="6.8" fill="#A8C28A" /></g><g transform="translate(613.2,644.9) rotate(-83.2)"><ellipse cx="0" cy="-6" rx="1.9" ry="6.1" fill="#A8C28A" /></g><g transform="translate(608.6,662.5) rotate(-73.9)"><ellipse cx="0" cy="-6" rx="1.7" ry="5.4" fill="#A8C28A" /></g><g transform="translate(612.0,680.0) rotate(-94.8)"><ellipse cx="0" cy="-6" rx="1.4" ry="4.6" fill="#A8C28A" /></g><g transform="translate(607.4,697.5) rotate(-85.5)"><ellipse cx="0" cy="-6" rx="2.2" ry="7.1" fill="#A8C28A" /></g><g transform="translate(610.8,715.0) rotate(-76.4)"><ellipse cx="0" cy="-6" rx="2.0" ry="6.4" fill="#A8C28A" /></g><path d="M481.5,532.8 C479.9,532.5 469.0,529.7 462.8,529.4 C456.6,529.1 416.2,523.2 406.6,529.2 C397.0,535.1 352.6,594.5 347.7,600.4 C347.9,600.5 344.1,607.3 349.3,601.7 C354.4,596.1 399.8,538.9 409.2,533.5 C418.6,528.1 456.3,536.2 462.2,536.9 C468.1,537.6 478.1,541.1 479.5,541.5 Z" fill="#6B5A48" /><g><ellipse cx="355.7" cy="601.5" rx="4.9" ry="10.9" fill="#A8C28A" transform="rotate(38.8,355.7,601.5)" /><ellipse cx="339.6" cy="587.9" rx="4.3" ry="9.7" fill="#A8C28A" transform="rotate(-136.2,339.6,587.9)" /><ellipse cx="351.5" cy="593.9" rx="3.8" ry="8.5" fill="#A8C28A" transform="rotate(48.7,351.5,593.9)" /><ellipse cx="335.4" cy="600.0" rx="3.2" ry="7.3" fill="#A8C28A" transform="rotate(-126.4,335.4,600.0)" /><ellipse cx="347.3" cy="586.3" rx="5.1" ry="11.5" fill="#B5CB9B" transform="rotate(58.6,347.3,586.3)" /><ellipse cx="359.3" cy="592.3" rx="4.6" ry="10.2" fill="#B5CB9B" transform="rotate(-116.5,359.3,592.3)" /><ellipse cx="343.2" cy="598.3" rx="4.0" ry="9.0" fill="#B5CB9B" transform="rotate(69.9,343.2,598.3)" /><ellipse cx="355.1" cy="584.7" rx="3.5" ry="7.8" fill="#B5CB9B" transform="rotate(-106.6,355.1,584.7)" /></g><g transform="translate(347.4,600.5) rotate(-84.2)"><ellipse cx="0" cy="-6" rx="1.6" ry="5.1" fill="#A8C28A" /></g><g transform="translate(342.8,618.9) rotate(-74.9)"><ellipse cx="0" cy="-6" rx="2.4" ry="7.6" fill="#A8C28A" /></g><g transform="translate(346.2,637.2) rotate(-95.9)"><ellipse cx="0" cy="-6" rx="2.1" ry="6.8" fill="#A8C28A" /></g><g transform="translate(341.6,655.5) rotate(-86.6)"><ellipse cx="0" cy="-6" rx="1.9" ry="6.1" fill="#A8C28A" /></g><g transform="translate(345.0,673.9) rotate(-77.4)"><ellipse cx="0" cy="-6" rx="1.7" ry="5.4" fill="#A8C28A" /></g><g transform="translate(354.5,600.5) rotate(-74.6)"><ellipse cx="0" cy="-6" rx="2.3" ry="7.4" fill="#A8C28A" /></g><g transform="translate(357.9,618.3) rotate(-95.5)"><ellipse cx="0" cy="-6" rx="2.1" ry="6.7" fill="#A8C28A" /></g><g transform="translate(353.3,636.0) rotate(-86.2)"><ellipse cx="0" cy="-6" rx="1.9" ry="6.0" fill="#A8C28A" /></g><g transform="translate(356.8,653.7) rotate(-77.1)"><ellipse cx="0" cy="-6" rx="1.6" ry="5.3" fill="#A8C28A" /></g><g transform="translate(360.2,671.4) rotate(-98.0)"><ellipse cx="0" cy="-6" rx="1.4" ry="4.5" fill="#A8C28A" /></g><g transform="translate(355.6,689.2) rotate(-88.7)"><ellipse cx="0" cy="-6" rx="2.2" ry="7.0" fill="#A8C28A" /></g><g transform="translate(339.6,600.5) rotate(-95.2)"><ellipse cx="0" cy="-6" rx="2.1" ry="6.6" fill="#A8C28A" /></g><g transform="translate(343.0,618.5) rotate(-86.0)"><ellipse cx="0" cy="-6" rx="1.8" ry="5.8" fill="#A8C28A" /></g><g transform="translate(338.4,636.5) rotate(-76.7)"><ellipse cx="0" cy="-6" rx="1.6" ry="5.1" fill="#A8C28A" /></g><g transform="translate(341.8,654.5) rotate(-97.6)"><ellipse cx="0" cy="-6" rx="1.4" ry="4.4" fill="#A8C28A" /></g><g transform="translate(354.7,600.5) rotate(-85.6)"><ellipse cx="0" cy="-6" rx="1.8" ry="5.7" fill="#A8C28A" /></g><g transform="translate(350.1,623.6) rotate(-76.4)"><ellipse cx="0" cy="-6" rx="1.6" ry="5.0" fill="#A8C28A" /></g><g transform="translate(353.5,646.7) rotate(-97.3)"><ellipse cx="0" cy="-6" rx="2.3" ry="7.5" fill="#A8C28A" /></g><g transform="translate(348.9,669.8) rotate(-88.0)"><ellipse cx="0" cy="-6" rx="2.1" ry="6.7" fill="#A8C28A" /></g><g transform="translate(331.7,600.5) rotate(-76.0)"><ellipse cx="0" cy="-6" rx="1.5" ry="4.8" fill="#A8C28A" /></g><g transform="translate(335.1,617.5) rotate(-96.9)"><ellipse cx="0" cy="-6" rx="2.3" ry="7.3" fill="#A8C28A" /></g><g transform="translate(338.5,634.4) rotate(-87.8)"><ellipse cx="0" cy="-6" rx="2.1" ry="6.6" fill="#A8C28A" /></g><g transform="translate(333.9,651.4) rotate(-78.5)"><ellipse cx="0" cy="-6" rx="1.8" ry="5.9" fill="#A8C28A" /></g><g transform="translate(337.3,668.3) rotate(-99.4)"><ellipse cx="0" cy="-6" rx="1.6" ry="5.2" fill="#A8C28A" /></g><g transform="translate(332.7,685.2) rotate(-90.1)"><ellipse cx="0" cy="-6" rx="1.4" ry="4.4" fill="#A8C28A" /></g><path d="M489.7,565.8 C491.2,565.4 501.3,562.0 507.1,561.2 C513.0,560.4 550.8,551.5 560.2,556.2 C569.6,561.0 615.0,613.0 620.0,618.2 C620.1,618.0 626.3,622.3 621.5,616.8 C616.7,611.3 572.1,557.0 562.5,551.8 C552.9,546.5 512.6,553.3 506.4,553.7 C500.1,554.1 489.3,556.8 487.8,557.0 Z" fill="#6B5A48" /><g><ellipse cx="632.8" cy="617.1" rx="3.6" ry="8.0" fill="#A8C28A" transform="rotate(-69.9,632.8,617.1)" /><ellipse cx="616.6" cy="623.2" rx="3.0" ry="6.8" fill="#A8C28A" transform="rotate(116.5,616.6,623.2)" /><ellipse cx="628.6" cy="609.5" rx="4.9" ry="11.0" fill="#A8C28A" transform="rotate(-60.0,628.6,609.5)" /><ellipse cx="612.5" cy="615.6" rx="4.3" ry="9.8" fill="#A8C28A" transform="rotate(126.4,612.5,615.6)" /><ellipse cx="624.4" cy="621.6" rx="3.8" ry="8.5" fill="#B5CB9B" transform="rotate(-50.1,624.4,621.6)" /><ellipse cx="608.3" cy="608.0" rx="3.3" ry="7.3" fill="#B5CB9B" transform="rotate(136.2,608.3,608.0)" /><ellipse cx="620.3" cy="613.9" rx="5.1" ry="11.5" fill="#B5CB9B" transform="rotate(-40.2,620.3,613.9)" /><ellipse cx="632.2" cy="619.9" rx="4.6" ry="10.3" fill="#B5CB9B" transform="rotate(146.1,632.2,619.9)" /></g><g transform="translate(615.9,624.8) rotate(-70.2)"><ellipse cx="0" cy="-6" rx="1.9" ry="6.1" fill="#A8C28A" /></g><g transform="translate(619.3,644.2) rotate(-91.2)"><ellipse cx="0" cy="-6" rx="1.7" ry="5.4" fill="#A8C28A" /></g><g transform="translate(622.7,663.5) rotate(-82.0)"><ellipse cx="0" cy="-6" rx="1.5" ry="4.7" fill="#A8C28A" /></g><g transform="translate(618.1,682.8) rotate(-72.7)"><ellipse cx="0" cy="-6" rx="2.2" ry="7.1" fill="#A8C28A" /></g><g transform="translate(621.5,702.2) rotate(-93.6)"><ellipse cx="0" cy="-6" rx="2.0" ry="6.4" fill="#A8C28A" /></g><g transform="translate(616.9,721.5) rotate(-84.4)"><ellipse cx="0" cy="-6" rx="1.8" ry="5.7" fill="#A8C28A" /></g><g transform="translate(631.0,624.8) rotate(-90.8)"><ellipse cx="0" cy="-6" rx="1.6" ry="5.2" fill="#A8C28A" /></g><g transform="translate(634.5,645.4) rotate(-81.6)"><ellipse cx="0" cy="-6" rx="1.4" ry="4.5" fill="#A8C28A" /></g><g transform="translate(629.8,666.0) rotate(-72.4)"><ellipse cx="0" cy="-6" rx="2.2" ry="7.0" fill="#A8C28A" /></g><g transform="translate(633.3,686.6) rotate(-93.3)"><ellipse cx="0" cy="-6" rx="2.0" ry="6.3" fill="#A8C28A" /></g><g transform="translate(616.1,624.8) rotate(-81.3)"><ellipse cx="0" cy="-6" rx="2.4" ry="7.6" fill="#A8C28A" /></g><g transform="translate(611.5,644.1) rotate(-72.0)"><ellipse cx="0" cy="-6" rx="2.1" ry="6.9" fill="#A8C28A" /></g><g transform="translate(614.9,663.5) rotate(-92.9)"><ellipse cx="0" cy="-6" rx="1.9" ry="6.1" fill="#A8C28A" /></g><g transform="translate(618.3,682.8) rotate(-83.8)"><ellipse cx="0" cy="-6" rx="1.7" ry="5.4" fill="#A8C28A" /></g><g transform="translate(613.7,702.1) rotate(-74.5)"><ellipse cx="0" cy="-6" rx="1.5" ry="4.7" fill="#A8C28A" /></g><g transform="translate(631.2,624.8) rotate(-71.8)"><ellipse cx="0" cy="-6" rx="2.1" ry="6.7" fill="#A8C28A" /></g><g transform="translate(626.6,643.3) rotate(-92.6)"><ellipse cx="0" cy="-6" rx="1.9" ry="6.0" fill="#A8C28A" /></g><g transform="translate(630.0,661.8) rotate(-83.4)"><ellipse cx="0" cy="-6" rx="1.6" ry="5.3" fill="#A8C28A" /></g><g transform="translate(625.4,680.4) rotate(-74.1)"><ellipse cx="0" cy="-6" rx="1.4" ry="4.6" fill="#A8C28A" /></g><g transform="translate(628.8,698.9) rotate(-95.1)"><ellipse cx="0" cy="-6" rx="2.2" ry="7.0" fill="#A8C28A" /></g><g transform="translate(624.2,717.4) rotate(-85.8)"><ellipse cx="0" cy="-6" rx="2.0" ry="6.3" fill="#A8C28A" /></g><g transform="translate(608.2,624.8) rotate(-92.2)"><ellipse cx="0" cy="-6" rx="1.8" ry="5.9" fill="#A8C28A" /></g><g transform="translate(611.6,644.1) rotate(-83.1)"><ellipse cx="0" cy="-6" rx="1.6" ry="5.1" fill="#A8C28A" /></g><g transform="translate(607.0,663.4) rotate(-73.8)"><ellipse cx="0" cy="-6" rx="1.4" ry="4.4" fill="#A8C28A" /></g><g transform="translate(610.4,682.7) rotate(-94.7)"><ellipse cx="0" cy="-6" rx="2.2" ry="6.9" fill="#A8C28A" /></g><path d="M469.5,515.6 C467.9,515.3 456.1,512.2 450.6,512.3 C445.1,512.3 411.7,511.3 403.4,516.4 C395.2,521.5 356.1,568.3 351.8,573.1 C351.9,573.2 348.7,578.8 353.2,574.4 C357.7,570.1 397.9,525.3 406.0,520.7 C414.1,516.2 445.3,519.4 450.4,519.7 C455.5,520.1 466.1,524.0 467.5,524.4 Z" fill="#6B5A48" /><g><ellipse cx="347.4" cy="564.3" rx="4.7" ry="10.5" fill="#A8C28A" transform="rotate(-156.0,347.4,564.3)" /><ellipse cx="359.4" cy="570.3" rx="4.1" ry="9.3" fill="#A8C28A" transform="rotate(30.4,359.4,570.3)" /><ellipse cx="343.2" cy="576.4" rx="3.6" ry="8.1" fill="#A8C28A" transform="rotate(-146.1,343.2,576.4)" /><ellipse cx="355.2" cy="562.7" rx="3.1" ry="6.9" fill="#A8C28A" transform="rotate(40.2,355.2,562.7)" /><ellipse cx="339.0" cy="568.8" rx="4.9" ry="11.1" fill="#B5CB9B" transform="rotate(-136.2,339.0,568.8)" /><ellipse cx="351.0" cy="574.8" rx="4.4" ry="9.8" fill="#B5CB9B" transform="rotate(50.1,351.0,574.8)" /><ellipse cx="363.0" cy="561.1" rx="3.8" ry="8.6" fill="#B5CB9B" transform="rotate(-126.4,363.0,561.1)" /><ellipse cx="346.8" cy="567.2" rx="3.3" ry="7.4" fill="#B5CB9B" transform="rotate(60.0,346.8,567.2)" /></g><g transform="translate(350.6,576.2) rotate(-84.1)"><ellipse cx="0" cy="-6" rx="2.3" ry="7.3" fill="#A8C28A" /></g><g transform="translate(346.0,594.9) rotate(-74.8)"><ellipse cx="0" cy="-6" rx="2.1" ry="6.6" fill="#A8C28A" /></g><g transform="translate(349.4,613.7) rotate(-95.8)"><ellipse cx="0" cy="-6" rx="1.8" ry="5.9" fill="#A8C28A" /></g><g transform="translate(352.8,632.4) rotate(-86.6)"><ellipse cx="0" cy="-6" rx="1.6" ry="5.2" fill="#A8C28A" /></g><g transform="translate(348.2,651.2) rotate(-77.3)"><ellipse cx="0" cy="-6" rx="1.4" ry="4.5" fill="#A8C28A" /></g><g transform="translate(351.6,669.9) rotate(-98.2)"><ellipse cx="0" cy="-6" rx="2.2" ry="6.9" fill="#A8C28A" /></g><g transform="translate(365.7,576.2) rotate(-74.6)"><ellipse cx="0" cy="-6" rx="2.0" ry="6.5" fill="#A8C28A" /></g><g transform="translate(361.1,595.8) rotate(-95.4)"><ellipse cx="0" cy="-6" rx="1.8" ry="5.8" fill="#A8C28A" /></g><g transform="translate(364.5,615.4) rotate(-86.2)"><ellipse cx="0" cy="-6" rx="1.6" ry="5.0" fill="#A8C28A" /></g><g transform="translate(359.9,635.0) rotate(-76.9)"><ellipse cx="0" cy="-6" rx="2.4" ry="7.5" fill="#A8C28A" /></g><g transform="translate(342.7,576.2) rotate(-95.1)"><ellipse cx="0" cy="-6" rx="1.8" ry="5.6" fill="#A8C28A" /></g><g transform="translate(346.1,594.8) rotate(-85.9)"><ellipse cx="0" cy="-6" rx="1.5" ry="4.9" fill="#A8C28A" /></g><g transform="translate(341.5,613.4) rotate(-76.6)"><ellipse cx="0" cy="-6" rx="2.3" ry="7.4" fill="#A8C28A" /></g><g transform="translate(344.9,631.9) rotate(-97.5)"><ellipse cx="0" cy="-6" rx="2.1" ry="6.7" fill="#A8C28A" /></g><g transform="translate(348.4,650.5) rotate(-88.4)"><ellipse cx="0" cy="-6" rx="1.9" ry="5.9" fill="#A8C28A" /></g><g transform="translate(357.9,576.2) rotate(-85.5)"><ellipse cx="0" cy="-6" rx="1.5" ry="4.8" fill="#A8C28A" /></g><g transform="translate(361.3,594.1) rotate(-76.4)"><ellipse cx="0" cy="-6" rx="2.3" ry="7.2" fill="#A8C28A" /></g><g transform="translate(356.7,612.0) rotate(-97.2)"><ellipse cx="0" cy="-6" rx="2.0" ry="6.5" fill="#A8C28A" /></g><g transform="translate(360.1,630.0) rotate(-88.0)"><ellipse cx="0" cy="-6" rx="1.8" ry="5.8" fill="#A8C28A" /></g><g transform="translate(355.5,647.9) rotate(-78.7)"><ellipse cx="0" cy="-6" rx="1.6" ry="5.1" fill="#A8C28A" /></g><g transform="translate(358.9,665.8) rotate(-99.6)"><ellipse cx="0" cy="-6" rx="2.4" ry="7.6" fill="#A8C28A" /></g><path d="M489.7,565.8 C491.2,565.4 502.1,562.1 507.3,561.1 C512.4,560.2 543.2,550.0 551.3,554.7 C559.3,559.3 599.6,611.9 604.0,617.1 C604.1,617.0 609.7,621.4 605.5,615.8 C601.3,610.2 562.1,555.5 553.8,550.4 C545.6,545.2 511.7,553.2 506.2,553.7 C500.7,554.3 489.3,556.8 487.8,557.0 Z" fill="#6B5A48" /><g><ellipse cx="593.1" cy="615.3" rx="3.4" ry="7.6" fill="#A8C28A" transform="rotate(-151.8,593.1,615.3)" /><ellipse cx="605.0" cy="601.6" rx="2.8" ry="6.4" fill="#A8C28A" transform="rotate(34.6,605.0,601.6)" /><ellipse cx="617.0" cy="607.6" rx="4.7" ry="10.6" fill="#A8C28A" transform="rotate(-141.9,617.0,607.6)" /><ellipse cx="600.9" cy="613.7" rx="4.2" ry="9.4" fill="#A8C28A" transform="rotate(44.5,600.9,613.7)" /><ellipse cx="612.8" cy="600.0" rx="3.6" ry="8.2" fill="#B5CB9B" transform="rotate(-132.0,612.8,600.0)" /><ellipse cx="596.7" cy="606.1" rx="3.1" ry="6.9" fill="#B5CB9B" transform="rotate(54.4,596.7,606.1)" /><ellipse cx="608.6" cy="612.0" rx="4.9" ry="11.1" fill="#B5CB9B" transform="rotate(-122.1,608.6,612.0)" /><ellipse cx="592.5" cy="618.1" rx="4.4" ry="9.9" fill="#B5CB9B" transform="rotate(64.2,592.5,618.1)" /></g><g transform="translate(620.2,617.6) rotate(-71.1)"><ellipse cx="0" cy="-6" rx="1.6" ry="5.1" fill="#A8C28A" /></g><g transform="translate(615.6,637.2) rotate(-91.9)"><ellipse cx="0" cy="-6" rx="2.4" ry="7.6" fill="#A8C28A" /></g><g transform="translate(619.0,656.8) rotate(-82.7)"><ellipse cx="0" cy="-6" rx="2.1" ry="6.8" fill="#A8C28A" /></g><g transform="translate(614.4,676.5) rotate(-73.4)"><ellipse cx="0" cy="-6" rx="1.9" ry="6.1" fill="#A8C28A" /></g><g transform="translate(597.2,617.6) rotate(-91.5)"><ellipse cx="0" cy="-6" rx="2.3" ry="7.4" fill="#A8C28A" /></g><g transform="translate(600.7,636.2) rotate(-82.4)"><ellipse cx="0" cy="-6" rx="2.1" ry="6.7" fill="#A8C28A" /></g><g transform="translate(596.0,654.8) rotate(-73.1)"><ellipse cx="0" cy="-6" rx="1.9" ry="6.0" fill="#A8C28A" /></g><g transform="translate(599.5,673.4) rotate(-94.0)"><ellipse cx="0" cy="-6" rx="1.6" ry="5.3" fill="#A8C28A" /></g><g transform="translate(602.9,691.9) rotate(-84.8)"><ellipse cx="0" cy="-6" rx="1.4" ry="4.5" fill="#A8C28A" /></g><g transform="translate(612.4,617.6) rotate(-82.0)"><ellipse cx="0" cy="-6" rx="2.1" ry="6.6" fill="#A8C28A" /></g><g transform="translate(615.8,635.6) rotate(-72.8)"><ellipse cx="0" cy="-6" rx="1.8" ry="5.8" fill="#A8C28A" /></g><g transform="translate(611.2,653.5) rotate(-93.6)"><ellipse cx="0" cy="-6" rx="1.6" ry="5.1" fill="#A8C28A" /></g><g transform="translate(614.6,671.4) rotate(-84.5)"><ellipse cx="0" cy="-6" rx="1.4" ry="4.4" fill="#A8C28A" /></g><g transform="translate(610.0,689.3) rotate(-75.2)"><ellipse cx="0" cy="-6" rx="2.2" ry="6.9" fill="#A8C28A" /></g><g transform="translate(613.4,707.2) rotate(-96.1)"><ellipse cx="0" cy="-6" rx="1.9" ry="6.2" fill="#A8C28A" /></g><g transform="translate(597.4,617.6) rotate(-72.5)"><ellipse cx="0" cy="-6" rx="1.8" ry="5.7" fill="#A8C28A" /></g><g transform="translate(592.8,635.9) rotate(-93.3)"><ellipse cx="0" cy="-6" rx="1.6" ry="5.0" fill="#A8C28A" /></g><g transform="translate(596.2,654.2) rotate(-84.1)"><ellipse cx="0" cy="-6" rx="2.3" ry="7.5" fill="#A8C28A" /></g><g transform="translate(591.6,672.5) rotate(-74.8)"><ellipse cx="0" cy="-6" rx="2.1" ry="6.7" fill="#A8C28A" /></g><path d="M475.5,524.2 C473.9,523.9 462.0,520.7 456.5,520.8 C451.1,520.9 417.7,520.8 409.5,525.5 C401.3,530.2 362.1,572.9 357.8,577.2 C357.9,577.4 354.7,582.6 359.2,578.7 C363.7,574.7 403.8,534.1 411.9,529.9 C420.0,525.7 451.3,528.1 456.5,528.3 C461.6,528.6 472.1,532.6 473.5,533.0 Z" fill="#6B5A48" /><g><ellipse cx="366.1" cy="577.4" rx="4.5" ry="10.1" fill="#A8C28A" transform="rotate(180.0,366.1,577.4)" /><ellipse cx="350.0" cy="583.5" rx="4.0" ry="8.9" fill="#A8C28A" transform="rotate(3.5,350.0,583.5)" /><ellipse cx="362.0" cy="569.8" rx="3.4" ry="7.7" fill="#A8C28A" transform="rotate(-171.5,362.0,569.8)" /><ellipse cx="345.8" cy="575.9" rx="2.9" ry="6.5" fill="#A8C28A" transform="rotate(14.8,345.8,575.9)" /><ellipse cx="357.8" cy="581.9" rx="4.7" ry="10.7" fill="#B5CB9B" transform="rotate(-161.6,357.8,581.9)" /><ellipse cx="369.8" cy="568.2" rx="4.2" ry="9.5" fill="#B5CB9B" transform="rotate(24.7,369.8,568.2)" /><ellipse cx="353.6" cy="574.3" rx="3.7" ry="8.2" fill="#B5CB9B" transform="rotate(-151.8,353.6,574.3)" /><ellipse cx="365.6" cy="580.3" rx="3.1" ry="7.0" fill="#B5CB9B" transform="rotate(34.6,365.6,580.3)" /></g><g transform="translate(356.4,584.8) rotate(-85.2)"><ellipse cx="0" cy="-6" rx="2.0" ry="6.3" fill="#A8C28A" /></g><g transform="translate(359.8,604.0) rotate(-76.0)"><ellipse cx="0" cy="-6" rx="1.7" ry="5.6" fill="#A8C28A" /></g><g transform="translate(363.2,623.3) rotate(-96.9)"><ellipse cx="0" cy="-6" rx="1.5" ry="4.9" fill="#A8C28A" /></g><g transform="translate(358.6,642.6) rotate(-87.6)"><ellipse cx="0" cy="-6" rx="2.3" ry="7.3" fill="#A8C28A" /></g><g transform="translate(362.0,661.8) rotate(-78.5)"><ellipse cx="0" cy="-6" rx="2.1" ry="6.6" fill="#A8C28A" /></g><g transform="translate(371.5,584.8) rotate(-75.6)"><ellipse cx="0" cy="-6" rx="1.7" ry="5.4" fill="#A8C28A" /></g><g transform="translate(375.0,603.2) rotate(-96.6)"><ellipse cx="0" cy="-6" rx="1.5" ry="4.7" fill="#A8C28A" /></g><g transform="translate(370.3,621.7) rotate(-87.3)"><ellipse cx="0" cy="-6" rx="2.2" ry="7.2" fill="#A8C28A" /></g><g transform="translate(373.8,640.2) rotate(-78.1)"><ellipse cx="0" cy="-6" rx="2.0" ry="6.5" fill="#A8C28A" /></g><g transform="translate(369.1,658.7) rotate(-98.9)"><ellipse cx="0" cy="-6" rx="1.8" ry="5.8" fill="#A8C28A" /></g><g transform="translate(372.6,677.1) rotate(-89.8)"><ellipse cx="0" cy="-6" rx="1.6" ry="5.0" fill="#A8C28A" /></g><g transform="translate(356.6,584.8) rotate(-96.2)"><ellipse cx="0" cy="-6" rx="1.4" ry="4.6" fill="#A8C28A" /></g><g transform="translate(351.9,604.0) rotate(-86.9)"><ellipse cx="0" cy="-6" rx="2.2" ry="7.1" fill="#A8C28A" /></g><g transform="translate(355.4,623.2) rotate(-77.8)"><ellipse cx="0" cy="-6" rx="2.0" ry="6.3" fill="#A8C28A" /></g><g transform="translate(358.8,642.4) rotate(-98.7)"><ellipse cx="0" cy="-6" rx="1.8" ry="5.6" fill="#A8C28A" /></g><g transform="translate(371.7,584.8) rotate(-86.7)"><ellipse cx="0" cy="-6" rx="2.2" ry="6.9" fill="#A8C28A" /></g><g transform="translate(367.1,603.0) rotate(-77.4)"><ellipse cx="0" cy="-6" rx="1.9" ry="6.2" fill="#A8C28A" /></g><g transform="translate(370.5,621.2) rotate(-98.4)"><ellipse cx="0" cy="-6" rx="1.7" ry="5.5" fill="#A8C28A" /></g><g transform="translate(365.9,639.5) rotate(-89.1)"><ellipse cx="0" cy="-6" rx="1.5" ry="4.8" fill="#A8C28A" /></g><g transform="translate(369.3,657.7) rotate(-79.9)"><ellipse cx="0" cy="-6" rx="2.3" ry="7.2" fill="#A8C28A" /></g><path d="M469.5,524.4 C470.9,524.0 481.9,520.6 487.0,519.7 C492.1,518.8 523.0,509.0 531.0,513.5 C539.1,518.0 579.3,568.6 583.7,573.6 C583.9,573.5 589.4,577.7 585.3,572.3 C581.1,566.9 541.8,514.1 533.6,509.1 C525.3,504.1 491.5,511.7 486.0,512.3 C480.5,512.8 469.1,515.3 467.5,515.6 Z" fill="#6B5A48" /><g><ellipse cx="571.9" cy="562.5" rx="3.2" ry="7.2" fill="#A8C28A" transform="rotate(-98.1,571.9,562.5)" /><ellipse cx="583.9" cy="568.5" rx="5.1" ry="11.4" fill="#A8C28A" transform="rotate(86.8,583.9,568.5)" /><ellipse cx="595.9" cy="574.5" rx="4.5" ry="10.2" fill="#A8C28A" transform="rotate(-88.2,595.9,574.5)" /><ellipse cx="579.7" cy="560.9" rx="4.0" ry="9.0" fill="#A8C28A" transform="rotate(96.7,579.7,560.9)" /><ellipse cx="591.7" cy="566.9" rx="3.4" ry="7.8" fill="#B5CB9B" transform="rotate(-78.4,591.7,566.9)" /><ellipse cx="575.6" cy="572.9" rx="2.9" ry="6.5" fill="#B5CB9B" transform="rotate(108.0,575.6,572.9)" /><ellipse cx="587.5" cy="559.2" rx="4.8" ry="10.7" fill="#B5CB9B" transform="rotate(-68.5,587.5,559.2)" /><ellipse cx="571.4" cy="565.3" rx="4.2" ry="9.5" fill="#B5CB9B" transform="rotate(117.9,571.4,565.3)" /></g><g transform="translate(586.0,576.2) rotate(-70.1)"><ellipse cx="0" cy="-6" rx="2.3" ry="7.4" fill="#A8C28A" /></g><g transform="translate(589.4,593.7) rotate(-91.1)"><ellipse cx="0" cy="-6" rx="2.1" ry="6.7" fill="#A8C28A" /></g><g transform="translate(584.8,611.1) rotate(-81.8)"><ellipse cx="0" cy="-6" rx="1.9" ry="6.0" fill="#A8C28A" /></g><g transform="translate(588.2,628.6) rotate(-72.6)"><ellipse cx="0" cy="-6" rx="1.6" ry="5.3" fill="#A8C28A" /></g><g transform="translate(583.6,646.0) rotate(-93.4)"><ellipse cx="0" cy="-6" rx="1.4" ry="4.5" fill="#A8C28A" /></g><g transform="translate(587.0,663.5) rotate(-84.2)"><ellipse cx="0" cy="-6" rx="2.2" ry="7.0" fill="#A8C28A" /></g><g transform="translate(601.1,576.2) rotate(-90.7)"><ellipse cx="0" cy="-6" rx="2.1" ry="6.6" fill="#A8C28A" /></g><g transform="translate(596.5,593.7) rotate(-81.4)"><ellipse cx="0" cy="-6" rx="1.8" ry="5.8" fill="#A8C28A" /></g><g transform="translate(599.9,611.1) rotate(-72.2)"><ellipse cx="0" cy="-6" rx="1.6" ry="5.1" fill="#A8C28A" /></g><g transform="translate(595.3,628.6) rotate(-93.1)"><ellipse cx="0" cy="-6" rx="1.4" ry="4.4" fill="#A8C28A" /></g><g transform="translate(578.1,576.2) rotate(-81.1)"><ellipse cx="0" cy="-6" rx="1.8" ry="5.7" fill="#A8C28A" /></g><g transform="translate(581.5,598.8) rotate(-71.9)"><ellipse cx="0" cy="-6" rx="1.6" ry="5.0" fill="#A8C28A" /></g><g transform="translate(585.0,621.4) rotate(-92.8)"><ellipse cx="0" cy="-6" rx="2.3" ry="7.5" fill="#A8C28A" /></g><g transform="translate(580.3,644.0) rotate(-83.5)"><ellipse cx="0" cy="-6" rx="2.1" ry="6.7" fill="#A8C28A" /></g><g transform="translate(593.3,576.2) rotate(-71.5)"><ellipse cx="0" cy="-6" rx="1.5" ry="4.8" fill="#A8C28A" /></g><g transform="translate(596.7,597.0) rotate(-92.5)"><ellipse cx="0" cy="-6" rx="2.3" ry="7.3" fill="#A8C28A" /></g><g transform="translate(592.1,617.8) rotate(-83.2)"><ellipse cx="0" cy="-6" rx="2.1" ry="6.6" fill="#A8C28A" /></g><g transform="translate(595.5,638.6) rotate(-74.0)"><ellipse cx="0" cy="-6" rx="1.8" ry="5.9" fill="#A8C28A" /></g><g transform="translate(590.9,659.3) rotate(-94.8)"><ellipse cx="0" cy="-6" rx="1.6" ry="5.2" fill="#A8C28A" /></g><g><ellipse cx="426.8" cy="389.0" rx="3.6" ry="7.2" fill="#A8C28A" transform="rotate(-4.9,426.8,389.0)" /><ellipse cx="442.2" cy="396.7" rx="5.9" ry="11.8" fill="#A8C28A" transform="rotate(180.0,442.2,396.7)" /><ellipse cx="421.5" cy="404.5" rx="5.2" ry="10.5" fill="#A8C28A" transform="rotate(4.9,421.5,404.5)" /><ellipse cx="436.8" cy="386.9" rx="4.6" ry="9.1" fill="#A8C28A" transform="rotate(-171.5,436.8,386.9)" /><ellipse cx="416.1" cy="394.7" rx="3.9" ry="7.8" fill="#A8C28A" transform="rotate(14.8,416.1,394.7)" /><ellipse cx="431.5" cy="402.4" rx="6.2" ry="12.4" fill="#B7CC9F" transform="rotate(-161.6,431.5,402.4)" /><ellipse cx="446.9" cy="384.9" rx="5.5" ry="11.1" fill="#B7CC9F" transform="rotate(24.7,446.9,384.9)" /><ellipse cx="426.1" cy="392.7" rx="4.9" ry="9.7" fill="#B7CC9F" transform="rotate(-151.8,426.1,392.7)" /><ellipse cx="441.5" cy="400.4" rx="4.2" ry="8.3" fill="#B7CC9F" transform="rotate(34.6,441.5,400.4)" /><ellipse cx="420.8" cy="382.9" rx="3.5" ry="7.0" fill="#B7CC9F" transform="rotate(-140.5,420.8,382.9)" /></g><g transform="translate(425.3,406.0) rotate(-81.9)"><ellipse cx="0" cy="-6" rx="1.5" ry="4.8" fill="#A8C28A" /></g><g transform="translate(428.7,425.8) rotate(-72.7)"><ellipse cx="0" cy="-6" rx="2.3" ry="7.3" fill="#A8C28A" /></g><g transform="translate(424.1,445.6) rotate(-93.5)"><ellipse cx="0" cy="-6" rx="2.0" ry="6.6" fill="#A8C28A" /></g><g transform="translate(427.5,465.4) rotate(-84.4)"><ellipse cx="0" cy="-6" rx="1.8" ry="5.8" fill="#A8C28A" /></g><g transform="translate(422.9,485.2) rotate(-75.1)"><ellipse cx="0" cy="-6" rx="1.6" ry="5.1" fill="#A8C28A" /></g><g transform="translate(440.5,406.0) rotate(-72.4)"><ellipse cx="0" cy="-6" rx="2.2" ry="7.1" fill="#A8C28A" /></g><g transform="translate(435.9,424.9) rotate(-93.2)"><ellipse cx="0" cy="-6" rx="2.0" ry="6.4" fill="#A8C28A" /></g><g transform="translate(439.3,443.8) rotate(-84.0)"><ellipse cx="0" cy="-6" rx="1.8" ry="5.7" fill="#A8C28A" /></g><g transform="translate(434.7,462.7) rotate(-74.7)"><ellipse cx="0" cy="-6" rx="1.6" ry="5.0" fill="#A8C28A" /></g><g transform="translate(438.1,481.6) rotate(-95.6)"><ellipse cx="0" cy="-6" rx="2.3" ry="7.5" fill="#A8C28A" /></g><g transform="translate(441.5,500.5) rotate(-86.5)"><ellipse cx="0" cy="-6" rx="2.1" ry="6.7" fill="#A8C28A" /></g><g transform="translate(417.5,406.0) rotate(-92.8)"><ellipse cx="0" cy="-6" rx="2.0" ry="6.3" fill="#A8C28A" /></g><g transform="translate(420.9,425.9) rotate(-83.6)"><ellipse cx="0" cy="-6" rx="1.7" ry="5.6" fill="#A8C28A" /></g><g transform="translate(424.3,445.9) rotate(-74.5)"><ellipse cx="0" cy="-6" rx="1.5" ry="4.8" fill="#A8C28A" /></g><g transform="translate(419.7,465.8) rotate(-95.3)"><ellipse cx="0" cy="-6" rx="2.3" ry="7.3" fill="#A8C28A" /></g><path d="M492.0,598.0 Q480.0,604.0 474.0,600.0" stroke="#3D3328" stroke-width="3" fill="none" stroke-linecap="round" opacity="0.85" /><circle cx="740.0" cy="516.6" r="3.8" fill="#3D7AB8" /><circle cx="740.6" cy="519.7" r="2.3" fill="#274F77" opacity="0.45" /><circle cx="463.3" cy="560.0" r="5.2" fill="#3D7AB8" /><circle cx="463.9" cy="564.2" r="3.1" fill="#274F77" opacity="0.45" /><circle cx="668.5" cy="462.3" r="4.8" fill="#3D7AB8" /><circle cx="669.1" cy="466.1" r="2.9" fill="#274F77" opacity="0.45" /><circle cx="391.8" cy="505.6" r="4.4" fill="#3D7AB8" /><circle cx="392.4" cy="509.2" r="2.7" fill="#274F77" opacity="0.45" /><circle cx="596.9" cy="548.5" r="4.0" fill="#3D7AB8" /><circle cx="597.5" cy="551.7" r="2.4" fill="#274F77" opacity="0.45" /><circle cx="320.2" cy="451.3" r="3.6" fill="#3D7AB8" /><circle cx="320.8" cy="454.2" r="2.2" fill="#274F77" opacity="0.45" /><circle cx="525.4" cy="494.1" r="5.0" fill="#3D7AB8" /><circle cx="526.0" cy="498.1" r="3.0" fill="#274F77" opacity="0.45" /><circle cx="730.6" cy="536.9" r="4.6" fill="#3D7AB8" /><circle cx="731.2" cy="540.6" r="2.8" fill="#274F77" opacity="0.45" /></svg>