<svg xmlns="http://www.w3.org/2000/svg" viewBox="0 0 1000 800" preserveAspectRatio="xMidYMid meet" role="img" aria-label="bonsai-cc tree"><defs><linearGradient id="bcc-sky" x1="0" y1="0" x2="0" y2="1"><stop offset="0%" stop-color="#F4F3EE" /><stop offset="100%" stop-color="#E8E5DC" /></linearGradient><linearGradient id="bcc-ground" x1="0" y1="0" x2="0" y2="1"><stop offset="0%" stop-color="#E8E5DC" /><stop offset="100%" stop-color="#B1ADA1" /></linearGradient><linearGradient id="bcc-pot" x1="0" y1="0" x2="0" y2="1"><stop offset="0%" stop-color="#8E3D24" /><stop offset="100%" stop-color="#3D3328" /></linearGradient><linearGradient id="sky" x1="0" y1="0" x2="0" y2="1"><stop offset="0%" stop-color="#F4F3EE" /><stop offset="100%" stop-color="#E8E5DC" /></linearGradient><linearGradient id="ground" x1="0" y1="0" x2="0" y2="1"><stop offset="0%" stop-color="#E8E5DC" /><stop offset="100%" stop-color="#B1ADA1" /></linearGradient><radialGradient id="sun" cx="0.5" cy="0.5" r="0.5"><stop offset="0%" stop-color="#C15F3C" stop-opacity="0.55" /><stop offset="70%" stop-color="#C15F3C" stop-opacity="0.20" /><stop offset="100%" stop-color="#C15F3C" stop-opacity="0" /></radialGradient><radialGradient id="moon" cx="0.45" cy="0.45" r="0.55"><stop offset="0%" stop-color="#F4F3EE" stop-opacity="0.85" /><stop offset="100%" stop-color="#F4F3EE" stop-opacity="0.35" /></radialGradient><radialGradient id="pot-shadow" cx="0.5" cy="0.5" r="0.5"><stop offset="0%" stop-color="#191919" stop-opacity="0.18" /><stop offset="100%" stop-color="#191919" stop-opacity="0" /></radialGradient></defs><rect x="0" y="0" width="1000" height="600" fill="url(#bcc-sky)" /><circle cx="780" cy="180" r="80" fill="url(#sun)" /><circle cx="780" cy="180" r="28" fill="#C15F3C" fill-opacity="0.55" /><rect x="0" y="600" width="1000" height="200" fill="url(#bcc-ground)" /><ellipse cx="500" cy="728" rx="190" ry="22" fill="url(#pot-shadow)" /><path d="M340,600 Q336,608 344,618 L370,700 Q376,710 384,710 L616,710 Q624,710 630,700 L656,618 Q664,608 660,600 Z" fill="url(#bcc-pot)" /><path d="M350,622 Q500,626 650,622" stroke="#3D3328" stroke-width="1.5" fill="none" stroke-linecap="round" opacity="0.55" /><ellipse cx="500" cy="602" rx="152" ry="8" fill="#3D3328" /><circle cx="430" cy="601" r="4" fill="#B1ADA1" opacity="0.7" /><circle cx="530" cy="603" r="3" fill="#B1ADA1" opacity="0.55" /><circle cx="590" cy="601" r="3.5" fill="#B1ADA1" opacity="0.7" /><path d="M513.4,596.1 C511.8,591.0 497.7,543.3 493.4,535.0 C489.1,526.8 467.3,508.4 462.3,497.1 C457.3,485.8 435.8,407.3 433.4,399.2 C432.8,399.3 425.5,392.2 426.6,400.8 C427.7,409.5 443.0,490.9 446.7,502.9 C450.5,514.9 468.3,536.5 471.6,545.0 C474.9,553.4 485.3,599.0 486.6,603.9 Z" fill="#6B5A48" /><path d="M504.0,598.8 C502.5,593.8 489.5,546.9 485.6,538.6 C481.7,530.3 461.5,510.7 457.0,499.1 C452.5,487.5 433.9,407.8 431.8,399.6" stroke="#3D3328" stroke-width="3.5" fill="none" opacity="0.36" stroke-linecap="round" /><line x1="468.7" y1="532.1" x2="463.4" y2="524.6" stroke="#3D3328" stroke-width="1.1" stroke-linecap="round" opacity="0.40" /><line x1="440.0" y1="477.2" x2="438.2" y2="469.6" stroke="#3D3328" stroke-width="1.1" stroke-linecap="round" opacity="0.40" /><line x1="478.6" y1="542.2" x2="474.8" y2="536.8" stroke="#3D3328" stroke-width="1.1" stroke-linecap="round" opacity="0.40" /><line x1="453.3" y1="509.3" x2="446.9" y2="500.1" stroke="#3D3328" stroke-width="1.1" stroke-linecap="round" opacity="0.40" /><path d="M490.5,559.6 C488.9,559.3 478.0,556.5 471.7,556.3 C465.5,556.1 425.3,551.7 415.7,557.2 C406.1,562.8 361.7,617.6 356.8,623.1 C356.9,623.2 353.1,629.6 358.2,624.5 C363.3,619.4 408.7,566.7 418.1,561.6 C427.5,556.6 465.4,563.2 471.3,563.7 C477.1,564.3 487.1,568.0 488.5,568.4 Z" fill="#6B5A48" /><g><ellipse cx="361.2" cy="614.7" rx="2.8" ry="6.3" fill="#A8C28A" transform="rotate(68.5,361.2,614.7)" /><ellipse cx="345.0" cy="620.8" rx="4.7" ry="10.5" fill="#A8C28A" transform="rotate(-108.0,345.0,620.8)" /><ellipse cx="357.0" cy="626.8" rx="4.1" ry="9.3" fill="#A8C28A" transform="rotate(78.4,357.0,626.8)" /><ellipse cx="369.0" cy="613.1" rx="3.6" ry="8.1" fill="#A8C28A" transform="rotate(-98.1,369.0,613.1)" /><ellipse cx="352.8" cy="619.2" rx="3.0" ry="6.8" fill="#B5CB9B" transform="rotate(88.2,352.8,619.2)" /><ellipse cx="364.8" cy="625.2" rx="4.9" ry="11.0" fill="#B5CB9B" transform="rotate(-88.2,364.8,625.2)" /><ellipse cx="348.7" cy="611.6" rx="4.4" ry="9.8" fill="#B5CB9B" transform="rotate(98.1,348.7,611.6)" /><ellipse cx="360.6" cy="617.6" rx="3.8" ry="8.6" fill="#B5CB9B" transform="rotate(-78.4,360.6,617.6)" /></g><g transform="translate(350.1,627.4) rotate(-84.4)"><ellipse cx="0" cy="-6" rx="2.2" ry="7.0" fill="#A8C28A" /></g><g transform="translate(353.5,648.1) rotate(-75.2)"><ellipse cx="0" cy="-6" rx="1.9" ry="6.2" fill="#A8C28A" /></g><g transform="translate(348.9,668.8) rotate(-96.0)"><ellipse cx="0" cy="-6" rx="1.7" ry="5.5" fill="#A8C28A" /></g><g transform="translate(352.3,689.5) rotate(-86.8)"><ellipse cx="0" cy="-6" rx="1.5" ry="4.8" fill="#A8C28A" /></g><g transform="translate(347.7,710.1) rotate(-77.5)"><ellipse cx="0" cy="-6" rx="2.3" ry="7.3" fill="#A8C28A" /></g><g transform="translate(365.2,627.4) rotate(-74.8)"><ellipse cx="0" cy="-6" rx="1.9" ry="6.1" fill="#A8C28A" /></g><g transform="translate(360.6,643.7) rotate(-95.6)"><ellipse cx="0" cy="-6" rx="1.7" ry="5.4" fill="#A8C28A" /></g><g transform="translate(364.0,660.1) rotate(-86.5)"><ellipse cx="0" cy="-6" rx="1.5" ry="4.7" fill="#A8C28A" /></g><g transform="translate(359.4,676.4) rotate(-77.2)"><ellipse cx="0" cy="-6" rx="2.2" ry="7.1" fill="#A8C28A" /></g><g transform="translate(362.8,692.8) rotate(-98.1)"><ellipse cx="0" cy="-6" rx="2.0" ry="6.4" fill="#A8C28A" /></g><g transform="translate(366.3,709.1) rotate(-88.9)"><ellipse cx="0" cy="-6" rx="1.8" ry="5.7" fill="#A8C28A" /></g><g transform="translate(361.6,725.4) rotate(-79.6)"><ellipse cx="0" cy="-6" rx="1.6" ry="5.0" fill="#A8C28A" /></g><g transform="translate(342.2,627.4) rotate(-95.3)"><ellipse cx="0" cy="-6" rx="1.6" ry="5.2" fill="#A8C28A" /></g><g transform="translate(345.6,648.5) rotate(-86.1)"><ellipse cx="0" cy="-6" rx="1.4" ry="4.5" fill="#A8C28A" /></g><g transform="translate(349.1,669.6) rotate(-76.9)"><ellipse cx="0" cy="-6" rx="2.2" ry="7.0" fill="#A8C28A" /></g><g transform="translate(344.4,690.7) rotate(-97.8)"><ellipse cx="0" cy="-6" rx="2.0" ry="6.3" fill="#A8C28A" /></g><g transform="translate(357.4,627.4) rotate(-85.8)"><ellipse cx="0" cy="-6" rx="2.4" ry="7.6" fill="#A8C28A" /></g><g transform="translate(360.8,647.1) rotate(-76.6)"><ellipse cx="0" cy="-6" rx="2.1" ry="6.9" fill="#A8C28A" /></g><g transform="translate(356.2,666.7) rotate(-97.4)"><ellipse cx="0" cy="-6" rx="1.9" ry="6.1" fill="#A8C28A" /></g><g transform="translate(359.6,686.4) rotate(-88.2)"><ellipse cx="0" cy="-6" rx="1.7" ry="5.4" fill="#A8C28A" /></g><g transform="translate(355.0,706.0) rotate(-78.9)"><ellipse cx="0" cy="-6" rx="1.5" ry="4.7" fill="#A8C28A" /></g><g transform="translate(372.5,627.4) rotate(-76.2)"><ellipse cx="0" cy="-6" rx="2.1" ry="6.7" fill="#A8C28A" /></g><g transform="translate(367.9,646.2) rotate(-97.1)"><ellipse cx="0" cy="-6" rx="1.9" ry="6.0" fill="#A8C28A" /></g><g transform="translate(371.3,665.0) rotate(-87.9)"><ellipse cx="0" cy="-6" rx="1.6" ry="5.3" fill="#A8C28A" /></g><g transform="translate(374.7,683.8) rotate(-78.7)"><ellipse cx="0" cy="-6" rx="1.4" ry="4.6" fill="#A8C28A" /></g><g transform="translate(370.1,702.5) rotate(-99.5)"><ellipse cx="0" cy="-6" rx="2.2" ry="7.0" fill="#A8C28A" /></g><g transform="translate(373.5,721.3) rotate(-90.4)"><ellipse cx="0" cy="-6" rx="2.0" ry="6.3" fill="#A8C28A" /></g><path d="M490.5,568.4 C491.9,568.0 501.8,564.1 507.6,563.7 C513.5,563.4 551.4,558.4 560.8,563.8 C570.2,569.1 615.8,622.7 620.8,628.0 C620.9,627.9 627.0,632.4 622.2,626.7 C617.5,621.0 573.0,565.3 563.4,559.5 C553.8,553.6 513.6,556.2 507.4,556.3 C501.1,556.3 490.1,559.3 488.5,559.6 Z" fill="#6B5A48" /><g><ellipse cx="633.1" cy="628.0" rx="3.9" ry="8.8" fill="#A8C28A" transform="rotate(150.4,633.1,628.0)" /><ellipse cx="616.9" cy="614.4" rx="3.4" ry="7.6" fill="#A8C28A" transform="rotate(-24.7,616.9,614.4)" /><ellipse cx="628.9" cy="620.4" rx="2.8" ry="6.4" fill="#A8C28A" transform="rotate(161.6,628.9,620.4)" /><ellipse cx="612.8" cy="626.4" rx="4.7" ry="10.6" fill="#A8C28A" transform="rotate(-14.8,612.8,626.4)" /><ellipse cx="624.7" cy="612.8" rx="4.2" ry="9.3" fill="#B5CB9B" transform="rotate(171.5,624.7,612.8)" /><ellipse cx="608.6" cy="618.8" rx="3.6" ry="8.1" fill="#B5CB9B" transform="rotate(-4.9,608.6,618.8)" /><ellipse cx="620.6" cy="624.8" rx="3.1" ry="6.9" fill="#B5CB9B" transform="rotate(-180.0,620.6,624.8)" /><ellipse cx="632.5" cy="611.1" rx="4.9" ry="11.1" fill="#B5CB9B" transform="rotate(4.9,632.5,611.1)" /></g><g transform="translate(617.7,627.4) rotate(-99.4)"><ellipse cx="0" cy="-6" rx="1.5" ry="4.9" fill="#A8C28A" /></g><g transform="translate(613.1,646.0) rotate(-90.1)"><ellipse cx="0" cy="-6" rx="2.3" ry="7.4" fill="#A8C28A" /></g><g transform="translate(616.5,664.6) rotate(-80.9)"><ellipse cx="0" cy="-6" rx="2.1" ry="6.6" fill="#A8C28A" /></g><g transform="translate(611.9,683.2) rotate(-71.6)"><ellipse cx="0" cy="-6" rx="1.8" ry="5.9" fill="#A8C28A" /></g><g transform="translate(615.3,701.8) rotate(-92.6)"><ellipse cx="0" cy="-6" rx="1.6" ry="5.2" fill="#A8C28A" /></g><g transform="translate(618.7,720.3) rotate(-83.4)"><ellipse cx="0" cy="-6" rx="1.4" ry="4.5" fill="#A8C28A" /></g><g transform="translate(624.8,627.4) rotate(-89.8)"><ellipse cx="0" cy="-6" rx="2.3" ry="7.2" fill="#A8C28A" /></g><g transform="translate(628.2,646.7) rotate(-80.6)"><ellipse cx="0" cy="-6" rx="2.0" ry="6.5" fill="#A8C28A" /></g><g transform="translate(631.6,666.1) rotate(-71.4)"><ellipse cx="0" cy="-6" rx="1.8" ry="5.8" fill="#A8C28A" /></g><g transform="translate(627.0,685.4) rotate(-92.2)"><ellipse cx="0" cy="-6" rx="1.6" ry="5.1" fill="#A8C28A" /></g><g transform="translate(609.8,627.4) rotate(-80.2)"><ellipse cx="0" cy="-6" rx="2.0" ry="6.4" fill="#A8C28A" /></g><g transform="translate(613.2,645.8) rotate(-71.1)"><ellipse cx="0" cy="-6" rx="1.8" ry="5.6" fill="#A8C28A" /></g><g transform="translate(608.6,664.2) rotate(-91.9)"><ellipse cx="0" cy="-6" rx="1.5" ry="4.9" fill="#A8C28A" /></g><g transform="translate(612.0,682.5) rotate(-82.7)"><ellipse cx="0" cy="-6" rx="2.3" ry="7.4" fill="#A8C28A" /></g><g transform="translate(607.4,700.9) rotate(-73.4)"><ellipse cx="0" cy="-6" rx="2.1" ry="6.7" fill="#A8C28A" /></g><g transform="translate(625.0,627.4) rotate(-70.7)"><ellipse cx="0" cy="-6" rx="1.7" ry="5.5" fill="#A8C28A" /></g><g transform="translate(620.3,645.2) rotate(-91.5)"><ellipse cx="0" cy="-6" rx="1.5" ry="4.8" fill="#A8C28A" /></g><g transform="translate(623.8,662.9) rotate(-82.4)"><ellipse cx="0" cy="-6" rx="2.3" ry="7.3" fill="#A8C28A" /></g><g transform="translate(627.2,680.7) rotate(-73.2)"><ellipse cx="0" cy="-6" rx="2.0" ry="6.5" fill="#A8C28A" /></g><g transform="translate(622.6,698.5) rotate(-94.0)"><ellipse cx="0" cy="-6" rx="1.8" ry="5.8" fill="#A8C28A" /></g><g transform="translate(626.0,716.2) rotate(-84.8)"><ellipse cx="0" cy="-6" rx="1.6" ry="5.1" fill="#A8C28A" /></g><g transform="translate(640.1,627.4) rotate(-91.3)"><ellipse cx="0" cy="-6" rx="1.5" ry="4.7" fill="#A8C28A" /></g><g transform="translate(635.5,645.4) rotate(-82.0)"><ellipse cx="0" cy="-6" rx="2.2" ry="7.1" fill="#A8C28A" /></g><g transform="translate(638.9,663.3) rotate(-72.8)"><ellipse cx="0" cy="-6" rx="2.0" ry="6.4" fill="#A8C28A" /></g><g transform="translate(634.3,681.3) rotate(-93.6)"><ellipse cx="0" cy="-6" rx="1.8" ry="5.7" fill="#A8C28A" /></g><path d="M490.5,559.6 C488.9,559.3 478.1,556.8 471.9,556.3 C465.7,555.8 425.3,548.4 415.7,553.6 C406.1,558.9 361.7,614.2 356.8,619.7 C356.9,619.8 353.1,626.2 358.2,621.1 C363.3,615.9 408.7,562.9 418.1,558.1 C427.5,553.3 465.2,562.9 471.1,563.7 C477.0,564.6 487.1,568.0 488.5,568.4 Z" fill="#6B5A48" /><g><ellipse cx="357.2" cy="620.8" rx="5.0" ry="11.3" fill="#A8C28A" transform="rotate(-71.3,357.2,620.8)" /><ellipse cx="369.2" cy="626.8" rx="4.5" ry="10.1" fill="#A8C28A" transform="rotate(115.1,369.2,626.8)" /><ellipse cx="353.1" cy="613.2" rx="3.9" ry="8.9" fill="#A8C28A" transform="rotate(-61.4,353.1,613.2)" /><ellipse cx="365.0" cy="619.2" rx="3.4" ry="7.7" fill="#A8C28A" transform="rotate(124.9,365.0,619.2)" /><ellipse cx="348.9" cy="625.3" rx="2.9" ry="6.4" fill="#B5CB9B" transform="rotate(-50.1,348.9,625.3)" /><ellipse cx="360.8" cy="611.6" rx="4.7" ry="10.6" fill="#B5CB9B" transform="rotate(134.8,360.8,611.6)" /><ellipse cx="344.7" cy="617.7" rx="4.2" ry="9.4" fill="#B5CB9B" transform="rotate(-40.2,344.7,617.7)" /><ellipse cx="356.7" cy="623.7" rx="3.6" ry="8.2" fill="#B5CB9B" transform="rotate(144.7,356.7,623.7)" /></g><g transform="translate(344.8,627.4) rotate(-84.7)"><ellipse cx="0" cy="-6" rx="1.9" ry="6.0" fill="#A8C28A" /></g><g transform="translate(340.2,645.9) rotate(-75.4)"><ellipse cx="0" cy="-6" rx="1.6" ry="5.3" fill="#A8C28A" /></g><g transform="translate(343.6,664.5) rotate(-96.4)"><ellipse cx="0" cy="-6" rx="1.4" ry="4.5" fill="#A8C28A" /></g><g transform="translate(339.0,683.0) rotate(-87.1)"><ellipse cx="0" cy="-6" rx="2.2" ry="7.0" fill="#A8C28A" /></g><g transform="translate(342.4,701.5) rotate(-77.9)"><ellipse cx="0" cy="-6" rx="2.0" ry="6.3" fill="#A8C28A" /></g><g transform="translate(351.9,627.4) rotate(-75.1)"><ellipse cx="0" cy="-6" rx="1.6" ry="5.1" fill="#A8C28A" /></g><g transform="translate(355.3,645.3) rotate(-96.0)"><ellipse cx="0" cy="-6" rx="1.4" ry="4.4" fill="#A8C28A" /></g><g transform="translate(358.7,663.2) rotate(-86.8)"><ellipse cx="0" cy="-6" rx="2.2" ry="6.9" fill="#A8C28A" /></g><g transform="translate(354.1,681.0) rotate(-77.5)"><ellipse cx="0" cy="-6" rx="1.9" ry="6.2" fill="#A8C28A" /></g><g transform="translate(357.5,698.9) rotate(-98.5)"><ellipse cx="0" cy="-6" rx="1.7" ry="5.4" fill="#A8C28A" /></g><g transform="translate(352.9,716.8) rotate(-89.2)"><ellipse cx="0" cy="-6" rx="1.5" ry="4.7" fill="#A8C28A" /></g><g transform="translate(367.0,627.4) rotate(-95.6)"><ellipse cx="0" cy="-6" rx="2.3" ry="7.5" fill="#A8C28A" /></g><g transform="translate(370.4,645.6) rotate(-86.5)"><ellipse cx="0" cy="-6" rx="2.1" ry="6.7" fill="#A8C28A" /></g><g transform="translate(365.8,663.7) rotate(-77.2)"><ellipse cx="0" cy="-6" rx="1.9" ry="6.0" fill="#A8C28A" /></g><g transform="translate(369.3,681.9) rotate(-98.1)"><ellipse cx="0" cy="-6" rx="1.7" ry="5.3" fill="#A8C28A" /></g><g transform="translate(352.1,627.4) rotate(-86.1)"><ellipse cx="0" cy="-6" rx="2.1" ry="6.6" fill="#A8C28A" /></g><g transform="translate(347.4,644.9) rotate(-76.8)"><ellipse cx="0" cy="-6" rx="1.8" ry="5.9" fill="#A8C28A" /></g><g transform="translate(350.9,662.4) rotate(-97.8)"><ellipse cx="0" cy="-6" rx="1.6" ry="5.2" fill="#A8C28A" /></g><g transform="translate(354.3,679.9) rotate(-88.6)"><ellipse cx="0" cy="-6" rx="1.4" ry="4.4" fill="#A8C28A" /></g><g transform="translate(349.7,697.4) rotate(-79.3)"><ellipse cx="0" cy="-6" rx="2.2" ry="6.9" fill="#A8C28A" /></g><g transform="translate(367.2,627.4) rotate(-76.6)"><ellipse cx="0" cy="-6" rx="1.8" ry="5.7" fill="#A8C28A" /></g><g transform="translate(362.6,644.5) rotate(-97.4)"><ellipse cx="0" cy="-6" rx="1.6" ry="5.0" fill="#A8C28A" /></g><g transform="translate(366.0,661.5) rotate(-88.2)"><ellipse cx="0" cy="-6" rx="2.3" ry="7.5" fill="#A8C28A" /></g><g transform="translate(361.4,678.6) rotate(-78.9)"><ellipse cx="0" cy="-6" rx="2.1" ry="6.8" fill="#A8C28A" /></g><g transform="translate(364.8,695.6) rotate(-99.9)"><ellipse cx="0" cy="-6" rx="1.9" ry="6.1" fill="#A8C28A" /></g><g transform="translate(360.2,712.7) rotate(-90.6)"><ellipse cx="0" cy="-6" rx="1.7" ry="5.3" fill="#A8C28A" /></g><path d="M490.5,568.4 C491.9,568.0 501.8,564.2 507.7,563.7 C513.6,563.2 551.5,557.3 560.9,562.3 C570.3,567.4 615.8,619.0 620.8,624.1 C620.9,624.0 627.0,628.3 622.2,622.8 C617.4,617.3 572.9,563.5 563.3,557.9 C553.7,552.4 513.5,556.1 507.3,556.3 C501.1,556.4 490.1,559.3 488.5,559.6 Z" fill="#6B5A48" /><g><ellipse cx="609.4" cy="613.7" rx="3.7" ry="8.4" fill="#A8C28A" transform="rotate(68.5,609.4,613.7)" /><ellipse cx="621.3" cy="619.7" rx="3.2" ry="7.2" fill="#A8C28A" transform="rotate(-106.6,621.3,619.7)" /><ellipse cx="633.3" cy="625.7" rx="5.1" ry="11.4" fill="#A8C28A" transform="rotate(78.4,633.3,625.7)" /><ellipse cx="617.2" cy="612.1" rx="4.5" ry="10.2" fill="#A8C28A" transform="rotate(-96.7,617.2,612.1)" /><ellipse cx="629.1" cy="618.1" rx="4.0" ry="8.9" fill="#B5CB9B" transform="rotate(88.2,629.1,618.1)" /><ellipse cx="613.0" cy="624.1" rx="3.4" ry="7.7" fill="#B5CB9B" transform="rotate(-86.8,613.0,624.1)" /><ellipse cx="625.0" cy="610.4" rx="2.9" ry="6.5" fill="#B5CB9B" transform="rotate(99.5,625.0,610.4)" /><ellipse cx="608.8" cy="616.5" rx="4.8" ry="10.7" fill="#B5CB9B" transform="rotate(-76.9,608.8,616.5)" /></g><g transform="translate(630.0,627.4) rotate(-70.0)"><ellipse cx="0" cy="-6" rx="2.2" ry="7.1" fill="#A8C28A" /></g><g transform="translate(625.4,645.8) rotate(-90.8)"><ellipse cx="0" cy="-6" rx="2.0" ry="6.4" fill="#A8C28A" /></g><g transform="translate(628.8,664.1) rotate(-81.6)"><ellipse cx="0" cy="-6" rx="1.8" ry="5.6" fill="#A8C28A" /></g><g transform="translate(624.2,682.5) rotate(-72.4)"><ellipse cx="0" cy="-6" rx="1.5" ry="4.9" fill="#A8C28A" /></g><g transform="translate(607.0,627.4) rotate(-90.5)"><ellipse cx="0" cy="-6" rx="1.9" ry="6.2" fill="#A8C28A" /></g><g transform="translate(610.4,645.0) rotate(-81.3)"><ellipse cx="0" cy="-6" rx="1.7" ry="5.5" fill="#A8C28A" /></g><g transform="translate(613.8,662.7) rotate(-72.1)"><ellipse cx="0" cy="-6" rx="1.5" ry="4.8" fill="#A8C28A" /></g><g transform="translate(609.2,680.3) rotate(-92.9)"><ellipse cx="0" cy="-6" rx="2.3" ry="7.3" fill="#A8C28A" /></g><g transform="translate(612.6,698.0) rotate(-83.8)"><ellipse cx="0" cy="-6" rx="2.0" ry="6.5" fill="#A8C28A" /></g><g transform="translate(622.1,627.4) rotate(-80.9)"><ellipse cx="0" cy="-6" rx="1.7" ry="5.4" fill="#A8C28A" /></g><g transform="translate(625.5,644.6) rotate(-71.8)"><ellipse cx="0" cy="-6" rx="1.4" ry="4.6" fill="#A8C28A" /></g><g transform="translate(620.9,661.8) rotate(-92.6)"><ellipse cx="0" cy="-6" rx="2.2" ry="7.1" fill="#A8C28A" /></g><g transform="translate(624.4,678.9) rotate(-83.4)"><ellipse cx="0" cy="-6" rx="2.0" ry="6.4" fill="#A8C28A" /></g><g transform="translate(619.7,696.1) rotate(-74.1)"><ellipse cx="0" cy="-6" rx="1.8" ry="5.7" fill="#A8C28A" /></g><g transform="translate(623.2,713.3) rotate(-95.1)"><ellipse cx="0" cy="-6" rx="1.5" ry="5.0" fill="#A8C28A" /></g><g transform="translate(637.3,627.4) rotate(-71.4)"><ellipse cx="0" cy="-6" rx="1.4" ry="4.5" fill="#A8C28A" /></g><g transform="translate(632.7,644.4) rotate(-92.2)"><ellipse cx="0" cy="-6" rx="2.2" ry="7.0" fill="#A8C28A" /></g><g transform="translate(636.1,661.4) rotate(-83.1)"><ellipse cx="0" cy="-6" rx="2.0" ry="6.3" fill="#A8C28A" /></g><g transform="translate(639.5,678.4) rotate(-73.9)"><ellipse cx="0" cy="-6" rx="1.7" ry="5.5" fill="#A8C28A" /></g><g transform="translate(622.3,627.4) rotate(-92.0)"><ellipse cx="0" cy="-6" rx="2.1" ry="6.8" fill="#A8C28A" /></g><g transform="translate(617.7,649.6) rotate(-82.7)"><ellipse cx="0" cy="-6" rx="1.9" ry="6.1" fill="#A8C28A" /></g><g transform="translate(621.1,671.7) rotate(-73.5)"><ellipse cx="0" cy="-6" rx="1.7" ry="5.4" fill="#A8C28A" /></g><g transform="translate(616.5,693.9) rotate(-94.4)"><ellipse cx="0" cy="-6" rx="1.5" ry="4.7" fill="#A8C28A" /></g><path d="M486.0,544.2 C484.4,543.9 473.4,541.0 467.2,540.8 C461.0,540.7 420.7,536.8 411.1,542.7 C401.5,548.5 357.2,605.6 352.3,611.4 C352.4,611.5 348.6,618.1 353.7,612.7 C358.9,607.3 404.3,552.4 413.7,547.0 C423.1,541.6 460.9,547.8 466.8,548.3 C472.7,548.8 482.6,552.6 484.0,553.0 Z" fill="#6B5A48" /><g><ellipse cx="340.4" cy="612.2" rx="4.9" ry="10.9" fill="#A8C28A" transform="rotate(95.3,340.4,612.2)" /><ellipse cx="352.4" cy="598.6" rx="4.3" ry="9.7" fill="#A8C28A" transform="rotate(-79.8,352.4,598.6)" /><ellipse cx="364.4" cy="604.5" rx="3.8" ry="8.5" fill="#A8C28A" transform="rotate(105.2,364.4,604.5)" /><ellipse cx="348.2" cy="610.6" rx="3.2" ry="7.3" fill="#A8C28A" transform="rotate(-69.9,348.2,610.6)" /><ellipse cx="360.2" cy="596.9" rx="5.1" ry="11.5" fill="#B5CB9B" transform="rotate(115.1,360.2,596.9)" /><ellipse cx="344.1" cy="603.0" rx="4.6" ry="10.2" fill="#B5CB9B" transform="rotate(-60.0,344.1,603.0)" /><ellipse cx="356.0" cy="609.0" rx="4.0" ry="9.0" fill="#B5CB9B" transform="rotate(126.4,356.0,609.0)" /><ellipse cx="339.9" cy="595.4" rx="3.5" ry="7.8" fill="#B5CB9B" transform="rotate(-50.1,339.9,595.4)" /></g><g transform="translate(339.4,612.0) rotate(-84.6)"><ellipse cx="0" cy="-6" rx="1.6" ry="5.0" fill="#A8C28A" /></g><g transform="translate(342.8,630.9) rotate(-75.4)"><ellipse cx="0" cy="-6" rx="2.4" ry="7.5" fill="#A8C28A" /></g><g transform="translate(338.2,649.8) rotate(-96.2)"><ellipse cx="0" cy="-6" rx="2.1" ry="6.8" fill="#A8C28A" /></g><g transform="translate(341.6,668.7) rotate(-87.1)"><ellipse cx="0" cy="-6" rx="1.9" ry="6.1" fill="#A8C28A" /></g><g transform="translate(337.0,687.6) rotate(-77.8)"><ellipse cx="0" cy="-6" rx="1.7" ry="5.4" fill="#A8C28A" /></g><g transform="translate(340.5,706.5) rotate(-98.7)"><ellipse cx="0" cy="-6" rx="1.4" ry="4.6" fill="#A8C28A" /></g><g transform="translate(354.6,612.0) rotate(-75.1)"><ellipse cx="0" cy="-6" rx="2.3" ry="7.4" fill="#A8C28A" /></g><g transform="translate(350.0,631.8) rotate(-95.9)"><ellipse cx="0" cy="-6" rx="2.1" ry="6.7" fill="#A8C28A" /></g><g transform="translate(353.4,651.7) rotate(-86.7)"><ellipse cx="0" cy="-6" rx="1.9" ry="5.9" fill="#A8C28A" /></g><g transform="translate(348.8,671.6) rotate(-77.4)"><ellipse cx="0" cy="-6" rx="1.6" ry="5.2" fill="#A8C28A" /></g><g transform="translate(361.7,612.0) rotate(-95.5)"><ellipse cx="0" cy="-6" rx="2.0" ry="6.5" fill="#A8C28A" /></g><g transform="translate(365.1,630.7) rotate(-86.4)"><ellipse cx="0" cy="-6" rx="1.8" ry="5.8" fill="#A8C28A" /></g><g transform="translate(368.5,649.4) rotate(-77.2)"><ellipse cx="0" cy="-6" rx="1.6" ry="5.1" fill="#A8C28A" /></g><g transform="translate(363.9,668.1) rotate(-98.0)"><ellipse cx="0" cy="-6" rx="2.4" ry="7.6" fill="#A8C28A" /></g><g transform="translate(367.3,686.9) rotate(-88.8)"><ellipse cx="0" cy="-6" rx="2.1" ry="6.8" fill="#A8C28A" /></g><g transform="translate(346.7,612.0) rotate(-86.0)"><ellipse cx="0" cy="-6" rx="1.8" ry="5.7" fill="#A8C28A" /></g><g transform="translate(350.1,630.0) rotate(-76.8)"><ellipse cx="0" cy="-6" rx="1.5" ry="4.9" fill="#A8C28A" /></g><g transform="translate(345.5,648.1) rotate(-97.6)"><ellipse cx="0" cy="-6" rx="2.3" ry="7.4" fill="#A8C28A" /></g><g transform="translate(348.9,666.2) rotate(-88.5)"><ellipse cx="0" cy="-6" rx="2.1" ry="6.7" fill="#A8C28A" /></g><g transform="translate(344.3,684.3) rotate(-79.2)"><ellipse cx="0" cy="-6" rx="1.9" ry="6.0" fill="#A8C28A" /></g><g transform="translate(347.7,702.4) rotate(-70.0)"><ellipse cx="0" cy="-6" rx="1.6" ry="5.3" fill="#A8C28A" /></g><g transform="translate(361.9,612.0) rotate(-76.5)"><ellipse cx="0" cy="-6" rx="1.5" ry="4.8" fill="#A8C28A" /></g><g transform="translate(357.2,630.5) rotate(-97.3)"><ellipse cx="0" cy="-6" rx="2.3" ry="7.3" fill="#A8C28A" /></g><g transform="translate(360.7,649.0) rotate(-88.1)"><ellipse cx="0" cy="-6" rx="2.1" ry="6.6" fill="#A8C28A" /></g><g transform="translate(364.1,667.5) rotate(-78.9)"><ellipse cx="0" cy="-6" rx="1.8" ry="5.8" fill="#A8C28A" /></g><path d="M481.5,541.5 C482.9,541.1 492.7,537.2 498.6,536.9 C504.4,536.6 542.5,533.0 551.9,537.8 C561.3,542.6 606.8,590.1 611.8,594.8 C611.9,594.7 618.0,598.5 613.2,593.4 C608.4,588.3 563.9,538.7 554.3,533.4 C544.7,528.0 504.7,529.4 498.4,529.4 C492.2,529.3 481.1,532.5 479.5,532.8 Z" fill="#6B5A48" /><g><ellipse cx="607.8" cy="594.3" rx="3.6" ry="8.0" fill="#A8C28A" transform="rotate(178.6,607.8,594.3)" /><ellipse cx="619.8" cy="600.3" rx="3.0" ry="6.8" fill="#A8C28A" transform="rotate(3.5,619.8,600.3)" /><ellipse cx="603.7" cy="586.7" rx="4.9" ry="11.0" fill="#A8C28A" transform="rotate(-172.9,603.7,586.7)" /><ellipse cx="615.6" cy="592.7" rx="4.3" ry="9.8" fill="#A8C28A" transform="rotate(13.4,615.6,592.7)" /><ellipse cx="599.5" cy="598.8" rx="3.8" ry="8.5" fill="#B5CB9B" transform="rotate(-163.1,599.5,598.8)" /><ellipse cx="611.5" cy="585.1" rx="3.3" ry="7.3" fill="#B5CB9B" transform="rotate(23.3,611.5,585.1)" /><ellipse cx="623.4" cy="591.1" rx="5.1" ry="11.5" fill="#B5CB9B" transform="rotate(-153.2,623.4,591.1)" /><ellipse cx="607.3" cy="597.2" rx="4.6" ry="10.3" fill="#B5CB9B" transform="rotate(33.2,607.3,597.2)" /></g><g transform="translate(602.5,600.5) rotate(-99.6)"><ellipse cx="0" cy="-6" rx="1.9" ry="6.2" fill="#A8C28A" /></g><g transform="translate(597.9,618.7) rotate(-90.4)"><ellipse cx="0" cy="-6" rx="1.7" ry="5.5" fill="#A8C28A" /></g><g transform="translate(601.3,636.9) rotate(-81.2)"><ellipse cx="0" cy="-6" rx="1.5" ry="4.7" fill="#A8C28A" /></g><g transform="translate(596.7,655.1) rotate(-71.9)"><ellipse cx="0" cy="-6" rx="2.3" ry="7.2" fill="#A8C28A" /></g><g transform="translate(609.6,600.5) rotate(-90.0)"><ellipse cx="0" cy="-6" rx="1.7" ry="5.3" fill="#A8C28A" /></g><g transform="translate(613.0,623.8) rotate(-80.8)"><ellipse cx="0" cy="-6" rx="1.4" ry="4.6" fill="#A8C28A" /></g><g transform="translate(616.5,647.1) rotate(-71.6)"><ellipse cx="0" cy="-6" rx="2.2" ry="7.1" fill="#A8C28A" /></g><g transform="translate(611.9,670.3) rotate(-92.5)"><ellipse cx="0" cy="-6" rx="2.0" ry="6.4" fill="#A8C28A" /></g><g transform="translate(624.8,600.5) rotate(-80.5)"><ellipse cx="0" cy="-6" rx="1.4" ry="4.5" fill="#A8C28A" /></g><g transform="translate(628.2,617.6) rotate(-71.3)"><ellipse cx="0" cy="-6" rx="2.2" ry="6.9" fill="#A8C28A" /></g><g transform="translate(623.6,634.6) rotate(-92.1)"><ellipse cx="0" cy="-6" rx="1.9" ry="6.2" fill="#A8C28A" /></g><g transform="translate(627.0,651.6) rotate(-82.9)"><ellipse cx="0" cy="-6" rx="1.7" ry="5.5" fill="#A8C28A" /></g><g transform="translate(622.4,668.6) rotate(-73.6)"><ellipse cx="0" cy="-6" rx="1.5" ry="4.8" fill="#A8C28A" /></g><g transform="translate(625.8,685.6) rotate(-94.6)"><ellipse cx="0" cy="-6" rx="2.3" ry="7.3" fill="#A8C28A" /></g><g transform="translate(609.8,600.5) rotate(-70.9)"><ellipse cx="0" cy="-6" rx="2.1" ry="6.8" fill="#A8C28A" /></g><g transform="translate(605.2,617.3) rotate(-91.8)"><ellipse cx="0" cy="-6" rx="1.9" ry="6.1" fill="#A8C28A" /></g><g transform="translate(608.6,634.1) rotate(-82.6)"><ellipse cx="0" cy="-6" rx="1.7" ry="5.4" fill="#A8C28A" /></g><g transform="translate(612.0,650.9) rotate(-73.4)"><ellipse cx="0" cy="-6" rx="1.4" ry="4.6" fill="#A8C28A" /></g><g transform="translate(616.9,600.5) rotate(-91.4)"><ellipse cx="0" cy="-6" rx="1.9" ry="5.9" fill="#A8C28A" /></g><g transform="translate(620.3,622.4) rotate(-82.2)"><ellipse cx="0" cy="-6" rx="1.6" ry="5.2" fill="#A8C28A" /></g><g transform="translate(623.8,644.3) rotate(-73.1)"><ellipse cx="0" cy="-6" rx="1.4" ry="4.5" fill="#A8C28A" /></g><g transform="translate(619.1,666.2) rotate(-93.9)"><ellipse cx="0" cy="-6" rx="2.2" ry="7.0" fill="#A8C28A" /></g><path d="M489.7,557.0 C488.2,556.8 476.4,553.8 470.9,553.7 C465.4,553.6 431.9,551.2 423.7,556.1 C415.5,561.0 376.3,607.9 372.0,612.6 C372.1,612.8 369.0,618.4 373.5,614.0 C378.0,609.7 418.1,564.9 426.2,560.5 C434.3,556.1 465.4,560.7 470.6,561.2 C475.7,561.6 486.3,565.4 487.8,565.8 Z" fill="#6B5A48" /><g><ellipse cx="372.9" cy="602.7" rx="4.7" ry="10.5" fill="#A8C28A" transform="rotate(69.9,372.9,602.7)" /><ellipse cx="384.9" cy="608.7" rx="4.1" ry="9.3" fill="#A8C28A" transform="rotate(-105.2,384.9,608.7)" /><ellipse cx="368.7" cy="614.8" rx="3.6" ry="8.1" fill="#A8C28A" transform="rotate(79.8,368.7,614.8)" /><ellipse cx="380.7" cy="601.1" rx="3.1" ry="6.9" fill="#A8C28A" transform="rotate(-95.3,380.7,601.1)" /><ellipse cx="364.6" cy="607.2" rx="4.9" ry="11.1" fill="#B5CB9B" transform="rotate(89.6,364.6,607.2)" /><ellipse cx="376.5" cy="613.2" rx="4.4" ry="9.8" fill="#B5CB9B" transform="rotate(-85.4,376.5,613.2)" /><ellipse cx="360.4" cy="619.3" rx="3.8" ry="8.6" fill="#B5CB9B" transform="rotate(99.5,360.4,619.3)" /><ellipse cx="372.4" cy="605.6" rx="3.3" ry="7.4" fill="#B5CB9B" transform="rotate(-75.5,372.4,605.6)" /></g><g transform="translate(359.0,617.6) rotate(-85.6)"><ellipse cx="0" cy="-6" rx="2.2" ry="7.2" fill="#A8C28A" /></g><g transform="translate(362.4,637.1) rotate(-76.5)"><ellipse cx="0" cy="-6" rx="2.0" ry="6.5" fill="#A8C28A" /></g><g transform="translate(365.8,656.6) rotate(-97.4)"><ellipse cx="0" cy="-6" rx="1.8" ry="5.8" fill="#A8C28A" /></g><g transform="translate(361.2,676.0) rotate(-88.1)"><ellipse cx="0" cy="-6" rx="1.6" ry="5.0" fill="#A8C28A" /></g><g transform="translate(364.6,695.5) rotate(-78.9)"><ellipse cx="0" cy="-6" rx="2.3" ry="7.5" fill="#A8C28A" /></g><g transform="translate(374.1,617.6) rotate(-76.1)"><ellipse cx="0" cy="-6" rx="2.0" ry="6.3" fill="#A8C28A" /></g><g transform="translate(377.6,636.3) rotate(-97.1)"><ellipse cx="0" cy="-6" rx="1.8" ry="5.6" fill="#A8C28A" /></g><g transform="translate(372.9,654.9) rotate(-87.8)"><ellipse cx="0" cy="-6" rx="1.5" ry="4.9" fill="#A8C28A" /></g><g transform="translate(376.4,673.5) rotate(-78.6)"><ellipse cx="0" cy="-6" rx="2.3" ry="7.4" fill="#A8C28A" /></g><g transform="translate(371.8,692.1) rotate(-99.4)"><ellipse cx="0" cy="-6" rx="2.1" ry="6.7" fill="#A8C28A" /></g><g transform="translate(375.2,710.8) rotate(-90.2)"><ellipse cx="0" cy="-6" rx="1.9" ry="5.9" fill="#A8C28A" /></g><g transform="translate(359.2,617.6) rotate(-96.7)"><ellipse cx="0" cy="-6" rx="1.7" ry="5.5" fill="#A8C28A" /></g><g transform="translate(354.6,637.1) rotate(-87.4)"><ellipse cx="0" cy="-6" rx="1.5" ry="4.8" fill="#A8C28A" /></g><g transform="translate(358.0,656.6) rotate(-78.2)"><ellipse cx="0" cy="-6" rx="2.3" ry="7.2" fill="#A8C28A" /></g><g transform="translate(361.4,676.1) rotate(-99.2)"><ellipse cx="0" cy="-6" rx="2.0" ry="6.5" fill="#A8C28A" /></g><g transform="translate(374.3,617.6) rotate(-87.2)"><ellipse cx="0" cy="-6" rx="1.4" ry="4.6" fill="#A8C28A" /></g><g transform="translate(369.7,636.1) rotate(-77.9)"><ellipse cx="0" cy="-6" rx="2.2" ry="7.1" fill="#A8C28A" /></g><g transform="translate(373.1,654.5) rotate(-98.8)"><ellipse cx="0" cy="-6" rx="2.0" ry="6.4" fill="#A8C28A" /></g><g transform="translate(368.5,672.9) rotate(-89.5)"><ellipse cx="0" cy="-6" rx="1.8" ry="5.7" fill="#A8C28A" /></g><g transform="translate(371.9,691.4) rotate(-80.4)"><ellipse cx="0" cy="-6" rx="1.5" ry="4.9" fill="#A8C28A" /></g><path d="M481.5,541.5 C482.9,541.1 493.6,537.3 498.7,536.9 C503.8,536.4 534.9,531.5 543.0,536.3 C551.1,541.0 591.4,588.9 595.8,593.7 C595.9,593.6 601.4,597.5 597.2,592.4 C593.1,587.2 553.9,537.2 545.6,532.0 C537.4,526.7 503.8,529.3 498.3,529.4 C492.8,529.5 481.1,532.5 479.5,532.8 Z" fill="#6B5A48" /><g><ellipse cx="596.2" cy="592.5" rx="3.4" ry="7.6" fill="#A8C28A" transform="rotate(96.7,596.2,592.5)" /><ellipse cx="608.2" cy="578.8" rx="2.8" ry="6.4" fill="#A8C28A" transform="rotate(-78.4,608.2,578.8)" /><ellipse cx="592.1" cy="584.8" rx="4.7" ry="10.6" fill="#A8C28A" transform="rotate(106.6,592.1,584.8)" /><ellipse cx="604.0" cy="590.8" rx="4.2" ry="9.4" fill="#A8C28A" transform="rotate(-68.5,604.0,590.8)" /><ellipse cx="587.9" cy="577.2" rx="3.6" ry="8.2" fill="#B5CB9B" transform="rotate(116.5,587.9,577.2)" /><ellipse cx="599.8" cy="583.2" rx="3.1" ry="6.9" fill="#B5CB9B" transform="rotate(-58.6,599.8,583.2)" /><ellipse cx="583.7" cy="589.3" rx="4.9" ry="11.1" fill="#B5CB9B" transform="rotate(126.4,583.7,589.3)" /><ellipse cx="595.7" cy="575.6" rx="4.4" ry="9.9" fill="#B5CB9B" transform="rotate(-48.7,595.7,575.6)" /></g><g transform="translate(598.8,593.3) rotate(-70.2)"><ellipse cx="0" cy="-6" rx="1.6" ry="5.2" fill="#A8C28A" /></g><g transform="translate(594.2,615.6) rotate(-91.1)"><ellipse cx="0" cy="-6" rx="1.4" ry="4.4" fill="#A8C28A" /></g><g transform="translate(597.6,637.9) rotate(-81.9)"><ellipse cx="0" cy="-6" rx="2.2" ry="6.9" fill="#A8C28A" /></g><g transform="translate(593.0,660.2) rotate(-72.6)"><ellipse cx="0" cy="-6" rx="1.9" ry="6.2" fill="#A8C28A" /></g><g transform="translate(605.9,593.3) rotate(-90.7)"><ellipse cx="0" cy="-6" rx="2.3" ry="7.5" fill="#A8C28A" /></g><g transform="translate(609.4,613.9) rotate(-81.5)"><ellipse cx="0" cy="-6" rx="2.1" ry="6.8" fill="#A8C28A" /></g><g transform="translate(612.8,634.4) rotate(-72.4)"><ellipse cx="0" cy="-6" rx="1.9" ry="6.1" fill="#A8C28A" /></g><g transform="translate(608.2,655.0) rotate(-93.2)"><ellipse cx="0" cy="-6" rx="1.7" ry="5.3" fill="#A8C28A" /></g><g transform="translate(611.6,675.5) rotate(-84.0)"><ellipse cx="0" cy="-6" rx="1.4" ry="4.6" fill="#A8C28A" /></g><g transform="translate(591.0,593.3) rotate(-81.2)"><ellipse cx="0" cy="-6" rx="2.1" ry="6.6" fill="#A8C28A" /></g><g transform="translate(594.4,612.9) rotate(-72.0)"><ellipse cx="0" cy="-6" rx="1.8" ry="5.9" fill="#A8C28A" /></g><g transform="translate(589.8,632.4) rotate(-92.8)"><ellipse cx="0" cy="-6" rx="1.6" ry="5.2" fill="#A8C28A" /></g><g transform="translate(593.2,651.9) rotate(-83.6)"><ellipse cx="0" cy="-6" rx="1.4" ry="4.5" fill="#A8C28A" /></g><g transform="translate(588.6,671.5) rotate(-74.4)"><ellipse cx="0" cy="-6" rx="2.2" ry="7.0" fill="#A8C28A" /></g><g transform="translate(592.0,691.0) rotate(-95.3)"><ellipse cx="0" cy="-6" rx="2.0" ry="6.2" fill="#A8C28A" /></g><g transform="translate(606.1,593.3) rotate(-71.6)"><ellipse cx="0" cy="-6" rx="1.8" ry="5.8" fill="#A8C28A" /></g><g transform="translate(601.5,614.3) rotate(-92.5)"><ellipse cx="0" cy="-6" rx="1.6" ry="5.1" fill="#A8C28A" /></g><g transform="translate(604.9,635.2) rotate(-83.3)"><ellipse cx="0" cy="-6" rx="2.4" ry="7.5" fill="#A8C28A" /></g><g transform="translate(608.3,656.1) rotate(-74.1)"><ellipse cx="0" cy="-6" rx="2.1" ry="6.8" fill="#A8C28A" /></g><path d="M481.5,532.8 C479.9,532.5 468.5,530.0 463.0,529.4 C457.5,528.9 423.8,521.5 415.5,526.1 C407.2,530.8 368.1,580.5 363.8,585.4 C363.9,585.5 360.7,591.4 365.2,586.8 C369.8,582.2 409.8,534.7 417.9,530.6 C426.0,526.4 456.9,535.9 462.0,536.9 C467.1,537.8 478.1,541.1 479.5,541.5 Z" fill="#6B5A48" /><g><ellipse cx="352.4" cy="585.3" rx="4.5" ry="10.1" fill="#A8C28A" transform="rotate(-124.9,352.4,585.3)" /><ellipse cx="364.3" cy="591.3" rx="4.0" ry="8.9" fill="#A8C28A" transform="rotate(60.0,364.3,591.3)" /><ellipse cx="376.3" cy="577.6" rx="3.4" ry="7.7" fill="#A8C28A" transform="rotate(-115.1,376.3,577.6)" /><ellipse cx="360.2" cy="583.7" rx="2.9" ry="6.5" fill="#A8C28A" transform="rotate(71.3,360.2,583.7)" /><ellipse cx="372.1" cy="589.7" rx="4.7" ry="10.7" fill="#B5CB9B" transform="rotate(-105.2,372.1,589.7)" /><ellipse cx="356.0" cy="576.1" rx="4.2" ry="9.5" fill="#B5CB9B" transform="rotate(81.2,356.0,576.1)" /><ellipse cx="368.0" cy="582.1" rx="3.7" ry="8.2" fill="#B5CB9B" transform="rotate(-95.3,368.0,582.1)" /><ellipse cx="351.8" cy="588.1" rx="3.1" ry="7.0" fill="#B5CB9B" transform="rotate(91.1,351.8,588.1)" /></g><g transform="translate(357.9,593.3) rotate(-85.6)"><ellipse cx="0" cy="-6" rx="2.0" ry="6.3" fill="#A8C28A" /></g><g transform="translate(353.3,609.7) rotate(-76.4)"><ellipse cx="0" cy="-6" rx="1.7" ry="5.5" fill="#A8C28A" /></g><g transform="translate(356.7,626.1) rotate(-97.3)"><ellipse cx="0" cy="-6" rx="1.5" ry="4.8" fill="#A8C28A" /></g><g transform="translate(352.1,642.5) rotate(-88.0)"><ellipse cx="0" cy="-6" rx="2.3" ry="7.3" fill="#A8C28A" /></g><g transform="translate(355.5,658.8) rotate(-78.8)"><ellipse cx="0" cy="-6" rx="2.1" ry="6.6" fill="#A8C28A" /></g><g transform="translate(359.0,675.2) rotate(-99.8)"><ellipse cx="0" cy="-6" rx="1.8" ry="5.9" fill="#A8C28A" /></g><g transform="translate(354.3,691.6) rotate(-90.5)"><ellipse cx="0" cy="-6" rx="1.6" ry="5.1" fill="#A8C28A" /></g><g transform="translate(365.0,593.3) rotate(-76.0)"><ellipse cx="0" cy="-6" rx="1.7" ry="5.4" fill="#A8C28A" /></g><g transform="translate(368.5,614.5) rotate(-96.9)"><ellipse cx="0" cy="-6" rx="1.5" ry="4.7" fill="#A8C28A" /></g><g transform="translate(371.9,635.6) rotate(-87.8)"><ellipse cx="0" cy="-6" rx="2.2" ry="7.2" fill="#A8C28A" /></g><g transform="translate(367.3,656.7) rotate(-78.5)"><ellipse cx="0" cy="-6" rx="2.0" ry="6.4" fill="#A8C28A" /></g><g transform="translate(350.1,593.3) rotate(-96.6)"><ellipse cx="0" cy="-6" rx="1.4" ry="4.5" fill="#A8C28A" /></g><g transform="translate(353.5,613.0) rotate(-87.4)"><ellipse cx="0" cy="-6" rx="2.2" ry="7.0" fill="#A8C28A" /></g><g transform="translate(348.9,632.8) rotate(-78.1)"><ellipse cx="0" cy="-6" rx="2.0" ry="6.3" fill="#A8C28A" /></g><g transform="translate(352.3,652.5) rotate(-99.1)"><ellipse cx="0" cy="-6" rx="1.7" ry="5.6" fill="#A8C28A" /></g><g transform="translate(347.7,672.2) rotate(-89.8)"><ellipse cx="0" cy="-6" rx="1.5" ry="4.9" fill="#A8C28A" /></g><g transform="translate(365.2,593.3) rotate(-87.1)"><ellipse cx="0" cy="-6" rx="2.2" ry="6.9" fill="#A8C28A" /></g><g transform="translate(360.6,612.2) rotate(-77.8)"><ellipse cx="0" cy="-6" rx="1.9" ry="6.2" fill="#A8C28A" /></g><g transform="translate(364.0,631.0) rotate(-98.7)"><ellipse cx="0" cy="-6" rx="1.7" ry="5.4" fill="#A8C28A" /></g><g transform="translate(367.4,649.8) rotate(-89.5)"><ellipse cx="0" cy="-6" rx="1.5" ry="4.7" fill="#A8C28A" /></g><g transform="translate(362.8,668.6) rotate(-80.2)"><ellipse cx="0" cy="-6" rx="2.2" ry="7.2" fill="#A8C28A" /></g><g transform="translate(366.2,687.5) rotate(-71.1)"><ellipse cx="0" cy="-6" rx="2.0" ry="6.5" fill="#A8C28A" /></g><path d="M469.5,524.4 C470.9,524.0 481.9,520.6 487.0,519.7 C492.1,518.8 523.0,509.0 531.0,513.5 C539.1,518.0 579.3,568.6 583.7,573.6 C583.9,573.5 589.4,577.7 585.3,572.3 C581.1,566.9 541.8,514.1 533.6,509.1 C525.3,504.1 491.5,511.7 486.0,512.3 C480.5,512.8 469.1,515.3 467.5,515.6 Z" fill="#6B5A48" /><g><ellipse cx="571.9" cy="562.5" rx="3.2" ry="7.2" fill="#A8C28A" transform="rotate(-98.1,571.9,562.5)" /><ellipse cx="583.9" cy="568.5" rx="5.1" ry="11.4" fill="#A8C28A" transform="rotate(86.8,583.9,568.5)" /><ellipse cx="595.9" cy="574.5" rx="4.5" ry="10.2" fill="#A8C28A" transform="rotate(-88.2,595.9,574.5)" /><ellipse cx="579.7" cy="560.9" rx="4.0" ry="9.0" fill="#A8C28A" transform="rotate(96.7,579.7,560.9)" /><ellipse cx="591.7" cy="566.9" rx="3.4" ry="7.8" fill="#B5CB9B" transform="rotate(-78.4,591.7,566.9)" /><ellipse cx="575.6" cy="572.9" rx="2.9" ry="6.5" fill="#B5CB9B" transform="rotate(108.0,575.6,572.9)" /><ellipse cx="587.5" cy="559.2" rx="4.8" ry="10.7" fill="#B5CB9B" transform="rotate(-68.5,587.5,559.2)" /><ellipse cx="571.4" cy="565.3" rx="4.2" ry="9.5" fill="#B5CB9B" transform="rotate(117.9,571.4,565.3)" /></g><g transform="translate(586.0,576.2) rotate(-70.1)"><ellipse cx="0" cy="-6" rx="2.3" ry="7.4" fill="#A8C28A" /></g><g transform="translate(589.4,593.7) rotate(-91.1)"><ellipse cx="0" cy="-6" rx="2.1" ry="6.7" fill="#A8C28A" /></g><g transform="translate(584.8,611.1) rotate(-81.8)"><ellipse cx="0" cy="-6" rx="1.9" ry="6.0" fill="#A8C28A" /></g><g transform="translate(588.2,628.6) rotate(-72.6)"><ellipse cx="0" cy="-6" rx="1.6" ry="5.3" fill="#A8C28A" /></g><g transform="translate(583.6,646.0) rotate(-93.4)"><ellipse cx="0" cy="-6" rx="1.4" ry="4.5" fill="#A8C28A" /></g><g transform="translate(587.0,663.5) rotate(-84.2)"><ellipse cx="0" cy="-6" rx="2.2" ry="7.0" fill="#A8C28A" /></g><g transform="translate(601.1,576.2) rotate(-90.7)"><ellipse cx="0" cy="-6" rx="2.1" ry="6.6" fill="#A8C28A" /></g><g transform="translate(596.5,593.7) rotate(-81.4)"><ellipse cx="0" cy="-6" rx="1.8" ry="5.8" fill="#A8C28A" /></g><g transform="translate(599.9,611.1) rotate(-72.2)"><ellipse cx="0" cy="-6" rx="1.6" ry="5.1" fill="#A8C28A" /></g><g transform="translate(595.3,628.6) rotate(-93.1)"><ellipse cx="0" cy="-6" rx="1.4" ry="4.4" fill="#A8C28A" /></g><g transform="translate(578.1,576.2) rotate(-81.1)"><ellipse cx="0" cy="-6" rx="1.8" ry="5.7" fill="#A8C28A" /></g><g transform="translate(581.5,598.8) rotate(-71.9)"><ellipse cx="0" cy="-6" rx="1.6" ry="5.0" fill="#A8C28A" /></g><g transform="translate(585.0,621.4) rotate(-92.8)"><ellipse cx="0" cy="-6" rx="2.3" ry="7.5" fill="#A8C28A" /></g><g transform="translate(580.3,644.0) rotate(-83.5)"><ellipse cx="0" cy="-6" rx="2.1" ry="6.7" fill="#A8C28A" /></g><g transform="translate(593.3,576.2) rotate(-71.5)"><ellipse cx="0" cy="-6" rx="1.5" ry="4.8" fill="#A8C28A" /></g><g transform="translate(596.7,597.0) rotate(-92.5)"><ellipse cx="0" cy="-6" rx="2.3" ry="7.3" fill="#A8C28A" /></g><g transform="translate(592.1,617.8) rotate(-83.2)"><ellipse cx="0" cy="-6" rx="2.1" ry="6.6" fill="#A8C28A" /></g><g transform="translate(595.5,638.6) rotate(-74.0)"><ellipse cx="0" cy="-6" rx="1.8" ry="5.9" fill="#A8C28A" /></g><g transform="translate(590.9,659.3) rotate(-94.8)"><ellipse cx="0" cy="-6" rx="1.6" ry="5.2" fill="#A8C28A" /></g><g><ellipse cx="426.8" cy="403.7" rx="5.4" ry="10.8" fill="#A8C28A" transform="rotate(-48.7,426.8,403.7)" /><ellipse cx="442.2" cy="386.1" rx="4.7" ry="9.5" fill="#A8C28A" transform="rotate(136.2,442.2,386.1)" /><ellipse cx="421.5" cy="394.0" rx="4.1" ry="8.1" fill="#A8C28A" transform="rotate(-38.8,421.5,394.0)" /><ellipse cx="436.8" cy="401.7" rx="6.4" ry="12.8" fill="#A8C28A" transform="rotate(146.1,436.8,401.7)" /><ellipse cx="416.1" cy="384.2" rx="5.7" ry="11.4" fill="#A8C28A" transform="rotate(-28.9,416.1,384.2)" /><ellipse cx="431.5" cy="391.9" rx="5.0" ry="10.1" fill="#B7CC9F" transform="rotate(157.4,431.5,391.9)" /><ellipse cx="446.9" cy="399.6" rx="4.3" ry="8.7" fill="#B7CC9F" transform="rotate(-19.1,446.9,399.6)" /><ellipse cx="426.1" cy="382.1" rx="3.7" ry="7.4" fill="#B7CC9F" transform="rotate(167.3,426.1,382.1)" /><ellipse cx="441.5" cy="389.8" rx="6.0" ry="12.0" fill="#B7CC9F" transform="rotate(-9.2,441.5,389.8)" /><ellipse cx="420.8" cy="397.6" rx="5.3" ry="10.6" fill="#B7CC9F" transform="rotate(177.2,420.8,397.6)" /></g><g transform="translate(428.8,406.0) rotate(-84.1)"><ellipse cx="0" cy="-6" rx="1.6" ry="5.1" fill="#A8C28A" /></g><g transform="translate(432.3,423.5) rotate(-74.9)"><ellipse cx="0" cy="-6" rx="1.4" ry="4.4" fill="#A8C28A" /></g><g transform="translate(435.7,441.1) rotate(-95.9)"><ellipse cx="0" cy="-6" rx="2.2" ry="6.9" fill="#A8C28A" /></g><g transform="translate(431.1,458.6) rotate(-86.6)"><ellipse cx="0" cy="-6" rx="1.9" ry="6.2" fill="#A8C28A" /></g><g transform="translate(434.5,476.1) rotate(-77.4)"><ellipse cx="0" cy="-6" rx="1.7" ry="5.4" fill="#A8C28A" /></g><g transform="translate(429.9,493.6) rotate(-98.2)"><ellipse cx="0" cy="-6" rx="1.5" ry="4.7" fill="#A8C28A" /></g><g transform="translate(413.9,406.0) rotate(-74.6)"><ellipse cx="0" cy="-6" rx="2.3" ry="7.5" fill="#A8C28A" /></g><g transform="translate(417.3,423.6) rotate(-95.5)"><ellipse cx="0" cy="-6" rx="2.1" ry="6.8" fill="#A8C28A" /></g><g transform="translate(412.7,441.3) rotate(-86.2)"><ellipse cx="0" cy="-6" rx="1.9" ry="6.0" fill="#A8C28A" /></g><g transform="translate(416.1,458.9) rotate(-77.1)"><ellipse cx="0" cy="-6" rx="1.7" ry="5.3" fill="#A8C28A" /></g><g transform="translate(429.0,406.0) rotate(-95.2)"><ellipse cx="0" cy="-6" rx="2.1" ry="6.6" fill="#A8C28A" /></g><g transform="translate(424.4,428.7) rotate(-85.9)"><ellipse cx="0" cy="-6" rx="1.8" ry="5.9" fill="#A8C28A" /></g><g transform="translate(427.8,451.5) rotate(-76.7)"><ellipse cx="0" cy="-6" rx="1.6" ry="5.2" fill="#A8C28A" /></g><g transform="translate(431.2,474.2) rotate(-97.6)"><ellipse cx="0" cy="-6" rx="1.4" ry="4.5" fill="#A8C28A" /></g><path d="M492.0,598.0 Q480.0,604.0 474.0,600.0" stroke="#3D3328" stroke-width="3" fill="none" stroke-linecap="round" opacity="0.85" /></svg>