<svg xmlns="http://www.w3.org/2000/svg" viewBox="0 0 1000 800" preserveAspectRatio="xMidYMid meet" role="img" aria-label="bonsai-cc tree"><defs><linearGradient id="bcc-sky" x1="0" y1="0" x2="0" y2="1"><stop offset="0%" stop-color="#F4F3EE" /><stop offset="100%" stop-color="#E8E5DC" /></linearGradient><linearGradient id="bcc-ground" x1="0" y1="0" x2="0" y2="1"><stop offset="0%" stop-color="#E8E5DC" /><stop offset="100%" stop-color="#B1ADA1" /></linearGradient><linearGradient id="bcc-pot" x1="0" y1="0" x2="0" y2="1"><stop offset="0%" stop-color="#8E3D24" /><stop offset="100%" stop-color="#3D3328" /></linearGradient><linearGradient id="sky" x1="0" y1="0" x2="0" y2="1"><stop offset="0%" stop-color="#F4F3EE" /><stop offset="100%" stop-color="#E8E5DC" /></linearGradient><linearGradient id="ground" x1="0" y1="0" x2="0" y2="1"><stop offset="0%" stop-color="#E8E5DC" /><stop offset="100%" stop-color="#B1ADA1" /></linearGradient><radialGradient id="sun" cx="0.5" cy="0.5" r="0.5"><stop offset="0%" stop-color="#C15F3C" stop-opacity="0.55" /><stop offset="70%" stop-color="#C15F3C" stop-opacity="0.20" /><stop offset="100%" stop-color="#C15F3C" stop-opacity="0" /></radialGradient><radialGradient id="moon" cx="0.45" cy="0.45" r="0.55"><stop offset="0%" stop-color="#F4F3EE" stop-opacity="0.85" /><stop offset="100%" stop-color="#F4F3EE" stop-opacity="0.35" /></radialGradient><radialGradient id="pot-shadow" cx="0.5" cy="0.5" r="0.5"><stop offset="0%" stop-color="#191919" stop-opacity="0.18" /><stop offset="100%" stop-color="#191919" stop-opacity="0" /></radialGradient></defs><rect x="0" y="0" width="1000" height="600" fill="url(#bcc-sky)" /><circle cx="780" cy="180" r="80" fill="url(#sun)" /><circle cx="780" cy="180" r="28" fill="#C15F3C" fill-opacity="0.55" /><rect x="0" y="600" width="1000" height="200" fill="url(#bcc-ground)" /><ellipse cx="500" cy="728" rx="190" ry="22" fill="url(#pot-shadow)" /><path d="M340,600 Q336,608 344,618 L370,700 Q376,710 384,710 L616,710 Q624,710 630,700 L656,618 Q664,608 660,600 Z" fill="url(#bcc-pot)" /><path d="M350,622 Q500,626 650,622" stroke="#3D3328" stroke-width="1.5" fill="none" stroke-linecap="round" opacity="0.55" /><ellipse cx="500" cy="602" rx="152" ry="8" fill="#3D3328" /><circle cx="430" cy="601" r="4" fill="#B1ADA1" opacity="0.7" /><circle cx="530" cy="603" r="3" fill="#B1ADA1" opacity="0.55" /><circle cx="590" cy="601" r="3.5" fill="#B1ADA1" opacity="0.7" /><path d="M534.1,601.7 C534.6,599.5 536.7,581.7 539.4,575.4 C542.1,569.2 561.3,537.4 566.2,527.1 C571.1,516.7 595.5,457.7 598.1,451.4 C597.6,451.2 595.1,442.6 591.7,448.6 C588.3,454.6 563.1,512.8 557.9,522.9 C552.6,533.1 531.9,564.3 528.8,570.6 C525.7,576.8 521.2,596.0 520.5,598.3 Z" fill="#606D42" /><path d="M525.3,600.0,532.1,573.0,560.0,525.0,592.9,450.0" stroke="#343B24" stroke-width="1.5" fill="none" opacity="0.30" stroke-linecap="round" /><line x1="536.6" y1="562.5" x2="551.8" y2="562.5" stroke="#40492C" stroke-width="2.2" stroke-linecap="round" /><circle cx="547.3" cy="562.5" r="2" fill="#40492C" opacity="0.85" /><line x1="554.4" y1="525.0" x2="567.9" y2="525.0" stroke="#40492C" stroke-width="2.2" stroke-linecap="round" /><circle cx="563.8" cy="525.0" r="2" fill="#40492C" opacity="0.85" /><line x1="572.1" y1="487.5" x2="583.9" y2="487.5" stroke="#40492C" stroke-width="2.2" stroke-linecap="round" /><circle cx="580.4" cy="487.5" r="2" fill="#40492C" opacity="0.85" /><path d="M476.6,598.8 C476.0,596.2 472.5,574.6 469.9,567.5 C467.2,560.4 449.2,525.0 445.0,513.5 C440.8,501.9 421.9,436.1 419.8,429.0 C419.2,429.2 411.7,423.7 413.0,431.0 C414.4,438.2 432.4,504.8 436.2,516.5 C440.0,528.2 456.6,564.2 458.8,571.3 C461.0,578.3 462.4,598.7 462.8,601.2 Z" fill="#657346" /><path d="M467.7,600.0,462.3,569.4,438.6,515.0,414.4,430.0" stroke="#373F26" stroke-width="1.5" fill="none" opacity="0.30" stroke-linecap="round" /><line x1="451.2" y1="566.0" x2="466.8" y2="566.0" stroke="#40492C" stroke-width="2.2" stroke-linecap="round" /><circle cx="462.1" cy="566.0" r="2" fill="#40492C" opacity="0.85" /><line x1="441.3" y1="532.0" x2="455.5" y2="532.0" stroke="#40492C" stroke-width="2.2" stroke-linecap="round" /><circle cx="451.2" cy="532.0" r="2" fill="#40492C" opacity="0.85" /><line x1="431.3" y1="498.0" x2="444.1" y2="498.0" stroke="#40492C" stroke-width="2.2" stroke-linecap="round" /><circle cx="440.3" cy="498.0" r="2" fill="#40492C" opacity="0.85" /><line x1="421.3" y1="464.0" x2="432.7" y2="464.0" stroke="#40492C" stroke-width="2.2" stroke-linecap="round" /><circle cx="429.3" cy="464.0" r="2" fill="#40492C" opacity="0.85" /><path d="M519.1,600.4 C519.2,597.6 519.5,574.8 519.7,567.2 C519.8,559.5 520.1,521.0 521.2,508.5 C522.2,495.9 531.8,424.1 532.8,416.5 C532.2,416.4 527.6,407.9 525.9,415.5 C524.1,423.1 513.4,494.9 511.9,507.5 C510.4,520.1 508.6,558.9 508.0,566.6 C507.5,574.3 505.4,596.9 505.1,599.6 Z" fill="#6B7A4A" /><path d="M510.1,600.0,511.8,566.9,514.5,508.0,527.3,416.0" stroke="#3A4328" stroke-width="1.5" fill="none" opacity="0.30" stroke-linecap="round" /><line x1="507.8" y1="563.2" x2="523.4" y2="563.2" stroke="#454F30" stroke-width="2.2" stroke-linecap="round" /><circle cx="518.7" cy="563.2" r="2" fill="#454F30" opacity="0.85" /><line x1="511.9" y1="526.4" x2="526.1" y2="526.4" stroke="#454F30" stroke-width="2.2" stroke-linecap="round" /><circle cx="521.8" cy="526.4" r="2" fill="#454F30" opacity="0.85" /><line x1="516.0" y1="489.6" x2="528.8" y2="489.6" stroke="#454F30" stroke-width="2.2" stroke-linecap="round" /><circle cx="525.0" cy="489.6" r="2" fill="#454F30" opacity="0.85" /><line x1="520.2" y1="452.8" x2="531.6" y2="452.8" stroke="#454F30" stroke-width="2.2" stroke-linecap="round" /><circle cx="528.2" cy="452.8" r="2" fill="#454F30" opacity="0.85" /><path d="M497.9,599.5 C497.5,596.5 495.1,571.7 494.0,563.4 C492.9,555.0 486.9,513.0 484.7,499.3 C482.5,485.7 468.7,407.8 467.3,399.4 C466.7,399.5 459.7,392.1 460.4,400.6 C461.0,409.0 473.6,487.0 475.4,500.7 C477.3,514.4 481.7,556.3 482.4,564.6 C483.1,572.9 483.8,597.5 483.9,600.5 Z" fill="#B8C28F" /><path d="M488.9,600.0,486.2,564.0,478.1,500.0,461.8,400.0" stroke="#404830" stroke-width="1.5" fill="none" opacity="0.30" stroke-linecap="round" /><line x1="478.5" y1="566.7" x2="494.3" y2="566.7" stroke="#4A5533" stroke-width="2.2" stroke-linecap="round" /><circle cx="489.5" cy="566.7" r="2" fill="#4A5533" opacity="0.85" /><line x1="474.5" y1="533.3" x2="489.2" y2="533.3" stroke="#4A5533" stroke-width="2.2" stroke-linecap="round" /><circle cx="484.8" cy="533.3" r="2" fill="#4A5533" opacity="0.85" /><line x1="470.6" y1="500.0" x2="484.1" y2="500.0" stroke="#4A5533" stroke-width="2.2" stroke-linecap="round" /><circle cx="480.1" cy="500.0" r="2" fill="#4A5533" opacity="0.85" /><line x1="466.7" y1="466.7" x2="479.0" y2="466.7" stroke="#4A5533" stroke-width="2.2" stroke-linecap="round" /><circle cx="475.3" cy="466.7" r="2" fill="#4A5533" opacity="0.85" /><line x1="462.8" y1="433.3" x2="473.9" y2="433.3" stroke="#4A5533" stroke-width="2.2" stroke-linecap="round" /><circle cx="470.6" cy="433.3" r="2" fill="#4A5533" opacity="0.85" /><path d="M416.4,448.0 Q397.4,450.0 378.4,454.0" stroke="#6B7A4A" stroke-width="2.4" fill="none" stroke-linecap="round" /><g><g transform="translate(374.7,452.6) rotate(201.0)"><path d="M0,0 Q3.8,-13.9 0,-27.7 Q-3.8,-13.9 0,0 Z" fill="#718052" /></g><g transform="translate(374.4,454.1) rotate(178.4)"><path d="M0,0 Q2.7,-10.0 0,-20.1 Q-2.7,-10.0 0,0 Z" fill="#6B7A4B" /></g><g transform="translate(374.5,454.8) rotate(167.8)"><path d="M0,0 Q3.2,-11.7 0,-23.4 Q-3.2,-11.7 0,0 Z" fill="#677547" /></g><g transform="translate(374.7,455.5) rotate(157.2)"><path d="M0,0 Q3.7,-13.4 0,-26.8 Q-3.7,-13.4 0,0 Z" fill="#627044" /></g><g transform="translate(375.6,456.8) rotate(134.6)"><path d="M0,0 Q2.6,-9.6 0,-19.2 Q-2.6,-9.6 0,0 Z" fill="#748255" /></g><g transform="translate(376.2,457.3) rotate(124.0)"><path d="M0,0 Q3.1,-11.3 0,-22.5 Q-3.1,-11.3 0,0 Z" fill="#6E7D4E" /></g><g transform="translate(377.6,457.9) rotate(101.4)"><path d="M0,0 Q3.5,-13.0 0,-25.9 Q-3.5,-13.0 0,0 Z" fill="#697748" /></g><g transform="translate(378.3,458.0) rotate(90.8)"><path d="M0,0 Q4.0,-14.7 0,-29.3 Q-4.0,-14.7 0,0 Z" fill="#647245" /></g></g><g><g transform="translate(391.6,451.0) rotate(194.2)"><path d="M0,0 Q3.1,-11.2 0,-22.5 Q-3.1,-11.2 0,0 Z" fill="#728053" /></g><g transform="translate(391.7,453.2) rotate(162.7)"><path d="M0,0 Q3.5,-12.9 0,-25.8 Q-3.5,-12.9 0,0 Z" fill="#6C7B4B" /></g><g transform="translate(392.9,455.0) rotate(131.2)"><path d="M0,0 Q4.0,-14.6 0,-29.2 Q-4.0,-14.6 0,0 Z" fill="#677647" /></g><g transform="translate(395.7,456.0) rotate(87.6)"><path d="M0,0 Q2.9,-10.8 0,-21.5 Q-2.9,-10.8 0,0 Z" fill="#637144" /></g></g><g><g transform="translate(385.8,450.6) rotate(201.2)"><path d="M0,0 Q4.0,-14.7 0,-29.4 Q-4.0,-14.7 0,0 Z" fill="#667446" /></g><g transform="translate(385.8,453.5) rotate(157.6)"><path d="M0,0 Q3.0,-10.9 0,-21.8 Q-3.0,-10.9 0,0 Z" fill="#616F43" /></g><g transform="translate(387.1,455.2) rotate(126.1)"><path d="M0,0 Q3.4,-12.6 0,-25.2 Q-3.4,-12.6 0,0 Z" fill="#728153" /></g><g transform="translate(389.2,456.0) rotate(94.5)"><path d="M0,0 Q3.9,-14.3 0,-28.5 Q-3.9,-14.3 0,0 Z" fill="#6C7B4C" /></g></g><path d="M463.8,418.0 Q482.8,420.0 501.8,424.0" stroke="#6B7A4A" stroke-width="2.4" fill="none" stroke-linecap="round" /><g><g transform="translate(505.5,422.4) rotate(-24.1)"><path d="M0,0 Q3.2,-11.9 0,-23.7 Q-3.2,-11.9 0,0 Z" fill="#657346" /></g><g transform="translate(505.8,423.8) rotate(-3.2)"><path d="M0,0 Q3.7,-13.5 0,-27.1 Q-3.7,-13.5 0,0 Z" fill="#78855A" /></g><g transform="translate(505.8,424.4) rotate(5.6)"><path d="M0,0 Q2.6,-9.7 0,-19.4 Q-2.6,-9.7 0,0 Z" fill="#728052" /></g><g transform="translate(505.4,425.8) rotate(26.4)"><path d="M0,0 Q3.1,-11.4 0,-22.8 Q-3.1,-11.4 0,0 Z" fill="#6C7B4B" /></g><g transform="translate(504.5,426.9) rotate(47.3)"><path d="M0,0 Q3.6,-13.1 0,-26.2 Q-3.6,-13.1 0,0 Z" fill="#677547" /></g><g transform="translate(504.1,427.3) rotate(56.1)"><path d="M0,0 Q4.0,-14.8 0,-29.6 Q-4.0,-14.8 0,0 Z" fill="#637144" /></g><g transform="translate(502.7,427.9) rotate(76.9)"><path d="M0,0 Q3.0,-10.9 0,-21.9 Q-3.0,-10.9 0,0 Z" fill="#748256" /></g><g transform="translate(502.1,428.0) rotate(85.7)"><path d="M0,0 Q3.4,-12.6 0,-25.3 Q-3.4,-12.6 0,0 Z" fill="#6E7D4E" /></g></g><g><g transform="translate(488.6,421.0) rotate(-15.0)"><path d="M0,0 Q3.3,-12.2 0,-24.4 Q-3.3,-12.2 0,0 Z" fill="#637144" /></g><g transform="translate(488.6,423.0) rotate(14.7)"><path d="M0,0 Q3.8,-13.9 0,-27.8 Q-3.8,-13.9 0,0 Z" fill="#748256" /></g><g transform="translate(486.9,425.3) rotate(56.5)"><path d="M0,0 Q2.7,-10.0 0,-20.1 Q-2.7,-10.0 0,0 Z" fill="#6F7D4E" /></g><g transform="translate(485.0,426.0) rotate(86.3)"><path d="M0,0 Q3.2,-11.7 0,-23.5 Q-3.2,-11.7 0,0 Z" fill="#697848" /></g></g><g><g transform="translate(494.5,420.6) rotate(-20.1)"><path d="M0,0 Q2.8,-10.2 0,-20.3 Q-2.8,-10.2 0,0 Z" fill="#6C7B4C" /></g><g transform="translate(494.4,423.5) rotate(21.7)"><path d="M0,0 Q3.2,-11.9 0,-23.7 Q-3.2,-11.9 0,0 Z" fill="#677647" /></g><g transform="translate(493.2,425.1) rotate(51.4)"><path d="M0,0 Q3.7,-13.6 0,-27.1 Q-3.7,-13.6 0,0 Z" fill="#637144" /></g><g transform="translate(490.5,426.0) rotate(93.2)"><path d="M0,0 Q2.6,-9.7 0,-19.4 Q-2.6,-9.7 0,0 Z" fill="#758356" /></g></g><path d="M529.3,434.0 Q510.3,436.0 491.3,440.0" stroke="#6B7A4A" stroke-width="2.4" fill="none" stroke-linecap="round" /><g><g transform="translate(487.6,438.6) rotate(200.3)"><path d="M0,0 Q2.7,-9.8 0,-19.6 Q-2.7,-9.8 0,0 Z" fill="#778559" /></g><g transform="translate(487.4,439.3) rotate(189.7)"><path d="M0,0 Q3.1,-11.5 0,-23.0 Q-3.1,-11.5 0,0 Z" fill="#718052" /></g><g transform="translate(487.4,440.9) rotate(167.0)"><path d="M0,0 Q3.6,-13.2 0,-26.4 Q-3.6,-13.2 0,0 Z" fill="#6B7A4A" /></g><g transform="translate(487.7,441.6) rotate(156.5)"><path d="M0,0 Q2.5,-9.3 0,-18.7 Q-2.5,-9.3 0,0 Z" fill="#677547" /></g><g transform="translate(488.6,442.9) rotate(133.8)"><path d="M0,0 Q3.0,-11.1 0,-22.1 Q-3.0,-11.1 0,0 Z" fill="#627044" /></g><g transform="translate(489.1,443.3) rotate(123.2)"><path d="M0,0 Q3.5,-12.7 0,-25.5 Q-3.5,-12.7 0,0 Z" fill="#748255" /></g><g transform="translate(490.6,443.9) rotate(100.6)"><path d="M0,0 Q3.9,-14.4 0,-28.9 Q-3.9,-14.4 0,0 Z" fill="#6E7C4E" /></g><g transform="translate(491.3,444.0) rotate(90.0)"><path d="M0,0 Q2.9,-10.6 0,-21.2 Q-2.9,-10.6 0,0 Z" fill="#697748" /></g></g><g><g transform="translate(504.7,436.5) rotate(202.5)"><path d="M0,0 Q3.5,-13.0 0,-26.0 Q-3.5,-13.0 0,0 Z" fill="#758356" /></g><g transform="translate(504.7,439.4) rotate(158.9)"><path d="M0,0 Q4.0,-14.7 0,-29.4 Q-4.0,-14.7 0,0 Z" fill="#6F7D4F" /></g><g transform="translate(506.0,441.2) rotate(127.4)"><path d="M0,0 Q3.0,-10.9 0,-21.8 Q-3.0,-10.9 0,0 Z" fill="#697849" /></g><g transform="translate(508.0,442.0) rotate(95.9)"><path d="M0,0 Q3.4,-12.6 0,-25.1 Q-3.4,-12.6 0,0 Z" fill="#657346" /></g></g><g><g transform="translate(498.6,436.8) rotate(197.4)"><path d="M0,0 Q3.0,-11.0 0,-22.0 Q-3.0,-11.0 0,0 Z" fill="#687647" /></g><g transform="translate(498.5,439.0) rotate(165.9)"><path d="M0,0 Q3.5,-12.7 0,-25.4 Q-3.5,-12.7 0,0 Z" fill="#637144" /></g><g transform="translate(500.3,441.4) rotate(122.3)"><path d="M0,0 Q3.9,-14.4 0,-28.8 Q-3.9,-14.4 0,0 Z" fill="#758356" /></g><g transform="translate(502.4,442.0) rotate(90.8)"><path d="M0,0 Q2.9,-10.6 0,-21.1 Q-2.9,-10.6 0,0 Z" fill="#6F7E4F" /></g></g><path d="M594.9,468.0 Q613.9,470.0 632.9,474.0" stroke="#6B7A4A" stroke-width="2.4" fill="none" stroke-linecap="round" /><g><g transform="translate(636.6,472.5) rotate(-22.2)"><path d="M0,0 Q3.6,-13.3 0,-26.7 Q-3.6,-13.3 0,0 Z" fill="#647245" /></g><g transform="translate(636.9,473.9) rotate(-1.3)"><path d="M0,0 Q2.6,-9.5 0,-19.0 Q-2.6,-9.5 0,0 Z" fill="#768457" /></g><g transform="translate(636.9,474.5) rotate(7.5)"><path d="M0,0 Q3.1,-11.2 0,-22.4 Q-3.1,-11.2 0,0 Z" fill="#707E50" /></g><g transform="translate(636.4,475.9) rotate(28.3)"><path d="M0,0 Q3.5,-12.9 0,-25.8 Q-3.5,-12.9 0,0 Z" fill="#6A7949" /></g><g transform="translate(636.1,476.4) rotate(37.1)"><path d="M0,0 Q4.0,-14.6 0,-29.2 Q-4.0,-14.6 0,0 Z" fill="#667446" /></g><g transform="translate(635.0,477.4) rotate(57.9)"><path d="M0,0 Q2.9,-10.8 0,-21.5 Q-2.9,-10.8 0,0 Z" fill="#616F43" /></g><g transform="translate(633.7,477.9) rotate(78.8)"><path d="M0,0 Q3.4,-12.4 0,-24.9 Q-3.4,-12.4 0,0 Z" fill="#728153" /></g><g transform="translate(633.1,478.0) rotate(87.6)"><path d="M0,0 Q3.9,-14.1 0,-28.3 Q-3.9,-14.1 0,0 Z" fill="#6C7B4C" /></g></g><g><g transform="translate(619.6,470.8) rotate(-17.7)"><path d="M0,0 Q3.8,-14.1 0,-28.2 Q-3.8,-14.1 0,0 Z" fill="#717F51" /></g><g transform="translate(619.7,472.8) rotate(12.1)"><path d="M0,0 Q2.8,-10.3 0,-20.6 Q-2.8,-10.3 0,0 Z" fill="#6B7A4A" /></g><g transform="translate(618.2,475.2) rotate(53.9)"><path d="M0,0 Q3.3,-12.0 0,-24.0 Q-3.3,-12.0 0,0 Z" fill="#667547" /></g><g transform="translate(615.4,476.0) rotate(95.7)"><path d="M0,0 Q3.7,-13.7 0,-27.3 Q-3.7,-13.7 0,0 Z" fill="#627044" /></g></g><g><g transform="translate(625.5,470.5) rotate(-22.8)"><path d="M0,0 Q3.3,-12.1 0,-24.2 Q-3.3,-12.1 0,0 Z" fill="#657345" /></g><g transform="translate(625.6,473.3) rotate(19.0)"><path d="M0,0 Q3.8,-13.8 0,-27.6 Q-3.8,-13.8 0,0 Z" fill="#778559" /></g><g transform="translate(624.4,475.0) rotate(48.8)"><path d="M0,0 Q2.7,-10.0 0,-20.0 Q-2.7,-10.0 0,0 Z" fill="#717F52" /></g><g transform="translate(621.8,476.0) rotate(90.6)"><path d="M0,0 Q3.2,-11.7 0,-23.3 Q-3.2,-11.7 0,0 Z" fill="#6B7A4A" /></g></g><path d="M416.4,470.0 Q397.4,472.0 378.4,476.0" stroke="#6B7A4A" stroke-width="2.4" fill="none" stroke-linecap="round" /><g><g transform="translate(374.7,474.5) rotate(202.1)"><path d="M0,0 Q3.1,-11.3 0,-22.6 Q-3.1,-11.3 0,0 Z" fill="#758357" /></g><g transform="translate(374.4,476.0) rotate(179.5)"><path d="M0,0 Q3.5,-13.0 0,-26.0 Q-3.5,-13.0 0,0 Z" fill="#6F7E4F" /></g><g transform="translate(374.5,476.8) rotate(168.9)"><path d="M0,0 Q4.0,-14.7 0,-29.4 Q-4.0,-14.7 0,0 Z" fill="#6A7849" /></g><g transform="translate(374.7,477.5) rotate(158.3)"><path d="M0,0 Q3.0,-10.8 0,-21.7 Q-3.0,-10.8 0,0 Z" fill="#657446" /></g><g transform="translate(375.5,478.8) rotate(135.7)"><path d="M0,0 Q3.4,-12.5 0,-25.1 Q-3.4,-12.5 0,0 Z" fill="#616F43" /></g><g transform="translate(376.1,479.3) rotate(125.1)"><path d="M0,0 Q3.9,-14.2 0,-28.4 Q-3.9,-14.2 0,0 Z" fill="#728053" /></g><g transform="translate(377.5,479.9) rotate(102.5)"><path d="M0,0 Q2.8,-10.4 0,-20.8 Q-2.8,-10.4 0,0 Z" fill="#6C7B4B" /></g><g transform="translate(378.3,480.0) rotate(91.9)"><path d="M0,0 Q3.3,-12.1 0,-24.2 Q-3.3,-12.1 0,0 Z" fill="#677647" /></g></g><g><g transform="translate(391.7,472.6) rotate(199.9)"><path d="M0,0 Q2.6,-9.4 0,-18.9 Q-2.6,-9.4 0,0 Z" fill="#6B7A4A" /></g><g transform="translate(391.6,474.8) rotate(168.3)"><path d="M0,0 Q3.0,-11.1 0,-22.2 Q-3.0,-11.1 0,0 Z" fill="#667547" /></g><g transform="translate(393.2,477.3) rotate(124.8)"><path d="M0,0 Q3.5,-12.8 0,-25.6 Q-3.5,-12.8 0,0 Z" fill="#627044" /></g><g transform="translate(395.3,478.0) rotate(93.2)"><path d="M0,0 Q4.0,-14.5 0,-29.0 Q-4.0,-14.5 0,0 Z" fill="#748255" /></g></g><g><g transform="translate(385.6,473.0) rotate(194.8)"><path d="M0,0 Q3.5,-13.0 0,-25.9 Q-3.5,-13.0 0,0 Z" fill="#778559" /></g><g transform="translate(385.7,475.2) rotate(163.3)"><path d="M0,0 Q4.0,-14.6 0,-29.3 Q-4.0,-14.6 0,0 Z" fill="#718052" /></g><g transform="translate(386.8,477.0) rotate(131.7)"><path d="M0,0 Q2.9,-10.8 0,-21.6 Q-2.9,-10.8 0,0 Z" fill="#6B7A4A" /></g><g transform="translate(389.6,478.0) rotate(88.1)"><path d="M0,0 Q3.4,-12.5 0,-25.0 Q-3.4,-12.5 0,0 Z" fill="#677547" /></g></g><path d="M463.8,440.0 Q482.8,442.0 501.8,446.0" stroke="#6B7A4A" stroke-width="2.4" fill="none" stroke-linecap="round" /><g><g transform="translate(505.5,444.4) rotate(-22.9)"><path d="M0,0 Q4.0,-14.8 0,-29.6 Q-4.0,-14.8 0,0 Z" fill="#687748" /></g><g transform="translate(505.8,445.9) rotate(-2.1)"><path d="M0,0 Q3.0,-11.0 0,-21.9 Q-3.0,-11.0 0,0 Z" fill="#647245" /></g><g transform="translate(505.8,446.5) rotate(6.7)"><path d="M0,0 Q3.5,-12.7 0,-25.3 Q-3.5,-12.7 0,0 Z" fill="#768357" /></g><g transform="translate(505.4,447.8) rotate(27.5)"><path d="M0,0 Q3.9,-14.4 0,-28.7 Q-3.9,-14.4 0,0 Z" fill="#707E50" /></g><g transform="translate(504.5,449.0) rotate(48.4)"><path d="M0,0 Q2.9,-10.5 0,-21.0 Q-2.9,-10.5 0,0 Z" fill="#6A7949" /></g><g transform="translate(504.0,449.4) rotate(57.2)"><path d="M0,0 Q3.3,-12.2 0,-24.4 Q-3.3,-12.2 0,0 Z" fill="#657446" /></g><g transform="translate(502.7,449.9) rotate(78.0)"><path d="M0,0 Q3.8,-13.9 0,-27.8 Q-3.8,-13.9 0,0 Z" fill="#616F43" /></g><g transform="translate(502.0,450.0) rotate(86.8)"><path d="M0,0 Q2.8,-10.1 0,-20.2 Q-2.8,-10.1 0,0 Z" fill="#728053" /></g></g><g><g transform="translate(488.4,442.5) rotate(-21.4)"><path d="M0,0 Q2.8,-10.4 0,-20.8 Q-2.8,-10.4 0,0 Z" fill="#738254" /></g><g transform="translate(488.5,445.4) rotate(20.4)"><path d="M0,0 Q3.3,-12.1 0,-24.2 Q-3.3,-12.1 0,0 Z" fill="#6D7C4D" /></g><g transform="translate(487.3,447.1) rotate(50.1)"><path d="M0,0 Q3.8,-13.8 0,-27.6 Q-3.8,-13.8 0,0 Z" fill="#687748" /></g><g transform="translate(484.6,448.0) rotate(91.9)"><path d="M0,0 Q2.7,-10.0 0,-19.9 Q-2.7,-10.0 0,0 Z" fill="#647245" /></g></g><g><g transform="translate(494.6,443.0) rotate(-14.5)"><path d="M0,0 Q3.8,-13.9 0,-27.8 Q-3.8,-13.9 0,0 Z" fill="#677547" /></g><g transform="translate(494.6,445.1) rotate(15.3)"><path d="M0,0 Q2.8,-10.1 0,-20.2 Q-2.8,-10.1 0,0 Z" fill="#627044" /></g><g transform="translate(492.9,447.4) rotate(57.1)"><path d="M0,0 Q3.2,-11.8 0,-23.5 Q-3.2,-11.8 0,0 Z" fill="#748255" /></g><g transform="translate(490.9,448.0) rotate(86.8)"><path d="M0,0 Q3.7,-13.5 0,-26.9 Q-3.7,-13.5 0,0 Z" fill="#6E7C4D" /></g></g><path d="M529.3,456.0 Q512.3,458.0 495.3,462.0" stroke="#6B7A4A" stroke-width="2.4" fill="none" stroke-linecap="round" /><g><g transform="translate(491.5,460.7) rotate(198.8)"><path d="M0,0 Q3.5,-12.7 0,-25.5 Q-3.5,-12.7 0,0 Z" fill="#697848" /></g><g transform="translate(491.3,461.6) rotate(185.5)"><path d="M0,0 Q3.9,-14.4 0,-28.8 Q-3.9,-14.4 0,0 Z" fill="#647345" /></g><g transform="translate(491.6,463.3) rotate(160.3)"><path d="M0,0 Q2.9,-10.6 0,-21.2 Q-2.9,-10.6 0,0 Z" fill="#778559" /></g><g transform="translate(492.0,464.2) rotate(147.1)"><path d="M0,0 Q3.4,-12.3 0,-24.6 Q-3.4,-12.3 0,0 Z" fill="#717F51" /></g><g transform="translate(493.2,465.4) rotate(121.8)"><path d="M0,0 Q3.8,-14.0 0,-28.0 Q-3.8,-14.0 0,0 Z" fill="#6B7A4A" /></g><g transform="translate(494.1,465.8) rotate(108.6)"><path d="M0,0 Q2.8,-10.1 0,-20.3 Q-2.8,-10.1 0,0 Z" fill="#667547" /></g><g transform="translate(495.0,466.0) rotate(95.4)"><path d="M0,0 Q3.2,-11.8 0,-23.7 Q-3.2,-11.8 0,0 Z" fill="#627044" /></g></g><g><g transform="translate(506.8,459.0) rotate(195.0)"><path d="M0,0 Q3.0,-11.1 0,-22.2 Q-3.0,-11.1 0,0 Z" fill="#627044" /></g><g transform="translate(506.8,461.1) rotate(163.5)"><path d="M0,0 Q3.5,-12.8 0,-25.6 Q-3.5,-12.8 0,0 Z" fill="#748255" /></g><g transform="translate(508.0,463.0) rotate(131.9)"><path d="M0,0 Q4.0,-14.5 0,-29.0 Q-4.0,-14.5 0,0 Z" fill="#6E7D4E" /></g><g transform="translate(510.7,464.0) rotate(88.3)"><path d="M0,0 Q2.9,-10.7 0,-21.3 Q-2.9,-10.7 0,0 Z" fill="#697748" /></g></g><path d="M594.9,490.0 Q611.9,492.0 628.9,496.0" stroke="#6B7A4A" stroke-width="2.4" fill="none" stroke-linecap="round" /><g><g transform="translate(632.6,494.5) rotate(-21.6)"><path d="M0,0 Q3.7,-13.5 0,-26.9 Q-3.7,-13.5 0,0 Z" fill="#616F43" /></g><g transform="translate(632.9,496.1) rotate(1.8)"><path d="M0,0 Q2.6,-9.6 0,-19.3 Q-2.6,-9.6 0,0 Z" fill="#738153" /></g><g transform="translate(632.8,496.9) rotate(13.3)"><path d="M0,0 Q3.1,-11.3 0,-22.7 Q-3.1,-11.3 0,0 Z" fill="#6D7B4C" /></g><g transform="translate(632.1,498.4) rotate(36.7)"><path d="M0,0 Q3.5,-13.0 0,-26.0 Q-3.5,-13.0 0,0 Z" fill="#687647" /></g><g transform="translate(631.6,499.0) rotate(48.1)"><path d="M0,0 Q4.0,-14.7 0,-29.4 Q-4.0,-14.7 0,0 Z" fill="#637144" /></g><g transform="translate(630.2,499.8) rotate(71.6)"><path d="M0,0 Q3.0,-10.9 0,-21.8 Q-3.0,-10.9 0,0 Z" fill="#758357" /></g><g transform="translate(628.6,500.0) rotate(95.1)"><path d="M0,0 Q3.4,-12.6 0,-25.1 Q-3.4,-12.6 0,0 Z" fill="#6F7E4F" /></g></g><g><g transform="translate(617.5,493.0) rotate(-14.8)"><path d="M0,0 Q4.0,-14.8 0,-29.5 Q-4.0,-14.8 0,0 Z" fill="#637145" /></g><g transform="translate(617.5,495.0) rotate(14.9)"><path d="M0,0 Q3.0,-10.9 0,-21.9 Q-3.0,-10.9 0,0 Z" fill="#758357" /></g><g transform="translate(615.8,497.3) rotate(56.7)"><path d="M0,0 Q3.4,-12.6 0,-25.3 Q-3.4,-12.6 0,0 Z" fill="#6F7E4F" /></g><g transform="translate(613.9,498.0) rotate(86.4)"><path d="M0,0 Q3.9,-14.3 0,-28.7 Q-3.9,-14.3 0,0 Z" fill="#6A7849" /></g></g><path d="M416.4,492.0 Q399.4,494.0 382.4,498.0" stroke="#6B7A4A" stroke-width="2.4" fill="none" stroke-linecap="round" /><g><g transform="translate(378.8,496.3) rotate(205.9)"><path d="M0,0 Q3.9,-14.3 0,-28.5 Q-3.9,-14.3 0,0 Z" fill="#718052" /></g><g transform="translate(378.4,498.0) rotate(180.7)"><path d="M0,0 Q2.8,-10.4 0,-20.9 Q-2.8,-10.4 0,0 Z" fill="#6B7A4B" /></g><g transform="translate(378.5,498.9) rotate(167.5)"><path d="M0,0 Q3.3,-12.1 0,-24.3 Q-3.3,-12.1 0,0 Z" fill="#677547" /></g><g transform="translate(379.2,500.5) rotate(142.2)"><path d="M0,0 Q3.8,-13.8 0,-27.7 Q-3.8,-13.8 0,0 Z" fill="#627044" /></g><g transform="translate(379.9,501.1) rotate(129.0)"><path d="M0,0 Q2.7,-10.0 0,-20.0 Q-2.7,-10.0 0,0 Z" fill="#748255" /></g><g transform="translate(381.4,501.9) rotate(103.7)"><path d="M0,0 Q3.2,-11.7 0,-23.4 Q-3.2,-11.7 0,0 Z" fill="#6E7D4E" /></g><g transform="translate(382.4,502.0) rotate(90.5)"><path d="M0,0 Q3.6,-13.4 0,-26.8 Q-3.6,-13.4 0,0 Z" fill="#697748" /></g></g><g><g transform="translate(393.8,495.0) rotate(194.6)"><path d="M0,0 Q3.6,-13.3 0,-26.6 Q-3.6,-13.3 0,0 Z" fill="#728053" /></g><g transform="translate(393.9,497.2) rotate(163.1)"><path d="M0,0 Q2.6,-9.5 0,-19.0 Q-2.6,-9.5 0,0 Z" fill="#6C7B4B" /></g><g transform="translate(395.0,499.0) rotate(131.5)"><path d="M0,0 Q3.0,-11.2 0,-22.3 Q-3.0,-11.2 0,0 Z" fill="#677647" /></g><g transform="translate(397.8,500.0) rotate(88.0)"><path d="M0,0 Q3.5,-12.9 0,-25.7 Q-3.5,-12.9 0,0 Z" fill="#637144" /></g></g><path d="M463.8,462.0 Q480.8,464.0 497.8,468.0" stroke="#6B7A4A" stroke-width="2.4" fill="none" stroke-linecap="round" /><g><g transform="translate(501.6,466.8) rotate(-17.1)"><path d="M0,0 Q2.6,-9.5 0,-18.9 Q-2.6,-9.5 0,0 Z" fill="#6F7D4F" /></g><g transform="translate(501.8,467.6) rotate(-5.7)"><path d="M0,0 Q3.0,-11.2 0,-22.3 Q-3.0,-11.2 0,0 Z" fill="#697849" /></g><g transform="translate(501.6,469.2) rotate(17.8)"><path d="M0,0 Q3.5,-12.8 0,-25.7 Q-3.5,-12.8 0,0 Z" fill="#657346" /></g><g transform="translate(501.3,470.0) rotate(29.2)"><path d="M0,0 Q4.0,-14.5 0,-29.1 Q-4.0,-14.5 0,0 Z" fill="#778559" /></g><g transform="translate(500.3,471.2) rotate(52.7)"><path d="M0,0 Q2.9,-10.7 0,-21.4 Q-2.9,-10.7 0,0 Z" fill="#718052" /></g><g transform="translate(498.8,471.9) rotate(76.1)"><path d="M0,0 Q3.4,-12.4 0,-24.8 Q-3.4,-12.4 0,0 Z" fill="#6B7A4B" /></g><g transform="translate(498.0,472.0) rotate(87.5)"><path d="M0,0 Q3.8,-14.1 0,-28.2 Q-3.8,-14.1 0,0 Z" fill="#677547" /></g></g><g><g transform="translate(486.4,464.9) rotate(-16.4)"><path d="M0,0 Q3.1,-11.3 0,-22.6 Q-3.1,-11.3 0,0 Z" fill="#677547" /></g><g transform="translate(486.4,466.9) rotate(13.4)"><path d="M0,0 Q3.5,-13.0 0,-26.0 Q-3.5,-13.0 0,0 Z" fill="#627044" /></g><g transform="translate(484.8,469.3) rotate(55.2)"><path d="M0,0 Q4.0,-14.7 0,-29.4 Q-4.0,-14.7 0,0 Z" fill="#748255" /></g><g transform="translate(482.9,470.0) rotate(84.9)"><path d="M0,0 Q3.0,-10.9 0,-21.8 Q-3.0,-10.9 0,0 Z" fill="#6E7C4E" /></g></g><g><g transform="translate(424.0,434.2) rotate(-26.0)"><path d="M0,0 Q3.2,-11.6 0,-23.2 Q-3.2,-11.6 0,0 Z" fill="#717F51" /></g><g transform="translate(424.4,436.5) rotate(6.7)"><path d="M0,0 Q3.6,-13.3 0,-26.6 Q-3.6,-13.3 0,0 Z" fill="#6B7A4A" /></g><g transform="translate(423.5,438.5) rotate(39.3)"><path d="M0,0 Q2.6,-9.5 0,-18.9 Q-2.6,-9.5 0,0 Z" fill="#667547" /></g><g transform="translate(422.4,439.5) rotate(59.9)"><path d="M0,0 Q3.0,-11.2 0,-22.3 Q-3.0,-11.2 0,0 Z" fill="#627044" /></g><g transform="translate(420.2,440.0) rotate(92.5)"><path d="M0,0 Q3.5,-12.8 0,-25.7 Q-3.5,-12.8 0,0 Z" fill="#738154" /></g></g><g><g transform="translate(408.7,434.5) rotate(202.3)"><path d="M0,0 Q3.9,-14.3 0,-28.7 Q-3.9,-14.3 0,0 Z" fill="#6F7E4F" /></g><g transform="translate(408.5,436.8) rotate(167.9)"><path d="M0,0 Q2.9,-10.5 0,-21.0 Q-2.9,-10.5 0,0 Z" fill="#6A7949" /></g><g transform="translate(409.1,438.3) rotate(145.5)"><path d="M0,0 Q3.3,-12.2 0,-24.4 Q-3.3,-12.2 0,0 Z" fill="#657446" /></g><g transform="translate(410.2,439.3) rotate(123.2)"><path d="M0,0 Q3.8,-13.9 0,-27.8 Q-3.8,-13.9 0,0 Z" fill="#616F43" /></g><g transform="translate(412.5,440.0) rotate(88.8)"><path d="M0,0 Q2.7,-10.1 0,-20.1 Q-2.7,-10.1 0,0 Z" fill="#728053" /></g></g><g><g transform="translate(471.7,404.9) rotate(-15.2)"><path d="M0,0 Q3.4,-12.6 0,-25.1 Q-3.4,-12.6 0,0 Z" fill="#A8B283" /></g><g transform="translate(471.8,406.4) rotate(5.4)"><path d="M0,0 Q3.9,-14.3 0,-28.5 Q-3.9,-14.3 0,0 Z" fill="#BCC595" /></g><g transform="translate(471.0,408.5) rotate(38.0)"><path d="M0,0 Q2.8,-10.4 0,-20.9 Q-2.8,-10.4 0,0 Z" fill="#B9C391" /></g><g transform="translate(469.9,409.4) rotate(58.6)"><path d="M0,0 Q3.3,-12.1 0,-24.3 Q-3.3,-12.1 0,0 Z" fill="#B3BD8B" /></g><g transform="translate(467.7,410.0) rotate(91.2)"><path d="M0,0 Q3.8,-13.8 0,-27.6 Q-3.8,-13.8 0,0 Z" fill="#ACB585" /></g></g><g><g transform="translate(456.1,404.6) rotate(201.0)"><path d="M0,0 Q2.7,-9.8 0,-19.6 Q-2.7,-9.8 0,0 Z" fill="#A7B082" /></g><g transform="translate(455.9,406.9) rotate(166.6)"><path d="M0,0 Q3.1,-11.5 0,-23.0 Q-3.1,-11.5 0,0 Z" fill="#BBC594" /></g><g transform="translate(456.6,408.3) rotate(144.2)"><path d="M0,0 Q3.6,-13.2 0,-26.3 Q-3.6,-13.2 0,0 Z" fill="#B8C28F" /></g><g transform="translate(457.7,409.4) rotate(121.9)"><path d="M0,0 Q4.1,-14.9 0,-29.7 Q-4.1,-14.9 0,0 Z" fill="#B2BB8A" /></g><g transform="translate(460.0,410.0) rotate(87.4)"><path d="M0,0 Q3.0,-11.0 0,-22.1 Q-3.0,-11.0 0,0 Z" fill="#AAB384" /></g></g><g><g transform="translate(537.2,420.9) rotate(-16.5)"><path d="M0,0 Q3.7,-13.5 0,-27.1 Q-3.7,-13.5 0,0 Z" fill="#687748" /></g><g transform="translate(537.3,422.3) rotate(4.0)"><path d="M0,0 Q2.6,-9.7 0,-19.4 Q-2.6,-9.7 0,0 Z" fill="#647245" /></g><g transform="translate(536.5,424.4) rotate(36.7)"><path d="M0,0 Q3.1,-11.4 0,-22.8 Q-3.1,-11.4 0,0 Z" fill="#768357" /></g><g transform="translate(535.5,425.4) rotate(57.3)"><path d="M0,0 Q3.6,-13.1 0,-26.2 Q-3.6,-13.1 0,0 Z" fill="#707E50" /></g><g transform="translate(533.3,426.0) rotate(89.9)"><path d="M0,0 Q4.0,-14.8 0,-29.6 Q-4.0,-14.8 0,0 Z" fill="#6A7949" /></g></g><g><g transform="translate(521.6,420.7) rotate(199.7)"><path d="M0,0 Q2.9,-10.8 0,-21.5 Q-2.9,-10.8 0,0 Z" fill="#677547" /></g><g transform="translate(521.3,422.2) rotate(177.3)"><path d="M0,0 Q3.4,-12.4 0,-24.9 Q-3.4,-12.4 0,0 Z" fill="#637144" /></g><g transform="translate(522.1,424.4) rotate(142.9)"><path d="M0,0 Q3.9,-14.1 0,-28.3 Q-3.9,-14.1 0,0 Z" fill="#748255" /></g><g transform="translate(523.3,425.4) rotate(120.5)"><path d="M0,0 Q2.8,-10.3 0,-20.6 Q-2.8,-10.3 0,0 Z" fill="#6E7D4E" /></g><g transform="translate(525.6,426.0) rotate(86.1)"><path d="M0,0 Q3.3,-12.0 0,-24.0 Q-3.3,-12.0 0,0 Z" fill="#697848" /></g></g><g><g transform="translate(602.7,454.8) rotate(-17.9)"><path d="M0,0 Q4.0,-14.5 0,-29.0 Q-4.0,-14.5 0,0 Z" fill="#6F7E4F" /></g><g transform="translate(602.9,456.2) rotate(2.7)"><path d="M0,0 Q2.9,-10.7 0,-21.4 Q-2.9,-10.7 0,0 Z" fill="#6A7949" /></g><g transform="translate(602.2,458.3) rotate(35.4)"><path d="M0,0 Q3.4,-12.4 0,-24.7 Q-3.4,-12.4 0,0 Z" fill="#657446" /></g><g transform="translate(600.4,459.7) rotate(68.0)"><path d="M0,0 Q3.8,-14.1 0,-28.1 Q-3.8,-14.1 0,0 Z" fill="#616F43" /></g><g transform="translate(599.0,460.0) rotate(88.6)"><path d="M0,0 Q2.8,-10.2 0,-20.5 Q-2.8,-10.2 0,0 Z" fill="#728053" /></g></g><g><g transform="translate(587.1,454.7) rotate(198.4)"><path d="M0,0 Q3.2,-11.7 0,-23.4 Q-3.2,-11.7 0,0 Z" fill="#6E7D4E" /></g><g transform="translate(586.9,456.3) rotate(176.0)"><path d="M0,0 Q3.7,-13.4 0,-26.8 Q-3.7,-13.4 0,0 Z" fill="#697748" /></g><g transform="translate(587.8,458.5) rotate(141.6)"><path d="M0,0 Q2.6,-9.6 0,-19.2 Q-2.6,-9.6 0,0 Z" fill="#647345" /></g><g transform="translate(589.0,459.5) rotate(119.2)"><path d="M0,0 Q3.1,-11.3 0,-22.5 Q-3.1,-11.3 0,0 Z" fill="#778559" /></g><g transform="translate(591.3,460.0) rotate(84.8)"><path d="M0,0 Q3.5,-13.0 0,-25.9 Q-3.5,-13.0 0,0 Z" fill="#717F51" /></g></g><g transform="translate(470.0,406.0) rotate(0)"><ellipse cx="0" cy="-4" rx="2" ry="3.6" fill="#C15F3C" /></g><g transform="translate(470.0,406.0) rotate(72)"><ellipse cx="0" cy="-4" rx="2" ry="3.6" fill="#C15F3C" /></g><g transform="translate(470.0,406.0) rotate(144)"><ellipse cx="0" cy="-4" rx="2" ry="3.6" fill="#C15F3C" /></g><g transform="translate(470.0,406.0) rotate(216)"><ellipse cx="0" cy="-4" rx="2" ry="3.6" fill="#C15F3C" /></g><g transform="translate(470.0,406.0) rotate(288)"><ellipse cx="0" cy="-4" rx="2" ry="3.6" fill="#C15F3C" /></g><circle cx="470.0" cy="406.0" r="1.6" fill="#8E3D24" /><g transform="translate(410.0,406.0) rotate(0)"><ellipse cx="0" cy="-4" rx="2" ry="3.6" fill="#C15F3C" /></g><g transform="translate(410.0,406.0) rotate(72)"><ellipse cx="0" cy="-4" rx="2" ry="3.6" fill="#C15F3C" /></g><g transform="translate(410.0,406.0) rotate(144)"><ellipse cx="0" cy="-4" rx="2" ry="3.6" fill="#C15F3C" /></g><g transform="translate(410.0,406.0) rotate(216)"><ellipse cx="0" cy="-4" rx="2" ry="3.6" fill="#C15F3C" /></g><g transform="translate(410.0,406.0) rotate(288)"><ellipse cx="0" cy="-4" rx="2" ry="3.6" fill="#C15F3C" /></g><circle cx="410.0" cy="406.0" r="1.6" fill="#8E3D24" /><g transform="translate(500.0,406.0) rotate(0)"><ellipse cx="0" cy="-4" rx="2" ry="3.6" fill="#C15F3C" /></g><g transform="translate(500.0,406.0) rotate(72)"><ellipse cx="0" cy="-4" rx="2" ry="3.6" fill="#C15F3C" /></g><g transform="translate(500.0,406.0) rotate(144)"><ellipse cx="0" cy="-4" rx="2" ry="3.6" fill="#C15F3C" /></g><g transform="translate(500.0,406.0) rotate(216)"><ellipse cx="0" cy="-4" rx="2" ry="3.6" fill="#C15F3C" /></g><g transform="translate(500.0,406.0) rotate(288)"><ellipse cx="0" cy="-4" rx="2" ry="3.6" fill="#C15F3C" /></g><circle cx="500.0" cy="406.0" r="1.6" fill="#8E3D24" /><ellipse cx="476.0" cy="602.0" rx="11" ry="3.5" fill="#6B7A4A" opacity="0.7" /></svg>