<svg xmlns="http://www.w3.org/2000/svg" viewBox="0 0 1000 800" preserveAspectRatio="xMidYMid meet" role="img" aria-label="bonsai-cc tree"><defs><linearGradient id="bcc-sky" x1="0" y1="0" x2="0" y2="1"><stop offset="0%" stop-color="#F4F3EE" /><stop offset="100%" stop-color="#E8E5DC" /></linearGradient><linearGradient id="bcc-ground" x1="0" y1="0" x2="0" y2="1"><stop offset="0%" stop-color="#E8E5DC" /><stop offset="100%" stop-color="#B1ADA1" /></linearGradient><linearGradient id="bcc-pot" x1="0" y1="0" x2="0" y2="1"><stop offset="0%" stop-color="#8E3D24" /><stop offset="100%" stop-color="#3D3328" /></linearGradient><linearGradient id="sky" x1="0" y1="0" x2="0" y2="1"><stop offset="0%" stop-color="#F4F3EE" /><stop offset="100%" stop-color="#E8E5DC" /></linearGradient><linearGradient id="ground" x1="0" y1="0" x2="0" y2="1"><stop offset="0%" stop-color="#E8E5DC" /><stop offset="100%" stop-color="#B1ADA1" /></linearGradient><radialGradient id="sun" cx="0.5" cy="0.5" r="0.5"><stop offset="0%" stop-color="#C15F3C" stop-opacity="0.55" /><stop offset="70%" stop-color="#C15F3C" stop-opacity="0.20" /><stop offset="100%" stop-color="#C15F3C" stop-opacity="0" /></radialGradient><radialGradient id="moon" cx="0.45" cy="0.45" r="0.55"><stop offset="0%" stop-color="#F4F3EE" stop-opacity="0.85" /><stop offset="100%" stop-color="#F4F3EE" stop-opacity="0.35" /></radialGradient><radialGradient id="pot-shadow" cx="0.5" cy="0.5" r="0.5"><stop offset="0%" stop-color="#191919" stop-opacity="0.18" /><stop offset="100%" stop-color="#191919" stop-opacity="0" /></radialGradient></defs><rect x="0" y="0" width="1000" height="600" fill="url(#bcc-sky)" /><circle cx="780" cy="180" r="80" fill="url(#sun)" /><circle cx="780" cy="180" r="28" fill="#C15F3C" fill-opacity="0.55" /><rect x="0" y="600" width="1000" height="200" fill="url(#bcc-ground)" /><ellipse cx="500" cy="728" rx="190" ry="22" fill="url(#pot-shadow)" /><path d="M340,600 Q336,608 344,618 L370,700 Q376,710 384,710 L616,710 Q624,710 630,700 L656,618 Q664,608 660,600 Z" fill="url(#bcc-pot)" /><path d="M350,622 Q500,626 650,622" stroke="#3D3328" stroke-width="1.5" fill="none" stroke-linecap="round" opacity="0.55" /><ellipse cx="500" cy="602" rx="152" ry="8" fill="#3D3328" /><circle cx="430" cy="601" r="4" fill="#B1ADA1" opacity="0.7" /><circle cx="530" cy="603" r="3" fill="#B1ADA1" opacity="0.55" /><circle cx="590" cy="601" r="3.5" fill="#B1ADA1" opacity="0.7" /><path d="M518.0,599.7 C517.7,594.7 515.8,547.5 514.8,539.2 C513.8,530.9 506.9,511.6 505.9,500.0 C504.9,488.4 503.0,408.5 502.7,400.2 C502.1,400.1 496.3,391.5 494.7,399.8 C493.2,408.2 484.9,488.3 484.0,500.0 C483.0,511.8 483.3,532.4 483.2,540.8 C483.0,549.2 482.1,595.3 482.0,600.3 Z" fill="#6B5A48" /><path d="M504.8,599.9 C504.6,594.9 503.5,548.1 502.9,539.8 C502.3,531.5 498.1,511.6 498.0,500.0 C497.8,488.4 500.7,408.4 500.9,400.1" stroke="#3D3328" stroke-width="4.0" fill="none" opacity="0.32" stroke-linecap="round" /><line x1="506.2" y1="536.8" x2="505.2" y2="526.4" stroke="#3D3328" stroke-width="1.1" stroke-linecap="round" opacity="0.30" /><line x1="504.5" y1="496.0" x2="504.8" y2="486.9" stroke="#3D3328" stroke-width="1.1" stroke-linecap="round" opacity="0.30" /><line x1="504.4" y1="551.1" x2="504.2" y2="543.4" stroke="#3D3328" stroke-width="1.1" stroke-linecap="round" opacity="0.30" /><line x1="491.0" y1="570.1" x2="490.8" y2="558.4" stroke="#3D3328" stroke-width="1.1" stroke-linecap="round" opacity="0.45" /><line x1="493.2" y1="525.8" x2="492.2" y2="515.4" stroke="#3D3328" stroke-width="1.1" stroke-linecap="round" opacity="0.45" /><line x1="490.1" y1="464.9" x2="490.4" y2="455.9" stroke="#3D3328" stroke-width="1.1" stroke-linecap="round" opacity="0.45" /><line x1="490.6" y1="537.3" x2="489.9" y2="529.7" stroke="#3D3328" stroke-width="1.1" stroke-linecap="round" opacity="0.45" /><line x1="485.3" y1="494.7" x2="485.5" y2="488.4" stroke="#3D3328" stroke-width="1.1" stroke-linecap="round" opacity="0.45" /><path d="M497.9,580.5 C496.5,581.1 486.8,586.5 481.3,587.1 C475.7,587.8 440.4,591.4 431.4,588.3 C422.5,585.1 379.1,552.6 374.4,549.3 C374.2,549.5 368.3,547.6 372.9,551.4 C377.5,555.1 420.1,590.3 429.2,594.1 C438.3,597.8 476.0,596.5 482.0,596.3 C488.0,596.0 499.8,591.4 501.4,590.9 Z" fill="#6B5A48" /><g><ellipse cx="370.9" cy="557.1" rx="7.2" ry="10.9" fill="#6B7A4A" transform="rotate(-61.4,370.9,557.1)" /><ellipse cx="391.4" cy="533.6" rx="6.2" ry="9.2" fill="#6B7A4A" transform="rotate(124.9,391.4,533.6)" /><ellipse cx="363.8" cy="544.0" rx="9.9" ry="14.8" fill="#6B7A4A" transform="rotate(-51.5,363.8,544.0)" /><ellipse cx="384.3" cy="554.3" rx="8.8" ry="13.2" fill="#6B7A4A" transform="rotate(134.8,384.3,554.3)" /><ellipse cx="356.6" cy="564.7" rx="7.7" ry="11.6" fill="#6B7A4A" transform="rotate(-41.6,356.6,564.7)" /><ellipse cx="377.1" cy="541.3" rx="6.6" ry="10.0" fill="#7A8C5C" transform="rotate(144.7,377.1,541.3)" /><ellipse cx="397.6" cy="551.5" rx="10.4" ry="15.5" fill="#7A8C5C" transform="rotate(-31.8,397.6,551.5)" /><ellipse cx="370.0" cy="561.9" rx="9.3" ry="13.9" fill="#7A8C5C" transform="rotate(154.6,370.0,561.9)" /><ellipse cx="390.5" cy="538.5" rx="8.2" ry="12.3" fill="#7A8C5C" transform="rotate(-20.5,390.5,538.5)" /><ellipse cx="362.8" cy="548.9" rx="7.1" ry="10.7" fill="#7A8C5C" transform="rotate(164.5,362.8,548.9)" /><ellipse cx="383.3" cy="559.2" rx="6.0" ry="9.0" fill="#7A8C5C" transform="rotate(-10.6,383.3,559.2)" /></g><g><ellipse cx="398.5" cy="559.7" rx="6.0" ry="8.9" fill="#6B7A4A" transform="rotate(-33.2,398.5,559.7)" /><ellipse cx="410.5" cy="565.6" rx="5.1" ry="7.7" fill="#6B7A4A" transform="rotate(153.2,410.5,565.6)" /><ellipse cx="394.4" cy="571.7" rx="4.3" ry="6.5" fill="#6B7A4A" transform="rotate(-21.9,394.4,571.7)" /><ellipse cx="406.3" cy="577.7" rx="7.1" ry="10.7" fill="#7A8C5C" transform="rotate(163.1,406.3,577.7)" /><ellipse cx="390.2" cy="564.1" rx="6.3" ry="9.5" fill="#7A8C5C" transform="rotate(-12.0,390.2,564.1)" /><ellipse cx="402.2" cy="570.1" rx="5.5" ry="8.2" fill="#7A8C5C" transform="rotate(172.9,402.2,570.1)" /><ellipse cx="414.1" cy="576.1" rx="4.7" ry="7.0" fill="#7A8C5C" transform="rotate(-2.1,414.1,576.1)" /></g><g><ellipse cx="409.1" cy="567.5" rx="4.9" ry="7.4" fill="#6B7A4A" transform="rotate(-168.7,409.1,567.5)" /><ellipse cx="421.0" cy="573.5" rx="7.7" ry="11.6" fill="#6B7A4A" transform="rotate(16.2,421.0,573.5)" /><ellipse cx="433.0" cy="579.5" rx="6.9" ry="10.3" fill="#6B7A4A" transform="rotate(-158.8,433.0,579.5)" /><ellipse cx="416.9" cy="565.9" rx="6.1" ry="9.1" fill="#7A8C5C" transform="rotate(27.5,416.9,565.9)" /><ellipse cx="428.8" cy="571.9" rx="5.3" ry="7.9" fill="#7A8C5C" transform="rotate(-148.9,428.8,571.9)" /><ellipse cx="412.7" cy="577.9" rx="4.4" ry="6.7" fill="#7A8C5C" transform="rotate(37.4,412.7,577.9)" /><ellipse cx="424.7" cy="564.3" rx="7.2" ry="10.9" fill="#7A8C5C" transform="rotate(-139.1,424.7,564.3)" /></g><path d="M497.5,576.6 C499.2,577.1 511.2,582.2 517.2,582.0 C523.3,581.9 560.7,579.2 569.8,575.0 C578.9,570.8 621.3,534.9 626.0,531.2 C625.9,531.1 629.4,526.0 624.5,529.2 C619.6,532.4 576.3,565.7 567.3,569.3 C558.4,573.0 522.9,573.1 517.3,572.8 C511.8,572.6 502.4,566.8 501.0,566.2 Z" fill="#6B5A48" /><g><ellipse cx="631.6" cy="523.4" rx="10.3" ry="15.5" fill="#6B7A4A" transform="rotate(137.6,631.6,523.4)" /><ellipse cx="603.9" cy="533.8" rx="9.2" ry="13.8" fill="#6B7A4A" transform="rotate(-37.4,603.9,533.8)" /><ellipse cx="624.4" cy="544.1" rx="8.1" ry="12.2" fill="#6B7A4A" transform="rotate(148.9,624.4,544.1)" /><ellipse cx="644.9" cy="520.6" rx="7.0" ry="10.6" fill="#6B7A4A" transform="rotate(-27.5,644.9,520.6)" /><ellipse cx="617.3" cy="531.1" rx="6.0" ry="8.9" fill="#6B7A4A" transform="rotate(158.8,617.3,531.1)" /><ellipse cx="637.8" cy="541.3" rx="9.7" ry="14.5" fill="#7A8C5C" transform="rotate(-17.6,637.8,541.3)" /><ellipse cx="610.1" cy="518.0" rx="8.6" ry="12.9" fill="#7A8C5C" transform="rotate(168.7,610.1,518.0)" /><ellipse cx="630.6" cy="528.3" rx="7.5" ry="11.3" fill="#7A8C5C" transform="rotate(-7.8,630.6,528.3)" /><ellipse cx="603.0" cy="538.7" rx="6.4" ry="9.6" fill="#7A8C5C" transform="rotate(178.6,603.0,538.7)" /><ellipse cx="623.5" cy="549.0" rx="10.2" ry="15.2" fill="#7A8C5C" transform="rotate(2.1,623.5,549.0)" /><ellipse cx="644.0" cy="525.5" rx="9.1" ry="13.6" fill="#7A8C5C" transform="rotate(-172.9,644.0,525.5)" /></g><g><ellipse cx="604.7" cy="550.4" rx="6.0" ry="9.1" fill="#6B7A4A" transform="rotate(-23.3,604.7,550.4)" /><ellipse cx="588.5" cy="556.4" rx="5.2" ry="7.8" fill="#6B7A4A" transform="rotate(161.6,588.5,556.4)" /><ellipse cx="600.5" cy="562.4" rx="4.4" ry="6.6" fill="#6B7A4A" transform="rotate(-13.4,600.5,562.4)" /><ellipse cx="584.4" cy="548.8" rx="7.2" ry="10.8" fill="#7A8C5C" transform="rotate(171.5,584.4,548.8)" /><ellipse cx="596.3" cy="554.8" rx="6.4" ry="9.6" fill="#7A8C5C" transform="rotate(-3.5,596.3,554.8)" /><ellipse cx="608.3" cy="560.8" rx="5.6" ry="8.4" fill="#7A8C5C" transform="rotate(-180.0,608.3,560.8)" /><ellipse cx="592.1" cy="547.2" rx="4.8" ry="7.2" fill="#7A8C5C" transform="rotate(6.4,592.1,547.2)" /></g><g><ellipse cx="579.2" cy="558.2" rx="5.0" ry="7.5" fill="#6B7A4A" transform="rotate(-160.2,579.2,558.2)" /><ellipse cx="591.2" cy="564.2" rx="7.8" ry="11.7" fill="#6B7A4A" transform="rotate(24.7,591.2,564.2)" /><ellipse cx="575.0" cy="550.6" rx="7.0" ry="10.5" fill="#6B7A4A" transform="rotate(-150.4,575.0,550.6)" /><ellipse cx="587.0" cy="556.6" rx="6.2" ry="9.2" fill="#7A8C5C" transform="rotate(36.0,587.0,556.6)" /><ellipse cx="570.9" cy="562.7" rx="5.3" ry="8.0" fill="#7A8C5C" transform="rotate(-140.5,570.9,562.7)" /><ellipse cx="582.8" cy="549.0" rx="4.5" ry="6.8" fill="#7A8C5C" transform="rotate(45.9,582.8,549.0)" /><ellipse cx="566.7" cy="555.1" rx="7.3" ry="11.0" fill="#7A8C5C" transform="rotate(-130.6,566.7,555.1)" /></g><path d="M497.2,551.9 C495.8,552.5 486.7,558.7 481.2,558.6 C475.6,558.4 439.7,553.4 430.7,550.3 C421.7,547.1 378.3,523.5 373.5,521.0 C373.4,521.2 367.7,520.3 372.3,523.2 C376.9,526.2 419.5,552.3 428.5,556.1 C437.5,559.8 474.6,567.2 480.7,567.7 C486.7,568.2 499.0,562.8 500.7,562.4 Z" fill="#6B5A48" /><g><ellipse cx="388.3" cy="523.5" rx="8.5" ry="12.8" fill="#6B7A4A" transform="rotate(-23.3,388.3,523.5)" /><ellipse cx="360.6" cy="533.9" rx="7.4" ry="11.2" fill="#6B7A4A" transform="rotate(161.6,360.6,533.9)" /><ellipse cx="381.1" cy="510.4" rx="6.4" ry="9.6" fill="#6B7A4A" transform="rotate(-13.4,381.1,510.4)" /><ellipse cx="353.4" cy="520.9" rx="10.1" ry="15.1" fill="#6B7A4A" transform="rotate(171.5,353.4,520.9)" /><ellipse cx="374.0" cy="531.1" rx="9.0" ry="13.5" fill="#6B7A4A" transform="rotate(-3.5,374.0,531.1)" /><ellipse cx="394.5" cy="507.7" rx="7.9" ry="11.9" fill="#7A8C5C" transform="rotate(-180.0,394.5,507.7)" /><ellipse cx="366.8" cy="518.1" rx="6.8" ry="10.3" fill="#7A8C5C" transform="rotate(6.4,366.8,518.1)" /><ellipse cx="387.3" cy="528.4" rx="5.8" ry="8.6" fill="#7A8C5C" transform="rotate(-168.7,387.3,528.4)" /><ellipse cx="359.6" cy="505.0" rx="9.5" ry="14.2" fill="#7A8C5C" transform="rotate(16.2,359.6,505.0)" /><ellipse cx="380.2" cy="515.3" rx="8.4" ry="12.6" fill="#7A8C5C" transform="rotate(-158.8,380.2,515.3)" /><ellipse cx="352.5" cy="525.7" rx="7.3" ry="11.0" fill="#7A8C5C" transform="rotate(26.1,352.5,525.7)" /></g><g><ellipse cx="398.7" cy="541.1" rx="6.1" ry="9.2" fill="#6B7A4A" transform="rotate(-14.8,398.7,541.1)" /><ellipse cx="410.7" cy="547.1" rx="5.3" ry="8.0" fill="#6B7A4A" transform="rotate(170.1,410.7,547.1)" /><ellipse cx="394.5" cy="533.5" rx="4.5" ry="6.8" fill="#6B7A4A" transform="rotate(-4.9,394.5,533.5)" /><ellipse cx="406.5" cy="539.5" rx="7.3" ry="11.0" fill="#7A8C5C" transform="rotate(180.0,406.5,539.5)" /><ellipse cx="390.3" cy="545.6" rx="6.5" ry="9.7" fill="#7A8C5C" transform="rotate(4.9,390.3,545.6)" /><ellipse cx="402.3" cy="531.9" rx="5.7" ry="8.5" fill="#7A8C5C" transform="rotate(-171.5,402.3,531.9)" /><ellipse cx="414.3" cy="537.9" rx="4.9" ry="7.3" fill="#7A8C5C" transform="rotate(14.8,414.3,537.9)" /></g><g><ellipse cx="409.2" cy="549.0" rx="5.1" ry="7.6" fill="#6B7A4A" transform="rotate(-151.8,409.2,549.0)" /><ellipse cx="421.2" cy="535.3" rx="4.3" ry="6.4" fill="#6B7A4A" transform="rotate(34.6,421.2,535.3)" /><ellipse cx="433.2" cy="541.3" rx="7.1" ry="10.6" fill="#6B7A4A" transform="rotate(-141.9,433.2,541.3)" /><ellipse cx="417.0" cy="547.4" rx="6.2" ry="9.4" fill="#7A8C5C" transform="rotate(44.5,417.0,547.4)" /><ellipse cx="429.0" cy="533.7" rx="5.4" ry="8.2" fill="#7A8C5C" transform="rotate(-132.0,429.0,533.7)" /><ellipse cx="412.8" cy="539.8" rx="4.6" ry="6.9" fill="#7A8C5C" transform="rotate(54.4,412.8,539.8)" /><ellipse cx="424.8" cy="545.8" rx="7.4" ry="11.1" fill="#7A8C5C" transform="rotate(-122.1,424.8,545.8)" /></g><path d="M497.2,562.4 C498.8,562.8 510.8,567.8 516.8,567.7 C522.8,567.7 560.4,566.4 569.5,562.0 C578.6,557.5 621.0,518.7 625.7,514.7 C625.6,514.6 629.0,509.3 624.1,512.8 C619.2,516.3 575.9,552.5 566.9,556.3 C558.0,560.1 522.6,558.9 517.0,558.6 C511.5,558.2 502.0,552.5 500.7,551.9 Z" fill="#6B5A48" /><g><ellipse cx="619.9" cy="511.2" rx="6.0" ry="8.9" fill="#6B7A4A" transform="rotate(116.5,619.9,511.2)" /><ellipse cx="640.4" cy="521.5" rx="9.7" ry="14.5" fill="#6B7A4A" transform="rotate(-60.0,640.4,521.5)" /><ellipse cx="612.8" cy="531.9" rx="8.6" ry="12.9" fill="#6B7A4A" transform="rotate(126.4,612.8,531.9)" /><ellipse cx="633.3" cy="508.5" rx="7.5" ry="11.3" fill="#6B7A4A" transform="rotate(-50.1,633.3,508.5)" /><ellipse cx="605.6" cy="518.9" rx="6.4" ry="9.6" fill="#6B7A4A" transform="rotate(136.2,605.6,518.9)" /><ellipse cx="626.1" cy="529.2" rx="10.2" ry="15.2" fill="#7A8C5C" transform="rotate(-40.2,626.1,529.2)" /><ellipse cx="646.7" cy="505.7" rx="9.1" ry="13.6" fill="#7A8C5C" transform="rotate(146.1,646.7,505.7)" /><ellipse cx="619.0" cy="516.1" rx="8.0" ry="12.0" fill="#7A8C5C" transform="rotate(-30.4,619.0,516.1)" /><ellipse cx="639.5" cy="526.4" rx="6.9" ry="10.3" fill="#7A8C5C" transform="rotate(156.0,639.5,526.4)" /><ellipse cx="611.8" cy="503.1" rx="5.8" ry="8.7" fill="#7A8C5C" transform="rotate(-19.1,611.8,503.1)" /><ellipse cx="632.4" cy="513.3" rx="9.6" ry="14.3" fill="#7A8C5C" transform="rotate(165.9,632.4,513.3)" /></g><g><ellipse cx="605.2" cy="546.1" rx="6.2" ry="9.3" fill="#6B7A4A" transform="rotate(-6.4,605.2,546.1)" /><ellipse cx="589.0" cy="532.5" rx="5.4" ry="8.1" fill="#6B7A4A" transform="rotate(178.6,589.0,532.5)" /><ellipse cx="601.0" cy="538.5" rx="4.6" ry="6.9" fill="#6B7A4A" transform="rotate(3.5,601.0,538.5)" /><ellipse cx="584.9" cy="544.6" rx="7.4" ry="11.1" fill="#7A8C5C" transform="rotate(-172.9,584.9,544.6)" /><ellipse cx="596.8" cy="530.9" rx="6.6" ry="9.9" fill="#7A8C5C" transform="rotate(13.4,596.8,530.9)" /><ellipse cx="608.8" cy="536.9" rx="5.8" ry="8.7" fill="#7A8C5C" transform="rotate(-163.1,608.8,536.9)" /><ellipse cx="592.7" cy="543.0" rx="4.9" ry="7.4" fill="#7A8C5C" transform="rotate(23.3,592.7,543.0)" /></g><g><ellipse cx="579.7" cy="534.3" rx="5.2" ry="7.8" fill="#6B7A4A" transform="rotate(-143.3,579.7,534.3)" /><ellipse cx="563.6" cy="540.4" rx="4.4" ry="6.5" fill="#6B7A4A" transform="rotate(43.1,563.6,540.4)" /><ellipse cx="575.5" cy="546.4" rx="7.2" ry="10.7" fill="#6B7A4A" transform="rotate(-133.4,575.5,546.4)" /><ellipse cx="587.5" cy="552.4" rx="6.3" ry="9.5" fill="#7A8C5C" transform="rotate(52.9,587.5,552.4)" /><ellipse cx="571.4" cy="538.8" rx="5.5" ry="8.3" fill="#7A8C5C" transform="rotate(-123.5,571.4,538.8)" /><ellipse cx="583.3" cy="544.8" rx="4.7" ry="7.1" fill="#7A8C5C" transform="rotate(62.8,583.3,544.8)" /><ellipse cx="567.2" cy="550.8" rx="7.5" ry="11.3" fill="#7A8C5C" transform="rotate(-113.6,567.2,550.8)" /></g><path d="M497.2,551.9 C495.9,552.5 486.8,558.9 481.3,558.6 C475.8,558.3 439.8,551.7 430.8,548.2 C421.8,544.7 378.3,519.1 373.6,516.4 C373.4,516.6 367.7,515.4 372.3,518.6 C376.9,521.7 419.4,549.8 428.4,553.9 C437.4,558.0 474.5,567.0 480.5,567.7 C486.5,568.4 499.0,562.8 500.7,562.4 Z" fill="#6B5A48" /><g><ellipse cx="395.8" cy="532.6" rx="8.2" ry="12.3" fill="#6B7A4A" transform="rotate(-105.2,395.8,532.6)" /><ellipse cx="368.1" cy="509.3" rx="7.1" ry="10.7" fill="#6B7A4A" transform="rotate(79.8,368.1,509.3)" /><ellipse cx="388.6" cy="519.5" rx="6.0" ry="9.0" fill="#6B7A4A" transform="rotate(-95.3,388.6,519.5)" /><ellipse cx="361.0" cy="529.9" rx="9.7" ry="14.6" fill="#6B7A4A" transform="rotate(89.6,361.0,529.9)" /><ellipse cx="381.5" cy="506.5" rx="8.7" ry="13.0" fill="#6B7A4A" transform="rotate(-85.4,381.5,506.5)" /><ellipse cx="353.8" cy="516.9" rx="7.6" ry="11.4" fill="#7A8C5C" transform="rotate(99.5,353.8,516.9)" /><ellipse cx="374.3" cy="527.2" rx="6.5" ry="9.7" fill="#7A8C5C" transform="rotate(-75.5,374.3,527.2)" /><ellipse cx="394.8" cy="503.7" rx="10.2" ry="15.3" fill="#7A8C5C" transform="rotate(109.4,394.8,503.7)" /><ellipse cx="367.2" cy="514.1" rx="9.1" ry="13.7" fill="#7A8C5C" transform="rotate(-65.6,367.2,514.1)" /><ellipse cx="387.7" cy="524.4" rx="8.0" ry="12.1" fill="#7A8C5C" transform="rotate(120.7,387.7,524.4)" /><ellipse cx="360.0" cy="534.8" rx="7.0" ry="10.4" fill="#7A8C5C" transform="rotate(-55.8,360.0,534.8)" /></g><g><ellipse cx="399.6" cy="531.5" rx="6.3" ry="9.5" fill="#6B7A4A" transform="rotate(2.1,399.6,531.5)" /><ellipse cx="411.5" cy="537.5" rx="5.5" ry="8.2" fill="#6B7A4A" transform="rotate(-174.4,411.5,537.5)" /><ellipse cx="395.4" cy="543.6" rx="4.7" ry="7.0" fill="#6B7A4A" transform="rotate(12.0,395.4,543.6)" /><ellipse cx="407.4" cy="529.9" rx="7.5" ry="11.2" fill="#7A8C5C" transform="rotate(-164.5,407.4,529.9)" /><ellipse cx="391.2" cy="536.0" rx="6.7" ry="10.0" fill="#7A8C5C" transform="rotate(21.9,391.2,536.0)" /><ellipse cx="403.2" cy="542.0" rx="5.9" ry="8.8" fill="#7A8C5C" transform="rotate(-154.6,403.2,542.0)" /><ellipse cx="415.2" cy="548.0" rx="5.0" ry="7.5" fill="#7A8C5C" transform="rotate(31.8,415.2,548.0)" /></g><g><ellipse cx="410.1" cy="539.4" rx="5.3" ry="7.9" fill="#6B7A4A" transform="rotate(-134.8,410.1,539.4)" /><ellipse cx="422.1" cy="545.4" rx="4.4" ry="6.7" fill="#6B7A4A" transform="rotate(51.5,422.1,545.4)" /><ellipse cx="434.0" cy="551.4" rx="7.2" ry="10.9" fill="#6B7A4A" transform="rotate(-124.9,434.0,551.4)" /><ellipse cx="417.9" cy="537.8" rx="6.4" ry="9.6" fill="#7A8C5C" transform="rotate(61.4,417.9,537.8)" /><ellipse cx="429.9" cy="543.8" rx="5.6" ry="8.4" fill="#7A8C5C" transform="rotate(-115.1,429.9,543.8)" /><ellipse cx="413.7" cy="549.8" rx="4.8" ry="7.2" fill="#7A8C5C" transform="rotate(71.3,413.7,549.8)" /><ellipse cx="425.7" cy="536.2" rx="7.6" ry="11.4" fill="#7A8C5C" transform="rotate(-105.2,425.7,536.2)" /></g><path d="M496.1,519.5 C497.8,520.0 510.1,525.4 516.1,524.9 C522.1,524.3 559.3,517.2 568.4,513.0 C577.4,508.9 619.8,478.0 624.5,474.8 C624.4,474.7 628.0,470.0 623.2,472.7 C618.3,475.4 574.9,503.8 565.9,507.4 C556.9,510.9 521.1,515.6 515.6,515.7 C510.0,515.8 500.9,509.6 499.6,509.1 Z" fill="#6B5A48" /><g><ellipse cx="618.1" cy="490.1" rx="8.1" ry="12.1" fill="#6B7A4A" transform="rotate(-147.5,618.1,490.1)" /><ellipse cx="638.6" cy="466.7" rx="7.0" ry="10.5" fill="#6B7A4A" transform="rotate(37.4,638.6,466.7)" /><ellipse cx="610.9" cy="477.1" rx="5.9" ry="8.9" fill="#6B7A4A" transform="rotate(-137.6,610.9,477.1)" /><ellipse cx="631.5" cy="487.4" rx="9.6" ry="14.4" fill="#6B7A4A" transform="rotate(47.3,631.5,487.4)" /><ellipse cx="603.8" cy="464.0" rx="8.6" ry="12.8" fill="#6B7A4A" transform="rotate(-127.8,603.8,464.0)" /><ellipse cx="624.3" cy="474.3" rx="7.5" ry="11.2" fill="#7A8C5C" transform="rotate(57.2,624.3,474.3)" /><ellipse cx="644.8" cy="484.6" rx="6.4" ry="9.6" fill="#7A8C5C" transform="rotate(-117.9,644.8,484.6)" /><ellipse cx="617.1" cy="461.3" rx="10.1" ry="15.2" fill="#7A8C5C" transform="rotate(67.1,617.1,461.3)" /><ellipse cx="637.7" cy="471.5" rx="9.0" ry="13.5" fill="#7A8C5C" transform="rotate(-108.0,637.7,471.5)" /><ellipse cx="610.0" cy="482.0" rx="7.9" ry="11.9" fill="#7A8C5C" transform="rotate(76.9,610.0,482.0)" /><ellipse cx="630.5" cy="492.2" rx="6.8" ry="10.3" fill="#7A8C5C" transform="rotate(-98.1,630.5,492.2)" /></g><g><ellipse cx="605.0" cy="493.7" rx="6.4" ry="9.6" fill="#6B7A4A" transform="rotate(10.6,605.0,493.7)" /><ellipse cx="588.8" cy="499.8" rx="5.6" ry="8.4" fill="#6B7A4A" transform="rotate(-165.9,588.8,499.8)" /><ellipse cx="600.8" cy="505.7" rx="4.8" ry="7.1" fill="#6B7A4A" transform="rotate(20.5,600.8,505.7)" /><ellipse cx="584.7" cy="492.1" rx="7.6" ry="11.4" fill="#7A8C5C" transform="rotate(-156.0,584.7,492.1)" /><ellipse cx="596.6" cy="498.1" rx="6.8" ry="10.1" fill="#7A8C5C" transform="rotate(30.4,596.6,498.1)" /><ellipse cx="580.5" cy="504.2" rx="5.9" ry="8.9" fill="#7A8C5C" transform="rotate(-146.1,580.5,504.2)" /><ellipse cx="592.5" cy="490.5" rx="5.1" ry="7.7" fill="#7A8C5C" transform="rotate(40.2,592.5,490.5)" /></g><g><ellipse cx="579.5" cy="501.5" rx="5.3" ry="8.0" fill="#6B7A4A" transform="rotate(-126.4,579.5,501.5)" /><ellipse cx="563.4" cy="507.6" rx="4.5" ry="6.8" fill="#6B7A4A" transform="rotate(60.0,563.4,507.6)" /><ellipse cx="575.3" cy="493.9" rx="7.3" ry="11.0" fill="#6B7A4A" transform="rotate(-116.5,575.3,493.9)" /><ellipse cx="587.3" cy="499.9" rx="6.5" ry="9.8" fill="#7A8C5C" transform="rotate(69.9,587.3,499.9)" /><ellipse cx="571.2" cy="506.0" rx="5.7" ry="8.5" fill="#7A8C5C" transform="rotate(-106.6,571.2,506.0)" /><ellipse cx="583.1" cy="492.3" rx="4.9" ry="7.3" fill="#7A8C5C" transform="rotate(79.8,583.1,492.3)" /><ellipse cx="567.0" cy="498.4" rx="7.7" ry="11.5" fill="#7A8C5C" transform="rotate(-96.7,567.0,498.4)" /></g><path d="M496.1,509.1 C494.7,509.6 484.4,515.3 479.7,515.7 C475.0,516.1 447.0,516.1 439.6,513.3 C432.2,510.5 394.6,484.4 390.5,481.8 C390.4,482.0 385.2,480.8 389.1,483.9 C393.0,487.0 429.7,515.6 437.2,519.0 C444.8,522.4 474.8,524.8 480.0,524.9 C485.2,524.9 497.9,520.0 499.6,519.5 Z" fill="#6B5A48" /><g><ellipse cx="411.9" cy="483.1" rx="10.3" ry="15.5" fill="#6B7A4A" transform="rotate(-9.2,411.9,483.1)" /><ellipse cx="384.3" cy="493.5" rx="9.2" ry="13.8" fill="#6B7A4A" transform="rotate(177.2,384.3,493.5)" /><ellipse cx="404.8" cy="470.1" rx="8.1" ry="12.2" fill="#6B7A4A" transform="rotate(2.1,404.8,470.1)" /><ellipse cx="377.1" cy="480.5" rx="7.0" ry="10.6" fill="#6B7A4A" transform="rotate(-174.4,377.1,480.5)" /><ellipse cx="397.6" cy="490.8" rx="6.0" ry="8.9" fill="#6B7A4A" transform="rotate(12.0,397.6,490.8)" /><ellipse cx="370.0" cy="467.5" rx="9.7" ry="14.6" fill="#7A8C5C" transform="rotate(-164.5,370.0,467.5)" /><ellipse cx="390.5" cy="477.7" rx="8.6" ry="12.9" fill="#7A8C5C" transform="rotate(21.9,390.5,477.7)" /><ellipse cx="411.0" cy="488.0" rx="7.5" ry="11.3" fill="#7A8C5C" transform="rotate(-154.6,411.0,488.0)" /><ellipse cx="383.3" cy="498.4" rx="6.4" ry="9.6" fill="#7A8C5C" transform="rotate(31.8,383.3,498.4)" /><ellipse cx="403.9" cy="475.0" rx="10.2" ry="15.3" fill="#7A8C5C" transform="rotate(-144.7,403.9,475.0)" /><ellipse cx="376.2" cy="485.4" rx="9.1" ry="13.6" fill="#7A8C5C" transform="rotate(41.6,376.2,485.4)" /></g><g><ellipse cx="417.4" cy="504.2" rx="6.5" ry="9.7" fill="#6B7A4A" transform="rotate(19.1,417.4,504.2)" /><ellipse cx="429.3" cy="510.1" rx="5.7" ry="8.5" fill="#6B7A4A" transform="rotate(-157.4,429.3,510.1)" /><ellipse cx="413.2" cy="496.5" rx="4.9" ry="7.3" fill="#6B7A4A" transform="rotate(28.9,413.2,496.5)" /><ellipse cx="425.2" cy="502.5" rx="7.7" ry="11.5" fill="#7A8C5C" transform="rotate(-147.5,425.2,502.5)" /><ellipse cx="409.0" cy="508.6" rx="6.8" ry="10.3" fill="#7A8C5C" transform="rotate(38.8,409.0,508.6)" /><ellipse cx="421.0" cy="494.9" rx="6.0" ry="9.1" fill="#7A8C5C" transform="rotate(-136.2,421.0,494.9)" /><ellipse cx="433.0" cy="500.9" rx="5.2" ry="7.8" fill="#7A8C5C" transform="rotate(48.7,433.0,500.9)" /></g><path d="M496.1,519.5 C497.8,519.9 511.1,525.6 516.3,524.8 C521.5,524.1 550.8,514.1 558.3,511.0 C565.8,507.9 602.3,489.7 606.3,487.7 C606.3,487.5 609.5,484.0 605.3,485.4 C601.1,486.9 563.6,502.7 556.1,505.2 C548.7,507.7 520.1,515.4 515.4,515.7 C510.6,516.0 500.9,509.6 499.6,509.1 Z" fill="#6B5A48" /><g><ellipse cx="607.6" cy="470.9" rx="7.7" ry="11.6" fill="#6B7A4A" transform="rotate(130.6,607.6,470.9)" /><ellipse cx="628.1" cy="481.2" rx="6.6" ry="10.0" fill="#6B7A4A" transform="rotate(-44.5,628.1,481.2)" /><ellipse cx="600.5" cy="491.6" rx="10.4" ry="15.5" fill="#6B7A4A" transform="rotate(140.5,600.5,491.6)" /><ellipse cx="621.0" cy="468.1" rx="9.3" ry="13.9" fill="#6B7A4A" transform="rotate(-34.6,621.0,468.1)" /><ellipse cx="593.3" cy="478.5" rx="8.2" ry="12.3" fill="#6B7A4A" transform="rotate(151.8,593.3,478.5)" /><ellipse cx="613.8" cy="488.8" rx="7.1" ry="10.7" fill="#7A8C5C" transform="rotate(-24.7,613.8,488.8)" /><ellipse cx="586.2" cy="465.5" rx="6.0" ry="9.0" fill="#7A8C5C" transform="rotate(161.6,586.2,465.5)" /><ellipse cx="606.7" cy="475.8" rx="9.8" ry="14.6" fill="#7A8C5C" transform="rotate(-14.8,606.7,475.8)" /><ellipse cx="627.2" cy="486.0" rx="8.7" ry="13.0" fill="#7A8C5C" transform="rotate(171.5,627.2,486.0)" /><ellipse cx="599.5" cy="496.4" rx="7.6" ry="11.4" fill="#7A8C5C" transform="rotate(-4.9,599.5,496.4)" /><ellipse cx="620.0" cy="473.0" rx="6.5" ry="9.8" fill="#7A8C5C" transform="rotate(-180.0,620.0,473.0)" /></g><g><ellipse cx="587.9" cy="509.1" rx="6.6" ry="9.9" fill="#6B7A4A" transform="rotate(27.5,587.9,509.1)" /><ellipse cx="571.7" cy="495.5" rx="5.8" ry="8.7" fill="#6B7A4A" transform="rotate(-148.9,571.7,495.5)" /><ellipse cx="583.7" cy="501.5" rx="4.9" ry="7.4" fill="#6B7A4A" transform="rotate(37.4,583.7,501.5)" /><ellipse cx="567.5" cy="507.6" rx="7.7" ry="11.6" fill="#7A8C5C" transform="rotate(-139.1,567.5,507.6)" /><ellipse cx="579.5" cy="493.9" rx="6.9" ry="10.4" fill="#7A8C5C" transform="rotate(47.3,579.5,493.9)" /><ellipse cx="563.4" cy="500.0" rx="6.1" ry="9.2" fill="#7A8C5C" transform="rotate(-127.8,563.4,500.0)" /><ellipse cx="575.3" cy="506.0" rx="5.3" ry="8.0" fill="#7A8C5C" transform="rotate(57.2,575.3,506.0)" /></g><path d="M496.8,537.6 C495.5,538.2 485.8,544.7 481.1,544.3 C476.4,543.9 447.8,535.7 440.3,533.1 C432.8,530.5 395.2,514.4 391.1,512.7 C391.0,512.9 386.1,512.8 390.0,515.0 C393.9,517.1 430.5,535.6 438.0,538.8 C445.5,542.1 474.8,552.6 480.0,553.4 C485.2,554.2 498.6,548.5 500.3,548.1 Z" fill="#6B5A48" /><g><ellipse cx="409.7" cy="501.2" rx="8.3" ry="12.5" fill="#6B7A4A" transform="rotate(151.8,409.7,501.2)" /><ellipse cx="382.0" cy="511.6" rx="7.2" ry="10.8" fill="#6B7A4A" transform="rotate(-24.7,382.0,511.6)" /><ellipse cx="402.5" cy="521.9" rx="6.1" ry="9.2" fill="#6B7A4A" transform="rotate(161.6,402.5,521.9)" /><ellipse cx="374.8" cy="498.5" rx="9.9" ry="14.8" fill="#6B7A4A" transform="rotate(-14.8,374.8,498.5)" /><ellipse cx="395.4" cy="508.8" rx="8.8" ry="13.2" fill="#6B7A4A" transform="rotate(171.5,395.4,508.8)" /><ellipse cx="367.7" cy="519.2" rx="7.7" ry="11.5" fill="#7A8C5C" transform="rotate(-4.9,367.7,519.2)" /><ellipse cx="388.2" cy="495.8" rx="6.6" ry="9.9" fill="#7A8C5C" transform="rotate(-180.0,388.2,495.8)" /><ellipse cx="408.7" cy="506.0" rx="10.3" ry="15.5" fill="#7A8C5C" transform="rotate(4.9,408.7,506.0)" /><ellipse cx="381.0" cy="516.5" rx="9.3" ry="13.9" fill="#7A8C5C" transform="rotate(-170.1,381.0,516.5)" /><ellipse cx="401.6" cy="526.7" rx="8.2" ry="12.2" fill="#7A8C5C" transform="rotate(16.2,401.6,526.7)" /><ellipse cx="373.9" cy="503.4" rx="7.1" ry="10.6" fill="#7A8C5C" transform="rotate(-160.2,373.9,503.4)" /></g><g><ellipse cx="419.0" cy="523.1" rx="6.7" ry="10.0" fill="#6B7A4A" transform="rotate(36.0,419.0,523.1)" /><ellipse cx="430.9" cy="529.1" rx="5.9" ry="8.8" fill="#6B7A4A" transform="rotate(-140.5,430.9,529.1)" /><ellipse cx="414.8" cy="535.2" rx="5.0" ry="7.5" fill="#6B7A4A" transform="rotate(45.9,414.8,535.2)" /><ellipse cx="426.8" cy="521.5" rx="4.2" ry="6.3" fill="#7A8C5C" transform="rotate(-129.2,426.8,521.5)" /><ellipse cx="410.6" cy="527.6" rx="7.0" ry="10.5" fill="#7A8C5C" transform="rotate(55.8,410.6,527.6)" /><ellipse cx="422.6" cy="533.6" rx="6.2" ry="9.3" fill="#7A8C5C" transform="rotate(-119.3,422.6,533.6)" /><ellipse cx="434.6" cy="539.6" rx="5.4" ry="8.1" fill="#7A8C5C" transform="rotate(65.6,434.6,539.6)" /></g><path d="M497.2,562.4 C498.8,562.8 512.1,568.3 517.2,567.7 C522.4,567.2 551.9,558.9 559.4,555.8 C566.9,552.7 603.5,532.5 607.5,530.4 C607.4,530.2 610.6,526.5 606.4,528.2 C602.2,529.8 564.7,547.5 557.2,550.0 C549.7,552.5 521.3,558.4 516.6,558.6 C511.9,558.7 502.0,552.5 500.7,551.9 Z" fill="#6B5A48" /><g><ellipse cx="624.5" cy="510.2" rx="9.7" ry="14.6" fill="#6B7A4A" transform="rotate(-130.6,624.5,510.2)" /><ellipse cx="596.8" cy="520.6" rx="8.6" ry="12.9" fill="#6B7A4A" transform="rotate(55.8,596.8,520.6)" /><ellipse cx="617.4" cy="530.9" rx="7.5" ry="11.3" fill="#6B7A4A" transform="rotate(-120.7,617.4,530.9)" /><ellipse cx="589.7" cy="541.3" rx="6.4" ry="9.7" fill="#6B7A4A" transform="rotate(65.6,589.7,541.3)" /><ellipse cx="610.2" cy="517.8" rx="10.2" ry="15.3" fill="#6B7A4A" transform="rotate(-110.8,610.2,517.8)" /><ellipse cx="630.7" cy="528.1" rx="9.1" ry="13.7" fill="#7A8C5C" transform="rotate(75.5,630.7,528.1)" /><ellipse cx="603.1" cy="538.5" rx="8.0" ry="12.0" fill="#7A8C5C" transform="rotate(-99.5,603.1,538.5)" /><ellipse cx="623.6" cy="515.1" rx="6.9" ry="10.4" fill="#7A8C5C" transform="rotate(85.4,623.6,515.1)" /><ellipse cx="595.9" cy="525.5" rx="5.8" ry="8.8" fill="#7A8C5C" transform="rotate(-89.6,595.9,525.5)" /><ellipse cx="616.4" cy="535.7" rx="9.6" ry="14.4" fill="#7A8C5C" transform="rotate(95.3,616.4,535.7)" /><ellipse cx="588.8" cy="512.4" rx="8.5" ry="12.7" fill="#7A8C5C" transform="rotate(-79.8,588.8,512.4)" /></g><g><ellipse cx="589.8" cy="542.4" rx="6.8" ry="10.1" fill="#6B7A4A" transform="rotate(44.5,589.8,542.4)" /><ellipse cx="573.7" cy="548.5" rx="5.9" ry="8.9" fill="#6B7A4A" transform="rotate(-132.0,573.7,548.5)" /><ellipse cx="585.6" cy="554.5" rx="5.1" ry="7.7" fill="#6B7A4A" transform="rotate(54.4,585.6,554.5)" /><ellipse cx="569.5" cy="540.9" rx="4.3" ry="6.5" fill="#7A8C5C" transform="rotate(-120.7,569.5,540.9)" /><ellipse cx="581.5" cy="546.9" rx="7.1" ry="10.7" fill="#7A8C5C" transform="rotate(64.2,581.5,546.9)" /><ellipse cx="565.3" cy="552.9" rx="6.3" ry="9.4" fill="#7A8C5C" transform="rotate(-110.8,565.3,552.9)" /><ellipse cx="577.3" cy="539.2" rx="5.5" ry="8.2" fill="#7A8C5C" transform="rotate(74.1,577.3,539.2)" /></g><g><ellipse cx="492.0" cy="364.1" rx="9.8" ry="14.1" fill="#6B7A4A" transform="rotate(50.1,492.0,364.1)" /><ellipse cx="524.5" cy="380.4" rx="8.5" ry="12.3" fill="#6B7A4A" transform="rotate(-126.4,524.5,380.4)" /><ellipse cx="480.7" cy="396.9" rx="7.3" ry="10.5" fill="#6B7A4A" transform="rotate(60.0,480.7,396.9)" /><ellipse cx="513.2" cy="413.1" rx="11.5" ry="16.6" fill="#6B7A4A" transform="rotate(-116.5,513.2,413.1)" /><ellipse cx="469.4" cy="376.2" rx="10.3" ry="14.9" fill="#6B7A4A" transform="rotate(69.9,469.4,376.2)" /><ellipse cx="501.9" cy="392.5" rx="9.1" ry="13.1" fill="#6B7A4A" transform="rotate(-105.2,501.9,392.5)" /><ellipse cx="534.4" cy="408.8" rx="7.8" ry="11.3" fill="#6B7A4A" transform="rotate(79.8,534.4,408.8)" /><ellipse cx="490.5" cy="371.8" rx="6.6" ry="9.6" fill="#6B7A4A" transform="rotate(-95.3,490.5,371.8)" /><ellipse cx="523.0" cy="388.1" rx="10.8" ry="15.6" fill="#7A8C5C" transform="rotate(89.6,523.0,388.1)" /><ellipse cx="479.2" cy="404.6" rx="9.6" ry="13.8" fill="#7A8C5C" transform="rotate(-85.4,479.2,404.6)" /><ellipse cx="511.7" cy="367.5" rx="8.4" ry="12.1" fill="#7A8C5C" transform="rotate(99.5,511.7,367.5)" /><ellipse cx="467.9" cy="383.9" rx="7.1" ry="10.3" fill="#7A8C5C" transform="rotate(-75.5,467.9,383.9)" /><ellipse cx="500.4" cy="400.2" rx="11.3" ry="16.4" fill="#7A8C5C" transform="rotate(109.4,500.4,400.2)" /><ellipse cx="532.9" cy="363.1" rx="10.1" ry="14.6" fill="#7A8C5C" transform="rotate(-65.6,532.9,363.1)" /><ellipse cx="489.0" cy="379.6" rx="8.9" ry="12.9" fill="#7A8C5C" transform="rotate(119.3,489.0,379.6)" /><ellipse cx="521.5" cy="395.8" rx="7.7" ry="11.1" fill="#7A8C5C" transform="rotate(-55.8,521.5,395.8)" /></g><path d="M492.0,598.0 Q480.0,604.0 474.0,600.0" stroke="#3D3328" stroke-width="3.2" fill="none" stroke-linecap="round" opacity="0.85" /></svg>