<svg xmlns="http://www.w3.org/2000/svg" viewBox="0 0 1000 800" preserveAspectRatio="xMidYMid meet" role="img" aria-label="bonsai-cc tree"><defs><linearGradient id="bcc-sky" x1="0" y1="0" x2="0" y2="1"><stop offset="0%" stop-color="#F4F3EE" /><stop offset="100%" stop-color="#E8E5DC" /></linearGradient><linearGradient id="bcc-ground" x1="0" y1="0" x2="0" y2="1"><stop offset="0%" stop-color="#E8E5DC" /><stop offset="100%" stop-color="#B1ADA1" /></linearGradient><linearGradient id="bcc-pot" x1="0" y1="0" x2="0" y2="1"><stop offset="0%" stop-color="#8E3D24" /><stop offset="100%" stop-color="#3D3328" /></linearGradient><linearGradient id="sky" x1="0" y1="0" x2="0" y2="1"><stop offset="0%" stop-color="#F4F3EE" /><stop offset="100%" stop-color="#E8E5DC" /></linearGradient><linearGradient id="ground" x1="0" y1="0" x2="0" y2="1"><stop offset="0%" stop-color="#E8E5DC" /><stop offset="100%" stop-color="#B1ADA1" /></linearGradient><radialGradient id="sun" cx="0.5" cy="0.5" r="0.5"><stop offset="0%" stop-color="#C15F3C" stop-opacity="0.55" /><stop offset="70%" stop-color="#C15F3C" stop-opacity="0.20" /><stop offset="100%" stop-color="#C15F3C" stop-opacity="0" /></radialGradient><radialGradient id="moon" cx="0.45" cy="0.45" r="0.55"><stop offset="0%" stop-color="#F4F3EE" stop-opacity="0.85" /><stop offset="100%" stop-color="#F4F3EE" stop-opacity="0.35" /></radialGradient><radialGradient id="pot-shadow" cx="0.5" cy="0.5" r="0.5"><stop offset="0%" stop-color="#191919" stop-opacity="0.18" /><stop offset="100%" stop-color="#191919" stop-opacity="0" /></radialGradient></defs><rect x="0" y="0" width="1000" height="600" fill="url(#bcc-sky)" /><circle cx="780" cy="180" r="80" fill="url(#sun)" /><circle cx="780" cy="180" r="28" fill="#C15F3C" fill-opacity="0.55" /><rect x="0" y="600" width="1000" height="200" fill="url(#bcc-ground)" /><ellipse cx="500" cy="728" rx="190" ry="22" fill="url(#pot-shadow)" /><path d="M340,600 Q336,608 344,618 L370,700 Q376,710 384,710 L616,710 Q624,710 630,700 L656,618 Q664,608 660,600 Z" fill="url(#bcc-pot)" /><path d="M350,622 Q500,626 650,622" stroke="#3D3328" stroke-width="1.5" fill="none" stroke-linecap="round" opacity="0.55" /><ellipse cx="500" cy="602" rx="152" ry="8" fill="#3D3328" /><circle cx="430" cy="601" r="4" fill="#B1ADA1" opacity="0.7" /><circle cx="530" cy="603" r="3" fill="#B1ADA1" opacity="0.55" /><circle cx="590" cy="601" r="3.5" fill="#B1ADA1" opacity="0.7" /><path d="M530.8,596.6 C530.0,592.3 524.0,552.4 521.5,545.4 C519.0,538.4 502.7,522.2 500.8,512.2 C498.9,502.3 498.9,432.9 498.7,425.7 C497.7,425.6 489.8,417.0 486.8,424.3 C483.8,431.5 464.5,501.7 462.9,512.8 C461.3,523.8 467.1,549.0 467.6,556.6 C468.1,564.1 469.1,599.5 469.2,603.4 Z" fill="#6B5A48" /><path d="M507.2,599.2 C506.6,595.1 502.1,557.0 500.3,549.8 C498.6,542.6 486.8,522.8 486.5,512.4 C486.1,502.1 495.2,432.7 496.0,425.4" stroke="#3D3328" stroke-width="6.0" fill="none" opacity="0.45" stroke-linecap="round" /><line x1="488.4" y1="561.9" x2="487.6" y2="555.2" stroke="#3D3328" stroke-width="1.1" stroke-linecap="round" opacity="0.50" /><line x1="478.0" y1="530.0" x2="474.4" y2="519.2" stroke="#3D3328" stroke-width="1.1" stroke-linecap="round" opacity="0.50" /><line x1="492.6" y1="578.7" x2="491.5" y2="568.7" stroke="#3D3328" stroke-width="1.1" stroke-linecap="round" opacity="0.50" /><line x1="483.7" y1="540.1" x2="481.0" y2="531.8" stroke="#3D3328" stroke-width="1.1" stroke-linecap="round" opacity="0.50" /><line x1="476.5" y1="484.9" x2="477.4" y2="477.7" stroke="#3D3328" stroke-width="1.1" stroke-linecap="round" opacity="0.50" /><line x1="490.4" y1="553.0" x2="486.7" y2="541.6" stroke="#3D3328" stroke-width="1.1" stroke-linecap="round" opacity="0.50" /><line x1="494.5" y1="532.1" x2="492.6" y2="526.2" stroke="#3D3328" stroke-width="1.1" stroke-linecap="round" opacity="0.35" /><line x1="493.4" y1="482.2" x2="494.7" y2="471.5" stroke="#3D3328" stroke-width="1.1" stroke-linecap="round" opacity="0.35" /><line x1="502.5" y1="544.5" x2="499.5" y2="535.5" stroke="#3D3328" stroke-width="1.1" stroke-linecap="round" opacity="0.35" /><line x1="487.9" y1="508.0" x2="488.9" y2="499.9" stroke="#3D3328" stroke-width="1.1" stroke-linecap="round" opacity="0.35" /><line x1="502.7" y1="558.7" x2="501.9" y2="552.0" stroke="#3D3328" stroke-width="1.1" stroke-linecap="round" opacity="0.35" /><path d="M476.4,553.0 Q474.4,537.8 486.5,537.8 Q498.7,545.4 496.7,563.1 Q486.5,568.1 476.4,553.0 Z" fill="#B1ADA1" opacity="0.95" /><line x1="486.5" y1="542.9" x2="487.5" y2="563.1" stroke="#3D3328" stroke-width="1.2" opacity="0.55" /><path d="M461.0,517.9 Q459.0,501.3 472.7,501.3 Q486.3,509.6 484.3,529.0 Q472.7,534.5 461.0,517.9 Z" fill="#B1ADA1" opacity="0.95" /><line x1="472.7" y1="506.8" x2="473.7" y2="529.0" stroke="#3D3328" stroke-width="1.2" opacity="0.55" /><circle cx="503.8" cy="573.5" r="5" fill="#3D3328" opacity="0.85" /><circle cx="503.8" cy="573.5" r="2.5" fill="#6B5A48" opacity="0.95" /><circle cx="482.4" cy="534.1" r="5" fill="#3D3328" opacity="0.85" /><circle cx="482.4" cy="534.1" r="2.5" fill="#6B5A48" opacity="0.95" /><path d="M494.3,550.9 C493.3,551.2 484.9,554.3 482.2,554.3 C479.5,554.3 465.8,550.5 462.2,550.5 C458.7,550.6 441.2,554.9 439.3,555.3 C439.3,555.6 437.7,558.0 439.6,558.3 C441.4,558.6 458.0,558.4 461.4,559.1 C464.9,559.9 477.7,566.8 480.7,567.4 C483.6,568.0 495.2,566.8 496.6,566.8 Z" fill="#B1ADA1" /><path d="M494.1,566.2 C496.1,566.5 510.8,569.8 517.8,569.0 C524.9,568.3 568.3,560.8 579.0,557.5 C589.7,554.3 640.4,532.3 646.0,530.0 C645.9,529.8 650.7,525.6 644.9,527.2 C639.2,528.8 587.5,547.1 576.9,549.6 C566.2,552.0 523.7,556.5 517.0,556.6 C510.4,556.8 498.5,551.9 496.8,551.5 Z" fill="#6B5A48" /><g><ellipse cx="612.8" cy="521.5" rx="11.8" ry="14.2" fill="#57643C" transform="rotate(78.4,612.8,521.5)" /><ellipse cx="641.8" cy="536.0" rx="10.5" ry="12.6" fill="#57643C" transform="rotate(-96.7,641.8,536.0)" /><ellipse cx="670.9" cy="502.8" rx="9.1" ry="11.0" fill="#57643C" transform="rotate(88.2,670.9,502.8)" /><ellipse cx="631.7" cy="517.5" rx="7.8" ry="9.3" fill="#57643C" transform="rotate(-86.8,631.7,517.5)" /><ellipse cx="660.8" cy="532.1" rx="12.4" ry="14.9" fill="#57643C" transform="rotate(98.1,660.8,532.1)" /><ellipse cx="621.6" cy="546.8" rx="11.1" ry="13.3" fill="#57643C" transform="rotate(-76.9,621.6,546.8)" /><ellipse cx="650.6" cy="513.6" rx="9.7" ry="11.7" fill="#57643C" transform="rotate(108.0,650.6,513.6)" /><ellipse cx="611.4" cy="528.4" rx="8.4" ry="10.0" fill="#6B7A4A" transform="rotate(-67.1,611.4,528.4)" /><ellipse cx="640.5" cy="542.9" rx="7.0" ry="8.4" fill="#6B7A4A" transform="rotate(119.3,640.5,542.9)" /><ellipse cx="669.6" cy="509.7" rx="11.7" ry="14.0" fill="#6B7A4A" transform="rotate(-57.2,669.6,509.7)" /><ellipse cx="630.4" cy="524.4" rx="10.3" ry="12.4" fill="#6B7A4A" transform="rotate(129.2,630.4,524.4)" /><ellipse cx="659.4" cy="539.0" rx="9.0" ry="10.7" fill="#6B7A4A" transform="rotate(-47.3,659.4,539.0)" /><ellipse cx="620.2" cy="506.0" rx="7.6" ry="9.1" fill="#6B7A4A" transform="rotate(139.1,620.2,506.0)" /><ellipse cx="649.3" cy="520.5" rx="12.3" ry="14.7" fill="#6B7A4A" transform="rotate(-37.4,649.3,520.5)" /><ellipse cx="678.4" cy="535.1" rx="10.9" ry="13.1" fill="#6B7A4A" transform="rotate(148.9,678.4,535.1)" /></g><g><ellipse cx="626.2" cy="544.1" rx="7.1" ry="10.1" fill="#57643C" transform="rotate(-23.3,626.2,544.1)" /><ellipse cx="607.7" cy="551.0" rx="6.1" ry="8.7" fill="#57643C" transform="rotate(161.6,607.7,551.0)" /><ellipse cx="621.4" cy="557.9" rx="5.1" ry="7.4" fill="#57643C" transform="rotate(-13.4,621.4,557.9)" /><ellipse cx="603.0" cy="542.3" rx="8.4" ry="12.0" fill="#57643C" transform="rotate(171.5,603.0,542.3)" /><ellipse cx="616.6" cy="549.2" rx="7.5" ry="10.7" fill="#6B7A4A" transform="rotate(-3.5,616.6,549.2)" /><ellipse cx="630.3" cy="556.1" rx="6.5" ry="9.3" fill="#6B7A4A" transform="rotate(-180.0,630.3,556.1)" /><ellipse cx="611.9" cy="540.5" rx="5.6" ry="8.0" fill="#6B7A4A" transform="rotate(6.4,611.9,540.5)" /><ellipse cx="625.5" cy="547.4" rx="8.8" ry="12.6" fill="#6B7A4A" transform="rotate(-170.1,625.5,547.4)" /></g><g><ellipse cx="602.6" cy="554.5" rx="5.8" ry="8.3" fill="#57643C" transform="rotate(-160.2,602.6,554.5)" /><ellipse cx="616.3" cy="561.4" rx="9.1" ry="13.0" fill="#57643C" transform="rotate(24.7,616.3,561.4)" /><ellipse cx="597.9" cy="545.8" rx="8.1" ry="11.6" fill="#57643C" transform="rotate(-150.4,597.9,545.8)" /><ellipse cx="611.5" cy="552.7" rx="7.2" ry="10.3" fill="#57643C" transform="rotate(36.0,611.5,552.7)" /><ellipse cx="593.1" cy="559.6" rx="6.2" ry="8.9" fill="#6B7A4A" transform="rotate(-140.5,593.1,559.6)" /><ellipse cx="606.8" cy="544.0" rx="5.3" ry="7.6" fill="#6B7A4A" transform="rotate(45.9,606.8,544.0)" /><ellipse cx="588.3" cy="550.9" rx="8.6" ry="12.2" fill="#6B7A4A" transform="rotate(-130.6,588.3,550.9)" /><ellipse cx="602.0" cy="557.7" rx="7.6" ry="10.9" fill="#6B7A4A" transform="rotate(55.8,602.0,557.7)" /></g><path d="M494.1,551.5 C492.4,551.9 480.9,557.3 474.3,556.7 C467.6,556.1 424.8,546.8 414.2,543.9 C403.5,540.9 351.6,523.5 346.0,521.7 C345.9,521.9 339.4,522.0 344.9,524.5 C350.4,527.0 401.1,548.0 411.7,551.7 C422.4,555.4 465.5,567.8 472.6,569.0 C479.7,570.2 494.8,566.5 496.8,566.2 Z" fill="#6B5A48" /><g><ellipse cx="352.2" cy="503.9" rx="8.6" ry="10.3" fill="#57643C" transform="rotate(-143.3,352.2,503.9)" /><ellipse cx="313.0" cy="518.7" rx="7.3" ry="8.7" fill="#57643C" transform="rotate(43.1,313.0,518.7)" /><ellipse cx="342.1" cy="533.2" rx="11.9" ry="14.3" fill="#57643C" transform="rotate(-133.4,342.1,533.2)" /><ellipse cx="371.2" cy="547.8" rx="10.6" ry="12.7" fill="#57643C" transform="rotate(52.9,371.2,547.8)" /><ellipse cx="332.0" cy="514.7" rx="9.2" ry="11.1" fill="#57643C" transform="rotate(-123.5,332.0,514.7)" /><ellipse cx="361.0" cy="529.3" rx="7.8" ry="9.4" fill="#57643C" transform="rotate(62.8,361.0,529.3)" /><ellipse cx="321.8" cy="544.0" rx="12.5" ry="15.0" fill="#57643C" transform="rotate(-113.6,321.8,544.0)" /><ellipse cx="350.9" cy="510.8" rx="11.2" ry="13.4" fill="#6B7A4A" transform="rotate(72.7,350.9,510.8)" /><ellipse cx="311.7" cy="525.6" rx="9.8" ry="11.8" fill="#6B7A4A" transform="rotate(-103.8,311.7,525.6)" /><ellipse cx="340.8" cy="540.1" rx="8.4" ry="10.1" fill="#6B7A4A" transform="rotate(82.6,340.8,540.1)" /><ellipse cx="369.8" cy="506.9" rx="7.1" ry="8.5" fill="#6B7A4A" transform="rotate(-92.5,369.8,506.9)" /><ellipse cx="330.6" cy="521.6" rx="11.8" ry="14.1" fill="#6B7A4A" transform="rotate(92.5,330.6,521.6)" /><ellipse cx="359.7" cy="536.2" rx="10.4" ry="12.5" fill="#6B7A4A" transform="rotate(-82.6,359.7,536.2)" /><ellipse cx="320.5" cy="503.2" rx="9.0" ry="10.9" fill="#6B7A4A" transform="rotate(102.4,320.5,503.2)" /><ellipse cx="349.6" cy="517.7" rx="7.7" ry="9.2" fill="#6B7A4A" transform="rotate(-72.7,349.6,517.7)" /></g><g><ellipse cx="370.6" cy="549.9" rx="7.2" ry="10.2" fill="#57643C" transform="rotate(-14.8,370.6,549.9)" /><ellipse cx="384.3" cy="556.8" rx="6.2" ry="8.9" fill="#57643C" transform="rotate(170.1,384.3,556.8)" /><ellipse cx="365.8" cy="541.2" rx="5.3" ry="7.5" fill="#57643C" transform="rotate(-4.9,365.8,541.2)" /><ellipse cx="379.5" cy="548.1" rx="8.5" ry="12.2" fill="#57643C" transform="rotate(180.0,379.5,548.1)" /><ellipse cx="361.1" cy="555.0" rx="7.6" ry="10.8" fill="#6B7A4A" transform="rotate(4.9,361.1,555.0)" /><ellipse cx="374.7" cy="539.4" rx="6.6" ry="9.5" fill="#6B7A4A" transform="rotate(-171.5,374.7,539.4)" /><ellipse cx="388.4" cy="546.2" rx="5.7" ry="8.1" fill="#6B7A4A" transform="rotate(14.8,388.4,546.2)" /><ellipse cx="370.0" cy="553.2" rx="8.9" ry="12.8" fill="#6B7A4A" transform="rotate(-161.6,370.0,553.2)" /></g><g><ellipse cx="377.1" cy="560.3" rx="5.9" ry="8.5" fill="#57643C" transform="rotate(-151.8,377.1,560.3)" /><ellipse cx="390.8" cy="544.7" rx="5.0" ry="7.1" fill="#57643C" transform="rotate(34.6,390.8,544.7)" /><ellipse cx="404.4" cy="551.5" rx="8.2" ry="11.8" fill="#57643C" transform="rotate(-141.9,404.4,551.5)" /><ellipse cx="386.0" cy="558.5" rx="7.3" ry="10.4" fill="#57643C" transform="rotate(44.5,386.0,558.5)" /><ellipse cx="399.7" cy="542.8" rx="6.3" ry="9.1" fill="#6B7A4A" transform="rotate(-132.0,399.7,542.8)" /><ellipse cx="381.2" cy="549.8" rx="5.4" ry="7.7" fill="#6B7A4A" transform="rotate(54.4,381.2,549.8)" /><ellipse cx="394.9" cy="556.6" rx="8.7" ry="12.4" fill="#6B7A4A" transform="rotate(-122.1,394.9,556.6)" /><ellipse cx="376.4" cy="563.5" rx="7.7" ry="11.0" fill="#6B7A4A" transform="rotate(64.2,376.4,563.5)" /></g><path d="M494.1,566.2 C496.1,566.5 511.2,570.2 518.3,569.0 C525.3,567.8 568.4,555.3 579.1,551.8 C589.7,548.4 640.3,529.7 645.9,527.7 C645.8,527.5 650.7,523.5 645.0,524.8 C639.2,526.2 587.5,541.3 576.8,544.0 C566.1,546.6 523.3,556.1 516.6,556.7 C510.0,557.3 498.4,551.9 496.8,551.5 Z" fill="#6B5A48" /><g><ellipse cx="638.4" cy="514.4" rx="7.4" ry="8.9" fill="#57643C" transform="rotate(116.5,638.4,514.4)" /><ellipse cx="667.4" cy="528.9" rx="12.1" ry="14.5" fill="#57643C" transform="rotate(-60.0,667.4,528.9)" /><ellipse cx="628.2" cy="543.7" rx="10.7" ry="12.9" fill="#57643C" transform="rotate(126.4,628.2,543.7)" /><ellipse cx="657.3" cy="510.4" rx="9.4" ry="11.3" fill="#57643C" transform="rotate(-50.1,657.3,510.4)" /><ellipse cx="618.1" cy="525.2" rx="8.0" ry="9.6" fill="#57643C" transform="rotate(136.2,618.1,525.2)" /><ellipse cx="647.2" cy="539.7" rx="12.7" ry="15.2" fill="#57643C" transform="rotate(-40.2,647.2,539.7)" /><ellipse cx="676.2" cy="506.5" rx="11.4" ry="13.6" fill="#57643C" transform="rotate(146.1,676.2,506.5)" /><ellipse cx="637.0" cy="521.3" rx="10.0" ry="12.0" fill="#6B7A4A" transform="rotate(-30.4,637.0,521.3)" /><ellipse cx="666.1" cy="535.8" rx="8.6" ry="10.3" fill="#6B7A4A" transform="rotate(156.0,666.1,535.8)" /><ellipse cx="626.9" cy="502.8" rx="7.3" ry="8.7" fill="#6B7A4A" transform="rotate(-19.1,626.9,502.8)" /><ellipse cx="656.0" cy="517.3" rx="11.9" ry="14.3" fill="#6B7A4A" transform="rotate(165.9,656.0,517.3)" /><ellipse cx="616.8" cy="532.1" rx="10.6" ry="12.7" fill="#6B7A4A" transform="rotate(-9.2,616.8,532.1)" /><ellipse cx="645.8" cy="546.7" rx="9.2" ry="11.1" fill="#6B7A4A" transform="rotate(175.8,645.8,546.7)" /><ellipse cx="674.9" cy="513.4" rx="7.9" ry="9.4" fill="#6B7A4A" transform="rotate(0.7,674.9,513.4)" /><ellipse cx="635.7" cy="528.2" rx="12.5" ry="15.0" fill="#6B7A4A" transform="rotate(-175.8,635.7,528.2)" /></g><g><ellipse cx="627.2" cy="555.6" rx="7.3" ry="10.4" fill="#57643C" transform="rotate(-6.4,627.2,555.6)" /><ellipse cx="608.7" cy="540.1" rx="6.3" ry="9.0" fill="#57643C" transform="rotate(178.6,608.7,540.1)" /><ellipse cx="622.4" cy="546.9" rx="5.4" ry="7.7" fill="#57643C" transform="rotate(3.5,622.4,546.9)" /><ellipse cx="604.0" cy="553.9" rx="8.6" ry="12.3" fill="#57643C" transform="rotate(-172.9,604.0,553.9)" /><ellipse cx="617.6" cy="538.2" rx="7.7" ry="11.0" fill="#6B7A4A" transform="rotate(13.4,617.6,538.2)" /><ellipse cx="631.3" cy="545.1" rx="6.7" ry="9.6" fill="#6B7A4A" transform="rotate(-163.1,631.3,545.1)" /><ellipse cx="612.9" cy="552.0" rx="5.8" ry="8.2" fill="#6B7A4A" transform="rotate(23.3,612.9,552.0)" /><ellipse cx="626.5" cy="558.9" rx="9.0" ry="12.9" fill="#6B7A4A" transform="rotate(-153.2,626.5,558.9)" /></g><g><ellipse cx="603.6" cy="543.5" rx="6.0" ry="8.6" fill="#57643C" transform="rotate(-143.3,603.6,543.5)" /><ellipse cx="585.2" cy="550.5" rx="5.1" ry="7.3" fill="#57643C" transform="rotate(43.1,585.2,550.5)" /><ellipse cx="598.9" cy="557.3" rx="8.3" ry="11.9" fill="#57643C" transform="rotate(-133.4,598.9,557.3)" /><ellipse cx="612.5" cy="564.2" rx="7.4" ry="10.6" fill="#57643C" transform="rotate(52.9,612.5,564.2)" /><ellipse cx="594.1" cy="548.6" rx="6.4" ry="9.2" fill="#6B7A4A" transform="rotate(-123.5,594.1,548.6)" /><ellipse cx="607.8" cy="555.5" rx="5.5" ry="7.8" fill="#6B7A4A" transform="rotate(62.8,607.8,555.5)" /><ellipse cx="589.3" cy="562.4" rx="8.8" ry="12.5" fill="#6B7A4A" transform="rotate(-113.6,589.3,562.4)" /><ellipse cx="603.0" cy="546.8" rx="7.8" ry="11.2" fill="#6B7A4A" transform="rotate(72.7,603.0,546.8)" /></g><path d="M494.1,551.5 C492.4,551.9 480.5,556.7 473.8,556.6 C467.1,556.5 424.7,552.8 414.0,550.3 C403.4,547.8 351.6,528.9 346.0,526.9 C345.9,527.2 339.4,527.1 344.9,529.7 C350.4,532.3 401.2,554.9 411.9,558.2 C422.6,561.5 466.0,568.4 473.1,569.0 C480.2,569.7 494.8,566.5 496.8,566.2 Z" fill="#6B5A48" /><g><ellipse cx="336.2" cy="506.9" rx="9.2" ry="11.1" fill="#57643C" transform="rotate(-165.9,336.2,506.9)" /><ellipse cx="365.3" cy="521.5" rx="7.8" ry="9.4" fill="#57643C" transform="rotate(20.5,365.3,521.5)" /><ellipse cx="326.1" cy="536.2" rx="12.5" ry="15.0" fill="#57643C" transform="rotate(-156.0,326.1,536.2)" /><ellipse cx="355.2" cy="503.0" rx="11.2" ry="13.4" fill="#57643C" transform="rotate(30.4,355.2,503.0)" /><ellipse cx="316.0" cy="517.7" rx="9.8" ry="11.8" fill="#57643C" transform="rotate(-146.1,316.0,517.7)" /><ellipse cx="345.0" cy="532.3" rx="8.4" ry="10.1" fill="#57643C" transform="rotate(40.2,345.0,532.3)" /><ellipse cx="374.1" cy="546.8" rx="7.1" ry="8.5" fill="#57643C" transform="rotate(-134.8,374.1,546.8)" /><ellipse cx="334.9" cy="513.8" rx="11.8" ry="14.1" fill="#6B7A4A" transform="rotate(50.1,334.9,513.8)" /><ellipse cx="364.0" cy="528.4" rx="10.4" ry="12.5" fill="#6B7A4A" transform="rotate(-124.9,364.0,528.4)" /><ellipse cx="324.8" cy="543.1" rx="9.0" ry="10.8" fill="#6B7A4A" transform="rotate(60.0,324.8,543.1)" /><ellipse cx="353.8" cy="509.9" rx="7.7" ry="9.2" fill="#6B7A4A" transform="rotate(-115.1,353.8,509.9)" /><ellipse cx="314.6" cy="524.6" rx="12.3" ry="14.8" fill="#6B7A4A" transform="rotate(69.9,314.6,524.6)" /><ellipse cx="343.7" cy="539.2" rx="11.0" ry="13.2" fill="#6B7A4A" transform="rotate(-105.2,343.7,539.2)" /><ellipse cx="372.8" cy="506.0" rx="9.6" ry="11.6" fill="#6B7A4A" transform="rotate(79.8,372.8,506.0)" /><ellipse cx="333.6" cy="520.7" rx="8.3" ry="9.9" fill="#6B7A4A" transform="rotate(-95.3,333.6,520.7)" /></g><g><ellipse cx="371.6" cy="538.9" rx="7.4" ry="10.5" fill="#57643C" transform="rotate(2.1,371.6,538.9)" /><ellipse cx="385.3" cy="545.8" rx="6.4" ry="9.2" fill="#57643C" transform="rotate(-174.4,385.3,545.8)" /><ellipse cx="366.8" cy="552.7" rx="5.5" ry="7.8" fill="#57643C" transform="rotate(12.0,366.8,552.7)" /><ellipse cx="380.5" cy="537.1" rx="8.7" ry="12.5" fill="#57643C" transform="rotate(-164.5,380.5,537.1)" /><ellipse cx="362.1" cy="544.0" rx="7.8" ry="11.1" fill="#6B7A4A" transform="rotate(21.9,362.1,544.0)" /><ellipse cx="375.8" cy="550.9" rx="6.8" ry="9.8" fill="#6B7A4A" transform="rotate(-154.6,375.8,550.9)" /><ellipse cx="389.4" cy="557.7" rx="5.9" ry="8.4" fill="#6B7A4A" transform="rotate(31.8,389.4,557.7)" /><ellipse cx="371.0" cy="542.2" rx="4.9" ry="7.0" fill="#6B7A4A" transform="rotate(-143.3,371.0,542.2)" /></g><g><ellipse cx="378.1" cy="549.3" rx="6.1" ry="8.8" fill="#57643C" transform="rotate(-134.8,378.1,549.3)" /><ellipse cx="391.8" cy="556.2" rx="5.2" ry="7.4" fill="#57643C" transform="rotate(51.5,391.8,556.2)" /><ellipse cx="405.4" cy="563.0" rx="8.4" ry="12.1" fill="#57643C" transform="rotate(-124.9,405.4,563.0)" /><ellipse cx="387.0" cy="547.5" rx="7.5" ry="10.7" fill="#57643C" transform="rotate(61.4,387.0,547.5)" /><ellipse cx="400.7" cy="554.3" rx="6.5" ry="9.4" fill="#6B7A4A" transform="rotate(-115.1,400.7,554.3)" /><ellipse cx="382.2" cy="561.3" rx="5.6" ry="8.0" fill="#6B7A4A" transform="rotate(71.3,382.2,561.3)" /><ellipse cx="395.9" cy="545.6" rx="8.9" ry="12.7" fill="#6B7A4A" transform="rotate(-105.2,395.9,545.6)" /><ellipse cx="377.4" cy="552.6" rx="7.9" ry="11.3" fill="#6B7A4A" transform="rotate(81.2,377.4,552.6)" /></g><path d="M494.1,566.2 C496.1,566.5 511.1,570.2 518.2,569.0 C525.3,567.9 568.5,556.1 579.2,552.4 C589.8,548.7 640.4,526.5 646.0,524.2 C645.9,523.9 650.7,519.7 644.9,521.4 C639.1,523.1 587.4,541.6 576.7,544.6 C566.0,547.5 523.3,556.1 516.7,556.7 C510.0,557.3 498.4,551.9 496.8,551.5 Z" fill="#6B5A48" /><g><ellipse cx="675.7" cy="537.1" rx="12.0" ry="14.4" fill="#57643C" transform="rotate(-26.1,675.7,537.1)" /><ellipse cx="636.5" cy="504.1" rx="10.6" ry="12.8" fill="#57643C" transform="rotate(160.2,636.5,504.1)" /><ellipse cx="665.6" cy="518.7" rx="9.3" ry="11.1" fill="#57643C" transform="rotate(-16.2,665.6,518.7)" /><ellipse cx="626.4" cy="533.4" rx="7.9" ry="9.5" fill="#57643C" transform="rotate(170.1,626.4,533.4)" /><ellipse cx="655.4" cy="548.0" rx="12.6" ry="15.1" fill="#57643C" transform="rotate(-6.4,655.4,548.0)" /><ellipse cx="616.2" cy="514.9" rx="11.2" ry="13.5" fill="#57643C" transform="rotate(180.0,616.2,514.9)" /><ellipse cx="645.3" cy="529.5" rx="9.9" ry="11.8" fill="#57643C" transform="rotate(3.5,645.3,529.5)" /><ellipse cx="674.4" cy="544.0" rx="8.5" ry="10.2" fill="#6B7A4A" transform="rotate(-171.5,674.4,544.0)" /><ellipse cx="635.2" cy="511.0" rx="7.2" ry="8.6" fill="#6B7A4A" transform="rotate(14.8,635.2,511.0)" /><ellipse cx="664.2" cy="525.6" rx="11.8" ry="14.2" fill="#6B7A4A" transform="rotate(-161.6,664.2,525.6)" /><ellipse cx="625.0" cy="540.3" rx="10.5" ry="12.6" fill="#6B7A4A" transform="rotate(24.7,625.0,540.3)" /><ellipse cx="654.1" cy="507.1" rx="9.1" ry="10.9" fill="#6B7A4A" transform="rotate(-151.8,654.1,507.1)" /><ellipse cx="614.9" cy="521.8" rx="7.8" ry="9.3" fill="#6B7A4A" transform="rotate(34.6,614.9,521.8)" /><ellipse cx="644.0" cy="536.4" rx="12.4" ry="14.9" fill="#6B7A4A" transform="rotate(-141.9,644.0,536.4)" /><ellipse cx="673.0" cy="503.2" rx="11.1" ry="13.3" fill="#6B7A4A" transform="rotate(44.5,673.0,503.2)" /></g><g><ellipse cx="628.2" cy="544.6" rx="7.5" ry="10.7" fill="#57643C" transform="rotate(10.6,628.2,544.6)" /><ellipse cx="609.7" cy="551.6" rx="6.5" ry="9.3" fill="#57643C" transform="rotate(-165.9,609.7,551.6)" /><ellipse cx="623.4" cy="558.4" rx="5.6" ry="7.9" fill="#57643C" transform="rotate(20.5,623.4,558.4)" /><ellipse cx="605.0" cy="542.9" rx="8.8" ry="12.6" fill="#57643C" transform="rotate(-156.0,605.0,542.9)" /><ellipse cx="618.6" cy="549.7" rx="7.9" ry="11.3" fill="#6B7A4A" transform="rotate(30.4,618.6,549.7)" /><ellipse cx="600.2" cy="556.7" rx="6.9" ry="9.9" fill="#6B7A4A" transform="rotate(-146.1,600.2,556.7)" /><ellipse cx="613.9" cy="541.0" rx="6.0" ry="8.6" fill="#6B7A4A" transform="rotate(40.2,613.9,541.0)" /><ellipse cx="627.5" cy="547.9" rx="5.0" ry="7.2" fill="#6B7A4A" transform="rotate(-134.8,627.5,547.9)" /></g><g><ellipse cx="604.6" cy="555.0" rx="6.2" ry="8.9" fill="#57643C" transform="rotate(-126.4,604.6,555.0)" /><ellipse cx="586.2" cy="562.0" rx="5.3" ry="7.5" fill="#57643C" transform="rotate(60.0,586.2,562.0)" /><ellipse cx="599.9" cy="546.3" rx="8.6" ry="12.2" fill="#57643C" transform="rotate(-116.5,599.9,546.3)" /><ellipse cx="613.6" cy="553.2" rx="7.6" ry="10.9" fill="#57643C" transform="rotate(69.9,613.6,553.2)" /><ellipse cx="595.1" cy="560.1" rx="6.6" ry="9.5" fill="#6B7A4A" transform="rotate(-106.6,595.1,560.1)" /><ellipse cx="608.8" cy="544.5" rx="5.7" ry="8.2" fill="#6B7A4A" transform="rotate(79.8,608.8,544.5)" /><ellipse cx="590.3" cy="551.4" rx="9.0" ry="12.8" fill="#6B7A4A" transform="rotate(-96.7,590.3,551.4)" /><ellipse cx="604.0" cy="558.3" rx="8.0" ry="11.4" fill="#6B7A4A" transform="rotate(89.6,604.0,558.3)" /></g><path d="M494.0,550.6 C492.3,551.1 480.1,556.3 474.1,555.8 C468.1,555.3 431.7,547.1 422.3,544.7 C412.8,542.3 365.9,528.5 360.8,527.0 C360.7,527.3 354.9,527.7 359.9,529.9 C364.8,532.0 410.5,549.4 419.9,552.6 C429.3,555.8 466.2,567.1 472.6,568.2 C479.0,569.2 494.7,565.6 496.7,565.4 Z" fill="#6B5A48" /><g><ellipse cx="376.7" cy="550.0" rx="10.8" ry="13.0" fill="#57643C" transform="rotate(-127.8,376.7,550.0)" /><ellipse cx="337.5" cy="517.0" rx="9.5" ry="11.4" fill="#57643C" transform="rotate(57.2,337.5,517.0)" /><ellipse cx="366.6" cy="531.6" rx="8.1" ry="9.7" fill="#57643C" transform="rotate(-117.9,366.6,531.6)" /><ellipse cx="327.4" cy="546.3" rx="12.8" ry="15.3" fill="#57643C" transform="rotate(67.1,327.4,546.3)" /><ellipse cx="356.5" cy="513.1" rx="11.4" ry="13.7" fill="#57643C" transform="rotate(-108.0,356.5,513.1)" /><ellipse cx="385.5" cy="527.6" rx="10.1" ry="12.1" fill="#57643C" transform="rotate(78.4,385.5,527.6)" /><ellipse cx="346.3" cy="542.4" rx="8.7" ry="10.4" fill="#57643C" transform="rotate(-98.1,346.3,542.4)" /><ellipse cx="375.4" cy="509.2" rx="7.4" ry="8.8" fill="#6B7A4A" transform="rotate(88.2,375.4,509.2)" /><ellipse cx="336.2" cy="523.9" rx="12.0" ry="14.4" fill="#6B7A4A" transform="rotate(-88.2,336.2,523.9)" /><ellipse cx="365.3" cy="538.5" rx="10.6" ry="12.8" fill="#6B7A4A" transform="rotate(98.1,365.3,538.5)" /><ellipse cx="394.3" cy="505.2" rx="9.3" ry="11.2" fill="#6B7A4A" transform="rotate(-78.4,394.3,505.2)" /><ellipse cx="355.1" cy="520.0" rx="7.9" ry="9.5" fill="#6B7A4A" transform="rotate(108.0,355.1,520.0)" /><ellipse cx="384.2" cy="534.6" rx="12.6" ry="15.1" fill="#6B7A4A" transform="rotate(-68.5,384.2,534.6)" /><ellipse cx="345.0" cy="549.3" rx="11.2" ry="13.5" fill="#6B7A4A" transform="rotate(117.9,345.0,549.3)" /><ellipse cx="374.1" cy="516.1" rx="9.9" ry="11.9" fill="#6B7A4A" transform="rotate(-58.6,374.1,516.1)" /></g><g><ellipse cx="387.5" cy="552.9" rx="7.6" ry="10.8" fill="#57643C" transform="rotate(19.1,387.5,552.9)" /><ellipse cx="401.2" cy="559.7" rx="6.6" ry="9.4" fill="#57643C" transform="rotate(-157.4,401.2,559.7)" /><ellipse cx="382.8" cy="544.2" rx="5.7" ry="8.1" fill="#57643C" transform="rotate(28.9,382.8,544.2)" /><ellipse cx="396.4" cy="551.0" rx="8.9" ry="12.8" fill="#57643C" transform="rotate(-147.5,396.4,551.0)" /><ellipse cx="378.0" cy="558.0" rx="8.0" ry="11.4" fill="#6B7A4A" transform="rotate(38.8,378.0,558.0)" /><ellipse cx="391.7" cy="542.4" rx="7.0" ry="10.1" fill="#6B7A4A" transform="rotate(-136.2,391.7,542.4)" /><ellipse cx="405.3" cy="549.2" rx="6.1" ry="8.7" fill="#6B7A4A" transform="rotate(48.7,405.3,549.2)" /><ellipse cx="386.9" cy="556.1" rx="5.1" ry="7.3" fill="#6B7A4A" transform="rotate(-126.4,386.9,556.1)" /></g><path d="M494.1,566.2 C496.1,566.4 512.1,570.3 518.5,569.0 C524.9,567.6 561.4,552.8 570.8,549.8 C580.1,546.8 625.8,534.3 630.8,532.8 C630.7,532.6 635.3,529.2 630.1,529.9 C624.9,530.7 578.1,539.6 568.6,541.9 C559.1,544.1 522.3,555.9 516.4,556.7 C510.4,557.5 498.4,551.9 496.8,551.5 Z" fill="#6B5A48" /><g><ellipse cx="644.7" cy="543.4" rx="12.6" ry="15.1" fill="#57643C" transform="rotate(-48.7,644.7,543.4)" /><ellipse cx="605.5" cy="510.4" rx="11.2" ry="13.5" fill="#57643C" transform="rotate(137.6,605.5,510.4)" /><ellipse cx="634.6" cy="524.9" rx="9.9" ry="11.8" fill="#57643C" transform="rotate(-38.8,634.6,524.9)" /><ellipse cx="663.6" cy="539.5" rx="8.5" ry="10.2" fill="#57643C" transform="rotate(147.5,663.6,539.5)" /><ellipse cx="624.4" cy="506.5" rx="7.2" ry="8.6" fill="#57643C" transform="rotate(-27.5,624.4,506.5)" /><ellipse cx="653.5" cy="521.0" rx="11.8" ry="14.2" fill="#57643C" transform="rotate(157.4,653.5,521.0)" /><ellipse cx="614.3" cy="535.8" rx="10.5" ry="12.6" fill="#57643C" transform="rotate(-17.6,614.3,535.8)" /><ellipse cx="643.4" cy="550.3" rx="9.1" ry="10.9" fill="#6B7A4A" transform="rotate(167.3,643.4,550.3)" /><ellipse cx="604.2" cy="517.3" rx="7.8" ry="9.3" fill="#6B7A4A" transform="rotate(-7.8,604.2,517.3)" /><ellipse cx="633.2" cy="531.8" rx="12.4" ry="14.9" fill="#6B7A4A" transform="rotate(177.2,633.2,531.8)" /><ellipse cx="662.3" cy="546.4" rx="11.0" ry="13.3" fill="#6B7A4A" transform="rotate(2.1,662.3,546.4)" /><ellipse cx="623.1" cy="513.4" rx="9.7" ry="11.6" fill="#6B7A4A" transform="rotate(-174.4,623.1,513.4)" /><ellipse cx="652.2" cy="527.9" rx="8.3" ry="10.0" fill="#6B7A4A" transform="rotate(12.0,652.2,527.9)" /><ellipse cx="613.0" cy="542.7" rx="13.0" ry="15.6" fill="#6B7A4A" transform="rotate(-164.5,613.0,542.7)" /><ellipse cx="642.0" cy="509.4" rx="11.7" ry="14.0" fill="#6B7A4A" transform="rotate(21.9,642.0,509.4)" /></g><g><ellipse cx="614.2" cy="559.4" rx="7.7" ry="11.0" fill="#57643C" transform="rotate(27.5,614.2,559.4)" /><ellipse cx="595.7" cy="543.9" rx="6.7" ry="9.6" fill="#57643C" transform="rotate(-148.9,595.7,543.9)" /><ellipse cx="609.4" cy="550.7" rx="5.8" ry="8.2" fill="#57643C" transform="rotate(37.4,609.4,550.7)" /><ellipse cx="591.0" cy="557.7" rx="9.0" ry="12.9" fill="#57643C" transform="rotate(-139.1,591.0,557.7)" /><ellipse cx="604.6" cy="542.0" rx="8.1" ry="11.6" fill="#6B7A4A" transform="rotate(47.3,604.6,542.0)" /><ellipse cx="586.2" cy="549.0" rx="7.1" ry="10.2" fill="#6B7A4A" transform="rotate(-127.8,586.2,549.0)" /><ellipse cx="599.9" cy="555.8" rx="6.2" ry="8.8" fill="#6B7A4A" transform="rotate(57.2,599.9,555.8)" /><ellipse cx="613.6" cy="540.2" rx="5.2" ry="7.5" fill="#6B7A4A" transform="rotate(-117.9,613.6,540.2)" /></g><path d="M492.3,540.9 C490.7,541.3 478.7,546.9 472.7,546.1 C466.8,545.3 430.1,534.1 420.7,531.4 C411.2,528.8 364.2,515.9 359.1,514.5 C359.0,514.8 353.3,515.3 358.2,517.4 C363.1,519.5 408.8,535.8 418.2,539.2 C427.5,542.7 464.2,557.0 470.6,558.4 C477.0,559.7 493.0,555.9 495.0,555.6 Z" fill="#6B5A48" /><g><ellipse cx="359.1" cy="495.5" rx="11.4" ry="13.7" fill="#57643C" transform="rotate(-150.4,359.1,495.5)" /><ellipse cx="388.1" cy="510.1" rx="10.1" ry="12.1" fill="#57643C" transform="rotate(36.0,388.1,510.1)" /><ellipse cx="348.9" cy="524.8" rx="8.7" ry="10.4" fill="#57643C" transform="rotate(-140.5,348.9,524.8)" /><ellipse cx="378.0" cy="539.4" rx="7.3" ry="8.8" fill="#57643C" transform="rotate(45.9,378.0,539.4)" /><ellipse cx="338.8" cy="506.3" rx="12.0" ry="14.4" fill="#57643C" transform="rotate(-130.6,338.8,506.3)" /><ellipse cx="367.9" cy="520.9" rx="10.6" ry="12.8" fill="#57643C" transform="rotate(55.8,367.9,520.9)" /><ellipse cx="328.7" cy="535.6" rx="9.3" ry="11.1" fill="#57643C" transform="rotate(-120.7,328.7,535.6)" /><ellipse cx="357.7" cy="502.4" rx="7.9" ry="9.5" fill="#6B7A4A" transform="rotate(65.6,357.7,502.4)" /><ellipse cx="386.8" cy="517.0" rx="12.6" ry="15.1" fill="#6B7A4A" transform="rotate(-110.8,386.8,517.0)" /><ellipse cx="347.6" cy="531.7" rx="11.2" ry="13.5" fill="#6B7A4A" transform="rotate(75.5,347.6,531.7)" /><ellipse cx="376.7" cy="498.5" rx="9.9" ry="11.9" fill="#6B7A4A" transform="rotate(-100.9,376.7,498.5)" /><ellipse cx="337.5" cy="513.2" rx="8.5" ry="10.2" fill="#6B7A4A" transform="rotate(85.4,337.5,513.2)" /><ellipse cx="366.5" cy="527.8" rx="7.2" ry="8.6" fill="#6B7A4A" transform="rotate(-89.6,366.5,527.8)" /><ellipse cx="327.3" cy="494.7" rx="11.8" ry="14.2" fill="#6B7A4A" transform="rotate(95.3,327.3,494.7)" /><ellipse cx="356.4" cy="509.3" rx="10.5" ry="12.6" fill="#6B7A4A" transform="rotate(-79.8,356.4,509.3)" /></g><g><ellipse cx="386.8" cy="532.2" rx="7.8" ry="11.1" fill="#57643C" transform="rotate(36.0,386.8,532.2)" /><ellipse cx="400.5" cy="539.0" rx="6.8" ry="9.8" fill="#57643C" transform="rotate(-140.5,400.5,539.0)" /><ellipse cx="382.1" cy="546.0" rx="5.9" ry="8.4" fill="#57643C" transform="rotate(45.9,382.1,546.0)" /><ellipse cx="395.8" cy="530.3" rx="4.9" ry="7.0" fill="#57643C" transform="rotate(-129.2,395.8,530.3)" /><ellipse cx="377.3" cy="537.3" rx="8.2" ry="11.7" fill="#6B7A4A" transform="rotate(55.8,377.3,537.3)" /><ellipse cx="391.0" cy="544.1" rx="7.2" ry="10.3" fill="#6B7A4A" transform="rotate(-119.3,391.0,544.1)" /><ellipse cx="404.7" cy="551.0" rx="6.3" ry="9.0" fill="#6B7A4A" transform="rotate(65.6,404.7,551.0)" /><ellipse cx="386.2" cy="535.4" rx="5.3" ry="7.6" fill="#6B7A4A" transform="rotate(-109.4,386.2,535.4)" /></g><path d="M486.9,539.1 C488.9,539.4 504.9,543.2 511.3,541.9 C517.7,540.5 554.3,526.0 563.6,522.9 C573.0,519.8 618.6,505.7 623.6,504.1 C623.6,503.9 628.0,500.3 622.8,501.2 C617.7,502.1 570.8,512.7 561.3,515.0 C551.9,517.4 515.2,528.9 509.2,529.6 C503.2,530.4 491.2,524.8 489.6,524.4 Z" fill="#6B5A48" /><g><ellipse cx="609.8" cy="489.4" rx="10.2" ry="12.3" fill="#57643C" transform="rotate(109.4,609.8,489.4)" /><ellipse cx="638.8" cy="504.0" rx="8.9" ry="10.7" fill="#57643C" transform="rotate(-67.1,638.8,504.0)" /><ellipse cx="599.6" cy="518.8" rx="7.5" ry="9.0" fill="#57643C" transform="rotate(119.3,599.6,518.8)" /><ellipse cx="628.7" cy="485.5" rx="12.2" ry="14.6" fill="#57643C" transform="rotate(-57.2,628.7,485.5)" /><ellipse cx="589.5" cy="500.3" rx="10.8" ry="13.0" fill="#57643C" transform="rotate(129.2,589.5,500.3)" /><ellipse cx="618.6" cy="514.8" rx="9.5" ry="11.4" fill="#57643C" transform="rotate(-47.3,618.6,514.8)" /><ellipse cx="647.6" cy="481.6" rx="8.1" ry="9.8" fill="#57643C" transform="rotate(139.1,647.6,481.6)" /><ellipse cx="608.4" cy="496.4" rx="12.8" ry="15.3" fill="#6B7A4A" transform="rotate(-37.4,608.4,496.4)" /><ellipse cx="637.5" cy="510.9" rx="11.4" ry="13.7" fill="#6B7A4A" transform="rotate(148.9,637.5,510.9)" /><ellipse cx="598.3" cy="525.7" rx="10.1" ry="12.1" fill="#6B7A4A" transform="rotate(-26.1,598.3,525.7)" /><ellipse cx="627.4" cy="492.4" rx="8.7" ry="10.5" fill="#6B7A4A" transform="rotate(158.8,627.4,492.4)" /><ellipse cx="656.4" cy="507.0" rx="7.4" ry="8.8" fill="#6B7A4A" transform="rotate(-16.2,656.4,507.0)" /><ellipse cx="617.2" cy="521.7" rx="12.0" ry="14.4" fill="#6B7A4A" transform="rotate(168.7,617.2,521.7)" /><ellipse cx="646.3" cy="488.5" rx="10.7" ry="12.8" fill="#6B7A4A" transform="rotate(-6.4,646.3,488.5)" /><ellipse cx="607.1" cy="503.3" rx="9.3" ry="11.2" fill="#6B7A4A" transform="rotate(178.6,607.1,503.3)" /></g><g><ellipse cx="608.0" cy="521.4" rx="7.9" ry="11.3" fill="#57643C" transform="rotate(44.5,608.0,521.4)" /><ellipse cx="589.5" cy="528.3" rx="6.9" ry="9.9" fill="#57643C" transform="rotate(-132.0,589.5,528.3)" /><ellipse cx="603.2" cy="535.2" rx="6.0" ry="8.5" fill="#57643C" transform="rotate(54.4,603.2,535.2)" /><ellipse cx="584.8" cy="519.6" rx="5.0" ry="7.2" fill="#57643C" transform="rotate(-120.7,584.8,519.6)" /><ellipse cx="598.4" cy="526.5" rx="8.3" ry="11.8" fill="#6B7A4A" transform="rotate(64.2,598.4,526.5)" /><ellipse cx="580.0" cy="533.4" rx="7.3" ry="10.5" fill="#6B7A4A" transform="rotate(-110.8,580.0,533.4)" /><ellipse cx="593.7" cy="517.8" rx="6.4" ry="9.1" fill="#6B7A4A" transform="rotate(74.1,593.7,517.8)" /><ellipse cx="607.3" cy="524.6" rx="5.4" ry="7.8" fill="#6B7A4A" transform="rotate(-100.9,607.3,524.6)" /></g><g><ellipse cx="478.9" cy="387.3" rx="12.5" ry="14.8" fill="#57643C" transform="rotate(19.1,478.9,387.3)" /><ellipse cx="518.2" cy="407.0" rx="11.0" ry="13.0" fill="#57643C" transform="rotate(-157.4,518.2,407.0)" /><ellipse cx="465.2" cy="427.0" rx="9.5" ry="11.2" fill="#57643C" transform="rotate(28.9,465.2,427.0)" /><ellipse cx="504.5" cy="446.7" rx="8.0" ry="9.4" fill="#57643C" transform="rotate(-146.1,504.5,446.7)" /><ellipse cx="451.4" cy="402.0" rx="13.1" ry="15.5" fill="#57643C" transform="rotate(38.8,451.4,402.0)" /><ellipse cx="490.8" cy="421.7" rx="11.6" ry="13.7" fill="#57643C" transform="rotate(-136.2,490.8,421.7)" /><ellipse cx="530.1" cy="441.4" rx="10.1" ry="12.0" fill="#57643C" transform="rotate(48.7,530.1,441.4)" /><ellipse cx="477.1" cy="396.7" rx="8.7" ry="10.2" fill="#57643C" transform="rotate(-126.4,477.1,396.7)" /><ellipse cx="516.4" cy="416.4" rx="13.8" ry="16.3" fill="#57643C" transform="rotate(58.6,516.4,416.4)" /><ellipse cx="463.4" cy="436.3" rx="12.3" ry="14.5" fill="#57643C" transform="rotate(-116.5,463.4,436.3)" /><ellipse cx="502.7" cy="391.4" rx="10.8" ry="12.8" fill="#6B7A4A" transform="rotate(68.5,502.7,391.4)" /><ellipse cx="449.6" cy="411.3" rx="9.3" ry="11.0" fill="#6B7A4A" transform="rotate(-106.6,449.6,411.3)" /><ellipse cx="489.0" cy="431.0" rx="7.8" ry="9.2" fill="#6B7A4A" transform="rotate(79.8,489.0,431.0)" /><ellipse cx="528.3" cy="386.1" rx="13.0" ry="15.3" fill="#6B7A4A" transform="rotate(-96.7,528.3,386.1)" /><ellipse cx="475.3" cy="406.0" rx="11.5" ry="13.5" fill="#6B7A4A" transform="rotate(89.6,475.3,406.0)" /><ellipse cx="514.6" cy="425.7" rx="10.0" ry="11.8" fill="#6B7A4A" transform="rotate(-86.8,514.6,425.7)" /><ellipse cx="461.5" cy="445.7" rx="8.5" ry="10.0" fill="#6B7A4A" transform="rotate(99.5,461.5,445.7)" /><ellipse cx="500.9" cy="400.7" rx="13.6" ry="16.1" fill="#6B7A4A" transform="rotate(-76.9,500.9,400.7)" /><ellipse cx="447.8" cy="420.7" rx="12.1" ry="14.3" fill="#6B7A4A" transform="rotate(109.4,447.8,420.7)" /><ellipse cx="487.2" cy="440.4" rx="10.6" ry="12.5" fill="#6B7A4A" transform="rotate(-67.1,487.2,440.4)" /></g><path d="M486.0,598.0 Q470.0,607.0 464.0,600.0" stroke="#3D3328" stroke-width="4.2" fill="none" stroke-linecap="round" opacity="0.85" /></svg>