<svg xmlns="http://www.w3.org/2000/svg" viewBox="0 0 1000 800" preserveAspectRatio="xMidYMid meet" role="img" aria-label="bonsai-cc tree"><defs><linearGradient id="bcc-sky" x1="0" y1="0" x2="0" y2="1"><stop offset="0%" stop-color="#F4F3EE" /><stop offset="100%" stop-color="#E8E5DC" /></linearGradient><linearGradient id="bcc-ground" x1="0" y1="0" x2="0" y2="1"><stop offset="0%" stop-color="#E8E5DC" /><stop offset="100%" stop-color="#B1ADA1" /></linearGradient><linearGradient id="bcc-pot" x1="0" y1="0" x2="0" y2="1"><stop offset="0%" stop-color="#8E3D24" /><stop offset="100%" stop-color="#3D3328" /></linearGradient><linearGradient id="sky" x1="0" y1="0" x2="0" y2="1"><stop offset="0%" stop-color="#F4F3EE" /><stop offset="100%" stop-color="#E8E5DC" /></linearGradient><linearGradient id="ground" x1="0" y1="0" x2="0" y2="1"><stop offset="0%" stop-color="#E8E5DC" /><stop offset="100%" stop-color="#B1ADA1" /></linearGradient><radialGradient id="sun" cx="0.5" cy="0.5" r="0.5"><stop offset="0%" stop-color="#C15F3C" stop-opacity="0.55" /><stop offset="70%" stop-color="#C15F3C" stop-opacity="0.20" /><stop offset="100%" stop-color="#C15F3C" stop-opacity="0" /></radialGradient><radialGradient id="moon" cx="0.45" cy="0.45" r="0.55"><stop offset="0%" stop-color="#F4F3EE" stop-opacity="0.85" /><stop offset="100%" stop-color="#F4F3EE" stop-opacity="0.35" /></radialGradient><radialGradient id="pot-shadow" cx="0.5" cy="0.5" r="0.5"><stop offset="0%" stop-color="#191919" stop-opacity="0.18" /><stop offset="100%" stop-color="#191919" stop-opacity="0" /></radialGradient></defs><rect x="0" y="0" width="1000" height="600" fill="url(#bcc-sky)" /><circle cx="780" cy="180" r="80" fill="url(#sun)" /><circle cx="780" cy="180" r="28" fill="#C15F3C" fill-opacity="0.55" /><rect x="0" y="600" width="1000" height="200" fill="url(#bcc-ground)" /><ellipse cx="500" cy="728" rx="190" ry="22" fill="url(#pot-shadow)" /><path d="M340,600 Q336,608 344,618 L370,700 Q376,710 384,710 L616,710 Q624,710 630,700 L656,618 Q664,608 660,600 Z" fill="url(#bcc-pot)" /><path d="M350,622 Q500,626 650,622" stroke="#3D3328" stroke-width="1.5" fill="none" stroke-linecap="round" opacity="0.55" /><ellipse cx="500" cy="602" rx="152" ry="8" fill="#3D3328" /><circle cx="430" cy="601" r="4" fill="#B1ADA1" opacity="0.7" /><circle cx="530" cy="603" r="3" fill="#B1ADA1" opacity="0.55" /><circle cx="590" cy="601" r="3.5" fill="#B1ADA1" opacity="0.7" /><path d="M526.0,600.9 C525.9,596.8 524.9,559.5 524.8,551.9 C524.7,544.3 526.4,521.1 524.9,510.1 C523.5,499.1 509.1,427.2 507.7,419.6 C506.9,419.7 498.9,412.8 497.7,420.4 C496.5,427.9 494.8,499.3 493.2,509.9 C491.6,520.5 480.4,539.9 478.8,547.3 C477.2,554.7 474.4,594.8 474.0,599.1 Z" fill="#6B5A48" /><path d="M494.0,599.8 C494.2,595.6 496.0,556.6 496.9,549.1 C497.9,541.6 505.0,520.7 505.3,510.0 C505.5,499.2 500.5,427.7 500.0,420.2" stroke="#3D3328" stroke-width="5.0" fill="none" opacity="0.40" stroke-linecap="round" /><line x1="509.0" y1="582.5" x2="509.4" y2="571.1" stroke="#3D3328" stroke-width="1.1" stroke-linecap="round" opacity="0.45" /><line x1="507.6" y1="540.8" x2="509.4" y2="531.0" stroke="#3D3328" stroke-width="1.1" stroke-linecap="round" opacity="0.45" /><line x1="513.7" y1="490.3" x2="513.1" y2="481.7" stroke="#3D3328" stroke-width="1.1" stroke-linecap="round" opacity="0.45" /><line x1="509.3" y1="552.6" x2="510.6" y2="545.4" stroke="#3D3328" stroke-width="1.1" stroke-linecap="round" opacity="0.45" /><line x1="517.1" y1="519.6" x2="519.3" y2="507.9" stroke="#3D3328" stroke-width="1.1" stroke-linecap="round" opacity="0.45" /><line x1="506.7" y1="568.3" x2="507.1" y2="557.7" stroke="#3D3328" stroke-width="1.1" stroke-linecap="round" opacity="0.45" /><line x1="495.2" y1="574.7" x2="495.6" y2="564.6" stroke="#3D3328" stroke-width="1.1" stroke-linecap="round" opacity="0.30" /><line x1="497.2" y1="532.9" x2="498.8" y2="524.3" stroke="#3D3328" stroke-width="1.1" stroke-linecap="round" opacity="0.30" /><line x1="497.5" y1="478.9" x2="497.0" y2="471.6" stroke="#3D3328" stroke-width="1.1" stroke-linecap="round" opacity="0.30" /><line x1="496.9" y1="547.3" x2="499.1" y2="535.5" stroke="#3D3328" stroke-width="1.1" stroke-linecap="round" opacity="0.30" /><path d="M500.4,547.8 C498.7,548.2 487.2,553.0 480.0,552.8 C472.8,552.6 425.3,548.3 413.6,545.2 C402.0,542.2 346.3,518.6 340.2,516.1 C340.1,516.4 333.1,515.8 339.0,518.9 C345.0,521.9 399.8,548.9 411.4,552.7 C423.1,556.5 471.6,563.7 479.3,564.4 C486.9,565.2 500.9,561.8 502.9,561.5 Z" fill="#6B5A48" /><g><ellipse cx="336.0" cy="531.2" rx="9.0" ry="10.9" fill="#6B7A4A" transform="rotate(-61.4,336.0,531.2)" /><ellipse cx="363.3" cy="499.9" rx="7.7" ry="9.2" fill="#6B7A4A" transform="rotate(124.9,363.3,499.9)" /><ellipse cx="326.5" cy="513.8" rx="12.4" ry="14.8" fill="#6B7A4A" transform="rotate(-51.5,326.5,513.8)" /><ellipse cx="353.8" cy="527.5" rx="11.0" ry="13.2" fill="#6B7A4A" transform="rotate(134.8,353.8,527.5)" /><ellipse cx="316.9" cy="541.4" rx="9.6" ry="11.6" fill="#6B7A4A" transform="rotate(-41.6,316.9,541.4)" /><ellipse cx="344.3" cy="510.1" rx="8.3" ry="10.0" fill="#6B7A4A" transform="rotate(144.7,344.3,510.1)" /><ellipse cx="371.6" cy="523.8" rx="13.0" ry="15.5" fill="#6B7A4A" transform="rotate(-31.8,371.6,523.8)" /><ellipse cx="334.7" cy="537.7" rx="11.6" ry="13.9" fill="#7A8C5C" transform="rotate(154.6,334.7,537.7)" /><ellipse cx="362.1" cy="506.4" rx="10.2" ry="12.3" fill="#7A8C5C" transform="rotate(-20.5,362.1,506.4)" /><ellipse cx="325.2" cy="520.3" rx="8.9" ry="10.7" fill="#7A8C5C" transform="rotate(164.5,325.2,520.3)" /><ellipse cx="352.6" cy="534.0" rx="7.5" ry="9.0" fill="#7A8C5C" transform="rotate(-10.6,352.6,534.0)" /><ellipse cx="315.7" cy="502.9" rx="12.2" ry="14.6" fill="#7A8C5C" transform="rotate(174.4,315.7,502.9)" /><ellipse cx="343.0" cy="516.6" rx="10.8" ry="13.0" fill="#7A8C5C" transform="rotate(-0.7,343.0,516.6)" /><ellipse cx="370.4" cy="530.3" rx="9.5" ry="11.4" fill="#7A8C5C" transform="rotate(-177.2,370.4,530.3)" /></g><g><ellipse cx="363.8" cy="531.6" rx="7.0" ry="9.9" fill="#6B7A4A" transform="rotate(-33.2,363.8,531.6)" /><ellipse cx="377.5" cy="538.4" rx="6.0" ry="8.6" fill="#6B7A4A" transform="rotate(153.2,377.5,538.4)" /><ellipse cx="359.0" cy="545.3" rx="5.0" ry="7.2" fill="#6B7A4A" transform="rotate(-21.9,359.0,545.3)" /><ellipse cx="372.7" cy="552.2" rx="8.3" ry="11.9" fill="#6B7A4A" transform="rotate(163.1,372.7,552.2)" /><ellipse cx="354.3" cy="536.7" rx="7.4" ry="10.5" fill="#7A8C5C" transform="rotate(-12.0,354.3,536.7)" /><ellipse cx="367.9" cy="543.5" rx="6.4" ry="9.2" fill="#7A8C5C" transform="rotate(172.9,367.9,543.5)" /><ellipse cx="381.6" cy="550.4" rx="5.5" ry="7.8" fill="#7A8C5C" transform="rotate(-2.1,381.6,550.4)" /><ellipse cx="363.2" cy="534.8" rx="8.7" ry="12.5" fill="#7A8C5C" transform="rotate(-178.6,363.2,534.8)" /></g><g><ellipse cx="370.3" cy="541.9" rx="5.7" ry="8.2" fill="#6B7A4A" transform="rotate(-168.7,370.3,541.9)" /><ellipse cx="383.9" cy="548.8" rx="9.0" ry="12.8" fill="#6B7A4A" transform="rotate(16.2,383.9,548.8)" /><ellipse cx="397.6" cy="555.7" rx="8.0" ry="11.5" fill="#6B7A4A" transform="rotate(-158.8,397.6,555.7)" /><ellipse cx="379.2" cy="540.1" rx="7.1" ry="10.1" fill="#6B7A4A" transform="rotate(27.5,379.2,540.1)" /><ellipse cx="392.9" cy="547.0" rx="6.1" ry="8.8" fill="#7A8C5C" transform="rotate(-148.9,392.9,547.0)" /><ellipse cx="374.4" cy="553.9" rx="5.2" ry="7.4" fill="#7A8C5C" transform="rotate(37.4,374.4,553.9)" /><ellipse cx="388.1" cy="538.3" rx="8.5" ry="12.1" fill="#7A8C5C" transform="rotate(-139.1,388.1,538.3)" /><ellipse cx="369.6" cy="545.2" rx="7.5" ry="10.7" fill="#7A8C5C" transform="rotate(47.3,369.6,545.2)" /></g><path d="M500.4,561.5 C502.4,561.8 516.8,565.6 524.4,564.4 C532.0,563.2 580.1,550.5 591.8,546.9 C603.4,543.3 658.1,523.5 664.1,521.4 C664.0,521.2 669.4,517.1 663.2,518.6 C657.0,520.1 601.4,536.6 589.7,539.4 C578.0,542.3 530.1,552.2 522.9,552.9 C515.7,553.6 504.5,548.2 502.9,547.8 Z" fill="#6B5A48" /><g><ellipse cx="632.9" cy="514.9" rx="11.8" ry="14.2" fill="#6B7A4A" transform="rotate(78.4,632.9,514.9)" /><ellipse cx="660.2" cy="528.6" rx="10.5" ry="12.6" fill="#6B7A4A" transform="rotate(-96.7,660.2,528.6)" /><ellipse cx="687.6" cy="497.3" rx="9.1" ry="11.0" fill="#6B7A4A" transform="rotate(88.2,687.6,497.3)" /><ellipse cx="650.7" cy="511.2" rx="7.8" ry="9.3" fill="#6B7A4A" transform="rotate(-86.8,650.7,511.2)" /><ellipse cx="678.1" cy="524.9" rx="12.4" ry="14.9" fill="#6B7A4A" transform="rotate(98.1,678.1,524.9)" /><ellipse cx="641.2" cy="538.8" rx="11.1" ry="13.3" fill="#6B7A4A" transform="rotate(-76.9,641.2,538.8)" /><ellipse cx="668.5" cy="507.5" rx="9.7" ry="11.7" fill="#6B7A4A" transform="rotate(108.0,668.5,507.5)" /><ellipse cx="631.6" cy="521.4" rx="8.4" ry="10.0" fill="#7A8C5C" transform="rotate(-67.1,631.6,521.4)" /><ellipse cx="659.0" cy="535.1" rx="7.0" ry="8.4" fill="#7A8C5C" transform="rotate(119.3,659.0,535.1)" /><ellipse cx="686.3" cy="503.8" rx="11.7" ry="14.0" fill="#7A8C5C" transform="rotate(-57.2,686.3,503.8)" /><ellipse cx="649.5" cy="517.7" rx="10.3" ry="12.4" fill="#7A8C5C" transform="rotate(129.2,649.5,517.7)" /><ellipse cx="676.8" cy="531.4" rx="9.0" ry="10.7" fill="#7A8C5C" transform="rotate(-47.3,676.8,531.4)" /><ellipse cx="639.9" cy="500.3" rx="7.6" ry="9.1" fill="#7A8C5C" transform="rotate(139.1,639.9,500.3)" /><ellipse cx="667.3" cy="514.0" rx="12.3" ry="14.7" fill="#7A8C5C" transform="rotate(-37.4,667.3,514.0)" /></g><g><ellipse cx="644.4" cy="537.3" rx="7.1" ry="10.1" fill="#6B7A4A" transform="rotate(-23.3,644.4,537.3)" /><ellipse cx="625.9" cy="544.2" rx="6.1" ry="8.7" fill="#6B7A4A" transform="rotate(161.6,625.9,544.2)" /><ellipse cx="639.6" cy="551.1" rx="5.1" ry="7.4" fill="#6B7A4A" transform="rotate(-13.4,639.6,551.1)" /><ellipse cx="621.1" cy="535.5" rx="8.4" ry="12.0" fill="#6B7A4A" transform="rotate(171.5,621.1,535.5)" /><ellipse cx="634.8" cy="542.4" rx="7.5" ry="10.7" fill="#7A8C5C" transform="rotate(-3.5,634.8,542.4)" /><ellipse cx="648.5" cy="549.2" rx="6.5" ry="9.3" fill="#7A8C5C" transform="rotate(-180.0,648.5,549.2)" /><ellipse cx="630.1" cy="533.7" rx="5.6" ry="8.0" fill="#7A8C5C" transform="rotate(6.4,630.1,533.7)" /><ellipse cx="643.7" cy="540.5" rx="8.8" ry="12.6" fill="#7A8C5C" transform="rotate(-170.1,643.7,540.5)" /></g><g><ellipse cx="620.8" cy="547.7" rx="5.8" ry="8.3" fill="#6B7A4A" transform="rotate(-160.2,620.8,547.7)" /><ellipse cx="634.5" cy="554.5" rx="9.1" ry="13.0" fill="#6B7A4A" transform="rotate(24.7,634.5,554.5)" /><ellipse cx="616.1" cy="539.0" rx="8.1" ry="11.6" fill="#6B7A4A" transform="rotate(-150.4,616.1,539.0)" /><ellipse cx="629.7" cy="545.8" rx="7.2" ry="10.3" fill="#6B7A4A" transform="rotate(36.0,629.7,545.8)" /><ellipse cx="611.3" cy="552.8" rx="6.2" ry="8.9" fill="#7A8C5C" transform="rotate(-140.5,611.3,552.8)" /><ellipse cx="625.0" cy="537.1" rx="5.3" ry="7.6" fill="#7A8C5C" transform="rotate(45.9,625.0,537.1)" /><ellipse cx="606.5" cy="544.1" rx="8.6" ry="12.2" fill="#7A8C5C" transform="rotate(-130.6,606.5,544.1)" /><ellipse cx="620.2" cy="550.9" rx="7.6" ry="10.9" fill="#7A8C5C" transform="rotate(55.8,620.2,550.9)" /></g><path d="M500.4,547.8 C498.7,548.2 487.3,553.2 480.1,552.8 C472.9,552.5 425.2,546.4 413.5,543.7 C401.8,541.1 346.2,522.9 340.1,521.0 C340.0,521.3 333.2,521.3 339.1,523.9 C345.1,526.4 399.9,547.8 411.6,551.2 C423.2,554.6 471.6,563.6 479.2,564.4 C486.8,565.3 500.9,561.8 502.9,561.5 Z" fill="#6B5A48" /><g><ellipse cx="346.0" cy="498.4" rx="8.6" ry="10.3" fill="#6B7A4A" transform="rotate(-143.3,346.0,498.4)" /><ellipse cx="309.1" cy="512.2" rx="7.3" ry="8.7" fill="#6B7A4A" transform="rotate(43.1,309.1,512.2)" /><ellipse cx="336.5" cy="525.9" rx="11.9" ry="14.3" fill="#6B7A4A" transform="rotate(-133.4,336.5,525.9)" /><ellipse cx="363.9" cy="539.6" rx="10.6" ry="12.7" fill="#6B7A4A" transform="rotate(52.9,363.9,539.6)" /><ellipse cx="327.0" cy="508.5" rx="9.2" ry="11.1" fill="#6B7A4A" transform="rotate(-123.5,327.0,508.5)" /><ellipse cx="354.3" cy="522.3" rx="7.8" ry="9.4" fill="#6B7A4A" transform="rotate(62.8,354.3,522.3)" /><ellipse cx="317.4" cy="536.1" rx="12.5" ry="15.0" fill="#6B7A4A" transform="rotate(-113.6,317.4,536.1)" /><ellipse cx="344.8" cy="504.9" rx="11.2" ry="13.4" fill="#7A8C5C" transform="rotate(72.7,344.8,504.9)" /><ellipse cx="307.9" cy="518.7" rx="9.8" ry="11.8" fill="#7A8C5C" transform="rotate(-103.8,307.9,518.7)" /><ellipse cx="335.2" cy="532.4" rx="8.4" ry="10.1" fill="#7A8C5C" transform="rotate(82.6,335.2,532.4)" /><ellipse cx="362.6" cy="501.2" rx="7.1" ry="8.5" fill="#7A8C5C" transform="rotate(-92.5,362.6,501.2)" /><ellipse cx="325.7" cy="515.0" rx="11.8" ry="14.1" fill="#7A8C5C" transform="rotate(92.5,325.7,515.0)" /><ellipse cx="353.1" cy="528.8" rx="10.4" ry="12.5" fill="#7A8C5C" transform="rotate(-82.6,353.1,528.8)" /><ellipse cx="316.2" cy="497.7" rx="9.0" ry="10.9" fill="#7A8C5C" transform="rotate(102.4,316.2,497.7)" /></g><g><ellipse cx="364.8" cy="543.1" rx="7.2" ry="10.2" fill="#6B7A4A" transform="rotate(-14.8,364.8,543.1)" /><ellipse cx="378.5" cy="549.9" rx="6.2" ry="8.9" fill="#6B7A4A" transform="rotate(170.1,378.5,549.9)" /><ellipse cx="360.0" cy="534.4" rx="5.3" ry="7.5" fill="#6B7A4A" transform="rotate(-4.9,360.0,534.4)" /><ellipse cx="373.7" cy="541.2" rx="8.5" ry="12.2" fill="#6B7A4A" transform="rotate(180.0,373.7,541.2)" /><ellipse cx="355.3" cy="548.2" rx="7.6" ry="10.8" fill="#7A8C5C" transform="rotate(4.9,355.3,548.2)" /><ellipse cx="368.9" cy="532.5" rx="6.6" ry="9.5" fill="#7A8C5C" transform="rotate(-171.5,368.9,532.5)" /><ellipse cx="382.6" cy="539.4" rx="5.7" ry="8.1" fill="#7A8C5C" transform="rotate(14.8,382.6,539.4)" /><ellipse cx="364.2" cy="546.3" rx="8.9" ry="12.8" fill="#7A8C5C" transform="rotate(-161.6,364.2,546.3)" /></g><g><ellipse cx="371.3" cy="553.5" rx="5.9" ry="8.5" fill="#6B7A4A" transform="rotate(-151.8,371.3,553.5)" /><ellipse cx="384.9" cy="537.8" rx="5.0" ry="7.1" fill="#6B7A4A" transform="rotate(34.6,384.9,537.8)" /><ellipse cx="398.6" cy="544.7" rx="8.2" ry="11.8" fill="#6B7A4A" transform="rotate(-141.9,398.6,544.7)" /><ellipse cx="380.2" cy="551.6" rx="7.3" ry="10.4" fill="#6B7A4A" transform="rotate(44.5,380.2,551.6)" /><ellipse cx="393.9" cy="536.0" rx="6.3" ry="9.1" fill="#7A8C5C" transform="rotate(-132.0,393.9,536.0)" /><ellipse cx="375.4" cy="542.9" rx="5.4" ry="7.7" fill="#7A8C5C" transform="rotate(54.4,375.4,542.9)" /><ellipse cx="389.1" cy="549.8" rx="8.7" ry="12.4" fill="#7A8C5C" transform="rotate(-122.1,389.1,549.8)" /><ellipse cx="370.6" cy="556.7" rx="7.7" ry="11.0" fill="#7A8C5C" transform="rotate(64.2,370.6,556.7)" /></g><path d="M500.4,561.5 C502.4,561.8 516.7,565.5 524.3,564.4 C531.9,563.3 580.1,551.7 591.7,548.1 C603.4,544.6 658.1,524.2 664.1,522.0 C664.0,521.8 669.4,517.6 663.2,519.2 C657.0,520.7 601.4,537.8 589.7,540.7 C578.0,543.5 530.2,552.3 523.0,552.9 C515.7,553.5 504.6,548.2 502.9,547.8 Z" fill="#6B5A48" /><g><ellipse cx="631.9" cy="498.9" rx="8.5" ry="10.2" fill="#6B7A4A" transform="rotate(175.8,631.9,498.9)" /><ellipse cx="659.2" cy="512.6" rx="7.1" ry="8.5" fill="#6B7A4A" transform="rotate(0.7,659.2,512.6)" /><ellipse cx="686.6" cy="526.3" rx="11.8" ry="14.1" fill="#6B7A4A" transform="rotate(-175.8,686.6,526.3)" /><ellipse cx="649.7" cy="540.2" rx="10.4" ry="12.5" fill="#6B7A4A" transform="rotate(10.6,649.7,540.2)" /><ellipse cx="677.1" cy="508.9" rx="9.1" ry="10.9" fill="#6B7A4A" transform="rotate(-165.9,677.1,508.9)" /><ellipse cx="640.2" cy="522.8" rx="7.7" ry="9.2" fill="#6B7A4A" transform="rotate(20.5,640.2,522.8)" /><ellipse cx="667.5" cy="536.5" rx="12.4" ry="14.8" fill="#6B7A4A" transform="rotate(-156.0,667.5,536.5)" /><ellipse cx="694.9" cy="505.2" rx="11.0" ry="13.2" fill="#7A8C5C" transform="rotate(30.4,694.9,505.2)" /><ellipse cx="658.0" cy="519.1" rx="9.7" ry="11.6" fill="#7A8C5C" transform="rotate(-146.1,658.0,519.1)" /><ellipse cx="685.3" cy="532.8" rx="8.3" ry="10.0" fill="#7A8C5C" transform="rotate(40.2,685.3,532.8)" /><ellipse cx="648.4" cy="501.7" rx="13.0" ry="15.6" fill="#7A8C5C" transform="rotate(-136.2,648.4,501.7)" /><ellipse cx="675.8" cy="515.4" rx="11.6" ry="13.9" fill="#7A8C5C" transform="rotate(50.1,675.8,515.4)" /><ellipse cx="638.9" cy="529.3" rx="10.2" ry="12.3" fill="#7A8C5C" transform="rotate(-124.9,638.9,529.3)" /><ellipse cx="666.3" cy="498.0" rx="8.9" ry="10.7" fill="#7A8C5C" transform="rotate(60.0,666.3,498.0)" /></g><g><ellipse cx="645.4" cy="548.8" rx="7.3" ry="10.4" fill="#6B7A4A" transform="rotate(-6.4,645.4,548.8)" /><ellipse cx="626.9" cy="533.2" rx="6.3" ry="9.0" fill="#6B7A4A" transform="rotate(178.6,626.9,533.2)" /><ellipse cx="640.6" cy="540.1" rx="5.4" ry="7.7" fill="#6B7A4A" transform="rotate(3.5,640.6,540.1)" /><ellipse cx="622.1" cy="547.0" rx="8.6" ry="12.3" fill="#6B7A4A" transform="rotate(-172.9,622.1,547.0)" /><ellipse cx="635.8" cy="531.4" rx="7.7" ry="11.0" fill="#7A8C5C" transform="rotate(13.4,635.8,531.4)" /><ellipse cx="649.5" cy="538.2" rx="6.7" ry="9.6" fill="#7A8C5C" transform="rotate(-163.1,649.5,538.2)" /><ellipse cx="631.1" cy="545.2" rx="5.8" ry="8.2" fill="#7A8C5C" transform="rotate(23.3,631.1,545.2)" /><ellipse cx="644.7" cy="552.0" rx="9.0" ry="12.9" fill="#7A8C5C" transform="rotate(-153.2,644.7,552.0)" /></g><g><ellipse cx="621.8" cy="536.7" rx="6.0" ry="8.6" fill="#6B7A4A" transform="rotate(-143.3,621.8,536.7)" /><ellipse cx="603.4" cy="543.6" rx="5.1" ry="7.3" fill="#6B7A4A" transform="rotate(43.1,603.4,543.6)" /><ellipse cx="617.1" cy="550.5" rx="8.3" ry="11.9" fill="#6B7A4A" transform="rotate(-133.4,617.1,550.5)" /><ellipse cx="630.7" cy="557.3" rx="7.4" ry="10.6" fill="#6B7A4A" transform="rotate(52.9,630.7,557.3)" /><ellipse cx="612.3" cy="541.8" rx="6.4" ry="9.2" fill="#7A8C5C" transform="rotate(-123.5,612.3,541.8)" /><ellipse cx="626.0" cy="548.6" rx="5.5" ry="7.8" fill="#7A8C5C" transform="rotate(62.8,626.0,548.6)" /><ellipse cx="607.5" cy="555.6" rx="8.8" ry="12.5" fill="#7A8C5C" transform="rotate(-113.6,607.5,555.6)" /><ellipse cx="621.2" cy="539.9" rx="7.8" ry="11.2" fill="#7A8C5C" transform="rotate(72.7,621.2,539.9)" /></g><path d="M501.1,539.9 C499.4,540.3 487.9,545.1 480.7,545.0 C473.4,544.8 425.9,540.7 414.2,538.0 C402.6,535.2 347.0,514.5 340.9,512.3 C340.8,512.6 333.8,512.4 339.8,515.1 C345.7,517.9 400.6,542.0 412.2,545.5 C423.9,548.9 472.4,555.9 480.0,556.6 C487.6,557.3 501.6,553.9 503.6,553.7 Z" fill="#6B5A48" /><g><ellipse cx="320.6" cy="510.2" rx="12.3" ry="14.8" fill="#6B7A4A" transform="rotate(13.4,320.6,510.2)" /><ellipse cx="348.0" cy="523.9" rx="10.9" ry="13.1" fill="#6B7A4A" transform="rotate(-161.6,348.0,523.9)" /><ellipse cx="311.1" cy="492.8" rx="9.6" ry="11.5" fill="#6B7A4A" transform="rotate(23.3,311.1,492.8)" /><ellipse cx="338.4" cy="506.5" rx="8.2" ry="9.9" fill="#6B7A4A" transform="rotate(-151.8,338.4,506.5)" /><ellipse cx="365.8" cy="520.2" rx="12.9" ry="15.5" fill="#6B7A4A" transform="rotate(33.2,365.8,520.2)" /><ellipse cx="328.9" cy="489.1" rx="11.5" ry="13.8" fill="#6B7A4A" transform="rotate(-141.9,328.9,489.1)" /><ellipse cx="356.3" cy="502.8" rx="10.2" ry="12.2" fill="#6B7A4A" transform="rotate(44.5,356.3,502.8)" /><ellipse cx="319.4" cy="516.7" rx="8.8" ry="10.6" fill="#7A8C5C" transform="rotate(-132.0,319.4,516.7)" /><ellipse cx="346.7" cy="530.4" rx="7.4" ry="8.9" fill="#7A8C5C" transform="rotate(54.4,346.7,530.4)" /><ellipse cx="309.8" cy="499.3" rx="12.1" ry="14.6" fill="#7A8C5C" transform="rotate(-122.1,309.8,499.3)" /><ellipse cx="337.2" cy="513.0" rx="10.8" ry="12.9" fill="#7A8C5C" transform="rotate(64.2,337.2,513.0)" /><ellipse cx="364.5" cy="526.7" rx="9.4" ry="11.3" fill="#7A8C5C" transform="rotate(-112.2,364.5,526.7)" /><ellipse cx="327.7" cy="495.6" rx="8.1" ry="9.7" fill="#7A8C5C" transform="rotate(74.1,327.7,495.6)" /><ellipse cx="355.0" cy="509.3" rx="12.7" ry="15.3" fill="#7A8C5C" transform="rotate(-102.4,355.0,509.3)" /></g><g><ellipse cx="366.5" cy="524.2" rx="7.4" ry="10.5" fill="#6B7A4A" transform="rotate(2.1,366.5,524.2)" /><ellipse cx="380.2" cy="531.1" rx="6.4" ry="9.2" fill="#6B7A4A" transform="rotate(-174.4,380.2,531.1)" /><ellipse cx="361.7" cy="538.0" rx="5.5" ry="7.8" fill="#6B7A4A" transform="rotate(12.0,361.7,538.0)" /><ellipse cx="375.4" cy="522.4" rx="8.7" ry="12.5" fill="#6B7A4A" transform="rotate(-164.5,375.4,522.4)" /><ellipse cx="357.0" cy="529.3" rx="7.8" ry="11.1" fill="#7A8C5C" transform="rotate(21.9,357.0,529.3)" /><ellipse cx="370.6" cy="536.2" rx="6.8" ry="9.8" fill="#7A8C5C" transform="rotate(-154.6,370.6,536.2)" /><ellipse cx="384.3" cy="543.0" rx="5.9" ry="8.4" fill="#7A8C5C" transform="rotate(31.8,384.3,543.0)" /><ellipse cx="365.9" cy="527.5" rx="4.9" ry="7.0" fill="#7A8C5C" transform="rotate(-143.3,365.9,527.5)" /></g><g><ellipse cx="373.0" cy="534.6" rx="6.1" ry="8.8" fill="#6B7A4A" transform="rotate(-134.8,373.0,534.6)" /><ellipse cx="386.6" cy="541.5" rx="5.2" ry="7.4" fill="#6B7A4A" transform="rotate(51.5,386.6,541.5)" /><ellipse cx="400.3" cy="548.3" rx="8.4" ry="12.1" fill="#6B7A4A" transform="rotate(-124.9,400.3,548.3)" /><ellipse cx="381.9" cy="532.8" rx="7.5" ry="10.7" fill="#6B7A4A" transform="rotate(61.4,381.9,532.8)" /><ellipse cx="395.6" cy="539.6" rx="6.5" ry="9.4" fill="#7A8C5C" transform="rotate(-115.1,395.6,539.6)" /><ellipse cx="377.1" cy="546.6" rx="5.6" ry="8.0" fill="#7A8C5C" transform="rotate(71.3,377.1,546.6)" /><ellipse cx="390.8" cy="530.9" rx="8.9" ry="12.7" fill="#7A8C5C" transform="rotate(-105.2,390.8,530.9)" /><ellipse cx="372.3" cy="537.9" rx="7.9" ry="11.3" fill="#7A8C5C" transform="rotate(81.2,372.3,537.9)" /></g><path d="M500.4,561.5 C502.4,561.8 516.8,565.6 524.4,564.4 C532.0,563.2 580.2,550.4 591.8,546.6 C603.5,542.8 658.1,521.2 664.1,518.9 C664.0,518.7 669.3,514.4 663.1,516.1 C656.9,517.8 601.3,536.1 589.6,539.2 C577.9,542.3 530.1,552.2 522.9,552.9 C515.6,553.6 504.5,548.2 502.9,547.8 Z" fill="#6B5A48" /><g><ellipse cx="641.9" cy="511.0" rx="8.0" ry="9.6" fill="#6B7A4A" transform="rotate(93.9,641.9,511.0)" /><ellipse cx="669.3" cy="524.7" rx="12.7" ry="15.2" fill="#6B7A4A" transform="rotate(-82.6,669.3,524.7)" /><ellipse cx="632.4" cy="538.6" rx="11.3" ry="13.6" fill="#6B7A4A" transform="rotate(103.8,632.4,538.6)" /><ellipse cx="659.7" cy="507.3" rx="10.0" ry="12.0" fill="#6B7A4A" transform="rotate(-72.7,659.7,507.3)" /><ellipse cx="687.1" cy="521.0" rx="8.6" ry="10.3" fill="#6B7A4A" transform="rotate(113.6,687.1,521.0)" /><ellipse cx="650.2" cy="534.9" rx="7.3" ry="8.7" fill="#6B7A4A" transform="rotate(-61.4,650.2,534.9)" /><ellipse cx="677.6" cy="503.6" rx="11.9" ry="14.3" fill="#6B7A4A" transform="rotate(123.5,677.6,503.6)" /><ellipse cx="640.7" cy="517.5" rx="10.6" ry="12.7" fill="#7A8C5C" transform="rotate(-51.5,640.7,517.5)" /><ellipse cx="668.0" cy="531.2" rx="9.2" ry="11.1" fill="#7A8C5C" transform="rotate(133.4,668.0,531.2)" /><ellipse cx="695.4" cy="499.9" rx="7.9" ry="9.4" fill="#7A8C5C" transform="rotate(-41.6,695.4,499.9)" /><ellipse cx="658.5" cy="513.8" rx="12.5" ry="15.0" fill="#7A8C5C" transform="rotate(143.3,658.5,513.8)" /><ellipse cx="685.8" cy="527.5" rx="11.2" ry="13.4" fill="#7A8C5C" transform="rotate(-31.8,685.8,527.5)" /><ellipse cx="648.9" cy="541.4" rx="9.8" ry="11.8" fill="#7A8C5C" transform="rotate(153.2,648.9,541.4)" /><ellipse cx="676.3" cy="510.1" rx="8.5" ry="10.2" fill="#7A8C5C" transform="rotate(-21.9,676.3,510.1)" /></g><g><ellipse cx="646.4" cy="537.8" rx="7.5" ry="10.7" fill="#6B7A4A" transform="rotate(10.6,646.4,537.8)" /><ellipse cx="627.9" cy="544.7" rx="6.5" ry="9.3" fill="#6B7A4A" transform="rotate(-165.9,627.9,544.7)" /><ellipse cx="641.6" cy="551.6" rx="5.6" ry="7.9" fill="#6B7A4A" transform="rotate(20.5,641.6,551.6)" /><ellipse cx="623.2" cy="536.0" rx="8.8" ry="12.6" fill="#6B7A4A" transform="rotate(-156.0,623.2,536.0)" /><ellipse cx="636.8" cy="542.9" rx="7.9" ry="11.3" fill="#7A8C5C" transform="rotate(30.4,636.8,542.9)" /><ellipse cx="618.4" cy="549.8" rx="6.9" ry="9.9" fill="#7A8C5C" transform="rotate(-146.1,618.4,549.8)" /><ellipse cx="632.1" cy="534.2" rx="6.0" ry="8.6" fill="#7A8C5C" transform="rotate(40.2,632.1,534.2)" /><ellipse cx="645.7" cy="541.0" rx="5.0" ry="7.2" fill="#7A8C5C" transform="rotate(-134.8,645.7,541.0)" /></g><g><ellipse cx="622.8" cy="548.2" rx="6.2" ry="8.9" fill="#6B7A4A" transform="rotate(-126.4,622.8,548.2)" /><ellipse cx="604.4" cy="555.1" rx="5.3" ry="7.5" fill="#6B7A4A" transform="rotate(60.0,604.4,555.1)" /><ellipse cx="618.1" cy="539.5" rx="8.6" ry="12.2" fill="#6B7A4A" transform="rotate(-116.5,618.1,539.5)" /><ellipse cx="631.7" cy="546.3" rx="7.6" ry="10.9" fill="#6B7A4A" transform="rotate(69.9,631.7,546.3)" /><ellipse cx="613.3" cy="553.3" rx="6.6" ry="9.5" fill="#7A8C5C" transform="rotate(-106.6,613.3,553.3)" /><ellipse cx="627.0" cy="537.6" rx="5.7" ry="8.2" fill="#7A8C5C" transform="rotate(79.8,627.0,537.6)" /><ellipse cx="608.5" cy="544.6" rx="9.0" ry="12.8" fill="#7A8C5C" transform="rotate(-96.7,608.5,544.6)" /><ellipse cx="622.2" cy="551.4" rx="8.0" ry="11.4" fill="#7A8C5C" transform="rotate(89.6,622.2,551.4)" /></g><path d="M501.1,539.9 C499.4,540.3 487.2,545.2 480.7,545.0 C474.2,544.8 433.5,540.0 423.1,537.3 C412.8,534.6 362.4,514.8 356.9,512.7 C356.8,513.0 350.4,512.9 355.8,515.5 C361.1,518.2 410.6,541.3 420.9,544.7 C431.3,548.2 473.0,555.8 479.9,556.6 C486.8,557.3 501.6,553.9 503.6,553.7 Z" fill="#6B5A48" /><g><ellipse cx="346.7" cy="525.8" rx="11.8" ry="14.2" fill="#6B7A4A" transform="rotate(-68.5,346.7,525.8)" /><ellipse cx="374.0" cy="494.5" rx="10.5" ry="12.6" fill="#6B7A4A" transform="rotate(117.9,374.0,494.5)" /><ellipse cx="337.1" cy="508.4" rx="9.1" ry="11.0" fill="#6B7A4A" transform="rotate(-58.6,337.1,508.4)" /><ellipse cx="364.5" cy="522.1" rx="7.8" ry="9.3" fill="#6B7A4A" transform="rotate(127.8,364.5,522.1)" /><ellipse cx="327.6" cy="536.0" rx="12.4" ry="14.9" fill="#6B7A4A" transform="rotate(-48.7,327.6,536.0)" /><ellipse cx="354.9" cy="504.7" rx="11.1" ry="13.3" fill="#6B7A4A" transform="rotate(137.6,354.9,504.7)" /><ellipse cx="382.3" cy="518.4" rx="9.7" ry="11.7" fill="#6B7A4A" transform="rotate(-38.8,382.3,518.4)" /><ellipse cx="345.4" cy="532.3" rx="8.4" ry="10.0" fill="#7A8C5C" transform="rotate(147.5,345.4,532.3)" /><ellipse cx="372.8" cy="501.0" rx="7.0" ry="8.4" fill="#7A8C5C" transform="rotate(-27.5,372.8,501.0)" /><ellipse cx="335.9" cy="514.9" rx="11.7" ry="14.0" fill="#7A8C5C" transform="rotate(157.4,335.9,514.9)" /><ellipse cx="363.2" cy="528.6" rx="10.3" ry="12.4" fill="#7A8C5C" transform="rotate(-17.6,363.2,528.6)" /><ellipse cx="326.3" cy="497.5" rx="9.0" ry="10.8" fill="#7A8C5C" transform="rotate(167.3,326.3,497.5)" /><ellipse cx="353.7" cy="511.2" rx="7.6" ry="9.1" fill="#7A8C5C" transform="rotate(-7.8,353.7,511.2)" /><ellipse cx="381.1" cy="524.9" rx="12.3" ry="14.7" fill="#7A8C5C" transform="rotate(177.2,381.1,524.9)" /></g><g><ellipse cx="383.5" cy="539.2" rx="7.6" ry="10.8" fill="#6B7A4A" transform="rotate(19.1,383.5,539.2)" /><ellipse cx="397.2" cy="546.1" rx="6.6" ry="9.4" fill="#6B7A4A" transform="rotate(-157.4,397.2,546.1)" /><ellipse cx="378.7" cy="530.5" rx="5.7" ry="8.1" fill="#6B7A4A" transform="rotate(28.9,378.7,530.5)" /><ellipse cx="392.4" cy="537.4" rx="8.9" ry="12.8" fill="#6B7A4A" transform="rotate(-147.5,392.4,537.4)" /><ellipse cx="374.0" cy="544.3" rx="8.0" ry="11.4" fill="#7A8C5C" transform="rotate(38.8,374.0,544.3)" /><ellipse cx="387.6" cy="528.7" rx="7.0" ry="10.1" fill="#7A8C5C" transform="rotate(-136.2,387.6,528.7)" /><ellipse cx="401.3" cy="535.6" rx="6.1" ry="8.7" fill="#7A8C5C" transform="rotate(48.7,401.3,535.6)" /><ellipse cx="382.9" cy="542.5" rx="5.1" ry="7.3" fill="#7A8C5C" transform="rotate(-126.4,382.9,542.5)" /></g><path d="M505.7,528.2 C507.7,528.4 522.7,532.1 529.6,531.1 C536.5,530.1 578.1,519.8 588.4,516.2 C598.8,512.6 648.1,490.6 653.5,488.2 C653.4,488.0 658.1,483.7 652.4,485.4 C646.8,487.1 596.5,506.0 586.1,508.8 C575.8,511.6 534.8,519.1 528.4,519.5 C521.9,520.0 509.9,514.9 508.2,514.4 Z" fill="#6B5A48" /><g><ellipse cx="669.4" cy="500.7" rx="11.7" ry="14.0" fill="#6B7A4A" transform="rotate(-110.8,669.4,500.7)" /><ellipse cx="632.5" cy="469.6" rx="10.4" ry="12.4" fill="#6B7A4A" transform="rotate(75.5,632.5,469.6)" /><ellipse cx="659.9" cy="483.3" rx="9.0" ry="10.8" fill="#6B7A4A" transform="rotate(-100.9,659.9,483.3)" /><ellipse cx="623.0" cy="497.2" rx="7.6" ry="9.2" fill="#6B7A4A" transform="rotate(85.4,623.0,497.2)" /><ellipse cx="650.4" cy="510.9" rx="12.3" ry="14.8" fill="#6B7A4A" transform="rotate(-91.1,650.4,510.9)" /><ellipse cx="677.7" cy="479.6" rx="11.0" ry="13.1" fill="#6B7A4A" transform="rotate(95.3,677.7,479.6)" /><ellipse cx="640.8" cy="493.5" rx="9.6" ry="11.5" fill="#6B7A4A" transform="rotate(-81.2,640.8,493.5)" /><ellipse cx="668.2" cy="507.2" rx="8.2" ry="9.9" fill="#7A8C5C" transform="rotate(105.2,668.2,507.2)" /><ellipse cx="631.3" cy="476.1" rx="12.9" ry="15.5" fill="#7A8C5C" transform="rotate(-71.3,631.3,476.1)" /><ellipse cx="658.6" cy="489.8" rx="11.5" ry="13.8" fill="#7A8C5C" transform="rotate(115.1,658.6,489.8)" /><ellipse cx="621.7" cy="503.7" rx="10.2" ry="12.2" fill="#7A8C5C" transform="rotate(-60.0,621.7,503.7)" /><ellipse cx="649.1" cy="472.4" rx="8.8" ry="10.6" fill="#7A8C5C" transform="rotate(124.9,649.1,472.4)" /><ellipse cx="676.5" cy="486.1" rx="7.5" ry="9.0" fill="#7A8C5C" transform="rotate(-50.1,676.5,486.1)" /><ellipse cx="639.6" cy="500.0" rx="12.1" ry="14.6" fill="#7A8C5C" transform="rotate(134.8,639.6,500.0)" /></g><g><ellipse cx="636.7" cy="519.5" rx="7.7" ry="11.0" fill="#6B7A4A" transform="rotate(27.5,636.7,519.5)" /><ellipse cx="618.3" cy="503.9" rx="6.7" ry="9.6" fill="#6B7A4A" transform="rotate(-148.9,618.3,503.9)" /><ellipse cx="632.0" cy="510.8" rx="5.8" ry="8.2" fill="#6B7A4A" transform="rotate(37.4,632.0,510.8)" /><ellipse cx="613.5" cy="517.7" rx="9.0" ry="12.9" fill="#6B7A4A" transform="rotate(-139.1,613.5,517.7)" /><ellipse cx="627.2" cy="502.1" rx="8.1" ry="11.6" fill="#7A8C5C" transform="rotate(47.3,627.2,502.1)" /><ellipse cx="608.7" cy="509.0" rx="7.1" ry="10.2" fill="#7A8C5C" transform="rotate(-127.8,608.7,509.0)" /><ellipse cx="622.4" cy="515.9" rx="6.2" ry="8.8" fill="#7A8C5C" transform="rotate(57.2,622.4,515.9)" /><ellipse cx="636.1" cy="500.3" rx="5.2" ry="7.5" fill="#7A8C5C" transform="rotate(-117.9,636.1,500.3)" /></g><path d="M501.1,539.9 C499.4,540.3 487.3,545.3 480.9,545.0 C474.4,544.6 433.5,538.8 423.2,535.8 C412.9,532.9 362.5,511.8 356.9,509.7 C356.8,509.9 350.4,509.6 355.7,512.4 C361.1,515.2 410.5,539.5 420.8,543.2 C431.2,546.9 472.9,555.7 479.8,556.6 C486.7,557.4 501.6,553.9 503.6,553.7 Z" fill="#6B5A48" /><g><ellipse cx="356.7" cy="493.0" rx="11.4" ry="13.7" fill="#6B7A4A" transform="rotate(-150.4,356.7,493.0)" /><ellipse cx="384.1" cy="506.7" rx="10.1" ry="12.1" fill="#6B7A4A" transform="rotate(36.0,384.1,506.7)" /><ellipse cx="347.2" cy="520.5" rx="8.7" ry="10.4" fill="#6B7A4A" transform="rotate(-140.5,347.2,520.5)" /><ellipse cx="374.5" cy="534.2" rx="7.3" ry="8.8" fill="#6B7A4A" transform="rotate(45.9,374.5,534.2)" /><ellipse cx="337.6" cy="503.1" rx="12.0" ry="14.4" fill="#6B7A4A" transform="rotate(-130.6,337.6,503.1)" /><ellipse cx="365.0" cy="516.8" rx="10.6" ry="12.8" fill="#6B7A4A" transform="rotate(55.8,365.0,516.8)" /><ellipse cx="328.1" cy="530.7" rx="9.3" ry="11.1" fill="#6B7A4A" transform="rotate(-120.7,328.1,530.7)" /><ellipse cx="355.5" cy="499.5" rx="7.9" ry="9.5" fill="#7A8C5C" transform="rotate(65.6,355.5,499.5)" /><ellipse cx="382.8" cy="513.2" rx="12.6" ry="15.1" fill="#7A8C5C" transform="rotate(-110.8,382.8,513.2)" /><ellipse cx="345.9" cy="527.0" rx="11.2" ry="13.5" fill="#7A8C5C" transform="rotate(75.5,345.9,527.0)" /><ellipse cx="373.3" cy="495.8" rx="9.9" ry="11.9" fill="#7A8C5C" transform="rotate(-100.9,373.3,495.8)" /><ellipse cx="336.4" cy="509.6" rx="8.5" ry="10.2" fill="#7A8C5C" transform="rotate(85.4,336.4,509.6)" /><ellipse cx="363.7" cy="523.3" rx="7.2" ry="8.6" fill="#7A8C5C" transform="rotate(-89.6,363.7,523.3)" /><ellipse cx="326.8" cy="492.3" rx="11.8" ry="14.2" fill="#7A8C5C" transform="rotate(95.3,326.8,492.3)" /></g><g><ellipse cx="384.5" cy="528.3" rx="7.8" ry="11.1" fill="#6B7A4A" transform="rotate(36.0,384.5,528.3)" /><ellipse cx="398.2" cy="535.1" rx="6.8" ry="9.8" fill="#6B7A4A" transform="rotate(-140.5,398.2,535.1)" /><ellipse cx="379.7" cy="542.1" rx="5.9" ry="8.4" fill="#6B7A4A" transform="rotate(45.9,379.7,542.1)" /><ellipse cx="393.4" cy="526.4" rx="4.9" ry="7.0" fill="#6B7A4A" transform="rotate(-129.2,393.4,526.4)" /><ellipse cx="375.0" cy="533.4" rx="8.2" ry="11.7" fill="#7A8C5C" transform="rotate(55.8,375.0,533.4)" /><ellipse cx="388.7" cy="540.2" rx="7.2" ry="10.3" fill="#7A8C5C" transform="rotate(-119.3,388.7,540.2)" /><ellipse cx="402.3" cy="547.1" rx="6.3" ry="9.0" fill="#7A8C5C" transform="rotate(65.6,402.3,547.1)" /><ellipse cx="383.9" cy="531.5" rx="5.3" ry="7.6" fill="#7A8C5C" transform="rotate(-109.4,383.9,531.5)" /></g><path d="M506.9,504.0 C508.9,504.3 523.9,507.9 530.8,506.9 C537.7,506.0 579.2,495.8 589.5,492.4 C599.9,489.0 649.2,468.3 654.7,466.1 C654.6,465.9 659.2,461.7 653.6,463.3 C648.0,464.9 597.7,482.2 587.4,484.9 C577.0,487.6 536.0,494.9 529.5,495.4 C523.0,495.8 511.1,490.7 509.4,490.3 Z" fill="#6B5A48" /><g><ellipse cx="630.4" cy="470.0" rx="7.3" ry="8.8" fill="#6B7A4A" transform="rotate(-72.7,630.4,470.0)" /><ellipse cx="657.8" cy="483.7" rx="12.0" ry="14.4" fill="#6B7A4A" transform="rotate(112.2,657.8,483.7)" /><ellipse cx="685.1" cy="452.5" rx="10.6" ry="12.7" fill="#6B7A4A" transform="rotate(-62.8,685.1,452.5)" /><ellipse cx="648.3" cy="466.3" rx="9.3" ry="11.1" fill="#6B7A4A" transform="rotate(122.1,648.3,466.3)" /><ellipse cx="675.6" cy="480.0" rx="7.9" ry="9.5" fill="#6B7A4A" transform="rotate(-52.9,675.6,480.0)" /><ellipse cx="638.7" cy="448.9" rx="12.6" ry="15.1" fill="#6B7A4A" transform="rotate(132.0,638.7,448.9)" /><ellipse cx="666.1" cy="462.7" rx="11.2" ry="13.5" fill="#6B7A4A" transform="rotate(-43.1,666.1,462.7)" /><ellipse cx="629.2" cy="476.5" rx="9.8" ry="11.8" fill="#7A8C5C" transform="rotate(141.9,629.2,476.5)" /><ellipse cx="656.5" cy="445.3" rx="8.5" ry="10.2" fill="#7A8C5C" transform="rotate(-33.2,656.5,445.3)" /><ellipse cx="683.9" cy="459.0" rx="7.1" ry="8.6" fill="#7A8C5C" transform="rotate(153.2,683.9,459.0)" /><ellipse cx="647.0" cy="472.8" rx="11.8" ry="14.2" fill="#7A8C5C" transform="rotate(-23.3,647.0,472.8)" /><ellipse cx="674.4" cy="486.5" rx="10.4" ry="12.5" fill="#7A8C5C" transform="rotate(163.1,674.4,486.5)" /><ellipse cx="637.5" cy="455.4" rx="9.1" ry="10.9" fill="#7A8C5C" transform="rotate(-13.4,637.5,455.4)" /><ellipse cx="664.8" cy="469.2" rx="7.7" ry="9.3" fill="#7A8C5C" transform="rotate(172.9,664.8,469.2)" /></g><g><ellipse cx="638.9" cy="484.3" rx="7.9" ry="11.3" fill="#6B7A4A" transform="rotate(44.5,638.9,484.3)" /><ellipse cx="620.5" cy="491.3" rx="6.9" ry="9.9" fill="#6B7A4A" transform="rotate(-132.0,620.5,491.3)" /><ellipse cx="634.1" cy="498.1" rx="6.0" ry="8.5" fill="#6B7A4A" transform="rotate(54.4,634.1,498.1)" /><ellipse cx="615.7" cy="482.6" rx="5.0" ry="7.2" fill="#6B7A4A" transform="rotate(-120.7,615.7,482.6)" /><ellipse cx="629.4" cy="489.4" rx="8.3" ry="11.8" fill="#7A8C5C" transform="rotate(64.2,629.4,489.4)" /><ellipse cx="610.9" cy="496.4" rx="7.3" ry="10.5" fill="#7A8C5C" transform="rotate(-110.8,610.9,496.4)" /><ellipse cx="624.6" cy="480.7" rx="6.4" ry="9.1" fill="#7A8C5C" transform="rotate(74.1,624.6,480.7)" /><ellipse cx="638.3" cy="487.6" rx="5.4" ry="7.8" fill="#7A8C5C" transform="rotate(-100.9,638.3,487.6)" /></g><g><ellipse cx="461.8" cy="411.6" rx="12.3" ry="14.5" fill="#6B7A4A" transform="rotate(-31.8,461.8,411.6)" /><ellipse cx="499.4" cy="430.4" rx="10.8" ry="12.7" fill="#6B7A4A" transform="rotate(153.2,499.4,430.4)" /><ellipse cx="537.1" cy="387.4" rx="9.3" ry="11.0" fill="#6B7A4A" transform="rotate(-21.9,537.1,387.4)" /><ellipse cx="486.3" cy="406.5" rx="7.8" ry="9.2" fill="#6B7A4A" transform="rotate(164.5,486.3,406.5)" /><ellipse cx="523.9" cy="425.3" rx="12.9" ry="15.2" fill="#6B7A4A" transform="rotate(-12.0,523.9,425.3)" /><ellipse cx="473.2" cy="382.6" rx="11.4" ry="13.5" fill="#6B7A4A" transform="rotate(174.4,473.2,382.6)" /><ellipse cx="510.8" cy="401.4" rx="9.9" ry="11.7" fill="#6B7A4A" transform="rotate(-2.1,510.8,401.4)" /><ellipse cx="460.1" cy="420.5" rx="8.4" ry="10.0" fill="#6B7A4A" transform="rotate(-177.2,460.1,420.5)" /><ellipse cx="497.7" cy="439.4" rx="13.5" ry="16.0" fill="#6B7A4A" transform="rotate(7.8,497.7,439.4)" /><ellipse cx="535.3" cy="396.4" rx="12.1" ry="14.3" fill="#7A8C5C" transform="rotate(-167.3,535.3,396.4)" /><ellipse cx="484.6" cy="415.4" rx="10.6" ry="12.5" fill="#7A8C5C" transform="rotate(17.6,484.6,415.4)" /><ellipse cx="522.2" cy="434.3" rx="9.1" ry="10.7" fill="#7A8C5C" transform="rotate(-157.4,522.2,434.3)" /><ellipse cx="471.5" cy="391.5" rx="14.2" ry="16.8" fill="#7A8C5C" transform="rotate(27.5,471.5,391.5)" /><ellipse cx="509.1" cy="410.4" rx="12.7" ry="15.0" fill="#7A8C5C" transform="rotate(-147.5,509.1,410.4)" /><ellipse cx="546.7" cy="429.2" rx="11.2" ry="13.3" fill="#7A8C5C" transform="rotate(38.8,546.7,429.2)" /><ellipse cx="496.0" cy="386.4" rx="9.7" ry="11.5" fill="#7A8C5C" transform="rotate(-137.6,496.0,386.4)" /><ellipse cx="533.6" cy="405.3" rx="8.2" ry="9.7" fill="#7A8C5C" transform="rotate(48.7,533.6,405.3)" /><ellipse cx="482.9" cy="424.4" rx="13.4" ry="15.8" fill="#7A8C5C" transform="rotate(-127.8,482.9,424.4)" /><ellipse cx="520.5" cy="381.4" rx="11.9" ry="14.1" fill="#7A8C5C" transform="rotate(58.6,520.5,381.4)" /></g><path d="M488.0,598.0 Q474.0,606.0 468.0,600.0" stroke="#3D3328" stroke-width="4" fill="none" stroke-linecap="round" opacity="0.85" /></svg>