<svg xmlns="http://www.w3.org/2000/svg" viewBox="0 0 1000 800" preserveAspectRatio="xMidYMid meet" role="img" aria-label="bonsai-cc tree"><defs><linearGradient id="bcc-sky" x1="0" y1="0" x2="0" y2="1"><stop offset="0%" stop-color="#F4F3EE" /><stop offset="100%" stop-color="#E8E5DC" /></linearGradient><linearGradient id="bcc-ground" x1="0" y1="0" x2="0" y2="1"><stop offset="0%" stop-color="#E8E5DC" /><stop offset="100%" stop-color="#B1ADA1" /></linearGradient><linearGradient id="bcc-pot" x1="0" y1="0" x2="0" y2="1"><stop offset="0%" stop-color="#8E3D24" /><stop offset="100%" stop-color="#3D3328" /></linearGradient><linearGradient id="sky" x1="0" y1="0" x2="0" y2="1"><stop offset="0%" stop-color="#F4F3EE" /><stop offset="100%" stop-color="#E8E5DC" /></linearGradient><linearGradient id="ground" x1="0" y1="0" x2="0" y2="1"><stop offset="0%" stop-color="#E8E5DC" /><stop offset="100%" stop-color="#B1ADA1" /></linearGradient><radialGradient id="sun" cx="0.5" cy="0.5" r="0.5"><stop offset="0%" stop-color="#C15F3C" stop-opacity="0.55" /><stop offset="70%" stop-color="#C15F3C" stop-opacity="0.20" /><stop offset="100%" stop-color="#C15F3C" stop-opacity="0" /></radialGradient><radialGradient id="moon" cx="0.45" cy="0.45" r="0.55"><stop offset="0%" stop-color="#F4F3EE" stop-opacity="0.85" /><stop offset="100%" stop-color="#F4F3EE" stop-opacity="0.35" /></radialGradient><radialGradient id="pot-shadow" cx="0.5" cy="0.5" r="0.5"><stop offset="0%" stop-color="#191919" stop-opacity="0.18" /><stop offset="100%" stop-color="#191919" stop-opacity="0" /></radialGradient></defs><rect x="0" y="0" width="1000" height="600" fill="url(#bcc-sky)" /><circle cx="780" cy="180" r="80" fill="url(#sun)" /><circle cx="780" cy="180" r="28" fill="#C15F3C" fill-opacity="0.55" /><rect x="0" y="600" width="1000" height="200" fill="url(#bcc-ground)" /><ellipse cx="500" cy="728" rx="190" ry="22" fill="url(#pot-shadow)" /><path d="M340,600 Q336,608 344,618 L370,700 Q376,710 384,710 L616,710 Q624,710 630,700 L656,618 Q664,608 660,600 Z" fill="url(#bcc-pot)" /><path d="M350,622 Q500,626 650,622" stroke="#3D3328" stroke-width="1.5" fill="none" stroke-linecap="round" opacity="0.55" /><ellipse cx="500" cy="602" rx="152" ry="8" fill="#3D3328" /><circle cx="430" cy="601" r="4" fill="#B1ADA1" opacity="0.7" /><circle cx="530" cy="603" r="3" fill="#B1ADA1" opacity="0.55" /><circle cx="590" cy="601" r="3.5" fill="#B1ADA1" opacity="0.7" /><path d="M420.7,541.6 C420.9,543.4 422.2,560.3 422.8,563.8 C423.5,567.2 427.8,580.4 428.4,583.2 C429.0,585.9 429.8,595.5 429.9,596.6 C430.6,596.5 437.4,596.6 437.8,595.4 C438.2,594.1 435.7,584.2 434.9,581.5 C434.1,578.8 429.0,566.0 428.2,562.6 C427.3,559.2 425.0,542.9 424.7,541.1 Z" fill="#6B5A48" /><path d="M576.9,535.9 C577.3,538.0 579.9,556.7 581.0,560.6 C582.2,564.4 589.8,579.1 590.9,582.1 C592.0,585.2 593.7,595.7 594.0,597.0 C594.6,596.8 601.5,596.5 601.7,595.0 C602.0,593.6 598.5,582.7 597.2,579.7 C595.9,576.6 587.6,562.6 586.2,558.9 C584.9,555.2 581.3,537.1 580.9,535.2 Z" fill="#6B5A48" /><path d="M420.8,540.4 C421.3,542.3 425.2,559.9 426.9,563.5 C428.6,567.1 439.6,580.9 441.2,583.7 C442.7,586.5 445.3,596.3 445.7,597.4 C446.3,597.2 453.0,596.0 453.2,594.6 C453.3,593.1 448.8,583.0 447.0,580.2 C445.2,577.4 433.7,564.5 431.8,561.1 C430.0,557.6 425.2,541.1 424.6,539.3 Z" fill="#6B5A48" /><path d="M576.9,536.5 C576.6,538.4 573.7,556.1 572.7,559.8 C571.6,563.4 565.3,577.3 564.3,580.2 C563.3,583.2 561.0,594.0 560.7,595.2 C561.4,595.4 567.8,597.8 568.6,596.8 C569.4,595.7 570.0,585.1 570.8,582.2 C571.5,579.2 577.2,564.9 578.0,561.1 C578.9,557.4 580.6,539.1 580.9,537.1 Z" fill="#6B5A48" /><path d="M420.8,539.8 C421.3,541.7 425.1,559.5 426.7,563.1 C428.4,566.8 439.0,580.6 440.6,583.5 C442.1,586.3 444.6,596.2 445.0,597.4 C445.6,597.1 452.3,596.1 452.5,594.6 C452.6,593.2 448.2,582.9 446.4,580.1 C444.7,577.3 433.5,564.2 431.7,560.7 C429.9,557.3 425.2,540.5 424.6,538.7 Z" fill="#6B5A48" /><path d="M577.0,542.9 C576.4,544.6 571.7,560.0 569.9,563.2 C568.0,566.4 556.6,578.5 554.9,581.1 C553.1,583.7 549.2,593.4 548.7,594.5 C549.3,594.8 555.2,598.3 556.1,597.5 C557.1,596.7 559.1,587.3 560.6,584.7 C562.1,582.0 573.0,569.2 574.7,565.8 C576.4,562.4 580.3,545.9 580.8,544.1 Z" fill="#6B5A48" /><path d="M518.0,600.3 C517.9,595.3 516.9,548.9 516.6,540.6 C516.4,532.2 515.7,511.7 514.8,500.0 C513.9,488.3 506.8,408.2 506.1,399.9 C505.2,399.9 497.2,391.8 496.1,400.1 C494.9,408.5 493.3,488.4 492.4,500.0 C491.5,511.6 486.0,531.1 485.1,539.4 C484.3,547.7 482.3,594.7 482.0,599.7 Z" fill="#6B5A48" /><path d="M495.2,599.9 C495.3,594.9 496.5,548.2 497.0,539.9 C497.4,531.5 500.4,511.6 500.5,500.0 C500.7,488.3 499.1,408.4 498.9,400.1" stroke="#3D3328" stroke-width="4.0" fill="none" opacity="0.38" stroke-linecap="round" /><line x1="510.5" y1="485.0" x2="510.3" y2="478.8" stroke="#3D3328" stroke-width="1.1" stroke-linecap="round" opacity="0.40" /><line x1="509.9" y1="547.5" x2="510.1" y2="536.6" stroke="#3D3328" stroke-width="1.1" stroke-linecap="round" opacity="0.40" /><line x1="507.8" y1="510.4" x2="508.5" y2="500.9" stroke="#3D3328" stroke-width="1.1" stroke-linecap="round" opacity="0.40" /><line x1="507.3" y1="564.8" x2="507.4" y2="556.7" stroke="#3D3328" stroke-width="1.1" stroke-linecap="round" opacity="0.40" /><line x1="510.8" y1="521.8" x2="511.2" y2="515.0" stroke="#3D3328" stroke-width="1.1" stroke-linecap="round" opacity="0.40" /><path d="M500.1,540.0 C498.7,540.3 489.5,543.2 483.1,543.0 C476.7,542.9 433.8,540.2 423.5,538.1 C413.1,536.0 364.6,519.4 359.2,517.7 C359.2,517.9 353.2,517.9 358.4,520.2 C363.6,522.4 411.6,541.8 421.9,544.6 C432.3,547.3 475.9,552.4 482.5,553.0 C489.1,553.6 499.9,552.0 501.5,552.0 Z" fill="#6B5A48" /><g><ellipse cx="355.6" cy="529.6" rx="8.1" ry="10.0" fill="#5A673E" transform="rotate(-61.4,355.6,529.6)" /><ellipse cx="379.6" cy="502.3" rx="6.9" ry="8.5" fill="#5A673E" transform="rotate(124.9,379.6,502.3)" /><ellipse cx="347.3" cy="514.4" rx="11.1" ry="13.6" fill="#5A673E" transform="rotate(-51.5,347.3,514.4)" /><ellipse cx="371.2" cy="526.4" rx="9.9" ry="12.1" fill="#5A673E" transform="rotate(134.8,371.2,526.4)" /><ellipse cx="338.9" cy="538.5" rx="8.7" ry="10.6" fill="#5A673E" transform="rotate(-41.6,338.9,538.5)" /><ellipse cx="362.9" cy="511.2" rx="7.5" ry="9.1" fill="#5A673E" transform="rotate(144.7,362.9,511.2)" /><ellipse cx="386.8" cy="523.2" rx="11.7" ry="14.2" fill="#6B7A4A" transform="rotate(-31.8,386.8,523.2)" /><ellipse cx="354.5" cy="535.3" rx="10.4" ry="12.7" fill="#6B7A4A" transform="rotate(154.6,354.5,535.3)" /><ellipse cx="378.5" cy="508.0" rx="9.2" ry="11.3" fill="#6B7A4A" transform="rotate(-20.5,378.5,508.0)" /><ellipse cx="346.2" cy="520.1" rx="8.0" ry="9.8" fill="#6B7A4A" transform="rotate(164.5,346.2,520.1)" /><ellipse cx="370.1" cy="532.1" rx="6.8" ry="8.3" fill="#6B7A4A" transform="rotate(-10.6,370.1,532.1)" /><ellipse cx="337.8" cy="504.9" rx="11.0" ry="13.4" fill="#6B7A4A" transform="rotate(174.4,337.8,504.9)" /><ellipse cx="361.8" cy="516.9" rx="9.8" ry="11.9" fill="#6B7A4A" transform="rotate(-0.7,361.8,516.9)" /></g><g><ellipse cx="379.7" cy="532.7" rx="7.0" ry="9.9" fill="#5A673E" transform="rotate(-33.2,379.7,532.7)" /><ellipse cx="391.7" cy="538.7" rx="6.0" ry="8.6" fill="#5A673E" transform="rotate(153.2,391.7,538.7)" /><ellipse cx="375.5" cy="544.8" rx="5.0" ry="7.2" fill="#5A673E" transform="rotate(-21.9,375.5,544.8)" /><ellipse cx="387.5" cy="550.7" rx="8.3" ry="11.9" fill="#6B7A4A" transform="rotate(163.1,387.5,550.7)" /><ellipse cx="371.4" cy="537.1" rx="7.4" ry="10.5" fill="#6B7A4A" transform="rotate(-12.0,371.4,537.1)" /><ellipse cx="383.3" cy="543.1" rx="6.4" ry="9.2" fill="#6B7A4A" transform="rotate(172.9,383.3,543.1)" /><ellipse cx="395.3" cy="549.1" rx="5.5" ry="7.8" fill="#6B7A4A" transform="rotate(-2.1,395.3,549.1)" /></g><g><ellipse cx="385.2" cy="541.5" rx="5.7" ry="8.2" fill="#5A673E" transform="rotate(-168.7,385.2,541.5)" /><ellipse cx="397.2" cy="547.5" rx="9.0" ry="12.8" fill="#5A673E" transform="rotate(16.2,397.2,547.5)" /><ellipse cx="409.2" cy="553.5" rx="8.0" ry="11.5" fill="#5A673E" transform="rotate(-158.8,409.2,553.5)" /><ellipse cx="393.0" cy="539.9" rx="7.1" ry="10.1" fill="#6B7A4A" transform="rotate(27.5,393.0,539.9)" /><ellipse cx="405.0" cy="545.9" rx="6.1" ry="8.8" fill="#6B7A4A" transform="rotate(-148.9,405.0,545.9)" /><ellipse cx="388.9" cy="552.0" rx="5.2" ry="7.4" fill="#6B7A4A" transform="rotate(37.4,388.9,552.0)" /><ellipse cx="400.8" cy="538.3" rx="8.5" ry="12.1" fill="#6B7A4A" transform="rotate(-139.1,400.8,538.3)" /></g><path d="M500.1,552.0 C501.8,552.0 512.8,554.0 519.5,552.9 C526.1,551.9 569.3,541.3 579.6,538.8 C589.9,536.3 637.8,524.0 643.1,522.7 C643.0,522.5 647.9,519.4 642.5,520.2 C637.1,521.0 588.6,530.4 578.2,532.3 C567.8,534.2 524.5,542.4 518.1,543.1 C511.8,543.7 502.9,540.3 501.5,540.0 Z" fill="#6B5A48" /><g><ellipse cx="615.9" cy="517.8" rx="10.7" ry="13.0" fill="#5A673E" transform="rotate(78.4,615.9,517.8)" /><ellipse cx="639.8" cy="529.8" rx="9.4" ry="11.5" fill="#5A673E" transform="rotate(-96.7,639.8,529.8)" /><ellipse cx="663.8" cy="502.4" rx="8.2" ry="10.1" fill="#5A673E" transform="rotate(88.2,663.8,502.4)" /><ellipse cx="631.5" cy="514.6" rx="7.0" ry="8.6" fill="#5A673E" transform="rotate(-86.8,631.5,514.6)" /><ellipse cx="655.4" cy="526.6" rx="11.2" ry="13.7" fill="#5A673E" transform="rotate(98.1,655.4,526.6)" /><ellipse cx="623.2" cy="538.7" rx="10.0" ry="12.2" fill="#5A673E" transform="rotate(-76.9,623.2,538.7)" /><ellipse cx="647.1" cy="511.4" rx="8.8" ry="10.7" fill="#6B7A4A" transform="rotate(108.0,647.1,511.4)" /><ellipse cx="614.8" cy="523.5" rx="7.5" ry="9.2" fill="#6B7A4A" transform="rotate(-67.1,614.8,523.5)" /><ellipse cx="638.7" cy="535.5" rx="6.3" ry="7.7" fill="#6B7A4A" transform="rotate(119.3,638.7,535.5)" /><ellipse cx="662.7" cy="508.1" rx="10.5" ry="12.9" fill="#6B7A4A" transform="rotate(-57.2,662.7,508.1)" /><ellipse cx="630.4" cy="520.3" rx="9.3" ry="11.3" fill="#6B7A4A" transform="rotate(129.2,630.4,520.3)" /><ellipse cx="654.3" cy="532.3" rx="8.1" ry="9.8" fill="#6B7A4A" transform="rotate(-47.3,654.3,532.3)" /><ellipse cx="622.1" cy="505.1" rx="6.9" ry="8.4" fill="#6B7A4A" transform="rotate(139.1,622.1,505.1)" /></g><g><ellipse cx="626.2" cy="540.2" rx="7.1" ry="10.1" fill="#5A673E" transform="rotate(-23.3,626.2,540.2)" /><ellipse cx="610.1" cy="546.2" rx="6.1" ry="8.7" fill="#5A673E" transform="rotate(161.6,610.1,546.2)" /><ellipse cx="622.0" cy="552.2" rx="5.1" ry="7.4" fill="#5A673E" transform="rotate(-13.4,622.0,552.2)" /><ellipse cx="605.9" cy="538.6" rx="8.4" ry="12.0" fill="#6B7A4A" transform="rotate(171.5,605.9,538.6)" /><ellipse cx="617.9" cy="544.6" rx="7.5" ry="10.7" fill="#6B7A4A" transform="rotate(-3.5,617.9,544.6)" /><ellipse cx="629.8" cy="550.6" rx="6.5" ry="9.3" fill="#6B7A4A" transform="rotate(-180.0,629.8,550.6)" /><ellipse cx="613.7" cy="537.0" rx="5.6" ry="8.0" fill="#6B7A4A" transform="rotate(6.4,613.7,537.0)" /></g><g><ellipse cx="605.7" cy="549.0" rx="5.8" ry="8.3" fill="#5A673E" transform="rotate(-160.2,605.7,549.0)" /><ellipse cx="617.7" cy="555.0" rx="9.1" ry="13.0" fill="#5A673E" transform="rotate(24.7,617.7,555.0)" /><ellipse cx="601.6" cy="541.4" rx="8.1" ry="11.6" fill="#5A673E" transform="rotate(-150.4,601.6,541.4)" /><ellipse cx="613.5" cy="547.4" rx="7.2" ry="10.3" fill="#6B7A4A" transform="rotate(36.0,613.5,547.4)" /><ellipse cx="597.4" cy="553.5" rx="6.2" ry="8.9" fill="#6B7A4A" transform="rotate(-140.5,597.4,553.5)" /><ellipse cx="609.4" cy="539.8" rx="5.3" ry="7.6" fill="#6B7A4A" transform="rotate(45.9,609.4,539.8)" /><ellipse cx="593.2" cy="545.9" rx="8.6" ry="12.2" fill="#6B7A4A" transform="rotate(-130.6,593.2,545.9)" /></g><path d="M500.1,540.0 C498.7,540.3 489.6,543.3 483.2,543.0 C476.8,542.7 433.7,538.2 423.3,536.5 C413.0,534.8 364.5,523.8 359.1,522.6 C359.1,522.8 353.2,523.4 358.5,525.1 C363.7,526.8 411.7,540.8 422.1,543.1 C432.4,545.4 475.8,552.2 482.4,553.0 C489.0,553.7 499.9,552.0 501.5,552.0 Z" fill="#6B5A48" /><g><ellipse cx="364.4" cy="505.8" rx="7.8" ry="9.5" fill="#5A673E" transform="rotate(-143.3,364.4,505.8)" /><ellipse cx="332.1" cy="518.0" rx="6.5" ry="8.0" fill="#5A673E" transform="rotate(43.1,332.1,518.0)" /><ellipse cx="356.1" cy="529.9" rx="10.7" ry="13.1" fill="#5A673E" transform="rotate(-133.4,356.1,529.9)" /><ellipse cx="380.0" cy="541.9" rx="9.5" ry="11.6" fill="#5A673E" transform="rotate(52.9,380.0,541.9)" /><ellipse cx="347.7" cy="514.7" rx="8.3" ry="10.1" fill="#5A673E" transform="rotate(-123.5,347.7,514.7)" /><ellipse cx="371.7" cy="526.7" rx="7.1" ry="8.6" fill="#5A673E" transform="rotate(62.8,371.7,526.7)" /><ellipse cx="339.4" cy="538.9" rx="11.3" ry="13.8" fill="#6B7A4A" transform="rotate(-113.6,339.4,538.9)" /><ellipse cx="363.3" cy="511.5" rx="10.0" ry="12.3" fill="#6B7A4A" transform="rotate(72.7,363.3,511.5)" /><ellipse cx="331.0" cy="523.6" rx="8.8" ry="10.8" fill="#6B7A4A" transform="rotate(-103.8,331.0,523.6)" /><ellipse cx="355.0" cy="535.6" rx="7.6" ry="9.3" fill="#6B7A4A" transform="rotate(82.6,355.0,535.6)" /><ellipse cx="378.9" cy="508.3" rx="6.4" ry="7.8" fill="#6B7A4A" transform="rotate(-92.5,378.9,508.3)" /><ellipse cx="346.6" cy="520.4" rx="10.6" ry="12.9" fill="#6B7A4A" transform="rotate(92.5,346.6,520.4)" /><ellipse cx="370.6" cy="532.4" rx="9.3" ry="11.4" fill="#6B7A4A" transform="rotate(-82.6,370.6,532.4)" /></g><g><ellipse cx="380.6" cy="547.7" rx="7.2" ry="10.2" fill="#5A673E" transform="rotate(-14.8,380.6,547.7)" /><ellipse cx="392.5" cy="553.7" rx="6.2" ry="8.9" fill="#5A673E" transform="rotate(170.1,392.5,553.7)" /><ellipse cx="376.4" cy="540.1" rx="5.3" ry="7.5" fill="#5A673E" transform="rotate(-4.9,376.4,540.1)" /><ellipse cx="388.4" cy="546.1" rx="8.5" ry="12.2" fill="#6B7A4A" transform="rotate(180.0,388.4,546.1)" /><ellipse cx="372.2" cy="552.1" rx="7.6" ry="10.8" fill="#6B7A4A" transform="rotate(4.9,372.2,552.1)" /><ellipse cx="384.2" cy="538.5" rx="6.6" ry="9.5" fill="#6B7A4A" transform="rotate(-171.5,384.2,538.5)" /><ellipse cx="396.2" cy="544.5" rx="5.7" ry="8.1" fill="#6B7A4A" transform="rotate(14.8,396.2,544.5)" /></g><g><ellipse cx="386.1" cy="556.5" rx="5.9" ry="8.5" fill="#5A673E" transform="rotate(-151.8,386.1,556.5)" /><ellipse cx="398.1" cy="542.8" rx="5.0" ry="7.1" fill="#5A673E" transform="rotate(34.6,398.1,542.8)" /><ellipse cx="410.1" cy="548.8" rx="8.2" ry="11.8" fill="#5A673E" transform="rotate(-141.9,410.1,548.8)" /><ellipse cx="393.9" cy="554.9" rx="7.3" ry="10.4" fill="#6B7A4A" transform="rotate(44.5,393.9,554.9)" /><ellipse cx="405.9" cy="541.2" rx="6.3" ry="9.1" fill="#6B7A4A" transform="rotate(-132.0,405.9,541.2)" /><ellipse cx="389.7" cy="547.3" rx="5.4" ry="7.7" fill="#6B7A4A" transform="rotate(54.4,389.7,547.3)" /><ellipse cx="401.7" cy="553.3" rx="8.7" ry="12.4" fill="#6B7A4A" transform="rotate(-122.1,401.7,553.3)" /></g><path d="M500.1,552.0 C501.7,552.0 512.8,554.0 519.4,553.0 C526.0,552.0 569.3,542.5 579.6,540.0 C589.9,537.6 637.8,524.7 643.1,523.3 C643.1,523.1 647.9,519.9 642.5,520.8 C637.1,521.6 588.6,531.6 578.2,533.5 C567.9,535.4 524.6,542.5 518.2,543.0 C511.8,543.6 502.9,540.3 501.5,540.0 Z" fill="#6B5A48" /><g><ellipse cx="615.0" cy="504.4" rx="7.6" ry="9.3" fill="#5A673E" transform="rotate(175.8,615.0,504.4)" /><ellipse cx="639.0" cy="516.4" rx="6.4" ry="7.8" fill="#5A673E" transform="rotate(0.7,639.0,516.4)" /><ellipse cx="662.9" cy="528.4" rx="10.6" ry="13.0" fill="#5A673E" transform="rotate(-175.8,662.9,528.4)" /><ellipse cx="630.6" cy="540.5" rx="9.4" ry="11.5" fill="#5A673E" transform="rotate(10.6,630.6,540.5)" /><ellipse cx="654.6" cy="513.2" rx="8.2" ry="10.0" fill="#5A673E" transform="rotate(-165.9,654.6,513.2)" /><ellipse cx="622.3" cy="525.3" rx="6.9" ry="8.5" fill="#5A673E" transform="rotate(20.5,622.3,525.3)" /><ellipse cx="646.2" cy="537.3" rx="11.1" ry="13.6" fill="#6B7A4A" transform="rotate(-156.0,646.2,537.3)" /><ellipse cx="670.1" cy="510.0" rx="9.9" ry="12.1" fill="#6B7A4A" transform="rotate(30.4,670.1,510.0)" /><ellipse cx="637.9" cy="522.1" rx="8.7" ry="10.6" fill="#6B7A4A" transform="rotate(-146.1,637.9,522.1)" /><ellipse cx="661.8" cy="534.1" rx="7.5" ry="9.1" fill="#6B7A4A" transform="rotate(40.2,661.8,534.1)" /><ellipse cx="629.5" cy="506.9" rx="11.7" ry="14.3" fill="#6B7A4A" transform="rotate(-136.2,629.5,506.9)" /><ellipse cx="653.5" cy="518.9" rx="10.5" ry="12.8" fill="#6B7A4A" transform="rotate(50.1,653.5,518.9)" /><ellipse cx="621.2" cy="531.0" rx="9.2" ry="11.3" fill="#6B7A4A" transform="rotate(-124.9,621.2,531.0)" /></g><g><ellipse cx="627.1" cy="550.8" rx="7.3" ry="10.4" fill="#5A673E" transform="rotate(-6.4,627.1,550.8)" /><ellipse cx="610.9" cy="537.2" rx="6.3" ry="9.0" fill="#5A673E" transform="rotate(178.6,610.9,537.2)" /><ellipse cx="622.9" cy="543.2" rx="5.4" ry="7.7" fill="#5A673E" transform="rotate(3.5,622.9,543.2)" /><ellipse cx="606.8" cy="549.3" rx="8.6" ry="12.3" fill="#6B7A4A" transform="rotate(-172.9,606.8,549.3)" /><ellipse cx="618.7" cy="535.6" rx="7.7" ry="11.0" fill="#6B7A4A" transform="rotate(13.4,618.7,535.6)" /><ellipse cx="630.7" cy="541.6" rx="6.7" ry="9.6" fill="#6B7A4A" transform="rotate(-163.1,630.7,541.6)" /><ellipse cx="614.6" cy="547.7" rx="5.8" ry="8.2" fill="#6B7A4A" transform="rotate(23.3,614.6,547.7)" /></g><g><ellipse cx="606.6" cy="540.0" rx="6.0" ry="8.6" fill="#5A673E" transform="rotate(-143.3,606.6,540.0)" /><ellipse cx="590.5" cy="546.1" rx="5.1" ry="7.3" fill="#5A673E" transform="rotate(43.1,590.5,546.1)" /><ellipse cx="602.4" cy="552.1" rx="8.3" ry="11.9" fill="#5A673E" transform="rotate(-133.4,602.4,552.1)" /><ellipse cx="614.4" cy="558.1" rx="7.4" ry="10.6" fill="#6B7A4A" transform="rotate(52.9,614.4,558.1)" /><ellipse cx="598.3" cy="544.5" rx="6.4" ry="9.2" fill="#6B7A4A" transform="rotate(-123.5,598.3,544.5)" /><ellipse cx="610.2" cy="550.4" rx="5.5" ry="7.8" fill="#6B7A4A" transform="rotate(62.8,610.2,550.4)" /><ellipse cx="594.1" cy="556.5" rx="8.8" ry="12.5" fill="#6B7A4A" transform="rotate(-113.6,594.1,556.5)" /></g><path d="M500.1,540.0 C498.7,540.3 489.6,543.4 483.2,543.0 C476.8,542.7 433.8,538.1 423.5,536.0 C413.1,533.9 364.5,519.6 359.2,518.1 C359.1,518.3 353.2,518.5 358.4,520.6 C363.7,522.6 411.6,539.8 422.0,542.5 C432.3,545.2 475.8,552.2 482.4,553.0 C489.0,553.8 499.9,552.0 501.5,552.0 Z" fill="#6B5A48" /><g><ellipse cx="351.2" cy="503.7" rx="8.3" ry="10.1" fill="#5A673E" transform="rotate(-165.9,351.2,503.7)" /><ellipse cx="375.2" cy="515.7" rx="7.1" ry="8.6" fill="#5A673E" transform="rotate(20.5,375.2,515.7)" /><ellipse cx="342.9" cy="527.9" rx="11.3" ry="13.8" fill="#5A673E" transform="rotate(-156.0,342.9,527.9)" /><ellipse cx="366.8" cy="500.5" rx="10.0" ry="12.3" fill="#5A673E" transform="rotate(30.4,366.8,500.5)" /><ellipse cx="334.5" cy="512.6" rx="8.8" ry="10.8" fill="#5A673E" transform="rotate(-146.1,334.5,512.6)" /><ellipse cx="358.5" cy="524.6" rx="7.6" ry="9.3" fill="#5A673E" transform="rotate(40.2,358.5,524.6)" /><ellipse cx="382.4" cy="536.6" rx="6.4" ry="7.8" fill="#6B7A4A" transform="rotate(-134.8,382.4,536.6)" /><ellipse cx="350.1" cy="509.4" rx="10.6" ry="12.9" fill="#6B7A4A" transform="rotate(50.1,350.1,509.4)" /><ellipse cx="374.1" cy="521.4" rx="9.3" ry="11.4" fill="#6B7A4A" transform="rotate(-124.9,374.1,521.4)" /><ellipse cx="341.8" cy="533.5" rx="8.1" ry="9.9" fill="#6B7A4A" transform="rotate(60.0,341.8,533.5)" /><ellipse cx="365.7" cy="506.2" rx="6.9" ry="8.5" fill="#6B7A4A" transform="rotate(-115.1,365.7,506.2)" /><ellipse cx="333.4" cy="518.3" rx="11.1" ry="13.6" fill="#6B7A4A" transform="rotate(69.9,333.4,518.3)" /><ellipse cx="357.4" cy="530.3" rx="9.9" ry="12.1" fill="#6B7A4A" transform="rotate(-105.2,357.4,530.3)" /></g><g><ellipse cx="381.5" cy="533.5" rx="7.4" ry="10.5" fill="#5A673E" transform="rotate(2.1,381.5,533.5)" /><ellipse cx="393.4" cy="539.5" rx="6.4" ry="9.2" fill="#5A673E" transform="rotate(-174.4,393.4,539.5)" /><ellipse cx="377.3" cy="545.6" rx="5.5" ry="7.8" fill="#5A673E" transform="rotate(12.0,377.3,545.6)" /><ellipse cx="389.3" cy="531.9" rx="8.7" ry="12.5" fill="#6B7A4A" transform="rotate(-164.5,389.3,531.9)" /><ellipse cx="373.1" cy="538.0" rx="7.8" ry="11.1" fill="#6B7A4A" transform="rotate(21.9,373.1,538.0)" /><ellipse cx="385.1" cy="544.0" rx="6.8" ry="9.8" fill="#6B7A4A" transform="rotate(-154.6,385.1,544.0)" /><ellipse cx="397.1" cy="550.0" rx="5.9" ry="8.4" fill="#6B7A4A" transform="rotate(31.8,397.1,550.0)" /></g><g><ellipse cx="387.0" cy="542.4" rx="6.1" ry="8.8" fill="#5A673E" transform="rotate(-134.8,387.0,542.4)" /><ellipse cx="399.0" cy="548.4" rx="5.2" ry="7.4" fill="#5A673E" transform="rotate(51.5,399.0,548.4)" /><ellipse cx="410.9" cy="554.4" rx="8.4" ry="12.1" fill="#5A673E" transform="rotate(-124.9,410.9,554.4)" /><ellipse cx="394.8" cy="540.8" rx="7.5" ry="10.7" fill="#6B7A4A" transform="rotate(61.4,394.8,540.8)" /><ellipse cx="406.8" cy="546.7" rx="6.5" ry="9.4" fill="#6B7A4A" transform="rotate(-115.1,406.8,546.7)" /><ellipse cx="390.6" cy="552.8" rx="5.6" ry="8.0" fill="#6B7A4A" transform="rotate(71.3,390.6,552.8)" /><ellipse cx="402.6" cy="539.1" rx="8.9" ry="12.7" fill="#6B7A4A" transform="rotate(-105.2,402.6,539.1)" /></g><path d="M500.1,552.0 C501.7,552.0 512.3,553.4 519.0,553.0 C525.6,552.6 569.2,549.3 579.6,546.8 C590.0,544.3 637.9,525.0 643.2,523.0 C643.2,522.8 647.8,519.1 642.4,520.5 C637.0,522.0 588.5,538.4 578.2,540.2 C567.9,542.1 525.0,543.0 518.6,543.0 C512.3,543.0 502.9,540.3 501.5,540.0 Z" fill="#6B5A48" /><g><ellipse cx="667.7" cy="531.1" rx="10.8" ry="13.2" fill="#5A673E" transform="rotate(-26.1,667.7,531.1)" /><ellipse cx="635.5" cy="503.9" rx="9.6" ry="11.7" fill="#5A673E" transform="rotate(160.2,635.5,503.9)" /><ellipse cx="659.4" cy="515.9" rx="8.4" ry="10.2" fill="#5A673E" transform="rotate(-16.2,659.4,515.9)" /><ellipse cx="627.1" cy="528.0" rx="7.1" ry="8.7" fill="#5A673E" transform="rotate(170.1,627.1,528.0)" /><ellipse cx="651.0" cy="540.0" rx="11.3" ry="13.8" fill="#5A673E" transform="rotate(-6.4,651.0,540.0)" /><ellipse cx="618.8" cy="512.8" rx="10.1" ry="12.4" fill="#5A673E" transform="rotate(180.0,618.8,512.8)" /><ellipse cx="642.7" cy="524.8" rx="8.9" ry="10.9" fill="#6B7A4A" transform="rotate(3.5,642.7,524.8)" /><ellipse cx="666.6" cy="536.8" rx="7.7" ry="9.4" fill="#6B7A4A" transform="rotate(-171.5,666.6,536.8)" /><ellipse cx="634.4" cy="509.6" rx="6.4" ry="7.9" fill="#6B7A4A" transform="rotate(14.8,634.4,509.6)" /><ellipse cx="658.3" cy="521.5" rx="10.6" ry="13.0" fill="#6B7A4A" transform="rotate(-161.6,658.3,521.5)" /><ellipse cx="626.0" cy="533.7" rx="9.4" ry="11.5" fill="#6B7A4A" transform="rotate(24.7,626.0,533.7)" /><ellipse cx="649.9" cy="506.3" rx="8.2" ry="10.0" fill="#6B7A4A" transform="rotate(-151.8,649.9,506.3)" /><ellipse cx="617.7" cy="518.5" rx="7.0" ry="8.5" fill="#6B7A4A" transform="rotate(34.6,617.7,518.5)" /></g><g><ellipse cx="628.0" cy="541.0" rx="7.5" ry="10.7" fill="#5A673E" transform="rotate(10.6,628.0,541.0)" /><ellipse cx="611.8" cy="547.0" rx="6.5" ry="9.3" fill="#5A673E" transform="rotate(-165.9,611.8,547.0)" /><ellipse cx="623.8" cy="553.0" rx="5.6" ry="7.9" fill="#5A673E" transform="rotate(20.5,623.8,553.0)" /><ellipse cx="607.6" cy="539.4" rx="8.8" ry="12.6" fill="#6B7A4A" transform="rotate(-156.0,607.6,539.4)" /><ellipse cx="619.6" cy="545.4" rx="7.9" ry="11.3" fill="#6B7A4A" transform="rotate(30.4,619.6,545.4)" /><ellipse cx="603.5" cy="551.5" rx="6.9" ry="9.9" fill="#6B7A4A" transform="rotate(-146.1,603.5,551.5)" /><ellipse cx="615.4" cy="537.8" rx="6.0" ry="8.6" fill="#6B7A4A" transform="rotate(40.2,615.4,537.8)" /></g><g><ellipse cx="607.5" cy="549.8" rx="6.2" ry="8.9" fill="#5A673E" transform="rotate(-126.4,607.5,549.8)" /><ellipse cx="591.3" cy="555.9" rx="5.3" ry="7.5" fill="#5A673E" transform="rotate(60.0,591.3,555.9)" /><ellipse cx="603.3" cy="542.2" rx="8.6" ry="12.2" fill="#5A673E" transform="rotate(-116.5,603.3,542.2)" /><ellipse cx="615.3" cy="548.2" rx="7.6" ry="10.9" fill="#6B7A4A" transform="rotate(69.9,615.3,548.2)" /><ellipse cx="599.1" cy="554.3" rx="6.6" ry="9.5" fill="#6B7A4A" transform="rotate(-106.6,599.1,554.3)" /><ellipse cx="611.1" cy="540.6" rx="5.7" ry="8.2" fill="#6B7A4A" transform="rotate(79.8,611.1,540.6)" /><ellipse cx="595.0" cy="546.7" rx="9.0" ry="12.8" fill="#6B7A4A" transform="rotate(-96.7,595.0,546.7)" /></g><path d="M500.1,540.0 C498.7,540.3 488.9,543.3 483.2,543.0 C477.6,542.8 441.2,538.8 432.2,537.1 C423.2,535.4 379.9,524.2 375.2,523.0 C375.1,523.2 369.8,523.8 374.5,525.5 C379.1,527.2 421.8,541.3 430.8,543.6 C439.8,545.9 476.5,552.3 482.4,553.0 C488.3,553.7 499.9,552.0 501.5,552.0 Z" fill="#6B5A48" /><g><ellipse cx="388.3" cy="542.2" rx="9.7" ry="11.9" fill="#5A673E" transform="rotate(-127.8,388.3,542.2)" /><ellipse cx="356.0" cy="514.9" rx="8.5" ry="10.4" fill="#5A673E" transform="rotate(57.2,356.0,514.9)" /><ellipse cx="380.0" cy="526.9" rx="7.3" ry="8.9" fill="#5A673E" transform="rotate(-117.9,380.0,526.9)" /><ellipse cx="347.7" cy="539.1" rx="11.5" ry="14.0" fill="#5A673E" transform="rotate(67.1,347.7,539.1)" /><ellipse cx="371.6" cy="511.7" rx="10.3" ry="12.6" fill="#5A673E" transform="rotate(-108.0,371.6,511.7)" /><ellipse cx="395.6" cy="523.7" rx="9.1" ry="11.1" fill="#5A673E" transform="rotate(78.4,395.6,523.7)" /><ellipse cx="363.3" cy="535.9" rx="7.8" ry="9.6" fill="#6B7A4A" transform="rotate(-98.1,363.3,535.9)" /><ellipse cx="387.2" cy="508.5" rx="6.6" ry="8.1" fill="#6B7A4A" transform="rotate(88.2,387.2,508.5)" /><ellipse cx="354.9" cy="520.6" rx="10.8" ry="13.2" fill="#6B7A4A" transform="rotate(-88.2,354.9,520.6)" /><ellipse cx="378.9" cy="532.6" rx="9.6" ry="11.7" fill="#6B7A4A" transform="rotate(98.1,378.9,532.6)" /><ellipse cx="402.8" cy="505.3" rx="8.4" ry="10.2" fill="#6B7A4A" transform="rotate(-78.4,402.8,505.3)" /><ellipse cx="370.5" cy="517.4" rx="7.1" ry="8.7" fill="#6B7A4A" transform="rotate(108.0,370.5,517.4)" /><ellipse cx="394.5" cy="529.4" rx="11.3" ry="13.9" fill="#6B7A4A" transform="rotate(-68.5,394.5,529.4)" /></g><g><ellipse cx="398.3" cy="548.5" rx="7.6" ry="10.8" fill="#5A673E" transform="rotate(19.1,398.3,548.5)" /><ellipse cx="410.3" cy="554.5" rx="6.6" ry="9.4" fill="#5A673E" transform="rotate(-157.4,410.3,554.5)" /><ellipse cx="394.2" cy="540.9" rx="5.7" ry="8.1" fill="#5A673E" transform="rotate(28.9,394.2,540.9)" /><ellipse cx="406.1" cy="546.9" rx="8.9" ry="12.8" fill="#6B7A4A" transform="rotate(-147.5,406.1,546.9)" /><ellipse cx="390.0" cy="553.0" rx="8.0" ry="11.4" fill="#6B7A4A" transform="rotate(38.8,390.0,553.0)" /><ellipse cx="402.0" cy="539.3" rx="7.0" ry="10.1" fill="#6B7A4A" transform="rotate(-136.2,402.0,539.3)" /><ellipse cx="413.9" cy="545.3" rx="6.1" ry="8.7" fill="#6B7A4A" transform="rotate(48.7,413.9,545.3)" /></g><path d="M500.1,552.0 C501.7,552.0 513.1,553.4 519.0,553.0 C524.9,552.6 561.9,549.6 570.9,546.9 C580.0,544.3 622.6,523.4 627.3,521.3 C627.2,521.1 631.1,517.3 626.3,518.9 C621.5,520.5 578.2,538.5 569.3,540.5 C560.3,542.5 524.3,543.1 518.6,543.0 C513.0,543.0 502.9,540.3 501.5,540.0 Z" fill="#6B5A48" /><g><ellipse cx="638.6" cy="531.9" rx="11.3" ry="13.8" fill="#5A673E" transform="rotate(-48.7,638.6,531.9)" /><ellipse cx="606.3" cy="504.7" rx="10.1" ry="12.4" fill="#5A673E" transform="rotate(137.6,606.3,504.7)" /><ellipse cx="630.2" cy="516.6" rx="8.9" ry="10.9" fill="#5A673E" transform="rotate(-38.8,630.2,516.6)" /><ellipse cx="654.1" cy="528.6" rx="7.7" ry="9.4" fill="#5A673E" transform="rotate(147.5,654.1,528.6)" /><ellipse cx="621.9" cy="501.4" rx="6.4" ry="7.9" fill="#5A673E" transform="rotate(-27.5,621.9,501.4)" /><ellipse cx="645.8" cy="513.4" rx="10.6" ry="13.0" fill="#5A673E" transform="rotate(157.4,645.8,513.4)" /><ellipse cx="613.5" cy="525.6" rx="9.4" ry="11.5" fill="#6B7A4A" transform="rotate(-17.6,613.5,525.6)" /><ellipse cx="637.5" cy="537.6" rx="8.2" ry="10.0" fill="#6B7A4A" transform="rotate(167.3,637.5,537.6)" /><ellipse cx="605.2" cy="510.3" rx="7.0" ry="8.5" fill="#6B7A4A" transform="rotate(-7.8,605.2,510.3)" /><ellipse cx="629.1" cy="522.3" rx="11.2" ry="13.7" fill="#6B7A4A" transform="rotate(177.2,629.1,522.3)" /><ellipse cx="653.1" cy="534.3" rx="9.9" ry="12.2" fill="#6B7A4A" transform="rotate(2.1,653.1,534.3)" /><ellipse cx="620.8" cy="507.1" rx="8.7" ry="10.7" fill="#6B7A4A" transform="rotate(-174.4,620.8,507.1)" /><ellipse cx="644.7" cy="519.1" rx="7.5" ry="9.2" fill="#6B7A4A" transform="rotate(12.0,644.7,519.1)" /></g><g><ellipse cx="612.8" cy="549.4" rx="7.7" ry="11.0" fill="#5A673E" transform="rotate(27.5,612.8,549.4)" /><ellipse cx="596.7" cy="535.8" rx="6.7" ry="9.6" fill="#5A673E" transform="rotate(-148.9,596.7,535.8)" /><ellipse cx="608.7" cy="541.8" rx="5.8" ry="8.2" fill="#5A673E" transform="rotate(37.4,608.7,541.8)" /><ellipse cx="592.5" cy="547.8" rx="9.0" ry="12.9" fill="#6B7A4A" transform="rotate(-139.1,592.5,547.8)" /><ellipse cx="604.5" cy="534.1" rx="8.1" ry="11.6" fill="#6B7A4A" transform="rotate(47.3,604.5,534.1)" /><ellipse cx="588.3" cy="540.2" rx="7.1" ry="10.2" fill="#6B7A4A" transform="rotate(-127.8,588.3,540.2)" /><ellipse cx="600.3" cy="546.2" rx="6.2" ry="8.8" fill="#6B7A4A" transform="rotate(57.2,600.3,546.2)" /></g><path d="M501.6,514.0 C500.2,514.3 490.2,517.2 484.6,517.0 C478.9,516.9 442.6,513.9 433.6,512.3 C424.6,510.7 381.4,498.8 376.6,497.6 C376.5,497.8 371.2,498.3 375.9,500.1 C380.5,501.9 423.2,516.6 432.2,518.8 C441.2,521.1 478.0,526.4 483.9,527.0 C489.8,527.6 501.3,526.0 502.9,526.0 Z" fill="#6B5A48" /><g><ellipse cx="388.9" cy="502.8" rx="6.7" ry="8.2" fill="#5A673E" transform="rotate(-30.4,388.9,502.8)" /><ellipse cx="356.6" cy="514.9" rx="10.9" ry="13.3" fill="#5A673E" transform="rotate(154.6,356.6,514.9)" /><ellipse cx="380.5" cy="487.5" rx="9.7" ry="11.8" fill="#5A673E" transform="rotate(-20.5,380.5,487.5)" /><ellipse cx="348.2" cy="499.7" rx="8.5" ry="10.3" fill="#5A673E" transform="rotate(164.5,348.2,499.7)" /><ellipse cx="372.2" cy="511.7" rx="7.2" ry="8.8" fill="#5A673E" transform="rotate(-10.6,372.2,511.7)" /><ellipse cx="396.1" cy="484.3" rx="11.4" ry="14.0" fill="#5A673E" transform="rotate(174.4,396.1,484.3)" /><ellipse cx="363.8" cy="496.5" rx="10.2" ry="12.5" fill="#6B7A4A" transform="rotate(-0.7,363.8,496.5)" /><ellipse cx="387.8" cy="508.4" rx="9.0" ry="11.0" fill="#6B7A4A" transform="rotate(-177.2,387.8,508.4)" /><ellipse cx="355.5" cy="481.2" rx="7.8" ry="9.5" fill="#6B7A4A" transform="rotate(9.2,355.5,481.2)" /><ellipse cx="379.4" cy="493.2" rx="6.6" ry="8.0" fill="#6B7A4A" transform="rotate(-165.9,379.4,493.2)" /><ellipse cx="403.4" cy="505.2" rx="10.7" ry="13.1" fill="#6B7A4A" transform="rotate(19.1,403.4,505.2)" /><ellipse cx="371.1" cy="517.4" rx="9.5" ry="11.6" fill="#6B7A4A" transform="rotate(-156.0,371.1,517.4)" /><ellipse cx="395.0" cy="490.0" rx="8.3" ry="10.2" fill="#6B7A4A" transform="rotate(28.9,395.0,490.0)" /></g><g><ellipse cx="400.7" cy="513.5" rx="7.8" ry="11.1" fill="#5A673E" transform="rotate(36.0,400.7,513.5)" /><ellipse cx="412.6" cy="519.5" rx="6.8" ry="9.8" fill="#5A673E" transform="rotate(-140.5,412.6,519.5)" /><ellipse cx="396.5" cy="525.6" rx="5.9" ry="8.4" fill="#5A673E" transform="rotate(45.9,396.5,525.6)" /><ellipse cx="408.4" cy="511.9" rx="4.9" ry="7.0" fill="#6B7A4A" transform="rotate(-129.2,408.4,511.9)" /><ellipse cx="392.3" cy="518.0" rx="8.2" ry="11.7" fill="#6B7A4A" transform="rotate(55.8,392.3,518.0)" /><ellipse cx="404.3" cy="524.0" rx="7.2" ry="10.3" fill="#6B7A4A" transform="rotate(-119.3,404.3,524.0)" /><ellipse cx="416.2" cy="529.9" rx="6.3" ry="9.0" fill="#6B7A4A" transform="rotate(65.6,416.2,529.9)" /></g><path d="M500.4,543.1 C502.0,543.2 513.3,544.5 519.2,544.1 C525.1,543.7 562.1,540.9 571.2,538.4 C580.2,536.0 622.9,516.5 627.6,514.5 C627.5,514.3 631.4,510.6 626.6,512.1 C621.8,513.5 578.6,530.1 569.6,531.9 C560.6,533.8 524.6,534.2 518.9,534.2 C513.3,534.1 503.2,531.4 501.8,531.2 Z" fill="#6B5A48" /><g><ellipse cx="603.7" cy="519.4" rx="7.4" ry="9.0" fill="#5A673E" transform="rotate(-10.6,603.7,519.4)" /><ellipse cx="627.6" cy="531.3" rx="11.6" ry="14.1" fill="#5A673E" transform="rotate(174.4,627.6,531.3)" /><ellipse cx="651.6" cy="504.0" rx="10.3" ry="12.6" fill="#5A673E" transform="rotate(-0.7,651.6,504.0)" /><ellipse cx="619.3" cy="516.1" rx="9.1" ry="11.1" fill="#5A673E" transform="rotate(-175.8,619.3,516.1)" /><ellipse cx="643.2" cy="528.1" rx="7.9" ry="9.6" fill="#5A673E" transform="rotate(9.2,643.2,528.1)" /><ellipse cx="610.9" cy="500.9" rx="6.7" ry="8.2" fill="#5A673E" transform="rotate(-165.9,610.9,500.9)" /><ellipse cx="634.9" cy="512.9" rx="10.9" ry="13.3" fill="#6B7A4A" transform="rotate(19.1,634.9,512.9)" /><ellipse cx="602.6" cy="525.0" rx="9.6" ry="11.8" fill="#6B7A4A" transform="rotate(-156.0,602.6,525.0)" /><ellipse cx="626.5" cy="497.7" rx="8.4" ry="10.3" fill="#6B7A4A" transform="rotate(28.9,626.5,497.7)" /><ellipse cx="650.5" cy="509.7" rx="7.2" ry="8.8" fill="#6B7A4A" transform="rotate(-146.1,650.5,509.7)" /><ellipse cx="618.2" cy="521.8" rx="11.4" ry="13.9" fill="#6B7A4A" transform="rotate(38.8,618.2,521.8)" /><ellipse cx="642.1" cy="494.5" rx="10.2" ry="12.5" fill="#6B7A4A" transform="rotate(-136.2,642.1,494.5)" /><ellipse cx="609.9" cy="506.6" rx="9.0" ry="11.0" fill="#6B7A4A" transform="rotate(48.7,609.9,506.6)" /></g><g><ellipse cx="614.0" cy="532.9" rx="7.9" ry="11.3" fill="#5A673E" transform="rotate(44.5,614.0,532.9)" /><ellipse cx="597.9" cy="539.0" rx="6.9" ry="9.9" fill="#5A673E" transform="rotate(-132.0,597.9,539.0)" /><ellipse cx="609.8" cy="545.0" rx="6.0" ry="8.5" fill="#5A673E" transform="rotate(54.4,609.8,545.0)" /><ellipse cx="593.7" cy="531.4" rx="5.0" ry="7.2" fill="#6B7A4A" transform="rotate(-120.7,593.7,531.4)" /><ellipse cx="605.6" cy="537.4" rx="8.3" ry="11.8" fill="#6B7A4A" transform="rotate(64.2,605.6,537.4)" /><ellipse cx="589.5" cy="543.5" rx="7.3" ry="10.5" fill="#6B7A4A" transform="rotate(-110.8,589.5,543.5)" /><ellipse cx="601.5" cy="529.8" rx="6.4" ry="9.1" fill="#6B7A4A" transform="rotate(74.1,601.5,529.8)" /></g><g><ellipse cx="519.1" cy="367.7" rx="11.3" ry="13.5" fill="#5A673E" transform="rotate(106.6,519.1,367.7)" /><ellipse cx="473.0" cy="385.1" rx="9.9" ry="11.9" fill="#5A673E" transform="rotate(-69.9,473.0,385.1)" /><ellipse cx="507.2" cy="402.2" rx="8.6" ry="10.3" fill="#5A673E" transform="rotate(116.5,507.2,402.2)" /><ellipse cx="461.1" cy="419.6" rx="7.2" ry="8.6" fill="#5A673E" transform="rotate(-58.6,461.1,419.6)" /><ellipse cx="495.3" cy="380.5" rx="11.9" ry="14.2" fill="#5A673E" transform="rotate(126.4,495.3,380.5)" /><ellipse cx="529.5" cy="397.6" rx="10.5" ry="12.6" fill="#5A673E" transform="rotate(-48.7,529.5,397.6)" /><ellipse cx="483.4" cy="414.9" rx="9.1" ry="11.0" fill="#5A673E" transform="rotate(136.2,483.4,414.9)" /><ellipse cx="517.5" cy="375.9" rx="7.8" ry="9.4" fill="#5A673E" transform="rotate(-38.8,517.5,375.9)" /><ellipse cx="471.4" cy="393.2" rx="12.5" ry="15.0" fill="#6B7A4A" transform="rotate(146.1,471.4,393.2)" /><ellipse cx="505.6" cy="410.3" rx="11.1" ry="13.3" fill="#6B7A4A" transform="rotate(-28.9,505.6,410.3)" /><ellipse cx="539.8" cy="371.2" rx="9.8" ry="11.7" fill="#6B7A4A" transform="rotate(156.0,539.8,371.2)" /><ellipse cx="493.7" cy="388.6" rx="8.4" ry="10.1" fill="#6B7A4A" transform="rotate(-19.1,493.7,388.6)" /><ellipse cx="527.9" cy="405.7" rx="7.0" ry="8.4" fill="#6B7A4A" transform="rotate(167.3,527.9,405.7)" /><ellipse cx="481.8" cy="366.9" rx="11.7" ry="14.0" fill="#6B7A4A" transform="rotate(-9.2,481.8,366.9)" /><ellipse cx="516.0" cy="384.0" rx="10.3" ry="12.4" fill="#6B7A4A" transform="rotate(177.2,516.0,384.0)" /><ellipse cx="469.9" cy="401.3" rx="9.0" ry="10.8" fill="#6B7A4A" transform="rotate(0.7,469.9,401.3)" /><ellipse cx="504.1" cy="418.5" rx="7.6" ry="9.1" fill="#6B7A4A" transform="rotate(-174.4,504.1,418.5)" /></g><path d="M490.0,598.0 Q478.0,604.0 472.0,600.0" stroke="#3D3328" stroke-width="3.4" fill="none" stroke-linecap="round" opacity="0.85" /></svg>