<svg xmlns="http://www.w3.org/2000/svg" viewBox="0 0 1000 800" preserveAspectRatio="xMidYMid meet" role="img" aria-label="bonsai-cc tree"><defs><linearGradient id="bcc-sky" x1="0" y1="0" x2="0" y2="1"><stop offset="0%" stop-color="#F4F3EE" /><stop offset="100%" stop-color="#E8E5DC" /></linearGradient><linearGradient id="bcc-ground" x1="0" y1="0" x2="0" y2="1"><stop offset="0%" stop-color="#E8E5DC" /><stop offset="100%" stop-color="#B1ADA1" /></linearGradient><linearGradient id="bcc-pot" x1="0" y1="0" x2="0" y2="1"><stop offset="0%" stop-color="#8E3D24" /><stop offset="100%" stop-color="#3D3328" /></linearGradient><linearGradient id="sky" x1="0" y1="0" x2="0" y2="1"><stop offset="0%" stop-color="#F4F3EE" /><stop offset="100%" stop-color="#E8E5DC" /></linearGradient><linearGradient id="ground" x1="0" y1="0" x2="0" y2="1"><stop offset="0%" stop-color="#E8E5DC" /><stop offset="100%" stop-color="#B1ADA1" /></linearGradient><radialGradient id="sun" cx="0.5" cy="0.5" r="0.5"><stop offset="0%" stop-color="#C15F3C" stop-opacity="0.55" /><stop offset="70%" stop-color="#C15F3C" stop-opacity="0.20" /><stop offset="100%" stop-color="#C15F3C" stop-opacity="0" /></radialGradient><radialGradient id="moon" cx="0.45" cy="0.45" r="0.55"><stop offset="0%" stop-color="#F4F3EE" stop-opacity="0.85" /><stop offset="100%" stop-color="#F4F3EE" stop-opacity="0.35" /></radialGradient><radialGradient id="pot-shadow" cx="0.5" cy="0.5" r="0.5"><stop offset="0%" stop-color="#191919" stop-opacity="0.18" /><stop offset="100%" stop-color="#191919" stop-opacity="0" /></radialGradient></defs><rect x="0" y="0" width="1000" height="600" fill="url(#bcc-sky)" /><circle cx="780" cy="180" r="80" fill="url(#sun)" /><circle cx="780" cy="180" r="28" fill="#C15F3C" fill-opacity="0.55" /><rect x="0" y="600" width="1000" height="200" fill="url(#bcc-ground)" /><ellipse cx="500" cy="728" rx="190" ry="22" fill="url(#pot-shadow)" /><path d="M340,600 Q336,608 344,618 L370,700 Q376,710 384,710 L616,710 Q624,710 630,700 L656,618 Q664,608 660,600 Z" fill="url(#bcc-pot)" /><path d="M350,622 Q500,626 650,622" stroke="#3D3328" stroke-width="1.5" fill="none" stroke-linecap="round" opacity="0.55" /><ellipse cx="500" cy="602" rx="152" ry="8" fill="#3D3328" /><circle cx="430" cy="601" r="4" fill="#B1ADA1" opacity="0.7" /><circle cx="530" cy="603" r="3" fill="#B1ADA1" opacity="0.55" /><circle cx="590" cy="601" r="3.5" fill="#B1ADA1" opacity="0.7" /><path d="M511.0,600.3 C511.0,594.8 510.7,543.9 511.0,534.7 C511.3,525.5 515.3,502.9 514.8,490.0 C514.3,477.1 505.8,389.0 505.0,379.9 C504.6,379.9 500.3,371.0 500.0,380.1 C499.8,389.3 502.7,477.2 502.0,490.0 C501.4,502.7 493.4,524.1 492.3,533.3 C491.3,542.4 489.3,594.2 489.0,599.7 Z" fill="#E8E0D4" /><line x1="487.9" y1="580.2" x2="500.5" y2="580.2" stroke="#191919" stroke-width="2" stroke-linecap="round" opacity="0.85" /><line x1="495.7" y1="557.6" x2="508.3" y2="557.6" stroke="#191919" stroke-width="2" stroke-linecap="round" opacity="0.85" /><line x1="489.1" y1="534.9" x2="501.7" y2="534.9" stroke="#191919" stroke-width="2" stroke-linecap="round" opacity="0.85" /><line x1="498.5" y1="519.5" x2="511.1" y2="519.5" stroke="#191919" stroke-width="2" stroke-linecap="round" opacity="0.85" /><line x1="493.6" y1="504.5" x2="506.2" y2="504.5" stroke="#191919" stroke-width="2" stroke-linecap="round" opacity="0.85" /><line x1="502.9" y1="488.4" x2="515.5" y2="488.4" stroke="#191919" stroke-width="2" stroke-linecap="round" opacity="0.85" /><line x1="493.7" y1="450.7" x2="506.3" y2="450.7" stroke="#191919" stroke-width="2" stroke-linecap="round" opacity="0.85" /><line x1="498.9" y1="413.0" x2="511.5" y2="413.0" stroke="#191919" stroke-width="2" stroke-linecap="round" opacity="0.85" /><path d="M502.0,537.1 C500.9,537.0 493.8,536.9 488.2,535.7 C482.5,534.6 443.6,526.1 434.5,523.4 C425.4,520.7 383.5,504.8 378.9,503.1 C378.8,503.3 373.6,502.9 378.2,505.0 C382.7,507.0 424.2,524.3 433.2,527.4 C442.3,530.4 481.2,540.1 486.9,541.5 C492.5,542.9 499.8,543.9 501.0,544.1 Z" fill="#E8E0D4" /><g><g transform="translate(382.9,500.6) rotate(-10.2)"><path d="M0,0 C-3.3,-2.7 -6.6,-7.5 0,-8.8 C6.6,-7.5 3.3,-2.7 0,0 Z" fill="#A8C8A0" /></g><g transform="translate(357.5,510.8) rotate(30.9)"><path d="M0,0 C-3.0,-2.4 -6.0,-6.7 0,-7.9 C6.0,-6.7 3.0,-2.4 0,0 Z" fill="#A8C8A0" /></g><g transform="translate(376.4,487.8) rotate(-8.0)"><path d="M0,0 C-2.6,-2.1 -5.3,-6.0 0,-7.0 C5.3,-6.0 2.6,-2.1 0,0 Z" fill="#A8C8A0" /></g><g transform="translate(395.2,497.9) rotate(33.1)"><path d="M0,0 C-3.8,-3.0 -7.6,-8.6 0,-10.1 C7.6,-8.6 3.8,-3.0 0,0 Z" fill="#A8C8A0" /></g><g transform="translate(369.8,508.1) rotate(-5.8)"><path d="M0,0 C-3.5,-2.8 -6.9,-7.9 0,-9.2 C6.9,-7.9 3.5,-2.8 0,0 Z" fill="#A8C8A0" /></g><g transform="translate(388.6,518.2) rotate(35.3)"><path d="M0,0 C-3.1,-2.5 -6.2,-7.1 0,-8.3 C6.2,-7.1 3.1,-2.5 0,0 Z" fill="#A8C8A0" /></g><g transform="translate(363.2,495.3) rotate(-3.6)"><path d="M0,0 C-2.8,-2.2 -5.6,-6.3 0,-7.4 C5.6,-6.3 2.8,-2.2 0,0 Z" fill="#A8C8A0" /></g><g transform="translate(382.1,505.4) rotate(37.8)"><path d="M0,0 C-2.4,-2.0 -4.9,-5.5 0,-6.5 C4.9,-5.5 2.4,-2.0 0,0 Z" fill="#A8C8A0" /></g><g transform="translate(356.7,515.6) rotate(-1.4)"><path d="M0,0 C-3.6,-2.9 -7.2,-8.2 0,-9.6 C7.2,-8.2 3.6,-2.9 0,0 Z" fill="#A8C8A0" /></g><g transform="translate(375.5,492.6) rotate(40.0)"><path d="M0,0 C-3.3,-2.6 -6.6,-7.4 0,-8.7 C6.6,-7.4 3.3,-2.6 0,0 Z" fill="#A8C8A0" /></g><g transform="translate(394.3,502.7) rotate(0.8)"><path d="M0,0 C-2.9,-2.3 -5.9,-6.7 0,-7.8 C5.9,-6.7 2.9,-2.3 0,0 Z" fill="#8EAA88" /></g></g><g><g transform="translate(432.3,541.6) rotate(-38.7)"><path d="M0,0 C-2.9,-2.3 -5.8,-6.6 0,-7.8 C5.8,-6.6 2.9,-2.3 0,0 Z" fill="#8EAA88" /></g><g transform="translate(418.5,529.1) rotate(2.7)"><path d="M0,0 C-2.6,-2.1 -5.2,-5.8 0,-6.9 C5.2,-5.8 2.6,-2.1 0,0 Z" fill="#8EAA88" /></g><g transform="translate(428.7,534.6) rotate(-36.5)"><path d="M0,0 C-3.7,-3.0 -7.5,-8.5 0,-10.0 C7.5,-8.5 3.7,-3.0 0,0 Z" fill="#8EAA88" /></g><g transform="translate(414.9,540.2) rotate(4.9)"><path d="M0,0 C-3.4,-2.7 -6.8,-7.7 0,-9.1 C6.8,-7.7 3.4,-2.7 0,0 Z" fill="#8EAA88" /></g><g transform="translate(425.1,527.7) rotate(-34.4)"><path d="M0,0 C-3.1,-2.5 -6.1,-6.9 0,-8.2 C6.1,-6.9 3.1,-2.5 0,0 Z" fill="#8EAA88" /></g></g><g><g transform="translate(432.1,539.1) rotate(-7.7)"><path d="M0,0 C-3.6,-2.9 -7.2,-8.2 0,-9.6 C7.2,-8.2 3.6,-2.9 0,0 Z" fill="#A8C8A0" /></g><g transform="translate(442.4,544.6) rotate(33.7)"><path d="M0,0 C-3.3,-2.6 -6.5,-7.4 0,-8.7 C6.5,-7.4 3.3,-2.6 0,0 Z" fill="#A8C8A0" /></g><g transform="translate(428.5,532.1) rotate(-5.5)"><path d="M0,0 C-2.9,-2.3 -5.9,-6.7 0,-7.8 C5.9,-6.7 2.9,-2.3 0,0 Z" fill="#A8C8A0" /></g><g transform="translate(438.8,537.6) rotate(35.9)"><path d="M0,0 C-2.6,-2.1 -5.2,-5.9 0,-6.9 C5.2,-5.9 2.6,-2.1 0,0 Z" fill="#A8C8A0" /></g><g transform="translate(425.0,543.2) rotate(-3.3)"><path d="M0,0 C-3.8,-3.0 -7.5,-8.5 0,-10.0 C7.5,-8.5 3.8,-3.0 0,0 Z" fill="#A8C8A0" /></g></g><path d="M502.0,544.1 C503.2,543.9 510.4,542.7 516.1,541.5 C521.7,540.3 560.7,532.0 569.7,529.1 C578.8,526.3 620.3,509.6 624.9,507.8 C624.8,507.6 628.9,504.5 624.2,505.9 C619.5,507.4 577.7,522.7 568.6,525.1 C559.5,527.6 520.6,534.7 514.9,535.7 C509.3,536.7 502.2,537.0 501.0,537.1 Z" fill="#E8E0D4" /><g><g transform="translate(645.5,510.3) rotate(19.6)"><path d="M0,0 C-2.7,-2.2 -5.5,-6.2 0,-7.3 C5.5,-6.2 2.7,-2.2 0,0 Z" fill="#8EAA88" /></g><g transform="translate(620.1,520.5) rotate(-19.6)"><path d="M0,0 C-3.9,-3.1 -7.8,-8.8 0,-10.4 C7.8,-8.8 3.9,-3.1 0,0 Z" fill="#A8C8A0" /></g><g transform="translate(638.9,497.5) rotate(21.8)"><path d="M0,0 C-3.6,-2.8 -7.1,-8.1 0,-9.5 C7.1,-8.1 3.6,-2.8 0,0 Z" fill="#A8C8A0" /></g><g transform="translate(613.6,507.7) rotate(-17.1)"><path d="M0,0 C-3.2,-2.6 -6.4,-7.3 0,-8.6 C6.4,-7.3 3.2,-2.6 0,0 Z" fill="#A8C8A0" /></g><g transform="translate(632.4,517.8) rotate(24.0)"><path d="M0,0 C-2.9,-2.3 -5.8,-6.5 0,-7.7 C5.8,-6.5 2.9,-2.3 0,0 Z" fill="#A8C8A0" /></g><g transform="translate(607.0,494.9) rotate(-14.9)"><path d="M0,0 C-2.5,-2.0 -5.1,-5.8 0,-6.8 C5.1,-5.8 2.5,-2.0 0,0 Z" fill="#A8C8A0" /></g><g transform="translate(625.8,505.0) rotate(26.2)"><path d="M0,0 C-3.7,-3.0 -7.4,-8.4 0,-9.9 C7.4,-8.4 3.7,-3.0 0,0 Z" fill="#A8C8A0" /></g><g transform="translate(644.6,515.1) rotate(-12.7)"><path d="M0,0 C-3.4,-2.7 -6.7,-7.6 0,-9.0 C6.7,-7.6 3.4,-2.7 0,0 Z" fill="#A8C8A0" /></g><g transform="translate(619.3,492.2) rotate(28.4)"><path d="M0,0 C-3.0,-2.4 -6.1,-6.9 0,-8.1 C6.1,-6.9 3.0,-2.4 0,0 Z" fill="#A8C8A0" /></g><g transform="translate(638.1,502.3) rotate(-10.5)"><path d="M0,0 C-2.7,-2.2 -5.4,-6.1 0,-7.2 C5.4,-6.1 2.7,-2.2 0,0 Z" fill="#A8C8A0" /></g><g transform="translate(612.7,512.5) rotate(30.6)"><path d="M0,0 C-3.9,-3.1 -7.7,-8.7 0,-10.3 C7.7,-8.7 3.9,-3.1 0,0 Z" fill="#A8C8A0" /></g></g><g><g transform="translate(558.6,537.2) rotate(-37.2)"><path d="M0,0 C-3.4,-2.7 -6.9,-7.8 0,-9.1 C6.9,-7.8 3.4,-2.7 0,0 Z" fill="#8EAA88" /></g><g transform="translate(568.8,542.8) rotate(3.9)"><path d="M0,0 C-3.1,-2.5 -6.2,-7.0 0,-8.2 C6.2,-7.0 3.1,-2.5 0,0 Z" fill="#8EAA88" /></g><g transform="translate(555.0,530.3) rotate(-35.0)"><path d="M0,0 C-2.8,-2.2 -5.5,-6.2 0,-7.3 C5.5,-6.2 2.8,-2.2 0,0 Z" fill="#8EAA88" /></g><g transform="translate(565.2,535.8) rotate(6.4)"><path d="M0,0 C-2.4,-1.9 -4.8,-5.5 0,-6.4 C4.8,-5.5 2.4,-1.9 0,0 Z" fill="#8EAA88" /></g><g transform="translate(551.4,541.3) rotate(-32.8)"><path d="M0,0 C-3.6,-2.9 -7.2,-8.1 0,-9.5 C7.2,-8.1 3.6,-2.9 0,0 Z" fill="#8EAA88" /></g></g><g><g transform="translate(558.4,534.7) rotate(-6.1)"><path d="M0,0 C-2.6,-2.1 -5.2,-5.9 0,-7.0 C5.2,-5.9 2.6,-2.1 0,0 Z" fill="#A8C8A0" /></g><g transform="translate(568.6,540.2) rotate(35.0)"><path d="M0,0 C-3.8,-3.0 -7.6,-8.6 0,-10.1 C7.6,-8.6 3.8,-3.0 0,0 Z" fill="#A8C8A0" /></g><g transform="translate(578.9,545.7) rotate(-3.9)"><path d="M0,0 C-3.4,-2.8 -6.9,-7.8 0,-9.2 C6.9,-7.8 3.4,-2.8 0,0 Z" fill="#A8C8A0" /></g><g transform="translate(565.1,533.2) rotate(37.2)"><path d="M0,0 C-3.1,-2.5 -6.2,-7.1 0,-8.3 C6.2,-7.1 3.1,-2.5 0,0 Z" fill="#A8C8A0" /></g><g transform="translate(575.3,538.7) rotate(-1.7)"><path d="M0,0 C-2.8,-2.2 -5.5,-6.3 0,-7.4 C5.5,-6.3 2.8,-2.2 0,0 Z" fill="#A8C8A0" /></g></g><path d="M502.0,537.1 C500.9,537.0 493.8,537.0 488.2,535.7 C482.6,534.5 443.7,525.2 434.5,522.2 C425.4,519.2 383.5,501.9 378.9,500.0 C378.8,500.2 373.6,499.7 378.1,501.8 C382.7,504.0 424.1,522.9 433.2,526.2 C442.2,529.5 481.2,540.0 486.8,541.5 C492.5,543.0 499.8,543.8 501.0,544.1 Z" fill="#E8E0D4" /><g><g transform="translate(373.3,509.1) rotate(-21.2)"><path d="M0,0 C-2.8,-2.2 -5.5,-6.3 0,-7.4 C5.5,-6.3 2.8,-2.2 0,0 Z" fill="#8EAA88" /></g><g transform="translate(392.1,486.1) rotate(20.2)"><path d="M0,0 C-2.4,-1.9 -4.9,-5.5 0,-6.5 C4.9,-5.5 2.4,-1.9 0,0 Z" fill="#A8C8A0" /></g><g transform="translate(366.7,496.3) rotate(-19.0)"><path d="M0,0 C-3.6,-2.9 -7.2,-8.1 0,-9.6 C7.2,-8.1 3.6,-2.9 0,0 Z" fill="#A8C8A0" /></g><g transform="translate(385.5,506.4) rotate(22.4)"><path d="M0,0 C-3.3,-2.6 -6.5,-7.4 0,-8.7 C6.5,-7.4 3.3,-2.6 0,0 Z" fill="#A8C8A0" /></g><g transform="translate(360.1,516.6) rotate(-16.8)"><path d="M0,0 C-2.9,-2.3 -5.8,-6.6 0,-7.8 C5.8,-6.6 2.9,-2.3 0,0 Z" fill="#A8C8A0" /></g><g transform="translate(378.9,493.6) rotate(24.6)"><path d="M0,0 C-2.6,-2.1 -5.2,-5.8 0,-6.9 C5.2,-5.8 2.6,-2.1 0,0 Z" fill="#A8C8A0" /></g><g transform="translate(397.8,503.7) rotate(-14.6)"><path d="M0,0 C-3.7,-3.0 -7.5,-8.5 0,-10.0 C7.5,-8.5 3.7,-3.0 0,0 Z" fill="#A8C8A0" /></g><g transform="translate(372.4,513.9) rotate(26.8)"><path d="M0,0 C-3.4,-2.7 -6.8,-7.7 0,-9.1 C6.8,-7.7 3.4,-2.7 0,0 Z" fill="#A8C8A0" /></g><g transform="translate(391.2,490.9) rotate(-12.4)"><path d="M0,0 C-3.1,-2.5 -6.1,-6.9 0,-8.2 C6.1,-6.9 3.1,-2.5 0,0 Z" fill="#A8C8A0" /></g><g transform="translate(365.8,501.1) rotate(29.0)"><path d="M0,0 C-2.7,-2.2 -5.4,-6.2 0,-7.3 C5.4,-6.2 2.7,-2.2 0,0 Z" fill="#A8C8A0" /></g><g transform="translate(384.6,511.2) rotate(-10.2)"><path d="M0,0 C-3.9,-3.1 -7.8,-8.8 0,-10.4 C7.8,-8.8 3.9,-3.1 0,0 Z" fill="#A8C8A0" /></g></g><g><g transform="translate(425.5,539.9) rotate(1.7)"><path d="M0,0 C-3.2,-2.6 -6.4,-7.3 0,-8.5 C6.4,-7.3 3.2,-2.6 0,0 Z" fill="#8EAA88" /></g><g transform="translate(435.8,527.4) rotate(-37.5)"><path d="M0,0 C-2.9,-2.3 -5.7,-6.5 0,-7.7 C5.7,-6.5 2.9,-2.3 0,0 Z" fill="#8EAA88" /></g><g transform="translate(421.9,533.0) rotate(3.9)"><path d="M0,0 C-2.5,-2.0 -5.1,-5.7 0,-6.7 C5.1,-5.7 2.5,-2.0 0,0 Z" fill="#8EAA88" /></g><g transform="translate(432.2,538.5) rotate(-35.3)"><path d="M0,0 C-3.7,-3.0 -7.4,-8.4 0,-9.9 C7.4,-8.4 3.7,-3.0 0,0 Z" fill="#8EAA88" /></g><g transform="translate(418.4,526.0) rotate(6.1)"><path d="M0,0 C-3.4,-2.7 -6.7,-7.6 0,-9.0 C6.7,-7.6 3.4,-2.7 0,0 Z" fill="#8EAA88" /></g></g><g><g transform="translate(425.3,537.4) rotate(32.8)"><path d="M0,0 C-2.4,-1.9 -4.8,-5.4 0,-6.4 C4.8,-5.4 2.4,-1.9 0,0 Z" fill="#A8C8A0" /></g><g transform="translate(435.6,542.9) rotate(-6.4)"><path d="M0,0 C-3.6,-2.9 -7.1,-8.1 0,-9.5 C7.1,-8.1 3.6,-2.9 0,0 Z" fill="#A8C8A0" /></g><g transform="translate(445.9,530.3) rotate(35.0)"><path d="M0,0 C-3.2,-2.6 -6.5,-7.3 0,-8.6 C6.5,-7.3 3.2,-2.6 0,0 Z" fill="#A8C8A0" /></g><g transform="translate(432.0,535.9) rotate(-4.2)"><path d="M0,0 C-2.9,-2.3 -5.8,-6.5 0,-7.7 C5.8,-6.5 2.9,-2.3 0,0 Z" fill="#A8C8A0" /></g><g transform="translate(442.3,541.4) rotate(37.2)"><path d="M0,0 C-2.5,-2.0 -5.1,-5.8 0,-6.8 C5.1,-5.8 2.5,-2.0 0,0 Z" fill="#A8C8A0" /></g></g><path d="M502.0,544.1 C503.2,543.9 510.4,542.7 516.1,541.5 C521.7,540.3 560.7,532.7 569.8,529.6 C578.9,526.5 620.3,506.4 624.9,504.3 C624.8,504.1 628.8,500.7 624.1,502.5 C619.4,504.2 577.6,522.9 568.5,525.6 C559.4,528.4 520.6,534.7 515.0,535.7 C509.3,536.6 502.2,537.0 501.0,537.1 Z" fill="#E8E0D4" /><g><g transform="translate(614.4,517.4) rotate(-26.5)"><path d="M0,0 C-3.2,-2.6 -6.5,-7.3 0,-8.6 C6.5,-7.3 3.2,-2.6 0,0 Z" fill="#8EAA88" /></g><g transform="translate(633.2,494.4) rotate(14.6)"><path d="M0,0 C-2.9,-2.3 -5.8,-6.6 0,-7.7 C5.8,-6.6 2.9,-2.3 0,0 Z" fill="#8EAA88" /></g><g transform="translate(607.9,504.6) rotate(-24.3)"><path d="M0,0 C-2.6,-2.1 -5.1,-5.8 0,-6.8 C5.1,-5.8 2.6,-2.1 0,0 Z" fill="#8EAA88" /></g><g transform="translate(626.7,514.7) rotate(16.8)"><path d="M0,0 C-3.7,-3.0 -7.5,-8.5 0,-9.9 C7.5,-8.5 3.7,-3.0 0,0 Z" fill="#8EAA88" /></g><g transform="translate(645.5,491.7) rotate(-22.1)"><path d="M0,0 C-3.4,-2.7 -6.8,-7.7 0,-9.1 C6.8,-7.7 3.4,-2.7 0,0 Z" fill="#8EAA88" /></g><g transform="translate(620.1,501.9) rotate(19.0)"><path d="M0,0 C-3.1,-2.4 -6.1,-6.9 0,-8.1 C6.1,-6.9 3.1,-2.4 0,0 Z" fill="#8EAA88" /></g><g transform="translate(638.9,512.0) rotate(-19.9)"><path d="M0,0 C-2.7,-2.2 -5.4,-6.1 0,-7.2 C5.4,-6.1 2.7,-2.2 0,0 Z" fill="#A8C8A0" /></g><g transform="translate(613.6,489.1) rotate(21.2)"><path d="M0,0 C-3.9,-3.1 -7.8,-8.8 0,-10.4 C7.8,-8.8 3.9,-3.1 0,0 Z" fill="#A8C8A0" /></g><g transform="translate(632.4,499.2) rotate(-17.7)"><path d="M0,0 C-3.5,-2.8 -7.1,-8.0 0,-9.4 C7.1,-8.0 3.5,-2.8 0,0 Z" fill="#A8C8A0" /></g><g transform="translate(607.0,509.4) rotate(23.7)"><path d="M0,0 C-3.2,-2.6 -6.4,-7.3 0,-8.5 C6.4,-7.3 3.2,-2.6 0,0 Z" fill="#A8C8A0" /></g><g transform="translate(625.8,519.5) rotate(-15.5)"><path d="M0,0 C-2.9,-2.3 -5.7,-6.5 0,-7.6 C5.7,-6.5 2.9,-2.3 0,0 Z" fill="#A8C8A0" /></g></g><g><g transform="translate(569.5,543.1) rotate(21.8)"><path d="M0,0 C-3.4,-2.7 -6.7,-7.6 0,-8.9 C6.7,-7.6 3.4,-2.7 0,0 Z" fill="#A8C8A0" /></g><g transform="translate(555.6,530.6) rotate(-17.4)"><path d="M0,0 C-3.0,-2.4 -6.0,-6.8 0,-8.0 C6.0,-6.8 3.0,-2.4 0,0 Z" fill="#A8C8A0" /></g><g transform="translate(565.9,536.1) rotate(24.0)"><path d="M0,0 C-2.7,-2.1 -5.4,-6.1 0,-7.1 C5.4,-6.1 2.7,-2.1 0,0 Z" fill="#A8C8A0" /></g><g transform="translate(552.1,541.7) rotate(-15.2)"><path d="M0,0 C-3.8,-3.1 -7.7,-8.7 0,-10.2 C7.7,-8.7 3.8,-3.1 0,0 Z" fill="#A8C8A0" /></g><g transform="translate(562.3,529.1) rotate(26.2)"><path d="M0,0 C-3.5,-2.8 -7.0,-7.9 0,-9.3 C7.0,-7.9 3.5,-2.8 0,0 Z" fill="#A8C8A0" /></g></g><g><g transform="translate(569.3,540.5) rotate(-27.5)"><path d="M0,0 C-2.5,-2.0 -5.1,-5.8 0,-6.8 C5.1,-5.8 2.5,-2.0 0,0 Z" fill="#8EAA88" /></g><g transform="translate(579.6,546.0) rotate(13.6)"><path d="M0,0 C-3.7,-3.0 -7.4,-8.4 0,-9.9 C7.4,-8.4 3.7,-3.0 0,0 Z" fill="#8EAA88" /></g><g transform="translate(565.7,533.5) rotate(-25.3)"><path d="M0,0 C-3.4,-2.7 -6.8,-7.7 0,-9.0 C6.8,-7.7 3.4,-2.7 0,0 Z" fill="#8EAA88" /></g><g transform="translate(576.0,539.0) rotate(15.8)"><path d="M0,0 C-3.0,-2.4 -6.1,-6.9 0,-8.1 C6.1,-6.9 3.0,-2.4 0,0 Z" fill="#8EAA88" /></g><g transform="translate(562.2,544.6) rotate(-23.1)"><path d="M0,0 C-2.7,-2.2 -5.4,-6.1 0,-7.2 C5.4,-6.1 2.7,-2.2 0,0 Z" fill="#8EAA88" /></g></g><path d="M502.7,527.4 C501.5,527.3 494.5,527.2 488.9,526.0 C483.2,524.7 444.2,515.1 435.1,512.6 C426.0,510.2 384.1,498.0 379.5,496.6 C379.4,496.8 374.3,496.9 378.9,498.5 C383.4,500.2 424.9,513.9 433.9,516.6 C443.0,519.4 481.8,530.3 487.5,531.7 C493.1,533.2 500.5,534.1 501.7,534.3 Z" fill="#E8E0D4" /><g><g transform="translate(361.5,488.7) rotate(29.0)"><path d="M0,0 C-2.5,-2.0 -5.0,-5.6 0,-6.6 C5.0,-5.6 2.5,-2.0 0,0 Z" fill="#A8C8A0" /></g><g transform="translate(380.3,498.8) rotate(-10.2)"><path d="M0,0 C-3.6,-2.9 -7.3,-8.3 0,-9.7 C7.3,-8.3 3.6,-2.9 0,0 Z" fill="#A8C8A0" /></g><g transform="translate(399.1,508.9) rotate(31.2)"><path d="M0,0 C-3.3,-2.6 -6.6,-7.5 0,-8.8 C6.6,-7.5 3.3,-2.6 0,0 Z" fill="#A8C8A0" /></g><g transform="translate(373.7,486.0) rotate(-8.0)"><path d="M0,0 C-3.0,-2.4 -5.9,-6.7 0,-7.9 C5.9,-6.7 3.0,-2.4 0,0 Z" fill="#A8C8A0" /></g><g transform="translate(392.5,496.1) rotate(33.4)"><path d="M0,0 C-2.6,-2.1 -5.2,-5.9 0,-7.0 C5.2,-5.9 2.6,-2.1 0,0 Z" fill="#A8C8A0" /></g><g transform="translate(367.2,506.3) rotate(-5.8)"><path d="M0,0 C-3.8,-3.0 -7.6,-8.6 0,-10.1 C7.6,-8.6 3.8,-3.0 0,0 Z" fill="#A8C8A0" /></g><g transform="translate(386.0,483.3) rotate(35.6)"><path d="M0,0 C-3.5,-2.8 -6.9,-7.8 0,-9.2 C6.9,-7.8 3.5,-2.8 0,0 Z" fill="#A8C8A0" /></g><g transform="translate(360.6,493.5) rotate(-3.6)"><path d="M0,0 C-3.1,-2.5 -6.2,-7.1 0,-8.3 C6.2,-7.1 3.1,-2.5 0,0 Z" fill="#A8C8A0" /></g><g transform="translate(379.4,503.6) rotate(37.8)"><path d="M0,0 C-2.8,-2.2 -5.5,-6.3 0,-7.4 C5.5,-6.3 2.8,-2.2 0,0 Z" fill="#A8C8A0" /></g><g transform="translate(398.2,513.7) rotate(-1.1)"><path d="M0,0 C-2.4,-1.9 -4.9,-5.5 0,-6.5 C4.9,-5.5 2.4,-1.9 0,0 Z" fill="#A8C8A0" /></g><g transform="translate(372.9,490.8) rotate(40.0)"><path d="M0,0 C-3.6,-2.9 -7.2,-8.2 0,-9.6 C7.2,-8.2 3.6,-2.9 0,0 Z" fill="#A8C8A0" /></g></g><g><g transform="translate(420.9,524.3) rotate(-32.8)"><path d="M0,0 C-3.5,-2.8 -6.9,-7.9 0,-9.3 C6.9,-7.9 3.5,-2.8 0,0 Z" fill="#8EAA88" /></g><g transform="translate(431.1,529.8) rotate(8.3)"><path d="M0,0 C-3.1,-2.5 -6.3,-7.1 0,-8.3 C6.3,-7.1 3.1,-2.5 0,0 Z" fill="#8EAA88" /></g><g transform="translate(417.3,517.3) rotate(-30.6)"><path d="M0,0 C-2.8,-2.2 -5.6,-6.3 0,-7.5 C5.6,-6.3 2.8,-2.2 0,0 Z" fill="#8EAA88" /></g><g transform="translate(427.6,522.8) rotate(10.8)"><path d="M0,0 C-2.5,-2.0 -4.9,-5.6 0,-6.5 C4.9,-5.6 2.5,-2.0 0,0 Z" fill="#8EAA88" /></g><g transform="translate(413.7,528.4) rotate(-28.4)"><path d="M0,0 C-3.6,-2.9 -7.2,-8.2 0,-9.6 C7.2,-8.2 3.6,-2.9 0,0 Z" fill="#8EAA88" /></g></g><g><g transform="translate(444.8,521.7) rotate(-1.7)"><path d="M0,0 C-2.7,-2.1 -5.3,-6.0 0,-7.1 C5.3,-6.0 2.7,-2.1 0,0 Z" fill="#A8C8A0" /></g><g transform="translate(431.0,527.3) rotate(39.4)"><path d="M0,0 C-3.8,-3.1 -7.7,-8.7 0,-10.2 C7.7,-8.7 3.8,-3.1 0,0 Z" fill="#A8C8A0" /></g><g transform="translate(441.2,532.8) rotate(0.5)"><path d="M0,0 C-3.5,-2.8 -7.0,-7.9 0,-9.3 C7.0,-7.9 3.5,-2.8 0,0 Z" fill="#8EAA88" /></g><g transform="translate(427.4,520.3) rotate(-38.4)"><path d="M0,0 C-3.2,-2.5 -6.3,-7.1 0,-8.4 C6.3,-7.1 3.2,-2.5 0,0 Z" fill="#8EAA88" /></g><g transform="translate(437.7,525.8) rotate(2.7)"><path d="M0,0 C-2.8,-2.2 -5.6,-6.4 0,-7.5 C5.6,-6.4 2.8,-2.2 0,0 Z" fill="#8EAA88" /></g></g><path d="M502.0,544.1 C503.2,543.9 510.3,542.6 516.0,541.5 C521.6,540.5 560.8,534.7 569.8,531.4 C578.9,528.2 620.4,504.7 625.0,502.3 C624.9,502.1 628.8,498.4 624.1,500.5 C619.4,502.6 577.6,524.6 568.5,527.5 C559.4,530.4 520.7,534.9 515.0,535.7 C509.4,536.5 502.2,537.0 501.0,537.1 Z" fill="#E8E0D4" /><g><g transform="translate(624.8,497.2) rotate(-11.8)"><path d="M0,0 C-2.5,-2.0 -5.0,-5.7 0,-6.7 C5.0,-5.7 2.5,-2.0 0,0 Z" fill="#A8C8A0" /></g><g transform="translate(643.6,507.3) rotate(29.3)"><path d="M0,0 C-3.7,-2.9 -7.4,-8.3 0,-9.8 C7.4,-8.3 3.7,-2.9 0,0 Z" fill="#A8C8A0" /></g><g transform="translate(618.2,517.5) rotate(-9.6)"><path d="M0,0 C-3.3,-2.7 -6.7,-7.6 0,-8.9 C6.7,-7.6 3.3,-2.7 0,0 Z" fill="#A8C8A0" /></g><g transform="translate(637.0,494.4) rotate(31.5)"><path d="M0,0 C-3.0,-2.4 -6.0,-6.8 0,-8.0 C6.0,-6.8 3.0,-2.4 0,0 Z" fill="#A8C8A0" /></g><g transform="translate(611.7,504.7) rotate(-7.4)"><path d="M0,0 C-2.7,-2.1 -5.3,-6.0 0,-7.1 C5.3,-6.0 2.7,-2.1 0,0 Z" fill="#A8C8A0" /></g><g transform="translate(630.5,514.8) rotate(33.7)"><path d="M0,0 C-3.8,-3.1 -7.6,-8.7 0,-10.2 C7.6,-8.7 3.8,-3.1 0,0 Z" fill="#A8C8A0" /></g><g transform="translate(605.1,491.9) rotate(-5.2)"><path d="M0,0 C-3.5,-2.8 -7.0,-7.9 0,-9.3 C7.0,-7.9 3.5,-2.8 0,0 Z" fill="#A8C8A0" /></g><g transform="translate(623.9,501.9) rotate(35.9)"><path d="M0,0 C-3.1,-2.5 -6.3,-7.1 0,-8.4 C6.3,-7.1 3.1,-2.5 0,0 Z" fill="#A8C8A0" /></g><g transform="translate(642.7,512.0) rotate(-3.0)"><path d="M0,0 C-2.8,-2.2 -5.6,-6.4 0,-7.5 C5.6,-6.4 2.8,-2.2 0,0 Z" fill="#A8C8A0" /></g><g transform="translate(617.4,489.1) rotate(38.4)"><path d="M0,0 C-2.5,-2.0 -4.9,-5.6 0,-6.6 C4.9,-5.6 2.5,-2.0 0,0 Z" fill="#A8C8A0" /></g><g transform="translate(636.2,499.2) rotate(-0.8)"><path d="M0,0 C-3.6,-2.9 -7.3,-8.2 0,-9.7 C7.3,-8.2 3.6,-2.9 0,0 Z" fill="#A8C8A0" /></g></g><g><g transform="translate(557.8,544.8) rotate(6.1)"><path d="M0,0 C-3.2,-2.6 -6.5,-7.4 0,-8.7 C6.5,-7.4 3.2,-2.6 0,0 Z" fill="#8EAA88" /></g><g transform="translate(568.1,532.2) rotate(-33.1)"><path d="M0,0 C-2.9,-2.3 -5.8,-6.6 0,-7.8 C5.8,-6.6 2.9,-2.3 0,0 Z" fill="#8EAA88" /></g><g transform="translate(554.2,537.8) rotate(8.3)"><path d="M0,0 C-2.6,-2.1 -5.1,-5.8 0,-6.9 C5.1,-5.8 2.6,-2.1 0,0 Z" fill="#8EAA88" /></g><g transform="translate(564.5,543.3) rotate(-30.9)"><path d="M0,0 C-3.7,-3.0 -7.5,-8.5 0,-10.0 C7.5,-8.5 3.7,-3.0 0,0 Z" fill="#8EAA88" /></g><g transform="translate(550.6,530.8) rotate(10.5)"><path d="M0,0 C-3.4,-2.7 -6.8,-7.7 0,-9.1 C6.8,-7.7 3.4,-2.7 0,0 Z" fill="#8EAA88" /></g></g><g><g transform="translate(557.6,542.2) rotate(37.2)"><path d="M0,0 C-2.4,-2.0 -4.9,-5.5 0,-6.5 C4.9,-5.5 2.4,-2.0 0,0 Z" fill="#A8C8A0" /></g><g transform="translate(567.9,547.7) rotate(-2.0)"><path d="M0,0 C-3.6,-2.9 -7.2,-8.2 0,-9.6 C7.2,-8.2 3.6,-2.9 0,0 Z" fill="#A8C8A0" /></g><g transform="translate(578.2,535.2) rotate(39.4)"><path d="M0,0 C-3.3,-2.6 -6.5,-7.4 0,-8.7 C6.5,-7.4 3.3,-2.6 0,0 Z" fill="#A8C8A0" /></g><g transform="translate(564.3,540.7) rotate(0.2)"><path d="M0,0 C-2.9,-2.3 -5.9,-6.6 0,-7.8 C5.9,-6.6 2.9,-2.3 0,0 Z" fill="#8EAA88" /></g><g transform="translate(574.6,546.3) rotate(-38.7)"><path d="M0,0 C-2.6,-2.1 -5.2,-5.9 0,-6.9 C5.2,-5.9 2.6,-2.1 0,0 Z" fill="#8EAA88" /></g></g><path d="M505.5,508.5 C504.4,508.4 496.6,507.9 491.6,507.1 C486.6,506.3 453.6,501.3 445.7,499.0 C437.8,496.7 400.5,481.2 396.4,479.6 C396.4,479.8 391.7,479.5 395.7,481.5 C399.7,483.4 436.6,500.3 444.5,503.0 C452.4,505.6 485.5,511.9 490.5,512.9 C495.5,514.0 503.4,515.3 504.6,515.5 Z" fill="#E8E0D4" /><g><g transform="translate(411.5,485.4) rotate(8.3)"><path d="M0,0 C-2.8,-2.2 -5.6,-6.4 0,-7.5 C5.6,-6.4 2.8,-2.2 0,0 Z" fill="#8EAA88" /></g><g transform="translate(386.1,495.6) rotate(-30.6)"><path d="M0,0 C-2.5,-2.0 -4.9,-5.6 0,-6.6 C4.9,-5.6 2.5,-2.0 0,0 Z" fill="#8EAA88" /></g><g transform="translate(404.9,472.6) rotate(10.5)"><path d="M0,0 C-3.6,-2.9 -7.3,-8.2 0,-9.7 C7.3,-8.2 3.6,-2.9 0,0 Z" fill="#8EAA88" /></g><g transform="translate(379.6,482.8) rotate(-28.4)"><path d="M0,0 C-3.3,-2.6 -6.6,-7.5 0,-8.8 C6.6,-7.5 3.3,-2.6 0,0 Z" fill="#8EAA88" /></g><g transform="translate(398.4,492.9) rotate(12.7)"><path d="M0,0 C-3.0,-2.4 -5.9,-6.7 0,-7.9 C5.9,-6.7 3.0,-2.4 0,0 Z" fill="#8EAA88" /></g><g transform="translate(417.2,469.9) rotate(-26.2)"><path d="M0,0 C-2.6,-2.1 -5.2,-5.9 0,-7.0 C5.2,-5.9 2.6,-2.1 0,0 Z" fill="#8EAA88" /></g><g transform="translate(391.8,480.1) rotate(14.9)"><path d="M0,0 C-3.8,-3.0 -7.6,-8.6 0,-10.1 C7.6,-8.6 3.8,-3.0 0,0 Z" fill="#8EAA88" /></g><g transform="translate(410.6,490.2) rotate(-24.0)"><path d="M0,0 C-3.4,-2.8 -6.9,-7.8 0,-9.2 C6.9,-7.8 3.4,-2.8 0,0 Z" fill="#8EAA88" /></g><g transform="translate(385.3,467.3) rotate(17.1)"><path d="M0,0 C-3.1,-2.5 -6.2,-7.0 0,-8.3 C6.2,-7.0 3.1,-2.5 0,0 Z" fill="#8EAA88" /></g><g transform="translate(404.1,477.4) rotate(-21.8)"><path d="M0,0 C-2.8,-2.2 -5.5,-6.3 0,-7.4 C5.5,-6.3 2.8,-2.2 0,0 Z" fill="#8EAA88" /></g><g transform="translate(378.7,487.6) rotate(19.6)"><path d="M0,0 C-2.4,-1.9 -4.8,-5.5 0,-6.5 C4.8,-5.5 2.4,-1.9 0,0 Z" fill="#8EAA88" /></g></g><g><g transform="translate(437.5,516.4) rotate(-30.0)"><path d="M0,0 C-3.0,-2.4 -6.0,-6.8 0,-8.0 C6.0,-6.8 3.0,-2.4 0,0 Z" fill="#8EAA88" /></g><g transform="translate(423.7,503.9) rotate(11.5)"><path d="M0,0 C-2.7,-2.1 -5.3,-6.0 0,-7.1 C5.3,-6.0 2.7,-2.1 0,0 Z" fill="#8EAA88" /></g><g transform="translate(433.9,509.4) rotate(-27.8)"><path d="M0,0 C-3.8,-3.1 -7.6,-8.7 0,-10.2 C7.6,-8.7 3.8,-3.1 0,0 Z" fill="#8EAA88" /></g><g transform="translate(444.2,514.9) rotate(13.6)"><path d="M0,0 C-3.5,-2.8 -7.0,-7.9 0,-9.3 C7.0,-7.9 3.5,-2.8 0,0 Z" fill="#8EAA88" /></g><g transform="translate(430.3,502.4) rotate(-25.6)"><path d="M0,0 C-3.1,-2.5 -6.3,-7.1 0,-8.4 C6.3,-7.1 3.1,-2.5 0,0 Z" fill="#8EAA88" /></g></g><path d="M505.5,515.5 C506.7,515.2 514.8,514.3 519.8,512.9 C524.8,511.4 557.7,500.8 565.6,498.4 C573.4,496.0 610.2,485.2 614.3,484.0 C614.3,483.8 617.9,481.2 613.8,482.1 C609.6,482.9 572.4,492.3 564.4,494.4 C556.5,496.4 523.3,506.0 518.3,507.1 C513.3,508.3 505.7,508.4 504.6,508.5 Z" fill="#E8E0D4" /><g><g transform="translate(624.7,493.7) rotate(3.0)"><path d="M0,0 C-3.3,-2.6 -6.6,-7.4 0,-8.8 C6.6,-7.4 3.3,-2.6 0,0 Z" fill="#8EAA88" /></g><g transform="translate(599.3,470.8) rotate(-36.2)"><path d="M0,0 C-2.9,-2.4 -5.9,-6.7 0,-7.9 C5.9,-6.7 2.9,-2.4 0,0 Z" fill="#8EAA88" /></g><g transform="translate(618.1,480.9) rotate(5.2)"><path d="M0,0 C-2.6,-2.1 -5.2,-5.9 0,-6.9 C5.2,-5.9 2.6,-2.1 0,0 Z" fill="#8EAA88" /></g><g transform="translate(592.7,491.1) rotate(-34.0)"><path d="M0,0 C-3.8,-3.0 -7.5,-8.5 0,-10.1 C7.5,-8.5 3.8,-3.0 0,0 Z" fill="#8EAA88" /></g><g transform="translate(611.5,468.1) rotate(7.4)"><path d="M0,0 C-3.4,-2.7 -6.9,-7.8 0,-9.2 C6.9,-7.8 3.4,-2.7 0,0 Z" fill="#8EAA88" /></g><g transform="translate(630.4,478.2) rotate(-31.8)"><path d="M0,0 C-3.1,-2.5 -6.2,-7.0 0,-8.3 C6.2,-7.0 3.1,-2.5 0,0 Z" fill="#8EAA88" /></g><g transform="translate(605.0,488.4) rotate(9.6)"><path d="M0,0 C-2.8,-2.2 -5.5,-6.2 0,-7.3 C5.5,-6.2 2.8,-2.2 0,0 Z" fill="#8EAA88" /></g><g transform="translate(623.8,498.5) rotate(-29.3)"><path d="M0,0 C-2.4,-1.9 -4.8,-5.5 0,-6.4 C4.8,-5.5 2.4,-1.9 0,0 Z" fill="#8EAA88" /></g><g transform="translate(598.4,475.6) rotate(11.8)"><path d="M0,0 C-3.6,-2.9 -7.2,-8.1 0,-9.6 C7.2,-8.1 3.6,-2.9 0,0 Z" fill="#8EAA88" /></g><g transform="translate(617.2,485.7) rotate(-27.1)"><path d="M0,0 C-3.2,-2.6 -6.5,-7.3 0,-8.6 C6.5,-7.3 3.2,-2.6 0,0 Z" fill="#8EAA88" /></g><g transform="translate(636.0,495.8) rotate(14.0)"><path d="M0,0 C-2.9,-2.3 -5.8,-6.6 0,-7.7 C5.8,-6.6 2.9,-2.3 0,0 Z" fill="#8EAA88" /></g></g><g><g transform="translate(566.1,511.5) rotate(-9.9)"><path d="M0,0 C-3.1,-2.5 -6.3,-7.1 0,-8.4 C6.3,-7.1 3.1,-2.5 0,0 Z" fill="#A8C8A0" /></g><g transform="translate(552.2,499.0) rotate(31.5)"><path d="M0,0 C-2.8,-2.2 -5.6,-6.4 0,-7.5 C5.6,-6.4 2.8,-2.2 0,0 Z" fill="#A8C8A0" /></g><g transform="translate(562.5,504.5) rotate(-7.4)"><path d="M0,0 C-2.5,-2.0 -4.9,-5.6 0,-6.6 C4.9,-5.6 2.5,-2.0 0,0 Z" fill="#A8C8A0" /></g><g transform="translate(548.6,510.1) rotate(33.7)"><path d="M0,0 C-3.6,-2.9 -7.3,-8.2 0,-9.7 C7.3,-8.2 3.6,-2.9 0,0 Z" fill="#A8C8A0" /></g><g transform="translate(558.9,497.5) rotate(-5.2)"><path d="M0,0 C-3.3,-2.6 -6.6,-7.5 0,-8.8 C6.6,-7.5 3.3,-2.6 0,0 Z" fill="#A8C8A0" /></g></g><path d="M502.7,527.4 C501.5,527.3 493.9,527.3 489.0,526.0 C484.0,524.7 450.9,514.6 442.9,512.0 C434.9,509.4 397.6,496.1 393.5,494.6 C393.5,494.8 388.8,494.7 392.8,496.5 C396.8,498.3 433.6,513.0 441.5,515.9 C449.4,518.8 482.3,530.2 487.4,531.7 C492.4,533.2 500.5,534.1 501.7,534.3 Z" fill="#E8E0D4" /><g><g transform="translate(400.3,509.9) rotate(7.1)"><path d="M0,0 C-2.9,-2.3 -5.8,-6.5 0,-7.7 C5.8,-6.5 2.9,-2.3 0,0 Z" fill="#8EAA88" /></g><g transform="translate(375.0,487.0) rotate(-31.8)"><path d="M0,0 C-2.5,-2.0 -5.1,-5.8 0,-6.8 C5.1,-5.8 2.5,-2.0 0,0 Z" fill="#8EAA88" /></g><g transform="translate(393.8,497.1) rotate(9.3)"><path d="M0,0 C-3.7,-3.0 -7.4,-8.4 0,-9.9 C7.4,-8.4 3.7,-3.0 0,0 Z" fill="#8EAA88" /></g><g transform="translate(412.6,507.2) rotate(-29.6)"><path d="M0,0 C-3.4,-2.7 -6.7,-7.6 0,-9.0 C6.7,-7.6 3.4,-2.7 0,0 Z" fill="#8EAA88" /></g><g transform="translate(387.2,484.2) rotate(11.5)"><path d="M0,0 C-3.0,-2.4 -6.1,-6.9 0,-8.1 C6.1,-6.9 3.0,-2.4 0,0 Z" fill="#8EAA88" /></g><g transform="translate(406.0,494.3) rotate(-27.5)"><path d="M0,0 C-2.7,-2.2 -5.4,-6.1 0,-7.2 C5.4,-6.1 2.7,-2.2 0,0 Z" fill="#8EAA88" /></g><g transform="translate(380.7,504.6) rotate(13.6)"><path d="M0,0 C-3.9,-3.1 -7.7,-8.7 0,-10.3 C7.7,-8.7 3.9,-3.1 0,0 Z" fill="#8EAA88" /></g><g transform="translate(399.5,481.5) rotate(-25.3)"><path d="M0,0 C-3.5,-2.8 -7.0,-8.0 0,-9.4 C7.0,-8.0 3.5,-2.8 0,0 Z" fill="#8EAA88" /></g><g transform="translate(374.1,491.8) rotate(16.2)"><path d="M0,0 C-3.2,-2.5 -6.4,-7.2 0,-8.5 C6.4,-7.2 3.2,-2.5 0,0 Z" fill="#8EAA88" /></g><g transform="translate(392.9,501.8) rotate(-23.1)"><path d="M0,0 C-2.8,-2.3 -5.7,-6.4 0,-7.6 C5.7,-6.4 2.8,-2.3 0,0 Z" fill="#8EAA88" /></g><g transform="translate(411.7,511.9) rotate(18.4)"><path d="M0,0 C-2.5,-2.0 -5.0,-5.7 0,-6.7 C5.0,-5.7 2.5,-2.0 0,0 Z" fill="#8EAA88" /></g></g><g><g transform="translate(439.1,522.6) rotate(-32.5)"><path d="M0,0 C-2.6,-2.0 -5.1,-5.8 0,-6.8 C5.1,-5.8 2.6,-2.0 0,0 Z" fill="#8EAA88" /></g><g transform="translate(425.3,528.1) rotate(8.6)"><path d="M0,0 C-3.7,-3.0 -7.4,-8.4 0,-9.9 C7.4,-8.4 3.7,-3.0 0,0 Z" fill="#8EAA88" /></g><g transform="translate(435.6,515.6) rotate(-30.3)"><path d="M0,0 C-3.4,-2.7 -6.8,-7.7 0,-9.0 C6.8,-7.7 3.4,-2.7 0,0 Z" fill="#8EAA88" /></g><g transform="translate(421.7,521.1) rotate(10.8)"><path d="M0,0 C-3.0,-2.4 -6.1,-6.9 0,-8.1 C6.1,-6.9 3.0,-2.4 0,0 Z" fill="#8EAA88" /></g><g transform="translate(432.0,526.7) rotate(-28.1)"><path d="M0,0 C-2.7,-2.2 -5.4,-6.1 0,-7.2 C5.4,-6.1 2.7,-2.2 0,0 Z" fill="#8EAA88" /></g></g><path d="M507.0,506.0 C508.2,505.8 516.0,504.5 521.0,503.5 C526.0,502.5 559.2,496.7 567.1,494.1 C575.0,491.5 611.8,473.6 615.9,471.7 C615.8,471.6 619.3,468.4 615.1,469.9 C610.9,471.4 573.7,487.8 565.8,490.1 C557.9,492.4 525.0,496.9 520.0,497.7 C515.0,498.4 507.2,499.0 506.0,499.1 Z" fill="#E8E0D4" /><g><g transform="translate(593.7,461.2) rotate(27.5)"><path d="M0,0 C-3.2,-2.5 -6.4,-7.2 0,-8.5 C6.4,-7.2 3.2,-2.5 0,0 Z" fill="#A8C8A0" /></g><g transform="translate(612.5,471.3) rotate(-11.8)"><path d="M0,0 C-2.8,-2.3 -5.7,-6.4 0,-7.6 C5.7,-6.4 2.8,-2.3 0,0 Z" fill="#A8C8A0" /></g><g transform="translate(631.3,481.4) rotate(29.6)"><path d="M0,0 C-2.5,-2.0 -5.0,-5.7 0,-6.7 C5.0,-5.7 2.5,-2.0 0,0 Z" fill="#A8C8A0" /></g><g transform="translate(605.9,458.5) rotate(-9.6)"><path d="M0,0 C-3.7,-2.9 -7.3,-8.3 0,-9.8 C7.3,-8.3 3.7,-2.9 0,0 Z" fill="#A8C8A0" /></g><g transform="translate(624.7,468.6) rotate(31.8)"><path d="M0,0 C-3.3,-2.7 -6.6,-7.5 0,-8.9 C6.6,-7.5 3.3,-2.7 0,0 Z" fill="#A8C8A0" /></g><g transform="translate(599.4,478.8) rotate(-7.4)"><path d="M0,0 C-3.0,-2.4 -6.0,-6.8 0,-8.0 C6.0,-6.8 3.0,-2.4 0,0 Z" fill="#A8C8A0" /></g><g transform="translate(618.2,455.8) rotate(34.0)"><path d="M0,0 C-2.6,-2.1 -5.3,-6.0 0,-7.1 C5.3,-6.0 2.6,-2.1 0,0 Z" fill="#A8C8A0" /></g><g transform="translate(637.0,465.8) rotate(-5.2)"><path d="M0,0 C-3.8,-3.0 -7.6,-8.6 0,-10.2 C7.6,-8.6 3.8,-3.0 0,0 Z" fill="#A8C8A0" /></g><g transform="translate(611.6,476.1) rotate(36.2)"><path d="M0,0 C-3.5,-2.8 -6.9,-7.9 0,-9.3 C6.9,-7.9 3.5,-2.8 0,0 Z" fill="#A8C8A0" /></g><g transform="translate(630.4,486.2) rotate(-3.0)"><path d="M0,0 C-3.1,-2.5 -6.3,-7.1 0,-8.3 C6.3,-7.1 3.1,-2.5 0,0 Z" fill="#A8C8A0" /></g><g transform="translate(605.0,463.3) rotate(38.4)"><path d="M0,0 C-2.8,-2.2 -5.6,-6.3 0,-7.5 C5.6,-6.3 2.8,-2.2 0,0 Z" fill="#A8C8A0" /></g></g><g><g transform="translate(567.1,500.8) rotate(11.8)"><path d="M0,0 C-3.8,-3.0 -7.6,-8.6 0,-10.1 C7.6,-8.6 3.8,-3.0 0,0 Z" fill="#8EAA88" /></g><g transform="translate(553.3,506.4) rotate(-27.1)"><path d="M0,0 C-3.5,-2.8 -6.9,-7.9 0,-9.2 C6.9,-7.9 3.5,-2.8 0,0 Z" fill="#8EAA88" /></g><g transform="translate(563.5,493.8) rotate(14.0)"><path d="M0,0 C-3.1,-2.5 -6.3,-7.1 0,-8.3 C6.3,-7.1 3.1,-2.5 0,0 Z" fill="#8EAA88" /></g><g transform="translate(549.7,499.4) rotate(-24.9)"><path d="M0,0 C-2.8,-2.2 -5.6,-6.3 0,-7.4 C5.6,-6.3 2.8,-2.2 0,0 Z" fill="#8EAA88" /></g><g transform="translate(560.0,504.9) rotate(16.5)"><path d="M0,0 C-2.4,-2.0 -4.9,-5.5 0,-6.5 C4.9,-5.5 2.4,-2.0 0,0 Z" fill="#8EAA88" /></g></g><g><g transform="translate(528.0,378.4) rotate(-33.4)"><path d="M0,0 C-3.5,-2.8 -6.9,-7.9 0,-9.3 C6.9,-7.9 3.5,-2.8 0,0 Z" fill="#8EAA88" /></g><g transform="translate(491.1,393.3) rotate(7.7)"><path d="M0,0 C-3.1,-2.5 -6.3,-7.1 0,-8.3 C6.3,-7.1 3.1,-2.5 0,0 Z" fill="#8EAA88" /></g><g transform="translate(518.5,359.8) rotate(-31.2)"><path d="M0,0 C-2.8,-2.2 -5.6,-6.3 0,-7.5 C5.6,-6.3 2.8,-2.2 0,0 Z" fill="#8EAA88" /></g><g transform="translate(481.6,374.7) rotate(10.2)"><path d="M0,0 C-2.5,-2.0 -4.9,-5.6 0,-6.5 C4.9,-5.6 2.5,-2.0 0,0 Z" fill="#8EAA88" /></g><g transform="translate(508.9,389.3) rotate(-29.0)"><path d="M0,0 C-3.6,-2.9 -7.2,-8.2 0,-9.6 C7.2,-8.2 3.6,-2.9 0,0 Z" fill="#8EAA88" /></g><g transform="translate(472.0,356.0) rotate(12.4)"><path d="M0,0 C-3.3,-2.6 -6.6,-7.4 0,-8.8 C6.6,-7.4 3.3,-2.6 0,0 Z" fill="#8EAA88" /></g><g transform="translate(499.4,370.7) rotate(-26.8)"><path d="M0,0 C-2.9,-2.4 -5.9,-6.7 0,-7.8 C5.9,-6.7 2.9,-2.4 0,0 Z" fill="#8EAA88" /></g><g transform="translate(526.7,385.4) rotate(14.6)"><path d="M0,0 C-2.6,-2.1 -5.2,-5.9 0,-6.9 C5.2,-5.9 2.6,-2.1 0,0 Z" fill="#8EAA88" /></g><g transform="translate(489.8,352.1) rotate(-24.6)"><path d="M0,0 C-3.8,-3.0 -7.5,-8.5 0,-10.1 C7.5,-8.5 3.8,-3.0 0,0 Z" fill="#8EAA88" /></g><g transform="translate(517.2,366.8) rotate(16.8)"><path d="M0,0 C-3.4,-2.7 -6.9,-7.8 0,-9.1 C6.9,-7.8 3.4,-2.7 0,0 Z" fill="#8EAA88" /></g><g transform="translate(480.3,381.6) rotate(-22.4)"><path d="M0,0 C-3.1,-2.5 -6.2,-7.0 0,-8.2 C6.2,-7.0 3.1,-2.5 0,0 Z" fill="#8EAA88" /></g><g transform="translate(507.7,396.3) rotate(19.0)"><path d="M0,0 C-2.7,-2.2 -5.5,-6.2 0,-7.3 C5.5,-6.2 2.7,-2.2 0,0 Z" fill="#8EAA88" /></g><g transform="translate(470.8,363.0) rotate(-19.9)"><path d="M0,0 C-2.4,-1.9 -4.8,-5.5 0,-6.4 C4.8,-5.5 2.4,-1.9 0,0 Z" fill="#A8C8A0" /></g><g transform="translate(498.1,377.7) rotate(21.2)"><path d="M0,0 C-3.6,-2.9 -7.2,-8.1 0,-9.5 C7.2,-8.1 3.6,-2.9 0,0 Z" fill="#A8C8A0" /></g><g transform="translate(525.5,392.4) rotate(-17.7)"><path d="M0,0 C-3.2,-2.6 -6.5,-7.3 0,-8.6 C6.5,-7.3 3.2,-2.6 0,0 Z" fill="#A8C8A0" /></g><g transform="translate(488.6,359.0) rotate(23.4)"><path d="M0,0 C-2.9,-2.3 -5.8,-6.6 0,-7.7 C5.8,-6.6 2.9,-2.3 0,0 Z" fill="#A8C8A0" /></g></g><path d="M494.0,598.0 Q484.0,602.0 478.0,600.0" stroke="#3D3328" stroke-width="2.6" fill="none" stroke-linecap="round" opacity="0.85" /></svg>